<svg width="13" height="13" viewBox="0 0 13 13" fill="none" xmlns="http://www.w3.org/2000/svg">
<g clip-path="url(#clip0_5_71)">
<path d="M6.44443 1.88052C6.72817 2.18028 7.00132 2.49898 7.26218 2.83434C7.43966 2.76195 7.61793 2.69269 7.79828 2.6288C8.68992 2.31363 9.60774 2.12059 10.5096 2.06567C10.7536 2.05028 10.9962 2.04591 11.2366 2.05028C11.0952 1.89986 10.9475 1.7559 10.7929 1.62026C9.88775 0.825385 8.77001 0.290531 7.57131 0.0897675C7.51078 0.355023 7.41821 0.623377 7.28465 0.87967C7.15029 1.13848 6.97367 1.38291 6.76374 1.59678C6.66474 1.69826 6.55676 1.79295 6.44443 1.88052Z" fill="#352C34"/>
<path d="M10.5599 2.81143C9.73111 2.87219 8.88649 3.05711 8.05708 3.35586C7.94933 3.39476 7.84136 3.43553 7.73358 3.47819C8.14923 4.0819 8.52536 4.73117 8.85176 5.41661C9.1012 5.31695 9.36226 5.23999 9.6331 5.19922C10.0953 5.1264 10.578 5.17009 11.0078 5.30906C11.4397 5.44594 11.8191 5.66145 12.1586 5.89279C12.4613 6.10145 12.7368 6.32301 12.9999 6.5404C13.003 5.98432 12.9346 5.41849 12.7867 4.85345C12.5897 4.10183 12.2693 3.41723 11.8535 2.81372C11.4299 2.7815 10.9976 2.77858 10.5599 2.81143Z" fill="#352C34"/>
<path d="M3.14235 5.96603C3.74376 5.24875 4.42653 4.55955 5.22185 3.9681C5.61939 3.67291 6.03859 3.40892 6.47794 3.188C6.49978 3.17695 6.52164 3.16718 6.54368 3.15636C6.30445 2.85182 6.05501 2.56202 5.79664 2.28825C5.35809 2.51291 4.88273 2.66749 4.40574 2.7742C3.83115 2.90276 3.27113 2.96788 2.73836 3.0355C2.20582 3.10248 1.6976 3.1707 1.2293 3.28804C1.0737 3.32673 0.923289 3.37144 0.777877 3.422C0.420275 4.08665 0.176449 4.81333 0.0668376 5.57035C-0.0542502 6.40539 -0.0138791 7.27703 0.213722 8.14661C0.348699 8.66128 0.542175 9.14433 0.783513 9.59179C1.02066 9.12455 1.28008 8.6565 1.56321 8.18987C2.02148 7.43577 2.54136 6.68497 3.14235 5.96603Z" fill="#352C34"/>
<path d="M6.62482 0.52851C6.71511 0.36375 6.78354 0.189012 6.83576 0.00863687C6.18546 -0.0248534 5.51913 0.0394103 4.85385 0.213539C4.77397 0.234537 4.6949 0.256805 4.6167 0.28052C5.05273 0.594043 5.48084 0.944358 5.89319 1.33149C6.20438 1.11183 6.45859 0.845943 6.62482 0.52851Z" fill="#352C34"/>
<path d="M5.21267 1.70598C4.76267 1.28574 4.29503 0.910669 3.81989 0.580109C2.96133 0.967468 2.21846 1.52685 1.62038 2.20734C1.54299 2.29535 1.46913 2.38584 1.39694 2.47778C2.33558 2.271 3.30728 2.22067 4.2345 2.01305C4.5759 1.93876 4.90687 1.83661 5.21267 1.70598Z" fill="#352C34"/>
<path d="M6.42383 7.59389C6.64082 7.19988 6.91247 6.82313 7.23953 6.4911C7.5158 6.21048 7.82618 5.96853 8.15509 5.768C7.82224 5.06567 7.43821 4.40478 7.01381 3.79317C6.9518 3.82249 6.88982 3.85162 6.82866 3.88221C6.43421 4.08211 6.05292 4.32261 5.68676 4.5945C4.9543 5.13892 4.30856 5.78445 3.73275 6.46304C3.15712 7.14331 2.65078 7.85976 2.19977 8.58184C1.84237 9.15516 1.52014 9.73264 1.2316 10.3064C1.51762 10.7021 1.84529 11.0618 2.20766 11.3799C3.03187 12.1038 4.03251 12.6127 5.10991 12.8496C5.14902 12.6828 5.18378 12.5111 5.21579 12.3359C5.28216 11.9738 5.3379 11.597 5.39762 11.2113C5.51766 10.4399 5.6483 9.62694 5.9098 8.8071C6.04063 8.39814 6.20623 7.9881 6.42383 7.59389Z" fill="#352C34"/>
<path d="M8.47359 6.48697C8.22936 6.64508 8.00155 6.82918 7.7954 7.03825C7.24681 7.59225 6.88548 8.30247 6.64394 9.04513C6.40032 9.79009 6.26468 10.5656 6.13572 11.3303C6.07123 11.7133 6.00882 12.095 5.93267 12.4739C5.89961 12.638 5.86381 12.8017 5.82367 12.9646C6.58089 13.0441 7.36455 12.9913 8.14676 12.7866C8.72841 12.6343 9.26971 12.4079 9.7644 12.1209C9.71697 11.5442 9.64831 10.9536 9.54972 10.3518C9.3419 9.08486 9.0028 7.77031 8.47359 6.48697Z" fill="#352C34"/>
<path d="M10.7813 6.03638C10.4476 5.93319 10.1004 5.90574 9.75109 5.9619C9.55573 5.99268 9.36063 6.04948 9.16736 6.12583C9.73758 7.49717 10.0883 8.89762 10.2882 10.2359C10.3604 10.7194 10.4135 11.1949 10.4509 11.6611C10.79 11.4011 11.1012 11.1104 11.38 10.7928C12.2063 9.85205 12.7524 8.68188 12.9338 7.42974C12.9342 7.42786 12.9342 7.42598 12.9346 7.42433C12.536 7.10979 12.1522 6.78608 11.7407 6.51296C11.4353 6.31034 11.1158 6.13809 10.7813 6.03638Z" fill="#352C34"/>
</g>
<defs>
<clipPath id="clip0_5_71">
<rect width="13" height="13" fill="white"/>
</clipPath>
</defs>
</svg>
