<svg width="33" height="33" viewBox="0 0 33 33" fill="none" xmlns="http://www.w3.org/2000/svg">
<g clip-path="url(#clip0_65_336)">
<path d="M16.3589 4.77359C17.0792 5.53453 17.7725 6.34354 18.4347 7.19484C18.8853 7.01108 19.3378 6.83526 19.7956 6.67309C22.059 5.87303 24.3888 5.383 26.6781 5.24359C27.2975 5.20453 27.9133 5.19344 28.5237 5.20453C28.1646 4.82271 27.7896 4.45726 27.3973 4.11295C25.0996 2.09518 22.2623 0.737475 19.2194 0.227844C19.0658 0.901186 18.8308 1.58239 18.4918 2.23298C18.1507 2.88995 17.7023 3.51044 17.1694 4.05333C16.9181 4.31095 16.644 4.55129 16.3589 4.77359Z" fill="#E95A30"/>
<path d="M26.8059 7.13671C24.702 7.29094 22.558 7.76036 20.4525 8.51871C20.179 8.61745 19.905 8.72096 19.6313 8.82925C20.6864 10.3617 21.6413 12.0099 22.4698 13.7499C23.103 13.4969 23.7657 13.3015 24.4532 13.198C25.6266 13.0132 26.8518 13.1241 27.9428 13.4768C29.0391 13.8243 30.0023 14.3714 30.8642 14.9586C31.6325 15.4883 32.3317 16.0507 32.9997 16.6025C33.0076 15.191 32.8339 13.7546 32.4584 12.3203C31.9583 10.4123 31.1451 8.67449 30.0895 7.14251C29.0143 7.06072 27.9169 7.0533 26.8059 7.13671Z" fill="#E95A30"/>
<path d="M7.97667 15.1446C9.5033 13.3238 11.2365 11.5742 13.2554 10.0729C14.2645 9.32354 15.3286 8.65342 16.4439 8.09262C16.4994 8.06458 16.5549 8.03976 16.6108 8.01231C16.0035 7.23926 15.3703 6.50359 14.7145 5.80865C13.6012 6.37894 12.3945 6.77133 11.1837 7.04222C9.72515 7.36855 8.30357 7.53387 6.95115 7.70551C5.59931 7.87554 4.30922 8.04872 3.12044 8.34656C2.72548 8.44479 2.34366 8.55829 1.97453 8.68662C1.06677 10.3738 0.447831 12.2185 0.169587 14.1401C-0.13779 16.2599 -0.0353091 18.4725 0.542449 20.6799C0.885081 21.9863 1.37621 23.2125 1.98884 24.3484C2.59083 23.1623 3.24935 21.9742 3.96807 20.7897C5.13138 18.8754 6.45106 16.9696 7.97667 15.1446Z" fill="#E95A30"/>
<path d="M16.8168 1.3416C17.046 0.923362 17.2197 0.479796 17.3522 0.0219209C15.7015 -0.0630928 14.01 0.100038 12.3212 0.542058C12.1185 0.59536 11.9178 0.651886 11.7192 0.712085C12.8261 1.50795 13.9128 2.39721 14.9596 3.37993C15.7495 2.82234 16.3948 2.14739 16.8168 1.3416Z" fill="#E95A30"/>
<path d="M13.232 4.33055C12.0897 3.26378 10.9026 2.31168 9.69647 1.47256C7.51705 2.45586 5.63128 3.87583 4.11309 5.60324C3.91663 5.82663 3.72914 6.05634 3.5459 6.28973C5.9286 5.76482 8.39522 5.63707 10.7489 5.11004C11.6156 4.92145 12.4557 4.66216 13.232 4.33055Z" fill="#E95A30"/>
<path d="M16.3065 19.2768C16.8573 18.2766 17.5469 17.3202 18.3771 16.4774C19.0784 15.765 19.8663 15.1509 20.7012 14.6418C19.8563 12.859 18.8815 11.1813 17.8041 9.62878C17.6467 9.70323 17.4894 9.77716 17.3341 9.85482C16.3329 10.3623 15.365 10.9728 14.4355 11.6629C12.5761 13.0449 10.937 14.6836 9.47531 16.4062C8.01409 18.133 6.72876 19.9517 5.58388 21.7846C4.67664 23.24 3.85867 24.7059 3.12622 26.1624C3.85229 27.1668 4.68405 28.0799 5.60393 28.8873C7.69614 30.725 10.2362 32.0167 12.9712 32.6182C13.0704 32.1947 13.1587 31.759 13.2399 31.3143C13.4084 30.3949 13.5499 29.4386 13.7015 28.4595C14.0062 26.5014 14.3378 24.4376 15.0016 22.3565C15.3338 21.3183 15.7541 20.2775 16.3065 19.2768Z" fill="#E95A30"/>
<path d="M21.5097 16.4669C20.8897 16.8683 20.3114 17.3356 19.7881 17.8663C18.3956 19.2726 17.4783 21.0755 16.8652 22.9607C16.2468 24.8517 15.9024 26.8204 15.5751 28.7616C15.4114 29.7338 15.253 30.7028 15.0597 31.6644C14.9757 32.0811 14.8849 32.4967 14.783 32.9102C16.7051 33.1119 18.6944 32.9778 20.68 32.4582C22.1565 32.0716 23.5306 31.4971 24.7863 30.7683C24.6659 29.3045 24.4917 27.8053 24.2414 26.2775C23.7138 23.0616 22.8531 19.7246 21.5097 16.4669Z" fill="#E95A30"/>
<path d="M27.3677 15.3231C26.5206 15.0612 25.6392 14.9915 24.7525 15.1341C24.2566 15.2122 23.7614 15.3564 23.2708 15.5502C24.7182 19.0313 25.6085 22.5863 26.116 25.9834C26.2993 27.2107 26.4339 28.4179 26.529 29.6013C27.3898 28.9411 28.1798 28.2034 28.8874 27.397C30.985 25.0091 32.3711 22.0386 32.8317 18.8601C32.8327 18.8553 32.8327 18.8506 32.8338 18.8464C31.822 18.0479 30.8477 17.2262 29.8031 16.5329C29.0279 16.0186 28.2168 15.5813 27.3677 15.3231Z" fill="#E95A30"/>
</g>
<defs>
<clipPath id="clip0_65_336">
<rect width="33" height="33" fill="white"/>
</clipPath>
</defs>
</svg>
