<svg width="495" height="391" viewBox="0 0 495 391" fill="none" xmlns="http://www.w3.org/2000/svg">
<path d="M492.947 347.239H2.05835V347.485H492.947V347.239Z" fill="#EBEBEB"/>
<path d="M443.76 363.059H411.244V363.305H443.76V363.059Z" fill="#EBEBEB"/>
<path d="M327.242 365.733H318.712V365.979H327.242V365.733Z" fill="#EBEBEB"/>
<path d="M410.261 353.932H391.421V354.178H410.261V353.932Z" fill="#EBEBEB"/>
<path d="M95.9629 355.587H53.5618V355.833H95.9629V355.587Z" fill="#EBEBEB"/>
<path d="M110.926 355.587H104.711V355.833H110.926V355.587Z" fill="#EBEBEB"/>
<path d="M223.103 359.732H131.131V359.978H223.103V359.732Z" fill="#EBEBEB"/>
<path d="M234.739 303.386H45.1685C43.6834 303.384 42.2597 302.792 41.2102 301.74C40.1606 300.688 39.571 299.262 39.571 297.775V30.9186C39.5801 29.4379 40.1738 28.0209 41.2226 26.9771C42.2713 25.9333 43.6899 25.3475 45.1685 25.3475H234.739C236.225 25.3475 237.65 25.9387 238.701 26.991C239.751 28.0433 240.342 29.4705 240.342 30.9587V297.775C240.342 299.263 239.751 300.69 238.701 301.742C237.65 302.795 236.225 303.386 234.739 303.386ZM45.1685 25.5422C44.4645 25.5429 43.7675 25.6826 43.1175 25.9533C42.4674 26.224 41.877 26.6203 41.38 27.1196C40.8829 27.6189 40.4891 28.2115 40.2209 28.8633C39.9527 29.5152 39.8154 30.2136 39.8169 30.9186V297.775C39.8169 299.197 40.3805 300.56 41.384 301.566C42.3875 302.572 43.7486 303.138 45.1685 303.14H234.739C236.159 303.138 237.521 302.572 238.525 301.567C239.529 300.561 240.094 299.197 240.096 297.775V30.9186C240.094 29.4962 239.529 28.1325 238.525 27.1267C237.521 26.1209 236.159 25.5552 234.739 25.5536L45.1685 25.5422Z" fill="#EBEBEB"/>
<path d="M447.11 303.386H257.523C256.038 303.383 254.614 302.791 253.564 301.739C252.514 300.687 251.923 299.262 251.92 297.775V30.9186C251.936 29.4403 252.533 28.028 253.582 26.9875C254.631 25.947 256.047 25.3619 257.523 25.359H447.11C448.584 25.3635 449.996 25.9497 451.041 26.9906C452.086 28.0314 452.678 29.4429 452.69 30.9186V297.775C452.69 299.259 452.103 300.683 451.057 301.734C450.011 302.786 448.592 303.38 447.11 303.386ZM257.523 25.5422C256.817 25.5407 256.117 25.6786 255.465 25.9482C254.812 26.2177 254.219 26.6135 253.719 27.1129C253.219 27.6123 252.823 28.2054 252.552 28.8585C252.282 29.5115 252.143 30.2116 252.143 30.9186V297.775C252.146 299.197 252.711 300.56 253.715 301.565C254.719 302.57 256.08 303.137 257.5 303.14H447.11C448.531 303.138 449.893 302.573 450.899 301.567C451.904 300.561 452.47 299.198 452.473 297.775V30.9186C452.473 29.4937 451.908 28.127 450.903 27.1189C449.897 26.1108 448.533 25.5437 447.11 25.5422H257.523Z" fill="#EBEBEB"/>
<path d="M439.363 86.4805H201.497V316.091H439.363V86.4805Z" fill="#E0E0E0"/>
<path d="M439.363 90.6487H205.316V312.077H439.363V90.6487Z" fill="#F5F5F5"/>
<path d="M207.043 258.457V191.844H213.944V183.044L229.496 175.772V166.766H232.086V191.844H234.681V258.457H238.135V223.851H245.911V205.689H248.501V258.457H254.538V238.554H258.861V233.367H268.363V215.205H273.549V203.095H279.592V184.928H282.188V203.095H288.237V215.205H293.412V233.367H302.914V238.554H307.231V258.457H312.417V233.367H321.919V178.011H324.515V171.953H345.235V178.011H349.558V217.804H366.836V222.116H372.874V224.715H366.836V240.289H384.972V188.386H388.425V178.011H397.065V138.223H399.655V178.011H405.704V188.386H439.363V312.077H205.316V258.457H207.043Z" fill="#E6E6E6"/>
<path d="M421.376 191.1H418.928V193.55H421.376V191.1Z" fill="#F0F0F0"/>
<path d="M421.376 195.211H418.928V197.661H421.376V195.211Z" fill="#F0F0F0"/>
<path d="M421.376 211.649H418.928V214.1H421.376V211.649Z" fill="#F0F0F0"/>
<path d="M421.376 215.749H418.928V218.199H421.376V215.749Z" fill="#F0F0F0"/>
<path d="M421.376 219.854H418.928V222.305H421.376V219.854Z" fill="#F0F0F0"/>
<path d="M421.376 232.187H418.928V234.638H421.376V232.187Z" fill="#F0F0F0"/>
<path d="M421.376 236.298H418.928V238.749H421.376V236.298Z" fill="#F0F0F0"/>
<path d="M417.488 207.538H415.041V209.989H417.488V207.538Z" fill="#F0F0F0"/>
<path d="M417.488 211.649H415.041V214.1H417.488V211.649Z" fill="#F0F0F0"/>
<path d="M417.488 215.749H415.041V218.199H417.488V215.749Z" fill="#F0F0F0"/>
<path d="M417.488 219.854H415.041V222.305H417.488V219.854Z" fill="#F0F0F0"/>
<path d="M417.488 223.965H415.041V226.416H417.488V223.965Z" fill="#F0F0F0"/>
<path d="M417.488 232.187H415.041V234.638H417.488V232.187Z" fill="#F0F0F0"/>
<path d="M417.488 236.298H415.041V238.749H417.488V236.298Z" fill="#F0F0F0"/>
<path d="M413.6 191.1H411.153V193.55H413.6V191.1Z" fill="#F0F0F0"/>
<path d="M413.6 195.211H411.153V197.661H413.6V195.211Z" fill="#F0F0F0"/>
<path d="M413.6 199.316H411.153V201.767H413.6V199.316Z" fill="#F0F0F0"/>
<path d="M413.6 203.427H411.153V205.878H413.6V203.427Z" fill="#F0F0F0"/>
<path d="M413.6 207.538H411.153V209.989H413.6V207.538Z" fill="#F0F0F0"/>
<path d="M413.6 211.649H411.153V214.1H413.6V211.649Z" fill="#F0F0F0"/>
<path d="M413.6 215.749H411.153V218.199H413.6V215.749Z" fill="#F0F0F0"/>
<path d="M413.6 219.854H411.153V222.305H413.6V219.854Z" fill="#F0F0F0"/>
<path d="M413.6 223.965H411.153V226.416H413.6V223.965Z" fill="#F0F0F0"/>
<path d="M413.6 228.076H411.153V230.527H413.6V228.076Z" fill="#F0F0F0"/>
<path d="M413.6 236.298H411.153V238.749H413.6V236.298Z" fill="#F0F0F0"/>
<path d="M409.712 191.1H407.265V193.55H409.712V191.1Z" fill="#F0F0F0"/>
<path d="M409.712 195.211H407.265V197.661H409.712V195.211Z" fill="#F0F0F0"/>
<path d="M409.712 199.316H407.265V201.767H409.712V199.316Z" fill="#F0F0F0"/>
<path d="M409.712 203.427H407.265V205.878H409.712V203.427Z" fill="#F0F0F0"/>
<path d="M409.712 207.538H407.265V209.989H409.712V207.538Z" fill="#F0F0F0"/>
<path d="M409.712 211.649H407.265V214.1H409.712V211.649Z" fill="#F0F0F0"/>
<path d="M409.712 215.749H407.265V218.199H409.712V215.749Z" fill="#F0F0F0"/>
<path d="M409.712 252.737H407.265V255.187H409.712V252.737Z" fill="#F0F0F0"/>
<path d="M405.824 191.1H403.377V193.55H405.824V191.1Z" fill="#F0F0F0"/>
<path d="M405.824 195.211H403.377V197.661H405.824V195.211Z" fill="#F0F0F0"/>
<path d="M405.824 199.316H403.377V201.767H405.824V199.316Z" fill="#F0F0F0"/>
<path d="M405.824 203.427H403.377V205.878H405.824V203.427Z" fill="#F0F0F0"/>
<path d="M405.824 207.538H403.377V209.989H405.824V207.538Z" fill="#F0F0F0"/>
<path d="M405.824 211.649H403.377V214.1H405.824V211.649Z" fill="#F0F0F0"/>
<path d="M405.824 215.749H403.377V218.199H405.824V215.749Z" fill="#F0F0F0"/>
<path d="M405.824 219.854H403.377V222.305H405.824V219.854Z" fill="#F0F0F0"/>
<path d="M405.824 244.515H403.377V246.965H405.824V244.515Z" fill="#F0F0F0"/>
<path d="M405.824 248.626H403.377V251.076H405.824V248.626Z" fill="#F0F0F0"/>
<path d="M405.824 252.737H403.377V255.187H405.824V252.737Z" fill="#F0F0F0"/>
<path d="M405.824 256.836H403.377V259.287H405.824V256.836Z" fill="#F0F0F0"/>
<path d="M405.824 273.275H403.377V275.725H405.824V273.275Z" fill="#F0F0F0"/>
<path d="M401.936 191.1H399.489V193.55H401.936V191.1Z" fill="#F0F0F0"/>
<path d="M401.936 195.211H399.489V197.661H401.936V195.211Z" fill="#F0F0F0"/>
<path d="M401.936 199.316H399.489V201.767H401.936V199.316Z" fill="#F0F0F0"/>
<path d="M401.936 203.427H399.489V205.878H401.936V203.427Z" fill="#F0F0F0"/>
<path d="M401.936 207.538H399.489V209.989H401.936V207.538Z" fill="#F0F0F0"/>
<path d="M401.936 211.649H399.489V214.1H401.936V211.649Z" fill="#F0F0F0"/>
<path d="M401.936 215.749H399.489V218.199H401.936V215.749Z" fill="#F0F0F0"/>
<path d="M401.936 219.854H399.489V222.305H401.936V219.854Z" fill="#F0F0F0"/>
<path d="M401.936 223.965H399.489V226.416H401.936V223.965Z" fill="#F0F0F0"/>
<path d="M401.936 228.076H399.489V230.527H401.936V228.076Z" fill="#F0F0F0"/>
<path d="M401.936 240.404H399.489V242.854H401.936V240.404Z" fill="#F0F0F0"/>
<path d="M401.936 244.515H399.489V246.965H401.936V244.515Z" fill="#F0F0F0"/>
<path d="M401.936 248.626H399.489V251.076H401.936V248.626Z" fill="#F0F0F0"/>
<path d="M401.936 252.737H399.489V255.187H401.936V252.737Z" fill="#F0F0F0"/>
<path d="M401.936 256.836H399.489V259.287H401.936V256.836Z" fill="#F0F0F0"/>
<path d="M401.936 273.275H399.489V275.725H401.936V273.275Z" fill="#F0F0F0"/>
<path d="M398.048 191.1H395.601V193.55H398.048V191.1Z" fill="#F0F0F0"/>
<path d="M398.048 195.211H395.601V197.661H398.048V195.211Z" fill="#F0F0F0"/>
<path d="M398.048 199.316H395.601V201.767H398.048V199.316Z" fill="#F0F0F0"/>
<path d="M398.048 203.427H395.601V205.878H398.048V203.427Z" fill="#F0F0F0"/>
<path d="M398.048 207.538H395.601V209.989H398.048V207.538Z" fill="#F0F0F0"/>
<path d="M398.048 211.649H395.601V214.1H398.048V211.649Z" fill="#F0F0F0"/>
<path d="M398.048 215.749H395.601V218.199H398.048V215.749Z" fill="#F0F0F0"/>
<path d="M398.048 219.854H395.601V222.305H398.048V219.854Z" fill="#F0F0F0"/>
<path d="M398.048 223.965H395.601V226.416H398.048V223.965Z" fill="#F0F0F0"/>
<path d="M398.048 228.076H395.601V230.527H398.048V228.076Z" fill="#F0F0F0"/>
<path d="M398.048 232.187H395.601V234.638H398.048V232.187Z" fill="#F0F0F0"/>
<path d="M398.048 236.298H395.601V238.749H398.048V236.298Z" fill="#F0F0F0"/>
<path d="M398.048 240.404H395.601V242.854H398.048V240.404Z" fill="#F0F0F0"/>
<path d="M398.048 244.515H395.601V246.965H398.048V244.515Z" fill="#F0F0F0"/>
<path d="M398.048 248.626H395.601V251.076H398.048V248.626Z" fill="#F0F0F0"/>
<path d="M398.048 252.737H395.601V255.187H398.048V252.737Z" fill="#F0F0F0"/>
<path d="M398.048 256.836H395.601V259.287H398.048V256.836Z" fill="#F0F0F0"/>
<path d="M398.048 260.941H395.601V263.392H398.048V260.941Z" fill="#F0F0F0"/>
<path d="M394.16 191.1H391.713V193.55H394.16V191.1Z" fill="#F0F0F0"/>
<path d="M394.16 195.211H391.713V197.661H394.16V195.211Z" fill="#F0F0F0"/>
<path d="M394.16 199.316H391.713V201.767H394.16V199.316Z" fill="#F0F0F0"/>
<path d="M394.16 203.427H391.713V205.878H394.16V203.427Z" fill="#F0F0F0"/>
<path d="M394.16 207.538H391.713V209.989H394.16V207.538Z" fill="#F0F0F0"/>
<path d="M394.16 211.649H391.713V214.1H394.16V211.649Z" fill="#F0F0F0"/>
<path d="M394.16 215.749H391.713V218.199H394.16V215.749Z" fill="#F0F0F0"/>
<path d="M394.16 219.854H391.713V222.305H394.16V219.854Z" fill="#F0F0F0"/>
<path d="M394.16 223.965H391.713V226.416H394.16V223.965Z" fill="#F0F0F0"/>
<path d="M394.16 228.076H391.713V230.527H394.16V228.076Z" fill="#F0F0F0"/>
<path d="M394.16 240.404H391.713V242.854H394.16V240.404Z" fill="#F0F0F0"/>
<path d="M394.16 244.515H391.713V246.965H394.16V244.515Z" fill="#F0F0F0"/>
<path d="M394.16 248.626H391.713V251.076H394.16V248.626Z" fill="#F0F0F0"/>
<path d="M394.16 252.737H391.713V255.187H394.16V252.737Z" fill="#F0F0F0"/>
<path d="M390.284 191.1H387.836V193.55H390.284V191.1Z" fill="#F0F0F0"/>
<path d="M390.284 195.211H387.836V197.661H390.284V195.211Z" fill="#F0F0F0"/>
<path d="M390.284 199.316H387.836V201.767H390.284V199.316Z" fill="#F0F0F0"/>
<path d="M390.284 203.427H387.836V205.878H390.284V203.427Z" fill="#F0F0F0"/>
<path d="M390.284 207.538H387.836V209.989H390.284V207.538Z" fill="#F0F0F0"/>
<path d="M390.284 211.649H387.836V214.1H390.284V211.649Z" fill="#F0F0F0"/>
<path d="M390.284 215.749H387.836V218.199H390.284V215.749Z" fill="#F0F0F0"/>
<path d="M390.284 219.854H387.836V222.305H390.284V219.854Z" fill="#F0F0F0"/>
<path d="M390.284 223.965H387.836V226.416H390.284V223.965Z" fill="#F0F0F0"/>
<path d="M390.284 228.076H387.836V230.527H390.284V228.076Z" fill="#F0F0F0"/>
<path d="M390.284 240.404H387.836V242.854H390.284V240.404Z" fill="#F0F0F0"/>
<path d="M390.284 244.515H387.836V246.965H390.284V244.515Z" fill="#F0F0F0"/>
<path d="M390.284 248.626H387.836V251.076H390.284V248.626Z" fill="#F0F0F0"/>
<path d="M346.516 180.433H344.069V182.884H346.516V180.433Z" fill="#F0F0F0"/>
<path d="M346.516 184.538H344.069V186.989H346.516V184.538Z" fill="#F0F0F0"/>
<path d="M346.516 188.649H344.069V191.1H346.516V188.649Z" fill="#F0F0F0"/>
<path d="M346.516 192.76H344.069V195.211H346.516V192.76Z" fill="#F0F0F0"/>
<path d="M346.516 196.871H344.069V199.322H346.516V196.871Z" fill="#F0F0F0"/>
<path d="M346.516 200.982H344.069V203.433H346.516V200.982Z" fill="#F0F0F0"/>
<path d="M346.516 205.082H344.069V207.532H346.516V205.082Z" fill="#F0F0F0"/>
<path d="M346.516 209.187H344.069V211.638H346.516V209.187Z" fill="#F0F0F0"/>
<path d="M346.516 221.52H344.069V223.971H346.516V221.52Z" fill="#F0F0F0"/>
<path d="M346.516 225.626H344.069V228.076H346.516V225.626Z" fill="#F0F0F0"/>
<path d="M342.628 180.433H340.181V182.884H342.628V180.433Z" fill="#F0F0F0"/>
<path d="M342.628 184.538H340.181V186.989H342.628V184.538Z" fill="#F0F0F0"/>
<path d="M342.628 188.649H340.181V191.1H342.628V188.649Z" fill="#F0F0F0"/>
<path d="M342.628 192.76H340.181V195.211H342.628V192.76Z" fill="#F0F0F0"/>
<path d="M342.628 196.871H340.181V199.322H342.628V196.871Z" fill="#F0F0F0"/>
<path d="M342.628 200.982H340.181V203.433H342.628V200.982Z" fill="#F0F0F0"/>
<path d="M342.628 205.082H340.181V207.532H342.628V205.082Z" fill="#F0F0F0"/>
<path d="M342.628 209.187H340.181V211.638H342.628V209.187Z" fill="#F0F0F0"/>
<path d="M342.628 225.626H340.181V228.076H342.628V225.626Z" fill="#F0F0F0"/>
<path d="M338.74 180.433H336.293V182.884H338.74V180.433Z" fill="#F0F0F0"/>
<path d="M338.74 184.538H336.293V186.989H338.74V184.538Z" fill="#F0F0F0"/>
<path d="M338.74 188.649H336.293V191.1H338.74V188.649Z" fill="#F0F0F0"/>
<path d="M338.74 192.76H336.293V195.211H338.74V192.76Z" fill="#F0F0F0"/>
<path d="M338.74 196.871H336.293V199.322H338.74V196.871Z" fill="#F0F0F0"/>
<path d="M338.74 200.982H336.293V203.433H338.74V200.982Z" fill="#F0F0F0"/>
<path d="M338.74 205.082H336.293V207.532H338.74V205.082Z" fill="#F0F0F0"/>
<path d="M338.74 209.187H336.293V211.638H338.74V209.187Z" fill="#F0F0F0"/>
<path d="M334.852 180.433H332.405V182.884H334.852V180.433Z" fill="#F0F0F0"/>
<path d="M334.852 184.538H332.405V186.989H334.852V184.538Z" fill="#F0F0F0"/>
<path d="M334.852 188.649H332.405V191.1H334.852V188.649Z" fill="#F0F0F0"/>
<path d="M334.852 192.76H332.405V195.211H334.852V192.76Z" fill="#F0F0F0"/>
<path d="M334.852 196.871H332.405V199.322H334.852V196.871Z" fill="#F0F0F0"/>
<path d="M334.852 200.982H332.405V203.433H334.852V200.982Z" fill="#F0F0F0"/>
<path d="M334.852 209.187H332.405V211.638H334.852V209.187Z" fill="#F0F0F0"/>
<path d="M334.852 213.298H332.405V215.749H334.852V213.298Z" fill="#F0F0F0"/>
<path d="M334.852 225.626H332.405V228.076H334.852V225.626Z" fill="#F0F0F0"/>
<path d="M334.852 229.737H332.405V232.187H334.852V229.737Z" fill="#F0F0F0"/>
<path d="M334.852 233.848H332.405V236.298H334.852V233.848Z" fill="#F0F0F0"/>
<path d="M334.852 237.959H332.405V240.409H334.852V237.959Z" fill="#F0F0F0"/>
<path d="M334.852 242.064H332.405V244.515H334.852V242.064Z" fill="#F0F0F0"/>
<path d="M334.852 246.169H332.405V248.62H334.852V246.169Z" fill="#F0F0F0"/>
<path d="M334.852 250.275H332.405V252.725H334.852V250.275Z" fill="#F0F0F0"/>
<path d="M330.964 180.433H328.517V182.884H330.964V180.433Z" fill="#F0F0F0"/>
<path d="M330.964 184.538H328.517V186.989H330.964V184.538Z" fill="#F0F0F0"/>
<path d="M330.964 188.649H328.517V191.1H330.964V188.649Z" fill="#F0F0F0"/>
<path d="M330.964 192.76H328.517V195.211H330.964V192.76Z" fill="#F0F0F0"/>
<path d="M330.964 196.871H328.517V199.322H330.964V196.871Z" fill="#F0F0F0"/>
<path d="M330.964 200.982H328.517V203.433H330.964V200.982Z" fill="#F0F0F0"/>
<path d="M330.964 213.298H328.517V215.749H330.964V213.298Z" fill="#F0F0F0"/>
<path d="M330.964 217.409H328.517V219.86H330.964V217.409Z" fill="#F0F0F0"/>
<path d="M330.964 221.52H328.517V223.971H330.964V221.52Z" fill="#F0F0F0"/>
<path d="M330.964 225.626H328.517V228.076H330.964V225.626Z" fill="#F0F0F0"/>
<path d="M330.964 229.737H328.517V232.187H330.964V229.737Z" fill="#F0F0F0"/>
<path d="M330.964 233.848H328.517V236.298H330.964V233.848Z" fill="#F0F0F0"/>
<path d="M330.964 237.959H328.517V240.409H330.964V237.959Z" fill="#F0F0F0"/>
<path d="M330.964 242.064H328.517V244.515H330.964V242.064Z" fill="#F0F0F0"/>
<path d="M330.964 246.169H328.517V248.62H330.964V246.169Z" fill="#F0F0F0"/>
<path d="M330.964 250.275H328.517V252.725H330.964V250.275Z" fill="#F0F0F0"/>
<path d="M330.964 254.386H328.517V256.836H330.964V254.386Z" fill="#F0F0F0"/>
<path d="M330.964 262.608H328.517V265.058H330.964V262.608Z" fill="#F0F0F0"/>
<path d="M327.076 180.433H324.629V182.884H327.076V180.433Z" fill="#F0F0F0"/>
<path d="M327.076 184.538H324.629V186.989H327.076V184.538Z" fill="#F0F0F0"/>
<path d="M327.076 188.649H324.629V191.1H327.076V188.649Z" fill="#F0F0F0"/>
<path d="M327.076 192.76H324.629V195.211H327.076V192.76Z" fill="#F0F0F0"/>
<path d="M327.076 196.871H324.629V199.322H327.076V196.871Z" fill="#F0F0F0"/>
<path d="M327.076 200.982H324.629V203.433H327.076V200.982Z" fill="#F0F0F0"/>
<path d="M327.076 213.298H324.629V215.749H327.076V213.298Z" fill="#F0F0F0"/>
<path d="M327.076 217.409H324.629V219.86H327.076V217.409Z" fill="#F0F0F0"/>
<path d="M327.076 221.52H324.629V223.971H327.076V221.52Z" fill="#F0F0F0"/>
<path d="M327.076 225.626H324.629V228.076H327.076V225.626Z" fill="#F0F0F0"/>
<path d="M327.076 237.959H324.629V240.409H327.076V237.959Z" fill="#F0F0F0"/>
<path d="M327.076 242.064H324.629V244.515H327.076V242.064Z" fill="#F0F0F0"/>
<path d="M327.076 246.169H324.629V248.62H327.076V246.169Z" fill="#F0F0F0"/>
<path d="M327.076 250.275H324.629V252.725H327.076V250.275Z" fill="#F0F0F0"/>
<path d="M327.076 254.386H324.629V256.836H327.076V254.386Z" fill="#F0F0F0"/>
<path d="M327.076 262.608H324.629V265.058H327.076V262.608Z" fill="#F0F0F0"/>
<path d="M327.076 266.713H324.629V269.164H327.076V266.713Z" fill="#F0F0F0"/>
<path d="M291.811 218.64H289.364V221.091H291.811V218.64Z" fill="#F0F0F0"/>
<path d="M291.811 222.746H289.364V225.196H291.811V222.746Z" fill="#F0F0F0"/>
<path d="M291.811 226.857H289.364V229.307H291.811V226.857Z" fill="#F0F0F0"/>
<path d="M291.811 230.956H289.364V233.407H291.811V230.956Z" fill="#F0F0F0"/>
<path d="M291.811 235.067H289.364V237.518H291.811V235.067Z" fill="#F0F0F0"/>
<path d="M291.811 239.178H289.364V241.629H291.811V239.178Z" fill="#F0F0F0"/>
<path d="M291.811 243.284H289.364V245.734H291.811V243.284Z" fill="#F0F0F0"/>
<path d="M291.811 255.617H289.364V258.067H291.811V255.617Z" fill="#F0F0F0"/>
<path d="M291.811 259.722H289.364V262.173H291.811V259.722Z" fill="#F0F0F0"/>
<path d="M291.811 263.833H289.364V266.284H291.811V263.833Z" fill="#F0F0F0"/>
<path d="M287.923 218.64H285.476V221.091H287.923V218.64Z" fill="#F0F0F0"/>
<path d="M287.923 222.746H285.476V225.196H287.923V222.746Z" fill="#F0F0F0"/>
<path d="M287.923 226.857H285.476V229.307H287.923V226.857Z" fill="#F0F0F0"/>
<path d="M287.923 230.956H285.476V233.407H287.923V230.956Z" fill="#F0F0F0"/>
<path d="M287.923 235.067H285.476V237.518H287.923V235.067Z" fill="#F0F0F0"/>
<path d="M287.923 239.178H285.476V241.629H287.923V239.178Z" fill="#F0F0F0"/>
<path d="M287.923 243.284H285.476V245.734H287.923V243.284Z" fill="#F0F0F0"/>
<path d="M284.035 218.64H281.588V221.091H284.035V218.64Z" fill="#F0F0F0"/>
<path d="M284.035 222.746H281.588V225.196H284.035V222.746Z" fill="#F0F0F0"/>
<path d="M284.035 226.857H281.588V229.307H284.035V226.857Z" fill="#F0F0F0"/>
<path d="M284.035 230.956H281.588V233.407H284.035V230.956Z" fill="#F0F0F0"/>
<path d="M284.035 235.067H281.588V237.518H284.035V235.067Z" fill="#F0F0F0"/>
<path d="M284.035 239.178H281.588V241.629H284.035V239.178Z" fill="#F0F0F0"/>
<path d="M284.035 243.284H281.588V245.734H284.035V243.284Z" fill="#F0F0F0"/>
<path d="M280.147 218.64H277.7V221.091H280.147V218.64Z" fill="#F0F0F0"/>
<path d="M280.147 222.746H277.7V225.196H280.147V222.746Z" fill="#F0F0F0"/>
<path d="M280.147 226.857H277.7V229.307H280.147V226.857Z" fill="#F0F0F0"/>
<path d="M280.147 230.956H277.7V233.407H280.147V230.956Z" fill="#F0F0F0"/>
<path d="M280.147 235.067H277.7V237.518H280.147V235.067Z" fill="#F0F0F0"/>
<path d="M280.147 239.178H277.7V241.629H280.147V239.178Z" fill="#F0F0F0"/>
<path d="M280.147 243.284H277.7V245.734H280.147V243.284Z" fill="#F0F0F0"/>
<path d="M280.147 247.395H277.7V249.845H280.147V247.395Z" fill="#F0F0F0"/>
<path d="M280.147 251.506H277.7V253.956H280.147V251.506Z" fill="#F0F0F0"/>
<path d="M280.147 255.617H277.7V258.067H280.147V255.617Z" fill="#F0F0F0"/>
<path d="M280.147 259.722H277.7V262.173H280.147V259.722Z" fill="#F0F0F0"/>
<path d="M276.259 218.64H273.812V221.091H276.259V218.64Z" fill="#F0F0F0"/>
<path d="M276.259 222.746H273.812V225.196H276.259V222.746Z" fill="#F0F0F0"/>
<path d="M276.259 226.857H273.812V229.307H276.259V226.857Z" fill="#F0F0F0"/>
<path d="M276.259 230.956H273.812V233.407H276.259V230.956Z" fill="#F0F0F0"/>
<path d="M276.259 235.067H273.812V237.518H276.259V235.067Z" fill="#F0F0F0"/>
<path d="M276.259 239.178H273.812V241.629H276.259V239.178Z" fill="#F0F0F0"/>
<path d="M276.259 243.284H273.812V245.734H276.259V243.284Z" fill="#F0F0F0"/>
<path d="M276.259 247.395H273.812V249.845H276.259V247.395Z" fill="#F0F0F0"/>
<path d="M276.259 251.506H273.812V253.956H276.259V251.506Z" fill="#F0F0F0"/>
<path d="M276.259 255.617H273.812V258.067H276.259V255.617Z" fill="#F0F0F0"/>
<path d="M276.259 259.722H273.812V262.173H276.259V259.722Z" fill="#F0F0F0"/>
<path d="M276.259 263.833H273.812V266.284H276.259V263.833Z" fill="#F0F0F0"/>
<path d="M276.259 276.155H273.812V278.605H276.259V276.155Z" fill="#F0F0F0"/>
<path d="M276.259 280.266H273.812V282.716H276.259V280.266Z" fill="#F0F0F0"/>
<path d="M272.371 218.64H269.924V221.091H272.371V218.64Z" fill="#F0F0F0"/>
<path d="M272.371 222.746H269.924V225.196H272.371V222.746Z" fill="#F0F0F0"/>
<path d="M272.371 226.857H269.924V229.307H272.371V226.857Z" fill="#F0F0F0"/>
<path d="M272.371 239.178H269.924V241.629H272.371V239.178Z" fill="#F0F0F0"/>
<path d="M272.371 243.284H269.924V245.734H272.371V243.284Z" fill="#F0F0F0"/>
<path d="M272.371 247.395H269.924V249.845H272.371V247.395Z" fill="#F0F0F0"/>
<path d="M272.371 251.506H269.924V253.956H272.371V251.506Z" fill="#F0F0F0"/>
<path d="M272.371 255.617H269.924V258.067H272.371V255.617Z" fill="#F0F0F0"/>
<path d="M272.371 259.722H269.924V262.173H272.371V259.722Z" fill="#F0F0F0"/>
<path d="M272.371 263.833H269.924V266.284H272.371V263.833Z" fill="#F0F0F0"/>
<path d="M272.371 276.155H269.924V278.605H272.371V276.155Z" fill="#F0F0F0"/>
<path d="M272.371 280.266H269.924V282.716H272.371V280.266Z" fill="#F0F0F0"/>
<path d="M272.371 284.371H269.924V286.821H272.371V284.371Z" fill="#F0F0F0"/>
<path d="M231.639 193.98H229.192V196.43H231.639V193.98Z" fill="#F0F0F0"/>
<path d="M231.639 198.091H229.192V200.541H231.639V198.091Z" fill="#F0F0F0"/>
<path d="M231.639 202.196H229.192V204.647H231.639V202.196Z" fill="#F0F0F0"/>
<path d="M231.639 206.307H229.192V208.758H231.639V206.307Z" fill="#F0F0F0"/>
<path d="M231.639 210.418H229.192V212.869H231.639V210.418Z" fill="#F0F0F0"/>
<path d="M231.639 214.529H229.192V216.98H231.639V214.529Z" fill="#F0F0F0"/>
<path d="M231.639 218.64H229.192V221.091H231.639V218.64Z" fill="#F0F0F0"/>
<path d="M231.639 222.746H229.192V225.196H231.639V222.746Z" fill="#F0F0F0"/>
<path d="M231.639 226.857H229.192V229.307H231.639V226.857Z" fill="#F0F0F0"/>
<path d="M231.639 230.956H229.192V233.407H231.639V230.956Z" fill="#F0F0F0"/>
<path d="M231.639 235.067H229.192V237.518H231.639V235.067Z" fill="#F0F0F0"/>
<path d="M231.639 239.178H229.192V241.629H231.639V239.178Z" fill="#F0F0F0"/>
<path d="M231.639 243.284H229.192V245.734H231.639V243.284Z" fill="#F0F0F0"/>
<path d="M231.639 247.395H229.192V249.845H231.639V247.395Z" fill="#F0F0F0"/>
<path d="M231.639 251.506H229.192V253.956H231.639V251.506Z" fill="#F0F0F0"/>
<path d="M231.639 255.617H229.192V258.067H231.639V255.617Z" fill="#F0F0F0"/>
<path d="M231.639 259.722H229.192V262.173H231.639V259.722Z" fill="#F0F0F0"/>
<path d="M231.639 263.833H229.192V266.284H231.639V263.833Z" fill="#F0F0F0"/>
<path d="M231.639 267.944H229.192V270.395H231.639V267.944Z" fill="#F0F0F0"/>
<path d="M231.639 272.044H229.192V274.494H231.639V272.044Z" fill="#F0F0F0"/>
<path d="M231.639 276.155H229.192V278.605H231.639V276.155Z" fill="#F0F0F0"/>
<path d="M231.639 280.266H229.192V282.716H231.639V280.266Z" fill="#F0F0F0"/>
<path d="M231.639 284.371H229.192V286.821H231.639V284.371Z" fill="#F0F0F0"/>
<path d="M227.752 193.98H225.305V196.43H227.752V193.98Z" fill="#F0F0F0"/>
<path d="M227.752 198.091H225.305V200.541H227.752V198.091Z" fill="#F0F0F0"/>
<path d="M227.752 202.196H225.305V204.647H227.752V202.196Z" fill="#F0F0F0"/>
<path d="M227.752 206.307H225.305V208.758H227.752V206.307Z" fill="#F0F0F0"/>
<path d="M227.752 210.418H225.305V212.869H227.752V210.418Z" fill="#F0F0F0"/>
<path d="M227.752 214.529H225.305V216.98H227.752V214.529Z" fill="#F0F0F0"/>
<path d="M227.752 218.64H225.305V221.091H227.752V218.64Z" fill="#F0F0F0"/>
<path d="M227.752 222.746H225.305V225.196H227.752V222.746Z" fill="#F0F0F0"/>
<path d="M227.752 226.857H225.305V229.307H227.752V226.857Z" fill="#F0F0F0"/>
<path d="M227.752 230.956H225.305V233.407H227.752V230.956Z" fill="#F0F0F0"/>
<path d="M227.752 235.067H225.305V237.518H227.752V235.067Z" fill="#F0F0F0"/>
<path d="M227.752 239.178H225.305V241.629H227.752V239.178Z" fill="#F0F0F0"/>
<path d="M227.752 243.284H225.305V245.734H227.752V243.284Z" fill="#F0F0F0"/>
<path d="M227.752 247.395H225.305V249.845H227.752V247.395Z" fill="#F0F0F0"/>
<path d="M227.752 251.506H225.305V253.956H227.752V251.506Z" fill="#F0F0F0"/>
<path d="M227.752 255.617H225.305V258.067H227.752V255.617Z" fill="#F0F0F0"/>
<path d="M227.752 259.722H225.305V262.173H227.752V259.722Z" fill="#F0F0F0"/>
<path d="M227.752 263.833H225.305V266.284H227.752V263.833Z" fill="#F0F0F0"/>
<path d="M227.752 267.944H225.305V270.395H227.752V267.944Z" fill="#F0F0F0"/>
<path d="M223.864 193.98H221.417V196.43H223.864V193.98Z" fill="#F0F0F0"/>
<path d="M223.864 198.091H221.417V200.541H223.864V198.091Z" fill="#F0F0F0"/>
<path d="M223.864 202.196H221.417V204.647H223.864V202.196Z" fill="#F0F0F0"/>
<path d="M223.864 206.307H221.417V208.758H223.864V206.307Z" fill="#F0F0F0"/>
<path d="M223.864 210.418H221.417V212.869H223.864V210.418Z" fill="#F0F0F0"/>
<path d="M223.864 214.529H221.417V216.98H223.864V214.529Z" fill="#F0F0F0"/>
<path d="M223.864 218.64H221.417V221.091H223.864V218.64Z" fill="#F0F0F0"/>
<path d="M223.864 222.746H221.417V225.196H223.864V222.746Z" fill="#F0F0F0"/>
<path d="M223.864 226.857H221.417V229.307H223.864V226.857Z" fill="#F0F0F0"/>
<path d="M223.864 230.956H221.417V233.407H223.864V230.956Z" fill="#F0F0F0"/>
<path d="M223.864 235.067H221.417V237.518H223.864V235.067Z" fill="#F0F0F0"/>
<path d="M223.864 239.178H221.417V241.629H223.864V239.178Z" fill="#F0F0F0"/>
<path d="M223.864 243.284H221.417V245.734H223.864V243.284Z" fill="#F0F0F0"/>
<path d="M223.864 247.395H221.417V249.845H223.864V247.395Z" fill="#F0F0F0"/>
<path d="M223.864 251.506H221.417V253.956H223.864V251.506Z" fill="#F0F0F0"/>
<path d="M223.864 255.617H221.417V258.067H223.864V255.617Z" fill="#F0F0F0"/>
<path d="M223.864 259.722H221.417V262.173H223.864V259.722Z" fill="#F0F0F0"/>
<path d="M223.864 263.833H221.417V266.284H223.864V263.833Z" fill="#F0F0F0"/>
<path d="M223.864 267.944H221.417V270.395H223.864V267.944Z" fill="#F0F0F0"/>
<path d="M219.976 193.98H217.529V196.43H219.976V193.98Z" fill="#F0F0F0"/>
<path d="M219.976 198.091H217.529V200.541H219.976V198.091Z" fill="#F0F0F0"/>
<path d="M219.976 202.196H217.529V204.647H219.976V202.196Z" fill="#F0F0F0"/>
<path d="M219.976 206.307H217.529V208.758H219.976V206.307Z" fill="#F0F0F0"/>
<path d="M219.976 210.418H217.529V212.869H219.976V210.418Z" fill="#F0F0F0"/>
<path d="M219.976 214.529H217.529V216.98H219.976V214.529Z" fill="#F0F0F0"/>
<path d="M219.976 218.64H217.529V221.091H219.976V218.64Z" fill="#F0F0F0"/>
<path d="M219.976 222.746H217.529V225.196H219.976V222.746Z" fill="#F0F0F0"/>
<path d="M219.976 226.857H217.529V229.307H219.976V226.857Z" fill="#F0F0F0"/>
<path d="M219.976 230.956H217.529V233.407H219.976V230.956Z" fill="#F0F0F0"/>
<path d="M219.976 235.067H217.529V237.518H219.976V235.067Z" fill="#F0F0F0"/>
<path d="M219.976 239.178H217.529V241.629H219.976V239.178Z" fill="#F0F0F0"/>
<path d="M219.976 243.284H217.529V245.734H219.976V243.284Z" fill="#F0F0F0"/>
<path d="M219.976 247.395H217.529V249.845H219.976V247.395Z" fill="#F0F0F0"/>
<path d="M219.976 251.506H217.529V253.956H219.976V251.506Z" fill="#F0F0F0"/>
<path d="M216.088 193.98H213.641V196.43H216.088V193.98Z" fill="#F0F0F0"/>
<path d="M216.088 198.091H213.641V200.541H216.088V198.091Z" fill="#F0F0F0"/>
<path d="M216.088 202.196H213.641V204.647H216.088V202.196Z" fill="#F0F0F0"/>
<path d="M216.088 206.307H213.641V208.758H216.088V206.307Z" fill="#F0F0F0"/>
<path d="M216.088 210.418H213.641V212.869H216.088V210.418Z" fill="#F0F0F0"/>
<path d="M216.088 214.529H213.641V216.98H216.088V214.529Z" fill="#F0F0F0"/>
<path d="M216.088 218.64H213.641V221.091H216.088V218.64Z" fill="#F0F0F0"/>
<path d="M216.088 222.746H213.641V225.196H216.088V222.746Z" fill="#F0F0F0"/>
<path d="M216.088 226.857H213.641V229.307H216.088V226.857Z" fill="#F0F0F0"/>
<path d="M216.088 230.956H213.641V233.407H216.088V230.956Z" fill="#F0F0F0"/>
<path d="M216.088 235.067H213.641V237.518H216.088V235.067Z" fill="#F0F0F0"/>
<path d="M216.088 239.178H213.641V241.629H216.088V239.178Z" fill="#F0F0F0"/>
<path d="M216.088 243.284H213.641V245.734H216.088V243.284Z" fill="#F0F0F0"/>
<path d="M212.2 193.98H209.753V196.43H212.2V193.98Z" fill="#F0F0F0"/>
<path d="M212.2 198.091H209.753V200.541H212.2V198.091Z" fill="#F0F0F0"/>
<path d="M212.2 202.196H209.753V204.647H212.2V202.196Z" fill="#F0F0F0"/>
<path d="M212.2 206.307H209.753V208.758H212.2V206.307Z" fill="#F0F0F0"/>
<path d="M212.2 210.418H209.753V212.869H212.2V210.418Z" fill="#F0F0F0"/>
<path d="M212.2 214.529H209.753V216.98H212.2V214.529Z" fill="#F0F0F0"/>
<path d="M212.2 218.64H209.753V221.091H212.2V218.64Z" fill="#F0F0F0"/>
<path d="M212.2 222.746H209.753V225.196H212.2V222.746Z" fill="#F0F0F0"/>
<path d="M212.2 226.857H209.753V229.307H212.2V226.857Z" fill="#F0F0F0"/>
<path d="M212.2 230.956H209.753V233.407H212.2V230.956Z" fill="#F0F0F0"/>
<path d="M212.2 235.067H209.753V237.518H212.2V235.067Z" fill="#F0F0F0"/>
<path d="M212.2 239.178H209.753V241.629H212.2V239.178Z" fill="#F0F0F0"/>
<path d="M439.077 192.76H436.63V195.211H439.077V192.76Z" fill="#F0F0F0"/>
<path d="M439.077 196.871H436.63V199.322H439.077V196.871Z" fill="#F0F0F0"/>
<path d="M439.077 200.982H436.63V203.433H439.077V200.982Z" fill="#F0F0F0"/>
<path d="M439.077 205.082H436.63V207.532H439.077V205.082Z" fill="#F0F0F0"/>
<path d="M439.077 209.187H436.63V211.638H439.077V209.187Z" fill="#F0F0F0"/>
<path d="M439.077 213.298H436.63V215.749H439.077V213.298Z" fill="#F0F0F0"/>
<path d="M439.077 217.409H436.63V219.86H439.077V217.409Z" fill="#F0F0F0"/>
<path d="M439.077 221.52H436.63V223.971H439.077V221.52Z" fill="#F0F0F0"/>
<path d="M439.077 225.626H436.63V228.076H439.077V225.626Z" fill="#F0F0F0"/>
<path d="M439.077 229.737H436.63V232.187H439.077V229.737Z" fill="#F0F0F0"/>
<path d="M439.077 233.848H436.63V236.298H439.077V233.848Z" fill="#F0F0F0"/>
<path d="M439.077 237.959H436.63V240.409H439.077V237.959Z" fill="#F0F0F0"/>
<path d="M439.077 242.064H436.63V244.515H439.077V242.064Z" fill="#F0F0F0"/>
<path d="M439.077 246.169H436.63V248.62H439.077V246.169Z" fill="#F0F0F0"/>
<path d="M439.077 250.275H436.63V252.725H439.077V250.275Z" fill="#F0F0F0"/>
<path d="M439.077 254.386H436.63V256.836H439.077V254.386Z" fill="#F0F0F0"/>
<path d="M439.077 258.497H436.63V260.947H439.077V258.497Z" fill="#F0F0F0"/>
<path d="M439.077 266.713H436.63V269.164H439.077V266.713Z" fill="#F0F0F0"/>
<path d="M439.077 270.824H436.63V273.275H439.077V270.824Z" fill="#F0F0F0"/>
<path d="M439.077 274.935H436.63V277.386H439.077V274.935Z" fill="#F0F0F0"/>
<path d="M439.077 279.046H436.63V281.497H439.077V279.046Z" fill="#F0F0F0"/>
<path d="M439.077 283.146H436.63V285.596H439.077V283.146Z" fill="#F0F0F0"/>
<path d="M435.189 192.76H432.742V195.211H435.189V192.76Z" fill="#F0F0F0"/>
<path d="M435.189 196.871H432.742V199.322H435.189V196.871Z" fill="#F0F0F0"/>
<path d="M435.189 200.982H432.742V203.433H435.189V200.982Z" fill="#F0F0F0"/>
<path d="M435.189 205.082H432.742V207.532H435.189V205.082Z" fill="#F0F0F0"/>
<path d="M435.189 209.187H432.742V211.638H435.189V209.187Z" fill="#F0F0F0"/>
<path d="M435.189 213.298H432.742V215.749H435.189V213.298Z" fill="#F0F0F0"/>
<path d="M435.189 217.409H432.742V219.86H435.189V217.409Z" fill="#F0F0F0"/>
<path d="M435.189 221.52H432.742V223.971H435.189V221.52Z" fill="#F0F0F0"/>
<path d="M435.189 225.626H432.742V228.076H435.189V225.626Z" fill="#F0F0F0"/>
<path d="M435.189 229.737H432.742V232.187H435.189V229.737Z" fill="#F0F0F0"/>
<path d="M435.189 233.848H432.742V236.298H435.189V233.848Z" fill="#F0F0F0"/>
<path d="M435.189 237.959H432.742V240.409H435.189V237.959Z" fill="#F0F0F0"/>
<path d="M435.189 242.064H432.742V244.515H435.189V242.064Z" fill="#F0F0F0"/>
<path d="M435.189 246.169H432.742V248.62H435.189V246.169Z" fill="#F0F0F0"/>
<path d="M435.189 250.275H432.742V252.725H435.189V250.275Z" fill="#F0F0F0"/>
<path d="M435.189 254.386H432.742V256.836H435.189V254.386Z" fill="#F0F0F0"/>
<path d="M435.189 279.046H432.742V281.497H435.189V279.046Z" fill="#F0F0F0"/>
<path d="M435.189 283.146H432.742V285.596H435.189V283.146Z" fill="#F0F0F0"/>
<path d="M431.313 192.76H428.865V195.211H431.313V192.76Z" fill="#F0F0F0"/>
<path d="M431.313 196.871H428.865V199.322H431.313V196.871Z" fill="#F0F0F0"/>
<path d="M431.313 200.982H428.865V203.433H431.313V200.982Z" fill="#F0F0F0"/>
<path d="M431.313 205.082H428.865V207.532H431.313V205.082Z" fill="#F0F0F0"/>
<path d="M431.313 209.187H428.865V211.638H431.313V209.187Z" fill="#F0F0F0"/>
<path d="M431.313 213.298H428.865V215.749H431.313V213.298Z" fill="#F0F0F0"/>
<path d="M431.313 217.409H428.865V219.86H431.313V217.409Z" fill="#F0F0F0"/>
<path d="M431.313 221.52H428.865V223.971H431.313V221.52Z" fill="#F0F0F0"/>
<path d="M431.313 225.626H428.865V228.076H431.313V225.626Z" fill="#F0F0F0"/>
<path d="M431.313 229.737H428.865V232.187H431.313V229.737Z" fill="#F0F0F0"/>
<path d="M431.313 233.848H428.865V236.298H431.313V233.848Z" fill="#F0F0F0"/>
<path d="M431.313 237.959H428.865V240.409H431.313V237.959Z" fill="#F0F0F0"/>
<path d="M431.313 242.064H428.865V244.515H431.313V242.064Z" fill="#F0F0F0"/>
<path d="M431.313 246.169H428.865V248.62H431.313V246.169Z" fill="#F0F0F0"/>
<path d="M431.313 250.275H428.865V252.725H431.313V250.275Z" fill="#F0F0F0"/>
<path d="M431.313 254.386H428.865V256.836H431.313V254.386Z" fill="#F0F0F0"/>
<path d="M431.313 262.608H428.865V265.058H431.313V262.608Z" fill="#F0F0F0"/>
<path d="M431.313 266.713H428.865V269.164H431.313V266.713Z" fill="#F0F0F0"/>
<path d="M431.313 270.824H428.865V273.275H431.313V270.824Z" fill="#F0F0F0"/>
<path d="M431.313 274.935H428.865V277.386H431.313V274.935Z" fill="#F0F0F0"/>
<path d="M431.313 283.146H428.865V285.596H431.313V283.146Z" fill="#F0F0F0"/>
<path d="M363.503 221.52H361.056V223.971H363.503V221.52Z" fill="#F0F0F0"/>
<path d="M363.503 225.626H361.056V228.076H363.503V225.626Z" fill="#F0F0F0"/>
<path d="M363.503 229.737H361.056V232.187H363.503V229.737Z" fill="#F0F0F0"/>
<path d="M363.503 233.848H361.056V236.298H363.503V233.848Z" fill="#F0F0F0"/>
<path d="M363.503 237.959H361.056V240.409H363.503V237.959Z" fill="#F0F0F0"/>
<path d="M363.503 242.064H361.056V244.515H363.503V242.064Z" fill="#F0F0F0"/>
<path d="M363.503 246.169H361.056V248.62H363.503V246.169Z" fill="#F0F0F0"/>
<path d="M363.503 250.275H361.056V252.725H363.503V250.275Z" fill="#F0F0F0"/>
<path d="M363.503 254.386H361.056V256.836H363.503V254.386Z" fill="#F0F0F0"/>
<path d="M363.503 258.497H361.056V260.947H363.503V258.497Z" fill="#F0F0F0"/>
<path d="M363.503 262.608H361.056V265.058H363.503V262.608Z" fill="#F0F0F0"/>
<path d="M363.503 266.713H361.056V269.164H363.503V266.713Z" fill="#F0F0F0"/>
<path d="M363.503 270.824H361.056V273.275H363.503V270.824Z" fill="#F0F0F0"/>
<path d="M363.503 279.046H361.056V281.497H363.503V279.046Z" fill="#F0F0F0"/>
<path d="M363.503 283.146H361.056V285.596H363.503V283.146Z" fill="#F0F0F0"/>
<path d="M363.503 287.251H361.056V289.702H363.503V287.251Z" fill="#F0F0F0"/>
<path d="M363.503 291.362H361.056V293.813H363.503V291.362Z" fill="#F0F0F0"/>
<path d="M363.503 299.584H361.056V302.035H363.503V299.584Z" fill="#F0F0F0"/>
<path d="M363.503 303.695H361.056V306.146H363.503V303.695Z" fill="#F0F0F0"/>
<path d="M363.503 307.8H361.056V310.251H363.503V307.8Z" fill="#F0F0F0"/>
<path d="M359.615 221.52H357.168V223.971H359.615V221.52Z" fill="#F0F0F0"/>
<path d="M359.615 225.626H357.168V228.076H359.615V225.626Z" fill="#F0F0F0"/>
<path d="M359.615 229.737H357.168V232.187H359.615V229.737Z" fill="#F0F0F0"/>
<path d="M359.615 233.848H357.168V236.298H359.615V233.848Z" fill="#F0F0F0"/>
<path d="M359.615 237.959H357.168V240.409H359.615V237.959Z" fill="#F0F0F0"/>
<path d="M359.615 242.064H357.168V244.515H359.615V242.064Z" fill="#F0F0F0"/>
<path d="M359.615 246.169H357.168V248.62H359.615V246.169Z" fill="#F0F0F0"/>
<path d="M359.615 250.275H357.168V252.725H359.615V250.275Z" fill="#F0F0F0"/>
<path d="M359.615 254.386H357.168V256.836H359.615V254.386Z" fill="#F0F0F0"/>
<path d="M359.615 258.497H357.168V260.947H359.615V258.497Z" fill="#F0F0F0"/>
<path d="M359.615 262.608H357.168V265.058H359.615V262.608Z" fill="#F0F0F0"/>
<path d="M359.615 266.713H357.168V269.164H359.615V266.713Z" fill="#F0F0F0"/>
<path d="M359.615 270.824H357.168V273.275H359.615V270.824Z" fill="#F0F0F0"/>
<path d="M359.615 283.146H357.168V285.596H359.615V283.146Z" fill="#F0F0F0"/>
<path d="M359.615 287.251H357.168V289.702H359.615V287.251Z" fill="#F0F0F0"/>
<path d="M359.615 295.473H357.168V297.924H359.615V295.473Z" fill="#F0F0F0"/>
<path d="M359.615 299.584H357.168V302.035H359.615V299.584Z" fill="#F0F0F0"/>
<path d="M359.615 303.695H357.168V306.146H359.615V303.695Z" fill="#F0F0F0"/>
<path d="M359.615 307.8H357.168V310.251H359.615V307.8Z" fill="#F0F0F0"/>
<path d="M355.727 221.52H353.28V223.971H355.727V221.52Z" fill="#F0F0F0"/>
<path d="M355.727 225.626H353.28V228.076H355.727V225.626Z" fill="#F0F0F0"/>
<path d="M355.727 229.737H353.28V232.187H355.727V229.737Z" fill="#F0F0F0"/>
<path d="M355.727 233.848H353.28V236.298H355.727V233.848Z" fill="#F0F0F0"/>
<path d="M355.727 237.959H353.28V240.409H355.727V237.959Z" fill="#F0F0F0"/>
<path d="M355.727 242.064H353.28V244.515H355.727V242.064Z" fill="#F0F0F0"/>
<path d="M355.727 246.169H353.28V248.62H355.727V246.169Z" fill="#F0F0F0"/>
<path d="M355.727 250.275H353.28V252.725H355.727V250.275Z" fill="#F0F0F0"/>
<path d="M355.727 254.386H353.28V256.836H355.727V254.386Z" fill="#F0F0F0"/>
<path d="M355.727 258.497H353.28V260.947H355.727V258.497Z" fill="#F0F0F0"/>
<path d="M355.727 262.608H353.28V265.058H355.727V262.608Z" fill="#F0F0F0"/>
<path d="M355.727 266.713H353.28V269.164H355.727V266.713Z" fill="#F0F0F0"/>
<path d="M355.727 270.824H353.28V273.275H355.727V270.824Z" fill="#F0F0F0"/>
<path d="M355.727 274.935H353.28V277.386H355.727V274.935Z" fill="#F0F0F0"/>
<path d="M355.727 283.146H353.28V285.596H355.727V283.146Z" fill="#F0F0F0"/>
<path d="M355.727 291.362H353.28V293.813H355.727V291.362Z" fill="#F0F0F0"/>
<path d="M355.727 295.473H353.28V297.924H355.727V295.473Z" fill="#F0F0F0"/>
<path d="M355.727 299.584H353.28V302.035H355.727V299.584Z" fill="#F0F0F0"/>
<path d="M355.727 303.695H353.28V306.146H355.727V303.695Z" fill="#F0F0F0"/>
<path d="M355.727 307.8H353.28V310.251H355.727V307.8Z" fill="#F0F0F0"/>
<path d="M379.335 244.95H376.887V247.4H379.335V244.95Z" fill="#F0F0F0"/>
<path d="M379.335 249.055H376.887V251.506H379.335V249.055Z" fill="#F0F0F0"/>
<path d="M379.335 253.166H376.887V255.617H379.335V253.166Z" fill="#F0F0F0"/>
<path d="M379.335 257.266H376.887V259.716H379.335V257.266Z" fill="#F0F0F0"/>
<path d="M379.335 261.377H376.887V263.827H379.335V261.377Z" fill="#F0F0F0"/>
<path d="M379.335 265.488H376.887V267.938H379.335V265.488Z" fill="#F0F0F0"/>
<path d="M379.335 277.815H376.887V280.266H379.335V277.815Z" fill="#F0F0F0"/>
<path d="M379.335 281.926H376.887V284.377H379.335V281.926Z" fill="#F0F0F0"/>
<path d="M379.335 286.037H376.887V288.488H379.335V286.037Z" fill="#F0F0F0"/>
<path d="M379.335 290.142H376.887V292.593H379.335V290.142Z" fill="#F0F0F0"/>
<path d="M379.335 294.253H376.887V296.704H379.335V294.253Z" fill="#F0F0F0"/>
<path d="M379.335 298.353H376.887V300.804H379.335V298.353Z" fill="#F0F0F0"/>
<path d="M379.335 302.464H376.887V304.915H379.335V302.464Z" fill="#F0F0F0"/>
<path d="M375.447 244.95H373V247.4H375.447V244.95Z" fill="#F0F0F0"/>
<path d="M375.447 249.055H373V251.506H375.447V249.055Z" fill="#F0F0F0"/>
<path d="M375.447 253.166H373V255.617H375.447V253.166Z" fill="#F0F0F0"/>
<path d="M375.447 257.266H373V259.716H375.447V257.266Z" fill="#F0F0F0"/>
<path d="M375.447 261.377H373V263.827H375.447V261.377Z" fill="#F0F0F0"/>
<path d="M375.447 265.488H373V267.938H375.447V265.488Z" fill="#F0F0F0"/>
<path d="M375.447 277.815H373V280.266H375.447V277.815Z" fill="#F0F0F0"/>
<path d="M375.447 281.926H373V284.377H375.447V281.926Z" fill="#F0F0F0"/>
<path d="M375.447 286.037H373V288.488H375.447V286.037Z" fill="#F0F0F0"/>
<path d="M375.447 290.142H373V292.593H375.447V290.142Z" fill="#F0F0F0"/>
<path d="M375.447 294.253H373V296.704H375.447V294.253Z" fill="#F0F0F0"/>
<path d="M375.447 298.353H373V300.804H375.447V298.353Z" fill="#F0F0F0"/>
<path d="M375.447 306.575H373V309.026H375.447V306.575Z" fill="#F0F0F0"/>
<path d="M246.316 226.857H243.869V229.307H246.316V226.857Z" fill="#F0F0F0"/>
<path d="M246.316 230.956H243.869V233.407H246.316V230.956Z" fill="#F0F0F0"/>
<path d="M246.316 235.067H243.869V237.518H246.316V235.067Z" fill="#F0F0F0"/>
<path d="M246.316 239.178H243.869V241.629H246.316V239.178Z" fill="#F0F0F0"/>
<path d="M246.316 243.284H243.869V245.734H246.316V243.284Z" fill="#F0F0F0"/>
<path d="M246.316 247.395H243.869V249.845H246.316V247.395Z" fill="#F0F0F0"/>
<path d="M246.316 251.506H243.869V253.956H246.316V251.506Z" fill="#F0F0F0"/>
<path d="M246.316 255.617H243.869V258.067H246.316V255.617Z" fill="#F0F0F0"/>
<path d="M246.316 259.722H243.869V262.173H246.316V259.722Z" fill="#F0F0F0"/>
<path d="M246.316 263.833H243.869V266.284H246.316V263.833Z" fill="#F0F0F0"/>
<path d="M246.316 267.944H243.869V270.395H246.316V267.944Z" fill="#F0F0F0"/>
<path d="M246.316 276.155H243.869V278.605H246.316V276.155Z" fill="#F0F0F0"/>
<path d="M246.316 280.266H243.869V282.716H246.316V280.266Z" fill="#F0F0F0"/>
<path d="M246.316 284.371H243.869V286.821H246.316V284.371Z" fill="#F0F0F0"/>
<path d="M246.316 288.482H243.869V290.933H246.316V288.482Z" fill="#F0F0F0"/>
<path d="M246.316 292.593H243.869V295.044H246.316V292.593Z" fill="#F0F0F0"/>
<path d="M246.316 296.704H243.869V299.155H246.316V296.704Z" fill="#F0F0F0"/>
<path d="M246.316 300.809H243.869V303.26H246.316V300.809Z" fill="#F0F0F0"/>
<path d="M246.316 304.92H243.869V307.371H246.316V304.92Z" fill="#F0F0F0"/>
<path d="M242.44 226.857H239.993V229.307H242.44V226.857Z" fill="#F0F0F0"/>
<path d="M242.44 230.956H239.993V233.407H242.44V230.956Z" fill="#F0F0F0"/>
<path d="M242.44 235.067H239.993V237.518H242.44V235.067Z" fill="#F0F0F0"/>
<path d="M242.44 239.178H239.993V241.629H242.44V239.178Z" fill="#F0F0F0"/>
<path d="M242.44 243.284H239.993V245.734H242.44V243.284Z" fill="#F0F0F0"/>
<path d="M242.44 247.395H239.993V249.845H242.44V247.395Z" fill="#F0F0F0"/>
<path d="M242.44 251.506H239.993V253.956H242.44V251.506Z" fill="#F0F0F0"/>
<path d="M242.44 255.617H239.993V258.067H242.44V255.617Z" fill="#F0F0F0"/>
<path d="M242.44 259.722H239.993V262.173H242.44V259.722Z" fill="#F0F0F0"/>
<path d="M242.44 263.833H239.993V266.284H242.44V263.833Z" fill="#F0F0F0"/>
<path d="M242.44 267.944H239.993V270.395H242.44V267.944Z" fill="#F0F0F0"/>
<path d="M242.44 272.044H239.993V274.494H242.44V272.044Z" fill="#F0F0F0"/>
<path d="M242.44 276.155H239.993V278.605H242.44V276.155Z" fill="#F0F0F0"/>
<path d="M242.44 280.266H239.993V282.716H242.44V280.266Z" fill="#F0F0F0"/>
<path d="M242.44 284.371H239.993V286.821H242.44V284.371Z" fill="#F0F0F0"/>
<path d="M242.44 288.482H239.993V290.933H242.44V288.482Z" fill="#F0F0F0"/>
<path d="M242.44 292.593H239.993V295.044H242.44V292.593Z" fill="#F0F0F0"/>
<path d="M242.44 296.704H239.993V299.155H242.44V296.704Z" fill="#F0F0F0"/>
<path d="M242.44 300.809H239.993V303.26H242.44V300.809Z" fill="#F0F0F0"/>
<path d="M242.44 304.92H239.993V307.371H242.44V304.92Z" fill="#F0F0F0"/>
<path d="M265.47 242.854H263.023V245.305H265.47V242.854Z" fill="#F0F0F0"/>
<path d="M265.47 246.965H263.023V249.416H265.47V246.965Z" fill="#F0F0F0"/>
<path d="M265.47 251.07H263.023V253.521H265.47V251.07Z" fill="#F0F0F0"/>
<path d="M265.47 255.181H263.023V257.632H265.47V255.181Z" fill="#F0F0F0"/>
<path d="M265.47 259.293H263.023V261.743H265.47V259.293Z" fill="#F0F0F0"/>
<path d="M265.47 263.404H263.023V265.854H265.47V263.404Z" fill="#F0F0F0"/>
<path d="M265.47 267.509H263.023V269.959H265.47V267.509Z" fill="#F0F0F0"/>
<path d="M265.47 271.614H263.023V274.065H265.47V271.614Z" fill="#F0F0F0"/>
<path d="M265.47 275.719H263.023V278.17H265.47V275.719Z" fill="#F0F0F0"/>
<path d="M265.47 279.83H263.023V282.281H265.47V279.83Z" fill="#F0F0F0"/>
<path d="M261.582 242.854H259.135V245.305H261.582V242.854Z" fill="#F0F0F0"/>
<path d="M261.582 246.965H259.135V249.416H261.582V246.965Z" fill="#F0F0F0"/>
<path d="M261.582 251.07H259.135V253.521H261.582V251.07Z" fill="#F0F0F0"/>
<path d="M261.582 255.181H259.135V257.632H261.582V255.181Z" fill="#F0F0F0"/>
<path d="M261.582 259.293H259.135V261.743H261.582V259.293Z" fill="#F0F0F0"/>
<path d="M261.582 263.404H259.135V265.854H261.582V263.404Z" fill="#F0F0F0"/>
<path d="M261.582 267.509H259.135V269.959H261.582V267.509Z" fill="#F0F0F0"/>
<path d="M261.582 271.614H259.135V274.065H261.582V271.614Z" fill="#F0F0F0"/>
<path d="M261.582 275.719H259.135V278.17H261.582V275.719Z" fill="#F0F0F0"/>
<path d="M284.704 86.9328H280.599V316.091H284.704V86.9328Z" fill="#E0E0E0"/>
<path d="M361.976 86.9328H357.871V316.091H361.976V86.9328Z" fill="#E0E0E0"/>
<path d="M439.243 86.9328H435.138V316.091H439.243V86.9328Z" fill="#E0E0E0"/>
<path d="M147.181 293.755H172.492C173.64 293.755 174.741 294.212 175.552 295.025C176.364 295.838 176.82 296.94 176.82 298.09V347.078H142.864V298.13C142.858 297.56 142.964 296.995 143.176 296.467C143.389 295.939 143.703 295.458 144.101 295.051C144.5 294.645 144.974 294.321 145.498 294.099C146.021 293.877 146.583 293.76 147.152 293.755H147.181Z" fill="#F0F0F0"/>
<path d="M176.826 301.01H142.864V304.834H176.826V301.01Z" fill="#E6E6E6"/>
<path d="M162.178 340.677H170.639C171.257 340.677 171.848 340.923 172.285 341.36C172.721 341.797 172.966 342.389 172.966 343.007V347.136H159.816V342.967C159.816 342.349 160.061 341.757 160.498 341.32C160.934 340.883 161.526 340.637 162.143 340.637L162.178 340.677Z" fill="#E0E0E0"/>
<path d="M173.006 347.119H163.595C163.195 347.119 162.811 346.959 162.528 346.676C162.245 346.392 162.086 346.008 162.086 345.607C162.087 345.207 162.247 344.824 162.53 344.542C162.813 344.26 163.196 344.101 163.595 344.101H173.006C173.406 344.101 173.789 344.26 174.072 344.542C174.355 344.824 174.514 345.207 174.516 345.607C174.516 346.008 174.357 346.392 174.074 346.676C173.791 346.959 173.407 347.119 173.006 347.119Z" fill="#E6E6E6"/>
<path d="M323.798 76.1775C336.226 73.2399 343.923 60.7692 340.99 48.3232C338.056 35.8772 325.603 28.1691 313.175 31.1066C300.747 34.0441 293.05 46.5149 295.983 58.9609C298.916 71.4068 311.369 79.115 323.798 76.1775Z" fill="#E0E0E0"/>
<path d="M318.483 73.3057C329.342 73.3057 338.146 64.4899 338.146 53.6151C338.146 42.7403 329.342 33.9246 318.483 33.9246C307.624 33.9246 298.821 42.7403 298.821 53.6151C298.821 64.4899 307.624 73.3057 318.483 73.3057Z" fill="#F0F0F0"/>
<path d="M319.415 40.1197V53.8842L328.517 48.7254" fill="#F0F0F0"/>
<path d="M319.415 54.8404C319.24 54.8418 319.067 54.7942 318.918 54.703C318.771 54.6156 318.65 54.4915 318.565 54.343C318.481 54.1944 318.437 54.0265 318.437 53.8556V40.0797C318.456 39.8322 318.568 39.601 318.749 39.4323C318.931 39.2636 319.17 39.1699 319.418 39.1699C319.666 39.1699 319.904 39.2636 320.086 39.4323C320.268 39.601 320.379 39.8322 320.398 40.0797V52.1952L328.037 47.8666C328.264 47.7375 328.534 47.7042 328.786 47.774C329.038 47.8438 329.252 48.011 329.381 48.2387C329.509 48.4665 329.543 48.7362 329.473 48.9886C329.403 49.2409 329.236 49.4552 329.009 49.5843L319.895 54.7374C319.745 54.8088 319.581 54.8441 319.415 54.8404Z" fill="#E0E0E0"/>
<path d="M97.1977 279.636C95.431 276.687 92.5265 279.252 92.5265 279.252C92.9382 273.664 87.8096 269.851 87.8096 269.851C87.8096 269.851 93.7729 269.851 94.5963 264.159C95.4196 258.468 92.5265 261.113 89.7936 261.073C87.0606 261.033 84.2075 269.015 87.8324 273.509C91.4574 278.004 90.4625 285.671 82.1492 293.045C80.1591 294.908 78.6671 297.241 77.8096 299.83C78.4328 293.057 78.7873 283.506 76.8262 277.139C73.4472 266.324 79.8908 263.398 81.7319 257.987C83.5729 252.576 76.8262 247.996 76.8262 247.996C76.8262 247.996 83.2184 245.047 80.0966 241.755C76.9749 238.463 70.5312 238.892 70.5312 243.226C70.5312 247.561 74.8994 249.244 74.8994 249.244C74.8994 249.244 79.8908 254.443 79.8908 257.111C79.8908 259.779 74.8994 265.671 74.8994 265.671C74.8994 265.671 77.1864 260.69 72.6124 260.483C68.0384 260.277 66.5861 266.301 68.4615 269.003C70.3368 271.706 73.4472 269.427 73.4472 269.427C73.6549 272.575 74.1409 275.698 74.8994 278.76C75.374 280.323 75.1567 286.426 74.7622 292.782C73.8946 290.489 72.5069 288.429 70.7085 286.764C62.3895 279.39 61.4289 271.717 65.031 267.228C68.633 262.739 65.7514 254.752 63.0642 254.792C60.3769 254.832 57.421 252.181 58.2557 257.873C59.0905 263.564 65.0481 263.598 65.0481 263.598C65.0481 263.598 59.9024 267.412 60.3255 272.994C60.3255 272.994 57.3809 270.458 55.6542 273.378C52.4982 278.582 59.8166 281.806 61.0402 279.281C61.0402 279.281 76.5461 290.268 72.824 306.088L73.6873 307.377C73.5787 308.659 73.5101 309.421 73.5101 309.421L74.7165 308.9L76.1001 310.904C76.0557 313.199 76.1742 315.495 76.4546 317.774L80.1538 312.289C76.4146 296.469 91.9376 285.476 91.9376 285.476C93.0697 288.07 100.371 284.835 97.1977 279.636Z" fill="#E0E0E0"/>
<path opacity="0.2" d="M97.1977 279.636C95.431 276.687 92.5265 279.252 92.5265 279.252C92.9382 273.664 87.8096 269.851 87.8096 269.851C87.8096 269.851 93.7729 269.851 94.5963 264.159C95.4196 258.468 92.5265 261.113 89.7936 261.073C87.0606 261.033 84.2075 269.015 87.8324 273.509C91.4574 278.004 90.4625 285.671 82.1492 293.045C80.1591 294.908 78.6671 297.241 77.8096 299.83C78.4328 293.057 78.7873 283.506 76.8262 277.139C73.4472 266.324 79.8908 263.398 81.7319 257.987C83.5729 252.576 76.8262 247.996 76.8262 247.996C76.8262 247.996 83.2184 245.047 80.0966 241.755C76.9749 238.463 70.5312 238.892 70.5312 243.226C70.5312 247.561 74.8994 249.244 74.8994 249.244C74.8994 249.244 79.8908 254.443 79.8908 257.111C79.8908 259.779 74.8994 265.671 74.8994 265.671C74.8994 265.671 77.1864 260.69 72.6124 260.483C68.0384 260.277 66.5861 266.301 68.4615 269.003C70.3368 271.706 73.4472 269.427 73.4472 269.427C73.6549 272.575 74.1409 275.698 74.8994 278.76C75.374 280.323 75.1567 286.426 74.7622 292.782C73.8946 290.489 72.5069 288.429 70.7085 286.764C62.3895 279.39 61.4289 271.717 65.031 267.228C68.633 262.739 65.7514 254.752 63.0642 254.792C60.3769 254.832 57.421 252.181 58.2557 257.873C59.0905 263.564 65.0481 263.598 65.0481 263.598C65.0481 263.598 59.9024 267.412 60.3255 272.994C60.3255 272.994 57.3809 270.458 55.6542 273.378C52.4982 278.582 59.8166 281.806 61.0402 279.281C61.0402 279.281 76.5461 290.268 72.824 306.088L73.6873 307.377C73.5787 308.659 73.5101 309.421 73.5101 309.421L74.7165 308.9L76.1001 310.904C76.0557 313.199 76.1742 315.495 76.4546 317.774L80.1538 312.289C76.4146 296.469 91.9376 285.476 91.9376 285.476C93.0697 288.07 100.371 284.835 97.1977 279.636Z" fill="#E0E0E0"/>
<path d="M94.1847 347.118H58.6732L54.8481 308.184H98.0269L94.1847 347.118Z" fill="#E6E6E6"/>
<path d="M99.9138 303.89H52.9443V312.484H99.9138V303.89Z" fill="#F0F0F0"/>
<path d="M270.946 107.26L246.492 120.451C245.833 120.806 245.587 121.629 245.942 122.289L253.746 136.797C254.101 137.457 254.922 137.703 255.581 137.348L280.035 124.157C280.694 123.801 280.94 122.978 280.585 122.319L272.781 107.811C272.427 107.151 271.605 106.904 270.946 107.26Z" fill="#E61C5D"/>
<path opacity="0.7" d="M270.946 107.26L246.492 120.451C245.833 120.806 245.587 121.629 245.942 122.289L253.746 136.797C254.101 137.457 254.922 137.703 255.581 137.348L280.035 124.157C280.694 123.801 280.94 122.978 280.585 122.319L272.781 107.811C272.427 107.151 271.605 106.904 270.946 107.26Z" fill="white"/>
<path opacity="0.2" d="M266.522 123.875C266.221 124.524 265.718 125.059 265.088 125.4C264.459 125.74 263.737 125.868 263.029 125.764L246.831 123.371L262.743 124.945C263.358 125.009 263.977 124.887 264.523 124.596C265.069 124.306 265.516 123.859 265.808 123.314L273.418 109L266.522 123.875Z" fill="black"/>
<path d="M284.824 107.643C282.24 101.407 259.095 86.0797 260.753 84.6941C262.411 83.3084 266.574 86.2572 266.574 86.2572C266.574 86.2572 264.247 83.5661 266.574 83.3943C268.901 83.2226 273.955 86.343 273.955 86.343C273.955 86.343 271.502 83.5317 273.955 83.3943C276.408 83.2569 281.073 87.7974 281.073 87.7974C281.073 87.7974 277.832 83.1252 282.754 86.4976C287.677 89.8701 291.719 100.892 291.982 106.36C292.245 111.828 287.408 113.878 284.824 107.643Z" fill="#E61C5D"/>
<path opacity="0.4" d="M284.824 107.643C282.24 101.407 259.095 86.0797 260.753 84.6941C262.411 83.3084 266.574 86.2572 266.574 86.2572C266.574 86.2572 264.247 83.5661 266.574 83.3943C268.901 83.2226 273.955 86.343 273.955 86.343C273.955 86.343 271.502 83.5317 273.955 83.3943C276.408 83.2569 281.073 87.7974 281.073 87.7974C281.073 87.7974 277.832 83.1252 282.754 86.4976C287.677 89.8701 291.719 100.892 291.982 106.36C292.245 111.828 287.408 113.878 284.824 107.643Z" fill="white"/>
<path d="M274.47 108.33L272.594 110.437C272.564 110.47 272.525 110.496 272.482 110.512C272.44 110.528 272.394 110.534 272.348 110.528C272.276 110.518 272.21 110.48 272.166 110.423C272.121 110.365 272.1 110.292 272.108 110.219L272.383 107.723L269.135 107.975C269.088 107.98 269.04 107.972 268.997 107.95C268.955 107.929 268.919 107.896 268.895 107.854C268.877 107.826 268.866 107.794 268.86 107.761C268.855 107.728 268.857 107.694 268.865 107.662C268.873 107.629 268.887 107.599 268.907 107.572C268.927 107.545 268.952 107.522 268.981 107.505L272.074 105.541L274.47 108.33Z" fill="#E61C5D"/>
<path opacity="0.3" d="M274.47 108.33L272.594 110.437C272.564 110.47 272.525 110.496 272.482 110.512C272.44 110.528 272.394 110.534 272.348 110.528C272.276 110.518 272.21 110.48 272.166 110.423C272.121 110.365 272.1 110.292 272.108 110.219L272.383 107.723L269.135 107.975C269.088 107.98 269.04 107.972 268.997 107.95C268.955 107.929 268.919 107.896 268.895 107.854C268.877 107.826 268.866 107.794 268.86 107.761C268.855 107.728 268.857 107.694 268.865 107.662C268.873 107.629 268.887 107.599 268.907 107.572C268.927 107.545 268.952 107.522 268.981 107.505L272.074 105.541L274.47 108.33Z" fill="white"/>
<path d="M306.19 102.804C308.437 110.671 303.703 119.626 294.801 119.518C285.899 119.409 281.977 110.86 277.077 109.687C272.177 108.513 270.862 106.011 272.028 103.6C273.195 101.19 276.339 101.195 282.771 103.28C288.192 105.026 295.03 105.163 297.831 103.6C302.909 100.772 304.744 92.1832 304.744 92.1832C311.21 90.2766 315.493 93.2253 315.493 93.2253C311.539 95.4589 308.31 98.7841 306.19 102.804Z" fill="#E61C5D"/>
<path opacity="0.5" d="M306.19 102.804C308.437 110.671 303.703 119.626 294.801 119.518C285.899 119.409 281.977 110.86 277.077 109.687C272.177 108.513 270.862 106.011 272.028 103.6C273.195 101.19 276.339 101.195 282.771 103.28C288.192 105.026 295.03 105.163 297.831 103.6C302.909 100.772 304.744 92.1832 304.744 92.1832C311.21 90.2766 315.493 93.2253 315.493 93.2253C311.539 95.4589 308.31 98.7841 306.19 102.804Z" fill="white"/>
<path d="M274.91 104.78C275.019 104.792 275.119 104.844 275.192 104.926C275.265 105.008 275.305 105.114 275.305 105.223C275.305 105.333 275.265 105.439 275.192 105.521C275.119 105.603 275.019 105.655 274.91 105.667C274.801 105.655 274.7 105.603 274.627 105.521C274.554 105.439 274.514 105.333 274.514 105.223C274.514 105.114 274.554 105.008 274.627 104.926C274.7 104.844 274.801 104.792 274.91 104.78Z" fill="#2F2E41"/>
<path d="M297.883 105.255C304.59 104.682 326.276 87.3679 327.111 89.4063C327.946 91.4446 323.835 94.4678 323.835 94.4678C323.835 94.4678 327.134 93.0936 326.545 95.3552C325.956 97.6169 321.439 101.459 321.439 101.459C321.439 101.459 324.904 100.004 324.264 102.381C323.623 104.757 317.894 107.803 317.894 107.803C317.894 107.803 323.314 106.131 318.603 109.767C313.892 113.403 302.165 113.855 296.877 112.423C291.588 110.992 291.165 105.793 297.883 105.255Z" fill="#E61C5D"/>
<path opacity="0.4" d="M297.883 105.255C304.59 104.682 326.276 87.3679 327.111 89.4063C327.946 91.4446 323.835 94.4678 323.835 94.4678C323.835 94.4678 327.134 93.0936 326.545 95.3552C325.956 97.6169 321.439 101.459 321.439 101.459C321.439 101.459 324.904 100.004 324.264 102.381C323.623 104.757 317.894 107.803 317.894 107.803C317.894 107.803 323.314 106.131 318.603 109.767C313.892 113.403 302.165 113.855 296.877 112.423C291.588 110.992 291.165 105.793 297.883 105.255Z" fill="white"/>
<path d="M331.427 88.5703C331.342 88.5699 331.259 88.5395 331.193 88.4842C331.128 88.4289 331.084 88.3524 331.069 88.2679C331.054 88.1834 331.069 88.0963 331.111 88.0218C331.154 87.9473 331.221 87.8902 331.302 87.8603C332.222 87.4791 333.163 87.1503 334.12 86.8755C334.168 86.8572 334.219 86.849 334.27 86.8512C334.321 86.8534 334.37 86.8661 334.416 86.8885C334.462 86.9108 334.503 86.9424 334.536 86.9812C334.569 87.02 334.594 87.0652 334.609 87.1139C334.624 87.1627 334.628 87.2141 334.623 87.2648C334.617 87.3155 334.601 87.3645 334.575 87.4087C334.55 87.4529 334.516 87.4915 334.475 87.5219C334.434 87.5523 334.387 87.5739 334.338 87.5855C333.396 87.8718 332.466 88.1771 331.547 88.5016C331.508 88.5073 331.467 88.5073 331.427 88.5016V88.5703Z" fill="#E61C5D"/>
<path d="M384.818 167.722C384.724 167.701 384.642 167.645 384.59 167.564C384.538 167.484 384.519 167.387 384.538 167.293C384.556 167.196 384.611 167.111 384.691 167.056C384.771 167 384.87 166.978 384.966 166.995C386.889 167.349 388.838 167.54 390.793 167.567C390.882 167.579 390.965 167.622 391.025 167.69C391.085 167.758 391.118 167.846 391.118 167.937C391.118 168.027 391.085 168.115 391.025 168.183C390.965 168.251 390.882 168.295 390.793 168.306C388.788 168.279 386.79 168.083 384.818 167.722ZM396.601 168.008C396.524 167.997 396.452 167.96 396.396 167.905C396.34 167.849 396.304 167.777 396.293 167.699C396.285 167.651 396.286 167.601 396.297 167.553C396.308 167.505 396.329 167.46 396.358 167.42C396.386 167.38 396.423 167.346 396.465 167.32C396.506 167.294 396.553 167.277 396.601 167.27C398.548 167.046 400.481 166.719 402.393 166.291C402.441 166.278 402.491 166.275 402.54 166.283C402.589 166.29 402.635 166.307 402.678 166.333C402.72 166.359 402.756 166.393 402.784 166.433C402.813 166.474 402.833 166.519 402.844 166.568C402.854 166.616 402.855 166.666 402.845 166.715C402.836 166.763 402.817 166.809 402.789 166.85C402.761 166.891 402.726 166.926 402.684 166.953C402.643 166.98 402.596 166.998 402.548 167.006C400.606 167.452 398.64 167.781 396.659 167.991L396.601 168.008ZM379.232 166.044C379.169 166.041 379.109 166.024 379.054 165.993C377.206 165.19 375.489 164.113 373.96 162.798C373.884 162.733 373.838 162.64 373.83 162.54C373.822 162.44 373.855 162.341 373.92 162.265C373.985 162.189 374.078 162.143 374.178 162.135C374.277 162.128 374.376 162.16 374.452 162.225C375.922 163.495 377.576 164.533 379.357 165.306C379.444 165.348 379.511 165.423 379.543 165.514C379.575 165.605 379.57 165.705 379.529 165.792C379.501 165.857 379.455 165.912 379.396 165.95C379.337 165.987 379.268 166.006 379.197 166.004L379.232 166.044ZM407.819 165.128C407.79 165.036 407.797 164.935 407.84 164.848C407.882 164.76 407.957 164.692 408.048 164.659C409.906 164.04 411.747 163.319 413.537 162.534C413.618 162.506 413.707 162.507 413.787 162.537C413.868 162.568 413.935 162.625 413.977 162.701C414.002 162.743 414.017 162.79 414.024 162.839C414.03 162.887 414.027 162.937 414.014 162.984C414.001 163.031 413.98 163.076 413.95 163.114C413.92 163.153 413.882 163.186 413.84 163.21C412.022 164.006 410.146 164.733 408.282 165.357H408.168C408.094 165.358 408.021 165.336 407.959 165.295C407.897 165.255 407.849 165.196 407.819 165.128ZM419.031 160.605C418.957 160.619 418.881 160.611 418.812 160.582C418.742 160.552 418.683 160.502 418.643 160.439C418.619 160.397 418.605 160.351 418.599 160.304C418.594 160.257 418.598 160.209 418.611 160.163C418.625 160.117 418.647 160.074 418.677 160.037C418.707 160 418.744 159.969 418.785 159.946C420.501 158.973 422.216 157.92 423.783 156.826C423.862 156.771 423.961 156.749 424.056 156.766C424.151 156.784 424.236 156.838 424.291 156.918C424.32 156.956 424.34 157.001 424.351 157.048C424.362 157.094 424.364 157.143 424.356 157.191C424.348 157.238 424.331 157.283 424.305 157.324C424.279 157.365 424.245 157.4 424.206 157.427C422.611 158.538 420.907 159.597 419.146 160.582C419.088 160.599 419.026 160.599 418.968 160.582L419.031 160.605ZM370.495 158.355C370.422 158.371 370.345 158.366 370.274 158.338C370.204 158.311 370.144 158.262 370.101 158.2C369.786 157.628 369.495 157.055 369.226 156.482C368.667 155.236 368.225 153.94 367.905 152.612C367.892 152.565 367.889 152.516 367.895 152.467C367.902 152.419 367.917 152.373 367.942 152.33C367.966 152.288 367.999 152.251 368.038 152.222C368.077 152.193 368.121 152.172 368.168 152.16C368.265 152.137 368.366 152.153 368.45 152.205C368.535 152.256 368.596 152.339 368.62 152.434C368.924 153.721 369.351 154.975 369.895 156.179C370.152 156.752 370.438 157.324 370.741 157.828C370.765 157.869 370.78 157.915 370.785 157.962C370.791 158.009 370.787 158.057 370.775 158.103C370.762 158.148 370.74 158.191 370.711 158.229C370.682 158.266 370.645 158.297 370.604 158.32C370.546 158.337 370.485 158.337 370.427 158.32L370.495 158.355ZM428.717 153.814C428.659 153.804 428.604 153.78 428.557 153.744C428.51 153.708 428.473 153.662 428.448 153.608C428.383 153.537 428.346 153.444 428.346 153.348C428.346 153.251 428.383 153.158 428.448 153.087C429.915 151.791 431.291 150.394 432.565 148.907C432.598 148.873 432.637 148.846 432.681 148.828C432.725 148.809 432.772 148.8 432.819 148.8C432.867 148.8 432.914 148.809 432.957 148.828C433.001 148.846 433.041 148.873 433.074 148.907C433.142 148.977 433.18 149.071 433.18 149.168C433.18 149.265 433.142 149.359 433.074 149.428C431.776 150.945 430.376 152.37 428.883 153.694C428.816 153.749 428.734 153.781 428.648 153.786L428.717 153.814ZM367.597 146.944C367.498 146.944 367.403 146.904 367.334 146.834C367.264 146.765 367.225 146.67 367.225 146.571C367.244 144.572 367.435 142.578 367.797 140.611C367.816 140.514 367.872 140.428 367.953 140.372C368.034 140.315 368.134 140.292 368.231 140.307C368.279 140.316 368.324 140.335 368.364 140.361C368.404 140.387 368.439 140.422 368.466 140.462C368.493 140.501 368.512 140.546 368.522 140.594C368.532 140.641 368.532 140.69 368.523 140.737C368.178 142.663 367.998 144.615 367.985 146.571C367.985 146.619 367.976 146.667 367.957 146.712C367.939 146.756 367.912 146.796 367.878 146.83C367.844 146.864 367.804 146.891 367.759 146.91C367.715 146.928 367.667 146.938 367.619 146.938L367.597 146.944ZM369.455 135.263C369.362 135.233 369.284 135.168 369.238 135.081C369.192 134.994 369.182 134.894 369.209 134.799C369.718 133.082 370.352 131.221 371.101 129.16C371.137 129.069 371.207 128.996 371.295 128.955C371.383 128.915 371.484 128.91 371.576 128.942C371.665 128.979 371.736 129.049 371.774 129.138C371.811 129.227 371.812 129.328 371.776 129.417C371.016 131.461 370.398 133.288 369.901 135.011C369.877 135.087 369.83 135.153 369.766 135.2C369.702 135.247 369.625 135.274 369.546 135.275L369.455 135.263ZM373.457 124.092C373.412 124.072 373.37 124.044 373.336 124.008C373.302 123.972 373.275 123.93 373.257 123.884C373.239 123.837 373.23 123.788 373.231 123.738C373.232 123.689 373.243 123.64 373.263 123.594C373.886 122.048 374.732 120.268 375.635 118.304V118.206C375.683 118.128 375.758 118.07 375.846 118.043C375.934 118.016 376.028 118.023 376.111 118.062C376.194 118.101 376.26 118.17 376.296 118.255C376.331 118.339 376.334 118.434 376.304 118.521V118.619C375.412 120.537 374.555 122.346 373.926 123.915C373.899 123.977 373.854 124.03 373.797 124.066C373.74 124.103 373.673 124.122 373.606 124.121L373.457 124.092ZM378.5 113.368C378.455 113.35 378.414 113.323 378.38 113.288C378.291 113.249 378.222 113.177 378.186 113.087C378.151 112.996 378.153 112.896 378.191 112.807C379.072 110.774 379.769 108.977 380.318 107.31C380.349 107.217 380.416 107.14 380.504 107.095C380.591 107.05 380.693 107.041 380.787 107.07C380.879 107.104 380.955 107.172 380.996 107.261C381.038 107.351 381.043 107.453 381.01 107.545C380.438 109.223 379.746 111.044 378.86 113.099C378.83 113.165 378.782 113.22 378.721 113.259C378.66 113.298 378.589 113.318 378.517 113.317L378.5 113.368ZM382.05 102.054C381.956 102.035 381.872 101.98 381.816 101.902C381.76 101.823 381.735 101.726 381.747 101.631C381.909 100.612 381.991 99.5818 381.993 98.5502C382 97.6472 381.917 96.7459 381.747 95.8591C381.742 95.7749 381.764 95.6911 381.81 95.6207C381.857 95.5503 381.925 95.4973 382.005 95.4698C382.051 95.4546 382.1 95.4488 382.149 95.4527C382.198 95.4566 382.245 95.4701 382.289 95.4925C382.333 95.5148 382.371 95.5455 382.403 95.5829C382.435 95.6203 382.459 95.6636 382.474 95.7102C382.652 96.6539 382.738 97.6127 382.731 98.5731C382.731 99.6414 382.645 100.708 382.474 101.762C382.459 101.848 382.415 101.927 382.35 101.984C382.284 102.042 382.2 102.074 382.113 102.077L382.05 102.054ZM379.529 90.935C379.466 90.9341 379.404 90.9174 379.349 90.8864C379.294 90.8554 379.248 90.8111 379.215 90.7575C377.962 89.2856 376.436 88.0721 374.721 87.1847C374.636 87.1374 374.572 87.0597 374.543 86.9672C374.513 86.8748 374.519 86.7745 374.56 86.6866C374.609 86.6013 374.688 86.5381 374.782 86.5103C374.876 86.4825 374.977 86.4923 375.064 86.5377C376.863 87.4708 378.467 88.7421 379.786 90.2823C379.852 90.3532 379.888 90.4462 379.888 90.5428C379.888 90.6394 379.852 90.7324 379.786 90.8033C379.72 90.8565 379.637 90.8849 379.552 90.8835L379.529 90.935ZM339.935 86.074C339.853 86.0721 339.775 86.0429 339.712 85.991C339.648 85.9391 339.604 85.8675 339.586 85.7877C339.575 85.7399 339.574 85.6905 339.582 85.6421C339.59 85.5938 339.608 85.5476 339.634 85.5061C339.66 85.4646 339.694 85.4287 339.734 85.4003C339.774 85.372 339.819 85.3519 339.867 85.3411C341.828 84.946 343.794 84.6082 345.756 84.3563C345.803 84.3498 345.851 84.3529 345.897 84.3653C345.943 84.3778 345.987 84.3992 346.024 84.4285C346.062 84.4579 346.094 84.4944 346.117 84.5361C346.141 84.5777 346.156 84.6236 346.162 84.6712C346.168 84.7186 346.165 84.7668 346.152 84.813C346.14 84.8593 346.119 84.9025 346.089 84.9404C346.06 84.9782 346.024 85.0098 345.982 85.0334C345.94 85.057 345.895 85.072 345.847 85.0777C343.875 85.3353 341.919 85.6502 340.038 86.0625H339.929L339.935 86.074ZM369.352 85.2266C367.446 84.7965 365.509 84.5169 363.56 84.3906C363.464 84.3819 363.375 84.3354 363.313 84.2614C363.251 84.1875 363.22 84.0919 363.228 83.9955C363.237 83.8983 363.283 83.8083 363.357 83.7443C363.43 83.6802 363.526 83.6472 363.623 83.652C365.605 83.7888 367.573 84.0759 369.512 84.5108C369.56 84.5151 369.606 84.529 369.649 84.5515C369.691 84.5741 369.729 84.605 369.759 84.6424C369.79 84.6797 369.812 84.7228 369.826 84.769C369.839 84.8153 369.843 84.8638 369.838 84.9116C369.826 85.0084 369.777 85.0969 369.701 85.1579C369.626 85.2189 369.529 85.2477 369.432 85.238L369.352 85.2266ZM351.685 84.5967C351.597 84.5775 351.519 84.5266 351.467 84.4538C351.414 84.3809 351.39 84.2912 351.399 84.2017C351.396 84.1541 351.402 84.1064 351.418 84.0614C351.434 84.0164 351.458 83.9751 351.49 83.9398C351.522 83.9045 351.561 83.8761 351.604 83.8561C351.647 83.8362 351.694 83.8252 351.742 83.8238C353.411 83.7035 355.464 83.5833 357.631 83.5375C357.726 83.5375 357.818 83.5755 357.886 83.6431C357.953 83.7108 357.991 83.8025 357.991 83.8982C357.993 83.9959 357.956 84.0904 357.888 84.1611C357.821 84.2318 357.728 84.2731 357.631 84.2761C355.481 84.3162 353.446 84.4421 351.742 84.5566L351.685 84.5967Z" fill="#E61C5D"/>
<path d="M436.281 144.71C436.204 144.712 436.128 144.69 436.064 144.648C436.025 144.622 435.992 144.588 435.966 144.549C435.94 144.51 435.923 144.467 435.914 144.421C435.906 144.375 435.906 144.328 435.916 144.282C435.926 144.236 435.945 144.193 435.972 144.155C436.448 143.316 436.876 142.45 437.253 141.561C437.294 141.473 437.367 141.404 437.458 141.368C437.548 141.332 437.648 141.331 437.739 141.367C437.827 141.406 437.897 141.478 437.932 141.568C437.968 141.658 437.966 141.759 437.928 141.848C437.54 142.765 437.097 143.658 436.601 144.522C436.57 144.58 436.522 144.629 436.465 144.662C436.407 144.695 436.342 144.712 436.275 144.71H436.281Z" fill="#E61C5D"/>
<path d="M105.545 157.96L115.791 266.787H121.034L110.314 157.719L105.545 157.96Z" fill="#C2C4C6"/>
<path d="M120.085 157.96L126.992 265.356H131.286L125.322 157.719L120.085 157.96Z" fill="#C2C4C6"/>
<path d="M119.37 366.786H114.122V274.425H121.989L119.37 366.786Z" fill="#C2C4C6"/>
<path d="M149.159 366.305H143.916L141.772 274.425H149.633L149.159 366.305Z" fill="#C2C4C6"/>
<path d="M157.02 366.546H162.263L164.407 274.66H156.546L157.02 366.546Z" fill="#C2C4C6"/>
<path d="M196.82 366.546H202.063L202.303 275.382H194.436L196.82 366.546Z" fill="#C2C4C6"/>
<path d="M154.876 263.444H113.173V275.851H154.876V263.444Z" fill="#2E3135"/>
<path d="M203.732 263.444H154.876V275.851H203.732V263.444Z" fill="#3F4347"/>
<path d="M160.359 346.975V356.761H171.56V345.784L160.359 346.975Z" fill="#F9B499"/>
<path d="M159.879 365.435V356.045L171.588 355.896L184.676 362.813C185.036 363.004 185.338 363.29 185.549 363.64C185.759 363.99 185.87 364.391 185.871 364.799C185.869 365.391 185.635 365.959 185.219 366.379C184.802 366.799 184.238 367.038 183.647 367.044L161.72 367.244C161.48 367.249 161.241 367.205 161.018 367.116C160.795 367.028 160.592 366.895 160.42 366.727C160.249 366.558 160.113 366.357 160.02 366.135C159.927 365.914 159.879 365.675 159.879 365.435Z" fill="#E61C5D"/>
<path d="M211.834 346.741V356.52H223.035V345.544L211.834 346.741Z" fill="#F9B499"/>
<path d="M211.36 365.194V355.804L223.069 355.655L236.134 362.572C236.495 362.763 236.797 363.049 237.007 363.399C237.218 363.749 237.329 364.15 237.329 364.559C237.329 365.151 237.095 365.719 236.678 366.14C236.262 366.56 235.696 366.799 235.104 366.803L213.178 367.009C212.939 367.01 212.703 366.964 212.482 366.873C212.262 366.782 212.061 366.648 211.892 366.48C211.724 366.311 211.59 366.111 211.498 365.89C211.407 365.67 211.36 365.433 211.36 365.194Z" fill="#E61C5D"/>
<path d="M82.4294 366.786H86.0029L105.305 223.587H101.492L82.4294 366.786Z" fill="#9EA0A3"/>
<path d="M151.777 366.786H148.204L128.901 223.587H132.715L151.777 366.786Z" fill="#9EA0A3"/>
<path d="M141.297 302.109H92.2007V305.928H141.297V302.109Z" fill="#9EA0A3"/>
<path d="M269.507 366.786H273.08L292.388 223.587H288.575L269.507 366.786Z" fill="#9EA0A3"/>
<path d="M338.86 366.786H335.281L315.979 223.587H319.792L338.86 366.786Z" fill="#9EA0A3"/>
<path d="M328.374 302.109H279.278V305.928H328.374V302.109Z" fill="#9EA0A3"/>
<path d="M167.032 144.836L167.506 159.391L103.636 160.822L102.921 146.743L167.032 144.836Z" fill="#2E3135"/>
<path d="M336.476 218.818H93.63C91.5238 218.818 89.8164 220.528 89.8164 222.637C89.8164 224.746 91.5238 226.456 93.63 226.456H336.476C338.582 226.456 340.289 224.746 340.289 222.637C340.289 220.528 338.582 218.818 336.476 218.818Z" fill="#E1E1E2"/>
<path d="M153.687 351.51H183.715L188.718 285.665C188.718 285.665 188.958 276.12 188.244 271.586C188.244 271.586 200.633 279.699 203.492 281.13L202.617 346.638C202.617 346.638 222.8 351.293 232.091 348.43L235.43 277.071C235.43 277.071 237.809 259.172 223.995 247.715L198.838 226.565L133.578 226.341C133.578 226.341 126.717 252.49 140.8 267.526L154.836 281.531C155.387 282.081 155.818 282.739 156.1 283.465C156.383 284.19 156.511 284.967 156.477 285.745L153.687 351.51Z" fill="#2F2E41"/>
<path opacity="0.2" d="M188.244 271.563C188.244 271.563 188.958 262.974 182.286 253.183L169.416 231.941C169.416 231.941 196.523 253.555 207.237 265.579C209.737 268.386 211.1 272.027 211.056 275.788L210.136 347.932C207.605 347.645 205.094 347.201 202.617 346.603L203.492 281.13L188.244 271.563Z" fill="black"/>
<path d="M171.2 148.226L145.797 154.141C145.797 154.141 133.407 154.381 129.593 167.745L123.99 197.221L137.455 206.885L148.507 218.801H218.981L215.15 172.28C215.15 172.28 211.571 159.322 186.906 153.751L171.2 148.226Z" fill="#E61C5D"/>
<path opacity="0.2" d="M149.873 167.029L148.73 187.504L148.53 218.801H166.094C166.094 218.801 155.116 188.271 149.873 167.029Z" fill="black"/>
<path opacity="0.2" d="M199.187 218.801H210.216C210.216 218.801 203.258 194.713 203.018 175.618L199.187 218.801Z" fill="black"/>
<path d="M280.199 149.606H212.109C208.799 149.606 206.117 152.292 206.117 155.606V198.738C206.117 202.052 208.799 204.738 212.109 204.738H280.199C283.508 204.738 286.191 202.052 286.191 198.738V155.606C286.191 152.292 283.508 149.606 280.199 149.606Z" fill="#2F2E41"/>
<path opacity="0.2" d="M280.279 149.606H212.029C208.764 149.606 206.117 152.257 206.117 155.526V198.818C206.117 202.088 208.764 204.738 212.029 204.738H280.279C283.544 204.738 286.191 202.088 286.191 198.818V155.526C286.191 152.257 283.544 149.606 280.279 149.606Z" fill="black"/>
<path d="M250.536 138.716C250.511 138.964 250.402 139.196 250.227 139.374C250.054 139.552 249.827 139.669 249.581 139.706L242.103 140.777C242.103 140.777 244.487 141.252 244.487 142.684C244.487 142.684 244.961 143.64 243.532 144.596C243.807 145.078 243.931 145.631 243.888 146.185C243.845 146.738 243.638 147.266 243.292 147.699C243.292 147.699 243.904 149.234 243.006 149.657L226.134 149.606C226.134 149.606 231.851 138.865 241.148 137.674L249.152 137.473H249.404C249.562 137.474 249.717 137.508 249.862 137.572C250.006 137.636 250.135 137.73 250.241 137.846C250.348 137.963 250.429 138.101 250.479 138.25C250.53 138.4 250.549 138.558 250.536 138.716Z" fill="#F9B499"/>
<path d="M250.536 138.716C250.511 138.964 250.402 139.196 250.227 139.374C250.054 139.552 249.827 139.669 249.581 139.706L242.103 140.777C239.575 140.618 237.064 141.288 234.95 142.684C236.619 139.346 244.007 139.346 244.007 139.346C247.374 139.105 248.678 138.258 249.152 137.473H249.404C249.562 137.474 249.717 137.508 249.862 137.572C250.006 137.636 250.135 137.73 250.241 137.846C250.348 137.963 250.429 138.101 250.479 138.25C250.53 138.4 250.549 138.558 250.536 138.716Z" fill="#F7A48B"/>
<path d="M242.577 145.071L238.992 148.65C238.992 148.65 238.175 149.468 234.418 149.657" stroke="#F7A48B" stroke-miterlimit="10"/>
<path d="M186.814 145.071V154.977C186.814 157.034 185.998 159.008 184.545 160.463C183.092 161.917 181.122 162.735 179.067 162.735C177.012 162.735 175.042 161.917 173.589 160.463C172.136 159.008 171.32 157.034 171.32 154.977V139.821L173.836 138.762L186.814 145.071Z" fill="#F9B499"/>
<path d="M186.814 145.071V152.119C184.693 152.022 179.021 151.06 175.494 143.726L186.814 145.071Z" fill="#F7A48B"/>
<path d="M192.532 135.767C194.9 135.767 196.82 133.042 196.82 129.681C196.82 126.319 194.9 123.594 192.532 123.594C190.164 123.594 188.244 126.319 188.244 129.681C188.244 133.042 190.164 135.767 192.532 135.767Z" fill="#E61C5D"/>
<path opacity="0.2" d="M192.057 134.553C193.769 134.553 195.156 132.584 195.156 130.156C195.156 127.727 193.769 125.759 192.057 125.759C190.346 125.759 188.958 127.727 188.958 130.156C188.958 132.584 190.346 134.553 192.057 134.553Z" fill="black"/>
<path d="M191.452 124.024C189.311 118.282 182.929 115.366 177.196 117.509C171.462 119.652 168.55 126.044 170.69 131.785L174.107 140.952C176.247 146.694 182.63 149.611 188.363 147.467C194.096 145.324 197.009 138.932 194.869 133.191L191.452 124.024Z" fill="#F9B499"/>
<path d="M166.02 136.614C166.02 136.614 159.97 129.24 164.304 118.934C164.667 118.043 165.294 117.286 166.1 116.763C166.621 116.4 167.237 116.197 167.873 116.181C168.508 116.165 169.134 116.335 169.673 116.672C169.673 116.672 169.673 116.54 169.725 116.323C169.88 115.441 170.21 114.6 170.694 113.847C171.178 113.095 171.808 112.447 172.545 111.941C173.282 111.435 174.113 111.082 174.988 110.901C175.864 110.72 176.766 110.716 177.643 110.889C180.72 111.443 183.866 111.507 186.963 111.078C187.483 111.009 187.997 110.901 188.501 110.757C190.29 110.265 196.168 109.24 196.568 117.124C196.568 117.124 197.969 121.275 191.668 124.333L190.714 122.306C190.205 121.425 189.559 120.633 188.798 119.958C188.798 119.958 182.274 125.478 174.167 124.047L173.252 126.909L166.02 136.614Z" fill="#2F2E41"/>
<path d="M170.954 134.553H174.384V141.475H170.954C170.044 141.475 169.171 141.114 168.528 140.469C167.885 139.825 167.523 138.951 167.523 138.04C167.517 137.585 167.6 137.132 167.77 136.71C167.939 136.287 168.19 135.902 168.51 135.578C168.829 135.253 169.209 134.995 169.629 134.82C170.049 134.644 170.499 134.553 170.954 134.553Z" fill="#F9B499"/>
<path d="M170.131 127.648C170.131 127.648 168.673 115.624 177.621 110.889L179.65 111.238C179.65 111.238 172.789 118.178 174.436 127.448L170.131 127.648Z" fill="#E61C5D"/>
<path d="M172.515 140.302C175.148 140.302 177.283 137.256 177.283 133.5C177.283 129.743 175.148 126.698 172.515 126.698C169.881 126.698 167.746 129.743 167.746 133.5C167.746 137.256 169.881 140.302 172.515 140.302Z" fill="#3F4347"/>
<path d="M170.13 139.346C172.764 139.346 174.899 136.728 174.899 133.5C174.899 130.271 172.764 127.654 170.13 127.654C167.497 127.654 165.362 130.271 165.362 133.5C165.362 136.728 167.497 139.346 170.13 139.346Z" fill="#E61C5D"/>
<path opacity="0.2" d="M169.77 137.433C171.548 137.433 172.989 135.564 172.989 133.259C172.989 130.954 171.548 129.085 169.77 129.085C167.992 129.085 166.551 130.954 166.551 133.259C166.551 135.564 167.992 137.433 169.77 137.433Z" fill="black"/>
<path d="M140.457 220.965C150.261 220.965 158.209 213.059 158.209 203.307C158.209 193.555 150.261 185.649 140.457 185.649C130.652 185.649 122.704 193.555 122.704 203.307C122.704 213.059 130.652 220.965 140.457 220.965Z" fill="#E61C5D"/>
<path d="M171.56 205.689C171.56 205.689 130.571 228.128 125.82 207.12C125.82 207.12 121.766 190.894 139.639 190.894C139.639 190.894 153.224 190.653 173.007 194.713L193.252 198.898C195.096 199.283 196.751 200.294 197.935 201.761L206.791 212.64C206.883 212.754 206.95 212.886 206.985 213.028C207.021 213.17 207.026 213.318 206.998 213.462C206.971 213.606 206.913 213.742 206.828 213.861C206.743 213.98 206.633 214.079 206.505 214.151C206.321 214.258 206.107 214.303 205.895 214.279C205.683 214.255 205.484 214.164 205.328 214.02L195.391 204.979L197.169 209.725C197.35 210.195 197.421 210.7 197.377 211.201C197.332 211.703 197.173 212.187 196.911 212.617C196.34 213.51 195.271 214.289 193.247 213.814C193.247 213.814 191.817 215.245 189.433 213.814C189.433 213.814 187.426 215.016 182.486 215.216C182.359 215.237 182.229 215.213 182.117 215.15C182.004 215.087 181.917 214.988 181.868 214.869C181.819 214.749 181.811 214.617 181.847 214.493C181.882 214.369 181.958 214.261 182.063 214.186C182.978 213.315 184.419 212.233 185.859 212.376L184.43 209.038C184.43 209.038 174.893 210.464 171.56 205.689Z" fill="#F9B499"/>
<path d="M189.193 201.635C189.193 201.635 194.436 201.154 195.39 204.973" stroke="#F7A48B" stroke-miterlimit="10"/>
<path d="M187.049 202.591L189.953 203.983C190.738 204.356 191.411 204.93 191.905 205.647C192.399 206.363 192.696 207.197 192.766 208.065L193.246 213.791" stroke="#F7A48B" stroke-miterlimit="10"/>
<path d="M189.433 213.808L189.25 210.017C189.227 209.408 189.073 208.81 188.8 208.265C188.527 207.72 188.14 207.24 187.666 206.857L185.379 204.973" stroke="#F7A48B" stroke-miterlimit="10"/>
<path d="M282.548 149.606H218.335C213.955 149.606 210.405 153.161 210.405 157.547V196.797C210.405 201.183 213.955 204.738 218.335 204.738H282.548C286.928 204.738 290.479 201.183 290.479 196.797V157.547C290.479 153.161 286.928 149.606 282.548 149.606Z" fill="#2F2E41"/>
<path d="M265.579 155.097H265.573C264.455 155.097 263.549 156.004 263.549 157.124V165.243C263.549 166.362 264.455 167.27 265.573 167.27H265.579C266.697 167.27 267.603 166.362 267.603 165.243V157.124C267.603 156.004 266.697 155.097 265.579 155.097Z" fill="#E61C5D"/>
<path d="M271.777 155.097H271.771C270.653 155.097 269.747 156.004 269.747 157.124V165.243C269.747 166.362 270.653 167.27 271.771 167.27H271.777C272.894 167.27 273.801 166.362 273.801 165.243V157.124C273.801 156.004 272.894 155.097 271.777 155.097Z" fill="#E61C5D"/>
<path d="M278.209 155.097H278.203C277.085 155.097 276.179 156.004 276.179 157.124V165.243C276.179 166.362 277.085 167.27 278.203 167.27H278.209C279.327 167.27 280.233 166.362 280.233 165.243V157.124C280.233 156.004 279.327 155.097 278.209 155.097Z" fill="#E61C5D"/>
<path d="M241.851 177.055L250.908 216.19H223.281C223.091 216.189 222.904 216.226 222.728 216.298C222.553 216.37 222.394 216.476 222.26 216.611C222.126 216.745 222.02 216.904 221.948 217.079C221.876 217.255 221.839 217.443 221.84 217.633C221.84 218.014 221.991 218.379 222.26 218.649C222.529 218.918 222.894 219.07 223.275 219.07H263.578C264.097 219.072 264.609 218.958 265.079 218.737C265.548 218.515 265.962 218.191 266.291 217.789C266.62 217.387 266.855 216.917 266.979 216.412C267.103 215.908 267.113 215.382 267.008 214.873L259.29 177.29L241.851 177.055Z" fill="#E61C5D"/>
<path opacity="0.2" d="M241.863 177.055L241.668 204.647L248.175 204.841L241.863 177.055Z" fill="black"/>
<path d="M63.0528 295.072C57.038 282.699 46.472 276.344 34.6596 279.848C22.8472 283.352 20.9662 299.922 29.8569 304.102C38.7476 308.281 47.5812 296.086 52.2353 293.566C56.8893 291.047 63.0528 295.072 63.0528 295.072Z" fill="#E61C5D"/>
<path d="M68.8731 328.081C68.8731 326.586 68.7759 325.092 68.7245 323.597C68.6216 320.62 68.5148 317.645 68.4043 314.671C68.2099 309.22 67.621 303.878 65.374 298.851C63.3775 294.304 60.0526 290.47 55.8372 287.852C54.2721 286.904 52.5851 286.174 50.8229 285.682C49.2281 284.06 47.1953 282.94 44.9739 282.459C42.2278 281.894 39.4037 281.821 36.632 282.241C36.5234 282.241 36.5348 282.418 36.632 282.396C39.272 282.058 41.9528 282.252 44.5165 282.968C45.6166 283.265 46.6822 283.677 47.6954 284.199C48.335 284.534 48.9485 284.917 49.5308 285.344C47.1375 284.843 44.6643 284.866 42.2809 285.413C41.4206 285.619 40.5791 285.896 39.7652 286.243C39.1202 286.098 38.4589 286.039 37.7984 286.066C36.9319 286.098 36.0713 286.223 35.2312 286.438C33.5136 286.917 31.8718 287.636 30.3542 288.574C30.2627 288.574 30.3542 288.751 30.44 288.7C31.9316 287.869 33.5304 287.249 35.1912 286.856C35.999 286.678 36.8189 286.559 37.644 286.501C38.0954 286.478 38.5477 286.478 38.9991 286.501C35.6225 288.061 32.9077 290.769 31.3376 294.145C31.3376 294.236 31.4291 294.322 31.4748 294.225C32.4156 292.27 33.7816 290.552 35.4725 289.196C37.1634 287.839 39.1362 286.879 41.2461 286.386C41.5148 286.329 41.7835 286.295 42.0465 286.243C41.9836 286.638 41.9436 287.039 41.9207 287.434C41.835 288.035 41.7321 288.637 41.6177 289.232C41.3722 290.459 41.0514 291.669 40.6572 292.856C40.2409 294.058 39.7462 295.23 39.1763 296.366C38.6428 297.579 37.9672 298.725 37.1638 299.779C37.1453 299.791 37.132 299.809 37.1267 299.83C37.1214 299.852 37.1244 299.874 37.1352 299.893C37.1514 299.906 37.1716 299.913 37.1924 299.913C37.2131 299.913 37.2333 299.906 37.2495 299.893C37.2656 299.882 37.2776 299.866 37.2838 299.847C37.9985 298.702 38.8276 297.7 39.4794 296.538C40.1025 295.436 40.6397 294.287 41.086 293.103C41.5339 291.897 41.8801 290.656 42.1209 289.392C42.2577 288.728 42.3607 288.057 42.4296 287.383C42.5152 286.976 42.544 286.56 42.5154 286.146C43.9069 285.939 45.3193 285.912 46.7177 286.066C46.1917 289.02 45.6314 292.101 43.9733 294.654C43.9219 294.734 44.0705 294.82 44.122 294.729C44.9052 293.37 45.5967 291.96 46.1917 290.509C46.7402 289.099 47.0885 287.619 47.2266 286.112C49.6718 286.443 52.0326 287.233 54.1848 288.442C58.2375 290.806 61.4744 294.352 63.4644 298.605C65.5427 303.173 66.7082 308.103 66.8949 313.119C67.2894 319.418 67.3694 325.813 68.0041 332.117C68.0041 332.529 68.6959 332.69 68.7702 332.197C68.9236 330.831 68.958 329.453 68.8731 328.081Z" fill="#2F2E41"/>
<path d="M54.974 286.787C54.5732 286.318 54.1139 285.902 53.6075 285.55C53.1101 285.15 52.5726 284.755 52.0752 284.405C51.0283 283.688 49.8687 283.152 48.6447 282.819C48.5418 282.819 48.496 282.957 48.6447 282.974C49.8689 283.286 51.0142 283.852 52.0066 284.634C52.5173 284.994 53.0043 285.386 53.4645 285.808C53.8816 286.238 54.3436 286.622 54.8425 286.953C54.9225 286.982 55.0369 286.856 54.974 286.787Z" fill="#2F2E41"/>
<path d="M35.7916 291.276C34.7957 292.42 33.8715 293.625 33.0243 294.883C32.2005 296.17 31.5071 297.535 30.9546 298.96C30.9546 298.96 31.006 299.017 31.0289 298.96C32.4059 296.266 34.031 293.707 35.8831 291.316C35.9689 291.305 35.8545 291.19 35.7916 291.276Z" fill="#2F2E41"/>
<path d="M48.7246 290.051C48.5953 290.82 48.3646 291.569 48.0385 292.278C47.708 292.982 47.3218 293.657 46.8835 294.299C46.8835 294.299 46.8835 294.385 46.9464 294.299C47.99 293.106 48.6566 291.629 48.8618 290.057C48.8904 289.988 48.7303 289.948 48.7246 290.051Z" fill="#2F2E41"/>
<path d="M68.0386 295.37C68.0386 295.37 76.552 284.657 93.0241 288.453C108.633 292.072 115.803 320.74 100.062 324.176C84.3221 327.611 87.015 301.101 81.2689 296.561C77.0494 293.263 70.9717 293.973 68.0386 295.37Z" fill="#E61C5D"/>
<path d="M105.66 304.119C104.59 303.179 103.459 302.31 102.275 301.519C101.16 300.757 99.9461 300.15 98.6673 299.716C98.0265 298.742 97.3116 297.819 96.529 296.956C95.0762 295.396 93.3998 294.06 91.5547 292.994H92.0521C92.9263 292.948 93.8023 292.948 94.6765 292.994C96.4261 293.103 98.1411 293.532 99.7365 294.259C99.828 294.259 99.9023 294.156 99.8108 294.116C98.1858 293.414 96.4863 292.899 94.7451 292.582C93.8977 292.432 93.0384 292.359 92.1779 292.364C91.7172 292.351 91.2561 292.377 90.8 292.444H90.5313C89.0193 291.689 87.4249 291.113 85.78 290.726C85.9358 290.698 86.0889 290.656 86.2374 290.6C87.0391 290.419 87.8504 290.283 88.6674 290.194C90.3028 290.007 91.9554 290.032 93.5844 290.268C93.6931 290.268 93.7102 290.131 93.5844 290.125C91.9367 289.92 90.2751 289.849 88.6159 289.913C87.2213 289.954 85.8343 290.136 84.4764 290.457C83.4848 290.274 82.4819 290.16 81.4747 290.114C75.7572 289.862 69.5022 292.009 65.9402 296.727C62.3782 301.445 61.7264 307.737 61.1089 313.44C60.1754 321.387 59.9955 329.404 60.5715 337.385C60.5715 337.849 61.2633 337.768 61.2804 337.322C61.4977 330.56 61.7378 323.844 62.3782 317.059C62.6812 313.95 63.0128 310.841 63.5217 307.726C63.9058 305.065 64.6763 302.474 65.8087 300.036C67.0251 297.541 68.9531 295.463 71.349 294.064C73.7541 292.679 76.4382 291.849 79.2049 291.637C81.6849 291.437 84.1808 291.671 86.5805 292.33C86.5061 292.815 86.5061 293.31 86.5805 293.795C86.6319 294.405 86.7528 295.006 86.9407 295.587C87.1183 296.141 87.348 296.675 87.6268 297.185C87.9241 297.758 88.3072 298.221 88.6616 298.788C88.6616 298.874 88.8446 298.788 88.7817 298.697C88.0993 297.729 87.6528 296.616 87.4781 295.444C87.3798 294.893 87.313 294.337 87.278 293.778V292.501C89.8859 293.306 92.3198 294.594 94.4535 296.297C94.8524 296.623 95.2341 296.969 95.597 297.334C95.0534 297.839 94.5821 298.417 94.1962 299.052C93.6341 299.877 93.1462 300.751 92.7382 301.662C91.9708 303.469 91.446 305.369 91.1774 307.314C91.1774 307.417 91.3089 307.451 91.3203 307.314C91.6237 305.41 92.2585 303.575 93.1956 301.891C93.6296 301.059 94.1166 300.256 94.6536 299.487C94.9223 299.092 95.2254 298.697 95.5112 298.313C95.6713 298.118 95.8428 297.912 96.0029 297.683C97.9376 299.575 99.5144 301.802 100.657 304.256C99.8802 305.079 99.2325 306.016 98.7359 307.033C98.147 308.09 97.6349 309.189 97.2036 310.32C96.4081 312.513 95.7512 314.754 95.2368 317.03C95.2293 317.05 95.2299 317.072 95.2385 317.091C95.2471 317.11 95.2629 317.125 95.2825 317.133C95.3031 317.141 95.3258 317.14 95.346 317.132C95.3662 317.123 95.3823 317.107 95.3912 317.087C95.3969 317.069 95.3969 317.049 95.3912 317.03C95.9065 314.741 96.7056 312.525 97.7696 310.434C98.2671 309.398 98.8045 308.361 99.3363 307.388C99.9019 306.463 100.415 305.508 100.874 304.525C101.965 306.927 102.601 309.511 102.75 312.146C102.75 312.255 102.915 312.243 102.904 312.146C102.599 308.015 101.339 304.013 99.2219 300.454C100.234 300.859 101.224 301.316 102.189 301.823C103.428 302.473 104.581 303.277 105.62 304.216C105.637 304.308 105.74 304.216 105.66 304.119Z" fill="#2F2E41"/>
<path d="M93.6072 304.72C93.1212 306.352 92.498 307.926 92.0521 309.564C91.5996 311.14 91.3554 312.768 91.3259 314.408H91.4003C91.8517 311.124 92.645 307.896 93.7673 304.777C93.7711 304.767 93.7727 304.756 93.7722 304.744C93.7716 304.733 93.7689 304.722 93.7641 304.712C93.7593 304.702 93.7526 304.693 93.7443 304.685C93.736 304.678 93.7264 304.672 93.7159 304.668C93.7053 304.665 93.6942 304.663 93.683 304.664C93.6719 304.664 93.661 304.667 93.6509 304.672C93.6408 304.676 93.6317 304.683 93.6243 304.691C93.6168 304.7 93.611 304.709 93.6072 304.72Z" fill="#2F2E41"/>
<path d="M104.024 300.701C103.373 300.079 102.636 299.554 101.835 299.143C101.025 298.77 100.183 298.471 99.3189 298.25C99.2275 298.25 99.1989 298.376 99.3189 298.399C100.18 298.637 101.006 298.991 101.772 299.452C102.546 299.852 103.29 300.309 103.996 300.821C103.996 300.821 104.059 300.741 104.024 300.701Z" fill="#2F2E41"/>
<path d="M76.1174 281.061C76.1174 281.061 77.6955 261.818 91.9836 255.588C103.91 250.401 110.743 263.799 102.332 272.021C95.4827 278.668 84.5393 275.668 76.1174 281.061Z" fill="#E61C5D"/>
<path d="M99.6622 259.31C97.4866 260.192 95.3638 261.199 93.3043 262.327C91.5935 263.313 89.9473 264.406 88.3758 265.602C88.6159 265.116 88.8218 264.566 89.0619 264.131C89.4288 263.385 89.8334 262.659 90.274 261.955C91.1402 260.496 92.1829 259.15 93.3786 257.947C93.453 257.89 93.3786 257.775 93.2643 257.844C92.0625 259.042 90.9557 260.333 89.9538 261.703C89.4623 262.404 89.0081 263.13 88.5931 263.879C88.1745 264.573 87.8514 265.32 87.6325 266.1L87.4782 266.215C84.9836 268.208 82.6964 270.449 80.6514 272.902C80.6653 272.706 80.7077 272.514 80.7772 272.33C81.0459 271.385 81.349 270.463 81.6463 269.53C82.2593 267.556 83.1261 265.669 84.2249 263.919C84.2299 263.91 84.2332 263.901 84.2345 263.891C84.2358 263.881 84.2351 263.871 84.2324 263.861C84.2297 263.852 84.2252 263.843 84.219 263.835C84.2128 263.827 84.205 263.821 84.1963 263.816C84.1877 263.811 84.1782 263.807 84.1683 263.806C84.1584 263.805 84.1484 263.806 84.1388 263.808C84.1292 263.811 84.1202 263.815 84.1124 263.822C84.1046 263.828 84.0981 263.836 84.0934 263.844C82.9669 265.598 81.9657 267.429 81.0974 269.324C80.6846 270.252 80.3388 271.209 80.0625 272.187C79.8565 272.816 79.7016 273.462 79.5994 274.116C78.9762 274.901 78.353 275.702 77.787 276.527C71.6463 285.27 68.5703 295.845 67.8385 306.432C67.6146 309.585 67.5592 312.749 67.6727 315.908C67.6963 319.099 67.9754 322.283 68.5074 325.43C68.5157 325.451 68.5281 325.471 68.5441 325.488C68.5601 325.505 68.5792 325.519 68.6004 325.529C68.6217 325.538 68.6446 325.544 68.6679 325.544C68.6912 325.545 68.7144 325.541 68.7361 325.533C68.7676 325.52 68.795 325.499 68.8152 325.472C68.8354 325.444 68.8476 325.412 68.8505 325.378C68.7876 322.595 68.496 319.819 68.4445 317.082C68.3912 314.292 68.4809 311.502 68.7133 308.722C69.1638 303.17 70.2065 297.682 71.8236 292.353C73.4769 286.895 75.9173 281.708 79.0677 276.956C79.668 276.83 80.2684 276.664 80.863 276.521L83.0013 275.948C84.3798 275.594 85.7202 275.105 87.0036 274.488C87.0951 274.488 87.0036 274.299 86.9178 274.351C85.6621 275.046 84.2968 275.52 82.8813 275.754C81.7664 275.971 80.5943 276.115 79.4851 276.372C80.5218 274.845 81.6291 273.387 82.8069 271.998C85.5221 272.248 88.26 272.045 90.9087 271.397C92.3141 271.052 93.6966 270.62 95.0482 270.103C96.4775 269.53 97.8326 268.837 99.2448 268.247C99.3477 268.247 99.2448 268.047 99.1819 268.099C96.6135 269.505 93.8095 270.429 90.9087 270.824C88.3614 271.231 85.7867 271.442 83.2072 271.454C84.242 270.309 85.2769 269.164 86.3861 268.087C90.1153 264.327 94.597 261.4 99.5364 259.499C99.8108 259.424 99.7537 259.27 99.6622 259.31Z" fill="#2F2E41"/>
<path d="M88.0498 259.373C87.4046 260.182 86.8198 261.037 86.3002 261.932C85.7636 262.875 85.3395 263.878 85.0366 264.921H85.0938C85.5741 263.976 85.9743 262.997 86.4546 262.058C86.9316 261.131 87.5067 260.257 88.1698 259.453C88.2099 259.401 88.0955 259.287 88.0498 259.373Z" fill="#2F2E41"/>
<path d="M101.297 265.78C100.369 266.292 99.3872 266.7 98.37 266.999C97.3923 267.327 96.3956 267.594 95.3855 267.801V267.881C96.4437 267.773 97.4867 267.548 98.4958 267.211C99.473 266.833 100.427 266.399 101.355 265.911C101.498 265.848 101.412 265.728 101.297 265.78Z" fill="#2F2E41"/>
<path d="M65.0597 277.597C64.9796 278.439 62.8985 270.612 50.8231 263.673C39.7997 257.374 26.7523 240.965 37.4555 230.595C46.1461 222.305 69.0162 240.478 65.0597 277.597Z" fill="#E61C5D"/>
<path d="M73.3443 322.429C73.1722 314.292 72.5327 306.171 71.429 298.107C70.4735 290.699 68.7627 283.408 66.3232 276.349C65.4256 273.801 64.3964 271.299 63.2929 268.831C63.367 267.879 63.367 266.921 63.2929 265.969C63.2301 264.732 63.1157 263.501 63.0014 262.276C62.887 261.05 62.7726 259.819 62.6183 258.594C62.4639 257.369 62.2123 256.149 62.1609 254.924C62.1609 254.905 62.1539 254.887 62.1412 254.873C62.1284 254.859 62.111 254.851 62.0923 254.849C62.0726 254.849 62.0536 254.857 62.0397 254.871C62.0258 254.885 62.0179 254.904 62.0179 254.924C62.2586 256.211 62.4 257.514 62.441 258.823C62.5325 260.008 62.6068 261.199 62.6354 262.39C62.664 263.581 62.6354 264.766 62.6354 265.957V267.303C61.4919 264.898 60.2684 262.539 58.9648 260.226C59.7824 255.204 58.7132 249.971 57.7012 245.064C57.7012 244.961 57.524 245.064 57.5468 245.064C58.0393 247.619 58.2976 250.214 58.3187 252.817C58.3187 254.889 58.3187 256.968 58.2558 259.041C57.9642 258.542 57.6841 258.056 57.3867 257.569C55.8201 254.996 54.1468 252.49 52.3668 250.051C52.5091 248.863 52.4705 247.661 52.2524 246.484C52.0505 245.162 51.7563 243.855 51.3719 242.574C50.9907 241.295 50.5448 240.037 50.034 238.8C49.5194 237.524 48.8162 236.321 48.3188 235.044C48.3101 235.027 48.2952 235.014 48.2771 235.008C48.259 235.001 48.2391 235.002 48.2216 235.01C48.2126 235.014 48.2044 235.019 48.1975 235.026C48.1906 235.033 48.1851 235.041 48.1814 235.05C48.1777 235.059 48.1758 235.069 48.1758 235.079C48.1758 235.089 48.1778 235.098 48.1815 235.107C48.794 236.314 49.2769 237.583 49.6224 238.892C50.0217 240.128 50.35 241.386 50.6058 242.659C50.865 243.931 51.0784 245.209 51.2461 246.496C51.3719 247.343 51.4462 248.213 51.5892 249.084C49.0047 245.603 46.179 242.308 43.133 239.224C43.0586 239.15 42.9557 239.224 43.0243 239.339C47.6257 244.535 51.737 250.148 55.3056 256.103L55.7001 256.779C55.0254 256.367 54.2707 256.035 53.6303 255.68L50.1083 253.739C48.9648 253.132 47.8213 252.496 46.6778 251.866C46.1061 251.54 45.5343 251.202 44.9168 250.899C44.1965 250.575 43.5042 250.192 42.8471 249.754C42.7613 249.691 42.6584 249.828 42.7613 249.88C43.9048 250.521 44.9454 251.477 46.0775 252.17C47.2096 252.863 48.3645 253.59 49.508 254.242C51.6521 255.445 53.9791 256.315 56.1003 257.546C57.564 260.111 58.919 262.734 60.1597 265.436C58.879 264.619 57.5716 263.835 56.2375 263.083C55.3856 262.608 54.5223 262.132 53.6589 261.674C52.7958 261.274 51.979 260.781 51.2233 260.203C51.1432 260.14 51.0403 260.203 51.1089 260.317C52.5199 261.583 54.0811 262.669 55.7573 263.552C57.3124 264.463 58.8676 265.333 60.4914 266.135C61.8229 268.97 63.0061 271.873 64.0362 274.832C69.1191 289.243 70.983 304.56 71.8749 319.756C72.1437 324.29 72.2809 328.819 72.3381 333.36C72.3952 337.9 72.1551 342.412 72.1665 346.947C72.1725 346.973 72.1873 346.997 72.2086 347.014C72.2299 347.032 72.2564 347.041 72.2837 347.041C72.3111 347.041 72.3376 347.032 72.3589 347.014C72.3802 346.997 72.395 346.973 72.401 346.947C72.9727 342.939 73.047 338.833 73.2186 334.791C73.3901 330.749 73.4187 326.546 73.3443 322.429Z" fill="#2F2E41"/>
<path d="M51.372 257.151C49.1669 256.176 47.0244 255.065 44.9569 253.824C42.8629 252.645 40.8341 251.353 38.8792 249.954C38.8792 249.954 38.8049 249.954 38.8792 250.005C40.7268 251.528 42.6816 252.915 44.7283 254.157C46.8706 255.348 49.0835 256.407 51.3549 257.329C51.3949 257.329 51.4578 257.191 51.372 257.151Z" fill="#2F2E41"/>
<path d="M54.8881 240.85C54.7052 240.146 54.4879 239.465 54.2478 238.777C54.2562 238.768 54.2609 238.756 54.2609 238.743C54.2609 238.73 54.2562 238.718 54.2478 238.709C54.0934 238.314 53.939 237.93 53.7732 237.564C53.7789 237.514 53.7789 237.464 53.7732 237.415L53.676 237.197L53.8018 237.592C53.8167 237.67 53.8377 237.747 53.8647 237.821C54.6631 240.51 55.2612 243.254 55.6543 246.032C55.6543 246.052 55.6621 246.071 55.6761 246.084C55.69 246.098 55.7089 246.106 55.7286 246.106C55.7381 246.106 55.7475 246.104 55.7563 246.101C55.765 246.097 55.7728 246.091 55.7793 246.084C55.7857 246.077 55.7906 246.069 55.7937 246.06C55.7968 246.051 55.798 246.041 55.7972 246.032C55.6589 244.28 55.3545 242.545 54.8881 240.85Z" fill="#2F2E41"/>
<path d="M86.0887 325.355L85.231 335.593L82.5895 366.798H54.3221L51.6863 335.593L50.823 325.355H86.0887Z" fill="#2F2E41"/>
<path opacity="0.2" d="M86.0887 325.355L85.231 335.593H51.6863L50.823 325.355H86.0887Z" fill="black"/>
<path d="M88.8617 321.25H48.05V331.069H88.8617V321.25Z" fill="#2F2E41"/>
<path d="M153.927 94.1815H133.967C132.366 94.1815 131.068 95.4812 131.068 97.0844V105.633C131.068 107.236 132.366 108.536 133.967 108.536H153.927C155.528 108.536 156.826 107.236 156.826 105.633V97.0844C156.826 95.4812 155.528 94.1815 153.927 94.1815Z" fill="#E61C5D"/>
<path d="M146.237 107.448L155.94 115.086L149.925 106.898L146.237 107.448Z" fill="#E61C5D"/>
<path d="M149.702 101.344C149.702 101.234 149.724 101.124 149.766 101.022C149.808 100.92 149.87 100.827 149.948 100.749C150.026 100.671 150.119 100.609 150.221 100.567C150.323 100.524 150.432 100.503 150.542 100.503C150.71 100.504 150.873 100.555 151.011 100.649C151.15 100.743 151.258 100.876 151.321 101.031C151.384 101.186 151.399 101.357 151.365 101.521C151.332 101.685 151.25 101.836 151.131 101.953C151.012 102.071 150.86 102.151 150.696 102.182C150.532 102.214 150.362 102.196 150.208 102.131C150.053 102.065 149.922 101.956 149.83 101.816C149.738 101.676 149.689 101.512 149.69 101.344H149.702Z" fill="white"/>
<path d="M145.305 101.344C145.305 101.121 145.393 100.907 145.551 100.749C145.709 100.591 145.922 100.503 146.145 100.503C146.313 100.504 146.476 100.555 146.615 100.649C146.753 100.743 146.861 100.876 146.924 101.031C146.987 101.186 147.002 101.357 146.968 101.521C146.935 101.685 146.853 101.836 146.734 101.953C146.615 102.071 146.463 102.151 146.299 102.182C146.135 102.214 145.965 102.196 145.811 102.131C145.656 102.065 145.525 101.956 145.433 101.816C145.341 101.676 145.292 101.512 145.293 101.344H145.305Z" fill="white"/>
<path d="M140.908 101.344C140.908 101.121 140.997 100.907 141.154 100.749C141.312 100.591 141.526 100.503 141.749 100.503C141.916 100.504 142.079 100.555 142.218 100.649C142.356 100.743 142.464 100.876 142.527 101.031C142.59 101.186 142.605 101.357 142.572 101.521C142.538 101.685 142.456 101.836 142.337 101.953C142.218 102.071 142.067 102.151 141.902 102.182C141.738 102.214 141.568 102.196 141.414 102.131C141.26 102.065 141.128 101.956 141.036 101.816C140.944 101.676 140.896 101.512 140.897 101.344H140.908Z" fill="white"/>
<path d="M136.511 101.344C136.511 101.121 136.6 100.907 136.758 100.749C136.915 100.591 137.129 100.503 137.352 100.503C137.519 100.504 137.683 100.555 137.821 100.649C137.96 100.743 138.067 100.876 138.13 101.031C138.193 101.186 138.209 101.357 138.175 101.521C138.141 101.685 138.06 101.836 137.94 101.953C137.821 102.071 137.67 102.151 137.506 102.182C137.341 102.214 137.171 102.196 137.017 102.131C136.863 102.065 136.731 101.956 136.639 101.816C136.547 101.676 136.499 101.512 136.5 101.344H136.511Z" fill="white"/>
</svg>
