<svg width="80" height="80" viewBox="0 0 80 80" fill="none" xmlns="http://www.w3.org/2000/svg">
<path d="M40.0006 53.3334C20.8008 53.3334 17.3995 34.1986 16.797 19.0216C16.6294 14.8 16.5456 12.6892 18.1313 10.7362C19.717 8.7832 21.6149 8.46299 25.4107 7.82256C29.1575 7.19037 34.0554 6.66675 40.0006 6.66675C45.9457 6.66675 50.8436 7.19037 54.5905 7.82256C58.3863 8.46299 60.2842 8.7832 61.8699 10.7362C63.4556 12.6892 63.3718 14.8 63.2042 19.0216C62.6017 34.1986 59.2004 53.3334 40.0006 53.3334Z" stroke="#1C274C" stroke-width="1.5"/>
<path d="M40 53.3333V63.3333" stroke="#1C274C" stroke-width="1.5" stroke-linecap="round"/>
<path d="M51.6666 73.3333H28.3333L29.464 67.6796C29.7756 66.1215 31.1437 65 32.7326 65H47.2672C48.8562 65 50.2242 66.1215 50.5358 67.6796L51.6666 73.3333Z" stroke="#1C274C" stroke-width="1.5" stroke-linecap="round" stroke-linejoin="round"/>
<path d="M63.3333 16.6667L66.4953 17.7208C69.7955 18.8208 71.4456 19.3709 72.3894 20.6803C73.3332 21.9898 73.3332 23.7292 73.3331 27.2079L73.3331 27.4496C73.333 30.3188 73.3329 31.7533 72.6423 32.9271C71.9517 34.1008 70.6976 34.7975 68.1896 36.1909L58.3333 41.6667" stroke="#1C274C" stroke-width="1.5"/>
<path d="M16.6666 16.6667L13.5045 17.7208C10.2043 18.8208 8.55419 19.3709 7.6104 20.6803C6.66661 21.9898 6.66666 23.7292 6.66675 27.2079L6.66676 27.4496C6.66683 30.3188 6.66687 31.7533 7.3575 32.9271C8.04813 34.1008 9.30218 34.7975 11.8102 36.1909L21.6666 41.6667" stroke="#1C274C" stroke-width="1.5"/>
<path d="M37.1532 20.0751C38.4198 17.8029 39.0531 16.6667 40 16.6667C40.9469 16.6667 41.5802 17.8029 42.8468 20.0751L43.1745 20.663C43.5345 21.3087 43.7144 21.6315 43.9951 21.8446C44.2757 22.0576 44.6251 22.1366 45.3241 22.2948L45.9605 22.4388C48.4201 22.9953 49.65 23.2736 49.9426 24.2145C50.2352 25.1554 49.3968 26.1358 47.7199 28.0967L47.2861 28.604C46.8096 29.1612 46.5713 29.4398 46.4641 29.7845C46.357 30.1291 46.393 30.5009 46.465 31.2443L46.5306 31.9211C46.7841 34.5373 46.9109 35.8454 46.1449 36.427C45.3788 37.0085 44.2273 36.4783 41.9243 35.4179L41.3285 35.1436C40.6741 34.8423 40.3469 34.6916 40 34.6916C39.6531 34.6916 39.3259 34.8423 38.6715 35.1436L38.0757 35.4179C35.7727 36.4783 34.6212 37.0085 33.8551 36.427C33.0891 35.8454 33.2159 34.5373 33.4694 31.9211L33.535 31.2443C33.607 30.5009 33.643 30.1291 33.5359 29.7845C33.4287 29.4398 33.1904 29.1612 32.7139 28.604L32.2801 28.0967C30.6032 26.1358 29.7648 25.1554 30.0574 24.2145C30.35 23.2736 31.5799 22.9953 34.0395 22.4388L34.6759 22.2948C35.3749 22.1366 35.7243 22.0576 36.0049 21.8446C36.2856 21.6315 36.4655 21.3087 36.8255 20.663L37.1532 20.0751Z" stroke="#1C274C" stroke-width="1.5"/>
<path d="M60 73.3333H20" stroke="#1C274C" stroke-width="1.5" stroke-linecap="round"/>
</svg>
