<svg width="10" height="18" viewBox="0 0 10 18" fill="none" xmlns="http://www.w3.org/2000/svg">
<path d="M0.744123 9.58695H2.71724V17.71C2.71724 17.8703 2.84719 18.0003 3.00757 18.0003H6.35307C6.51344 18.0003 6.64339 17.8703 6.64339 17.71V9.62522H8.91166C9.05915 9.62522 9.18323 9.51454 9.20007 9.36804L9.54457 6.37756C9.55404 6.29528 9.52797 6.21288 9.47292 6.15116C9.41782 6.08938 9.33897 6.05402 9.25622 6.05402H6.64351V4.17943C6.64351 3.61434 6.94777 3.32779 7.54794 3.32779C7.63347 3.32779 9.25622 3.32779 9.25622 3.32779C9.4166 3.32779 9.54655 3.19778 9.54655 3.03746V0.292476C9.54655 0.132099 9.4166 0.00214842 9.25622 0.00214842H6.90196C6.88535 0.0013355 6.84848 0 6.79413 0C6.38564 0 4.96577 0.0801883 3.84418 1.11201C2.60146 2.25544 2.77421 3.6245 2.81549 3.86187V6.05396H0.744123C0.583747 6.05396 0.453796 6.18391 0.453796 6.34429V9.29657C0.453796 9.45694 0.583747 9.58695 0.744123 9.58695Z" fill="#2C252A"/>
</svg>
