<svg width="63" height="16" viewBox="0 0 63 16" fill="none" xmlns="http://www.w3.org/2000/svg">
<path d="M29.7908 14.6923H30.658C30.6791 14.6923 30.7003 14.6923 30.7003 14.7029C30.7108 14.7134 30.7108 14.724 30.7108 14.7452V14.8615C30.7108 14.8826 30.7108 14.9038 30.7003 14.9038C30.6897 14.9144 30.6791 14.9144 30.658 14.9144H29.6004C29.5793 14.9144 29.5687 14.9144 29.5581 14.9038C29.5475 14.8932 29.5475 14.8827 29.5475 14.8509V12.8205C29.5475 12.7993 29.5581 12.7782 29.5581 12.7782C29.5687 12.7676 29.5793 12.7676 29.6004 12.7676H29.7379C29.7591 12.7676 29.7696 12.7676 29.7802 12.7782C29.7908 12.7887 29.7908 12.7993 29.7908 12.8205V14.6923Z" fill="white"/>
<path d="M31.4617 14.1626H31.3771C31.3454 14.1626 31.3136 14.1732 31.2925 14.1732C31.2608 14.1838 31.2396 14.1944 31.2185 14.2155C31.1973 14.2367 31.1867 14.2684 31.1867 14.3001C31.1973 14.4059 31.2396 14.5011 31.3136 14.5751C31.3877 14.6491 31.4828 14.6914 31.5992 14.702H31.8318C31.9059 14.702 31.9587 14.6808 32.0116 14.6597C32.0539 14.628 32.0962 14.5962 32.1491 14.5434C32.1702 14.5222 32.1808 14.5222 32.1914 14.5222C32.202 14.5222 32.2125 14.5328 32.2231 14.5434L32.3183 14.6385C32.3394 14.6597 32.35 14.6808 32.3289 14.702C32.3077 14.7126 32.2971 14.7337 32.276 14.7549C32.2125 14.8077 32.1491 14.8606 32.0645 14.8923C31.9905 14.9241 31.9059 14.9346 31.8213 14.9346H31.5886C31.4934 14.9346 31.4088 14.9135 31.3348 14.8818C31.2502 14.85 31.1867 14.7972 31.1233 14.7443C31.0598 14.6808 31.0175 14.6174 30.9858 14.5328C30.9541 14.4482 30.9329 14.3741 30.9329 14.279V13.8771C30.9329 13.7819 30.9541 13.6973 30.9858 13.6233C31.0175 13.5387 31.0704 13.4752 31.1233 13.4118C31.1762 13.3589 31.2502 13.306 31.3348 13.2743C31.4194 13.2426 31.4934 13.2214 31.5886 13.2214H31.7261C31.8107 13.2214 31.8953 13.2426 31.9799 13.2743C32.0645 13.306 32.1279 13.3589 32.1808 13.4118C32.2337 13.4752 32.2866 13.5387 32.3183 13.6233C32.35 13.7079 32.3712 13.7819 32.3712 13.8771V14.078C32.3712 14.0992 32.3606 14.1098 32.3289 14.1309C32.3077 14.1521 32.276 14.1626 32.2548 14.1626H32.1174H31.4617ZM32.1279 13.8771C32.1279 13.7185 32.0539 13.5916 31.9164 13.5175C31.853 13.4858 31.7895 13.4647 31.7261 13.4647H31.5886C31.5463 13.4647 31.504 13.4647 31.4617 13.4752C31.4194 13.4858 31.3877 13.4964 31.3559 13.5175C31.3031 13.5598 31.2502 13.6127 31.229 13.6762C31.1973 13.7396 31.1762 13.8031 31.1762 13.8771V13.9829C31.2079 13.9617 31.229 13.9617 31.2502 13.9511C31.2713 13.9406 31.3031 13.93 31.3242 13.93C31.3454 13.93 31.3771 13.9194 31.4088 13.9194H31.5251H32.1279V13.8771Z" fill="white"/>
<path d="M33.1961 13.2218H33.3441C33.397 13.2218 33.4393 13.2112 33.4816 13.2112C33.5239 13.2006 33.5662 13.1901 33.6085 13.1689C33.6508 13.1478 33.6931 13.116 33.7354 13.0737C33.7672 13.0526 33.7883 13.0526 33.8095 13.0737L33.9046 13.1795C33.9364 13.2006 33.9364 13.2324 33.9046 13.2535C33.9046 13.2641 33.8941 13.2641 33.8835 13.2747C33.8729 13.2852 33.8729 13.2852 33.8623 13.2958C33.8306 13.3275 33.7777 13.3593 33.7143 13.391C33.6508 13.4121 33.5768 13.4227 33.5028 13.4227C33.5768 13.4756 33.6297 13.5285 33.6508 13.5919C33.672 13.6554 33.6826 13.7188 33.6826 13.7717C33.6826 13.8563 33.6614 13.9303 33.6297 13.9938C33.598 14.0572 33.5451 14.1101 33.5028 14.1524C33.4499 14.1947 33.397 14.2264 33.3336 14.2476C33.2701 14.2687 33.2067 14.2793 33.1538 14.2793C33.1221 14.2793 33.0903 14.2793 33.0586 14.2899C33.0163 14.3005 32.9846 14.311 32.9634 14.3322C32.9317 14.3533 32.9106 14.3745 32.9 14.4062C32.8788 14.4379 32.8683 14.4697 32.8683 14.5014C32.8683 14.5543 32.8894 14.5966 32.9423 14.6389C32.9846 14.6812 33.0586 14.7023 33.1538 14.7023H33.3759C33.4922 14.7023 33.5874 14.7129 33.6614 14.7341C33.7354 14.7552 33.7989 14.7869 33.8412 14.8187C33.8835 14.861 33.9152 14.9033 33.9364 14.9561C33.9575 15.009 33.9681 15.0619 33.9681 15.1253V15.2099C33.9681 15.2945 33.9469 15.3686 33.9152 15.4215C33.8835 15.4743 33.8412 15.5272 33.7989 15.5589C33.746 15.5907 33.6826 15.6118 33.6191 15.633C33.5451 15.6435 33.471 15.6541 33.3759 15.6541H33.0057C32.9211 15.6541 32.8471 15.6435 32.7731 15.633C32.699 15.6118 32.6462 15.5907 32.5933 15.5589C32.5404 15.5272 32.4981 15.4743 32.4664 15.4215C32.4347 15.3686 32.4135 15.2945 32.4135 15.2205V15.1359C32.4135 15.0513 32.4347 14.9773 32.4875 14.9033C32.5298 14.8398 32.6144 14.7869 32.7202 14.7658C32.6779 14.7341 32.6462 14.7023 32.6356 14.66C32.6144 14.6177 32.6144 14.5754 32.6144 14.5225C32.6144 14.4485 32.6356 14.3851 32.699 14.3322C32.7519 14.2793 32.8259 14.237 32.9 14.2053C32.8048 14.163 32.7413 14.1101 32.699 14.0467C32.6567 13.9832 32.6356 13.8986 32.6356 13.7928C32.6356 13.7188 32.6462 13.6448 32.6779 13.5813C32.7096 13.5179 32.7413 13.465 32.7942 13.4121C32.8471 13.3593 32.9106 13.3275 32.9846 13.2958C33.0269 13.2324 33.1115 13.2218 33.1961 13.2218ZM33.1538 13.465C33.1115 13.465 33.0798 13.4756 33.0375 13.4862C32.9952 13.5073 32.974 13.5285 32.9423 13.5496C32.9211 13.5708 32.8894 13.6025 32.8788 13.6342C32.8577 13.6659 32.8577 13.7082 32.8577 13.7505C32.8577 13.7928 32.8683 13.8246 32.8788 13.8669C32.8894 13.8986 32.9106 13.9303 32.9423 13.9621C32.9634 13.9938 32.9952 14.0149 33.0375 14.0255C33.0692 14.0467 33.1115 14.0467 33.1538 14.0467C33.2384 14.0467 33.3018 14.0149 33.3547 13.9621C33.4076 13.9092 33.4393 13.8352 33.4393 13.7611C33.4393 13.6871 33.4076 13.6131 33.3547 13.5602C33.3018 13.4967 33.2278 13.465 33.1538 13.465ZM33.0163 14.9244H32.8894C32.8471 14.9244 32.8154 14.935 32.7731 14.9456C32.7413 14.9561 32.7202 14.9667 32.699 14.9984C32.6779 15.0196 32.6673 15.0513 32.6673 15.1042V15.1994C32.6673 15.2522 32.6779 15.284 32.6885 15.3157C32.7096 15.3369 32.7308 15.358 32.7519 15.3686C32.7836 15.3792 32.8154 15.3897 32.8683 15.3897C32.9106 15.3897 32.9529 15.4003 33.0163 15.4003H33.3336C33.3864 15.4003 33.4393 15.4003 33.4816 15.3897C33.5239 15.3897 33.5662 15.3792 33.598 15.3686C33.6297 15.358 33.6508 15.3369 33.6614 15.3157C33.6826 15.284 33.6826 15.2522 33.6826 15.1994V15.1042C33.6826 15.0513 33.672 15.0196 33.6508 14.9984C33.6297 14.9773 33.598 14.9561 33.5662 14.9456C33.5345 14.935 33.4922 14.9244 33.4499 14.9244H33.323H33.0163Z" fill="white"/>
<path d="M35.5015 14.9981C35.5015 15.125 35.4803 15.2202 35.438 15.2942C35.3957 15.3788 35.3429 15.4423 35.2688 15.4846C35.2054 15.5374 35.1314 15.5692 35.0468 15.5903C34.9621 15.6115 34.8881 15.622 34.8035 15.622H34.7506C34.7295 15.622 34.7083 15.622 34.6978 15.6115C34.6872 15.6009 34.6872 15.5903 34.6872 15.5692V15.4528C34.6872 15.4317 34.6872 15.4211 34.6978 15.4105C34.7083 15.4 34.7189 15.4 34.7401 15.4C34.7929 15.4 34.8564 15.3894 34.9093 15.3788C34.9727 15.3682 35.0256 15.3471 35.0679 15.3154C35.1208 15.2836 35.1525 15.2413 35.1948 15.1885C35.2265 15.1356 35.2477 15.0721 35.2477 14.9875V14.7549C35.2054 14.8183 35.1419 14.8606 35.0679 14.8923C34.9939 14.9241 34.9198 14.9346 34.8458 14.9346H34.7401C34.6449 14.9346 34.5603 14.9135 34.4863 14.8818C34.4122 14.85 34.3382 14.7972 34.2853 14.7443C34.2219 14.6808 34.1796 14.6174 34.1478 14.5328C34.1161 14.4482 34.095 14.3741 34.095 14.279V13.2849C34.095 13.2637 34.095 13.2426 34.1055 13.2426C34.1161 13.232 34.1267 13.232 34.1478 13.232H34.2853C34.3065 13.232 34.3171 13.232 34.3276 13.2426C34.3382 13.2532 34.3382 13.2637 34.3382 13.2849V14.279C34.3382 14.3318 34.3488 14.3953 34.3699 14.4376C34.3911 14.4905 34.4228 14.5328 34.4545 14.5645C34.4863 14.5962 34.5391 14.628 34.5814 14.6491C34.6343 14.6703 34.6872 14.6808 34.7401 14.6808H34.8352C34.8881 14.6808 34.941 14.6703 34.9833 14.6597C35.0362 14.6491 35.0785 14.6385 35.1102 14.6068C35.1525 14.5857 35.1737 14.5539 35.1948 14.5011C35.216 14.4588 35.2265 14.4059 35.2265 14.3318V13.2743C35.2265 13.2532 35.2265 13.232 35.2371 13.232C35.2477 13.2214 35.2583 13.2214 35.2794 13.2214H35.4169C35.438 13.2214 35.4486 13.2214 35.4592 13.232C35.4698 13.2426 35.4698 13.2532 35.4698 13.2743V14.1203C35.5015 14.427 35.5015 14.7126 35.5015 14.9981Z" fill="white"/>
<path d="M36.3052 14.1626H36.2206C36.1889 14.1626 36.1572 14.1732 36.1254 14.1732C36.1043 14.1838 36.0726 14.1944 36.062 14.2155C36.0408 14.2367 36.0303 14.2684 36.0303 14.3001C36.0408 14.4059 36.0831 14.5011 36.1572 14.5751C36.2312 14.6491 36.3264 14.6914 36.4427 14.702H36.6754C36.7494 14.702 36.8023 14.6808 36.8551 14.6597C36.8974 14.628 36.9397 14.5962 36.9926 14.5434C37.0138 14.5222 37.0243 14.5222 37.0349 14.5222C37.0455 14.5222 37.0561 14.5328 37.0666 14.5434L37.1618 14.6385C37.183 14.6597 37.183 14.6808 37.1724 14.702C37.1512 14.7126 37.1407 14.7337 37.1195 14.7549C37.0561 14.8077 36.982 14.8606 36.908 14.8923C36.834 14.9241 36.7494 14.9346 36.6648 14.9346H36.4215C36.3369 14.9346 36.2418 14.9135 36.1677 14.8818C36.0937 14.85 36.0197 14.7972 35.9562 14.7443C35.9034 14.6808 35.8505 14.6174 35.8187 14.5328C35.787 14.4482 35.7659 14.3741 35.7659 14.279V13.8771C35.7659 13.7819 35.787 13.6973 35.8187 13.6233C35.8505 13.5387 35.9034 13.4752 35.9562 13.4118C36.0197 13.3589 36.0831 13.306 36.1677 13.2743C36.2523 13.2426 36.3369 13.2214 36.4215 13.2214H36.559C36.6436 13.2214 36.7282 13.2426 36.8128 13.2743C36.8869 13.306 36.9609 13.3589 37.0138 13.4118C37.0666 13.4752 37.1195 13.5387 37.1512 13.6233C37.183 13.7079 37.2041 13.7819 37.2041 13.8771V14.078C37.2041 14.0992 37.1935 14.1098 37.1618 14.1309C37.1407 14.1521 37.1089 14.1626 37.0878 14.1626H36.9503H36.3052ZM36.9715 13.8771C36.9715 13.7185 36.8974 13.5916 36.76 13.5175C36.6965 13.4858 36.633 13.4647 36.5696 13.4647H36.4321C36.3898 13.4647 36.3475 13.4647 36.3158 13.4752C36.2735 13.4858 36.2418 13.4964 36.21 13.5175C36.1572 13.5598 36.1149 13.6127 36.0831 13.6762C36.0514 13.7396 36.0408 13.8031 36.0303 13.8771V13.9829C36.062 13.9617 36.0831 13.9617 36.1149 13.9511C36.136 13.9406 36.1572 13.93 36.1889 13.93C36.21 13.93 36.2418 13.9194 36.2735 13.9194H36.3898H36.9926V13.8771H36.9715Z" fill="white"/>
<path d="M38.2828 13.2214C38.3674 13.2214 38.452 13.2426 38.5366 13.2743C38.6106 13.306 38.6846 13.3589 38.7375 13.4118C38.801 13.4752 38.8433 13.5387 38.875 13.6233C38.9067 13.7079 38.9279 13.7819 38.9279 13.8771V14.8606C38.9279 14.8818 38.9279 14.9029 38.9173 14.9135C38.9067 14.9241 38.8961 14.9241 38.875 14.9241H38.7375C38.7164 14.9241 38.6952 14.9241 38.6952 14.9135C38.6846 14.9029 38.6846 14.8923 38.6846 14.8606V13.8771C38.6846 13.8137 38.6635 13.7608 38.6529 13.7185C38.6318 13.6656 38.6 13.6233 38.5683 13.5916C38.5366 13.5493 38.4943 13.5281 38.4414 13.507C38.3885 13.4858 38.3357 13.4752 38.2828 13.4752H38.1453C38.103 13.4752 38.0713 13.4858 38.0395 13.4964C38.0078 13.507 37.9655 13.5175 37.9338 13.5387C37.8069 13.6233 37.7434 13.7396 37.7329 13.8983V14.8818C37.7329 14.9029 37.7329 14.9241 37.7223 14.9346C37.7117 14.9452 37.7011 14.9452 37.68 14.9452H37.5425C37.5214 14.9452 37.5108 14.9452 37.5002 14.9346C37.4896 14.9241 37.4896 14.9135 37.4896 14.8818V13.2955C37.4896 13.2637 37.5108 13.2532 37.5425 13.2532H37.68C37.7223 13.2532 37.7329 13.2637 37.7329 13.2955V13.4541C37.7857 13.3906 37.8492 13.3378 37.9232 13.2955C37.9972 13.2532 38.0713 13.232 38.1453 13.232H38.2828V13.2214Z" fill="white"/>
<path d="M39.996 14.3754C39.996 14.3226 40.0065 14.2803 40.0277 14.2274C40.0489 14.1745 40.0806 14.1216 40.1229 14.0793C40.1758 14.037 40.2286 13.9947 40.3027 13.963C40.3767 13.9313 40.4719 13.9207 40.5776 13.9207H40.9055H41.0535C41.1064 13.9207 41.1487 13.9419 41.1804 13.963V13.8573C41.1804 13.7832 41.1593 13.7198 41.117 13.6563C41.0747 13.5929 41.0218 13.5506 40.9689 13.5188C40.9055 13.4871 40.842 13.466 40.7785 13.466H40.6093C40.5353 13.466 40.4719 13.4871 40.419 13.5188C40.3978 13.5294 40.3661 13.54 40.3555 13.5611C40.3344 13.5823 40.3132 13.5929 40.3027 13.614C40.2815 13.6352 40.2709 13.6352 40.2604 13.6352C40.2498 13.6352 40.2392 13.6246 40.2286 13.614L40.1335 13.5188C40.1229 13.4977 40.1123 13.4977 40.1123 13.4871C40.1123 13.4765 40.1229 13.466 40.1335 13.4448L40.1546 13.4237L40.1758 13.4025C40.2392 13.3496 40.3027 13.2968 40.3873 13.265C40.4613 13.2333 40.5459 13.2122 40.6305 13.2122H40.8103C40.8949 13.2122 40.9795 13.2333 41.0641 13.265C41.1487 13.2968 41.2121 13.3496 41.2756 13.4025C41.3285 13.4554 41.3813 13.5294 41.4131 13.614C41.4448 13.6986 41.4659 13.7727 41.4659 13.8678V14.9148H41.3179C41.265 14.9148 41.2333 14.9042 41.2227 14.8725C41.2016 14.8408 41.2016 14.809 41.191 14.7667C41.1381 14.8196 41.0852 14.8513 41.0112 14.8831C40.9372 14.9148 40.8632 14.9359 40.7891 14.9359H40.6516C40.567 14.9359 40.4719 14.9254 40.3978 14.9042C40.3132 14.8831 40.2498 14.8408 40.1863 14.7985C40.1335 14.7456 40.0806 14.6927 40.0488 14.6187C40.0171 14.5447 39.996 14.4706 39.996 14.3754ZM41.191 14.2908C41.191 14.2591 41.191 14.238 41.1804 14.2168C41.1698 14.1957 41.1593 14.1851 41.1275 14.1851C41.1064 14.1745 41.0747 14.1745 41.0429 14.1745C41.0006 14.1745 40.9583 14.1745 40.916 14.1639H40.5882C40.5459 14.1639 40.5036 14.1745 40.4613 14.1851C40.419 14.1957 40.3873 14.2062 40.3661 14.2168C40.3344 14.238 40.3132 14.2591 40.2921 14.2803C40.2709 14.312 40.2709 14.3437 40.2709 14.386C40.2709 14.4812 40.3027 14.5658 40.3661 14.6187C40.4296 14.6821 40.5247 14.7139 40.6622 14.7139H40.7997C40.8526 14.7139 40.8949 14.7033 40.9478 14.6927C41.0006 14.6821 41.0429 14.661 41.0747 14.6398C41.117 14.6187 41.1487 14.587 41.1698 14.5552C41.191 14.5235 41.2016 14.4812 41.2016 14.4389L41.191 14.2908Z" fill="white"/>
<path d="M42.8514 14.8708C42.8514 14.8919 42.8514 14.9131 42.8408 14.9131C42.8302 14.9237 42.8196 14.9237 42.7985 14.9237H42.6399C42.6187 14.9237 42.6081 14.9237 42.5976 14.9131C42.587 14.9025 42.587 14.8919 42.587 14.8708V12.8297C42.587 12.8086 42.587 12.7874 42.5976 12.7874C42.6081 12.7874 42.6187 12.7769 42.6399 12.7769H42.7985C42.8196 12.7769 42.8302 12.7769 42.8408 12.7874C42.8514 12.798 42.8514 12.8086 42.8514 12.8297V14.8708Z" fill="white"/>
<path d="M43.655 14.1626H43.5704C43.5387 14.1626 43.507 14.1732 43.4753 14.1732C43.4435 14.1838 43.4224 14.1944 43.4012 14.2155C43.3801 14.2367 43.3801 14.2684 43.3801 14.3001C43.3906 14.4059 43.433 14.5011 43.507 14.5751C43.581 14.6491 43.6762 14.6914 43.7925 14.702H44.0252C44.0992 14.702 44.1627 14.6808 44.205 14.6597C44.2473 14.628 44.3001 14.5962 44.3424 14.5434C44.3636 14.5222 44.3742 14.5222 44.3847 14.5222C44.3953 14.5222 44.4059 14.5328 44.4165 14.5434L44.5222 14.6385C44.5434 14.6597 44.5434 14.6808 44.5328 14.702C44.5116 14.7126 44.5011 14.7337 44.4799 14.7549C44.4165 14.8077 44.3424 14.8606 44.2684 14.8923C44.1944 14.9241 44.1098 14.9346 44.0252 14.9346H43.7925C43.7079 14.9346 43.6127 14.9135 43.5387 14.8818C43.4541 14.85 43.3906 14.7972 43.3272 14.7443C43.2743 14.6808 43.2214 14.6174 43.1897 14.5328C43.158 14.4482 43.1368 14.3741 43.1368 14.279V13.8771C43.1368 13.7819 43.158 13.6973 43.1897 13.6233C43.2214 13.5387 43.2743 13.4752 43.3272 13.4118C43.3906 13.3589 43.4541 13.306 43.5387 13.2743C43.6233 13.2426 43.7079 13.2214 43.7925 13.2214H43.93C44.0146 13.2214 44.0992 13.2426 44.1838 13.2743C44.2684 13.306 44.3319 13.3589 44.3847 13.4118C44.4482 13.4752 44.4905 13.5387 44.5222 13.6233C44.5539 13.7079 44.5751 13.7819 44.5751 13.8771V14.078C44.5751 14.0992 44.5645 14.1098 44.5328 14.1309C44.5116 14.1521 44.4799 14.1626 44.4588 14.1626H44.3213H43.655ZM44.3213 13.8771C44.3213 13.7185 44.2473 13.5916 44.1098 13.5175C44.0463 13.4858 43.9829 13.4647 43.9194 13.4647H43.7819C43.7396 13.4647 43.6973 13.4647 43.655 13.4752C43.6127 13.4858 43.581 13.4964 43.5493 13.5175C43.4964 13.5598 43.4435 13.6127 43.4224 13.6762C43.3906 13.7396 43.3695 13.8031 43.3695 13.8771V13.9829C43.4012 13.9617 43.4224 13.9617 43.4541 13.9511C43.4753 13.9406 43.4964 13.93 43.5281 13.93C43.5493 13.93 43.581 13.9194 43.6127 13.9194H43.7291H44.3319V13.8771H44.3213Z" fill="white"/>
<path d="M45.3895 13.2218H45.5375C45.5904 13.2218 45.6327 13.2112 45.675 13.2112C45.7173 13.2006 45.7596 13.1901 45.8019 13.1689C45.8442 13.1478 45.8865 13.116 45.9288 13.0737C45.9605 13.0526 45.9817 13.0526 46.0028 13.0737L46.098 13.1795C46.1297 13.2006 46.1297 13.2324 46.098 13.2535L46.0768 13.2747L46.0557 13.2958C46.0134 13.3275 45.9711 13.3593 45.8971 13.391C45.8336 13.4121 45.7596 13.4227 45.6856 13.4227C45.7596 13.4756 45.8125 13.5285 45.8336 13.5919C45.8548 13.6554 45.8653 13.7188 45.8653 13.7717C45.8653 13.8563 45.8442 13.9303 45.8125 13.9938C45.7807 14.0572 45.7384 14.1101 45.6856 14.1524C45.6327 14.1947 45.5798 14.2264 45.5164 14.2476C45.4529 14.2687 45.3895 14.2793 45.3366 14.2793C45.3048 14.2793 45.2731 14.2793 45.2308 14.2899C45.1991 14.3005 45.1674 14.311 45.1356 14.3322C45.1039 14.3533 45.0828 14.3745 45.0722 14.4062C45.051 14.4379 45.051 14.4697 45.051 14.5014C45.051 14.5543 45.0722 14.5966 45.1145 14.6389C45.1568 14.6812 45.2308 14.7023 45.326 14.7023H45.5375C45.6538 14.7023 45.749 14.7129 45.823 14.7341C45.8971 14.7552 45.9605 14.7869 46.0028 14.8187C46.0451 14.861 46.0769 14.9033 46.098 14.9561C46.1192 15.009 46.1297 15.0619 46.1297 15.1253V15.2099C46.1297 15.2945 46.1086 15.3686 46.0768 15.4215C46.0451 15.4743 46.0134 15.5272 45.9605 15.5589C45.9076 15.5907 45.8442 15.6118 45.7807 15.633C45.7067 15.6435 45.6327 15.6541 45.5375 15.6541H45.1674C45.0828 15.6541 45.0087 15.6435 44.9347 15.633C44.8607 15.6118 44.7972 15.5907 44.7444 15.5589C44.6915 15.5272 44.6492 15.4743 44.6175 15.4215C44.5857 15.3686 44.5646 15.2945 44.5646 15.2205V15.1359C44.5646 15.0513 44.5857 14.9773 44.6386 14.9033C44.6809 14.8398 44.7655 14.7869 44.8713 14.7658C44.829 14.7341 44.7972 14.7023 44.7867 14.66C44.7655 14.6177 44.7655 14.5754 44.7655 14.5225C44.7655 14.4485 44.7867 14.3851 44.8501 14.3322C44.903 14.2793 44.977 14.237 45.051 14.2053C44.9559 14.163 44.8924 14.1101 44.8501 14.0467C44.8078 13.9832 44.7867 13.8986 44.7867 13.7928C44.7867 13.7188 44.8078 13.6448 44.829 13.5813C44.8607 13.5179 44.903 13.465 44.9559 13.4121C45.0087 13.3593 45.0722 13.3275 45.1356 13.2958C45.2202 13.2324 45.3048 13.2218 45.3895 13.2218ZM45.3472 13.465C45.3048 13.465 45.2625 13.4756 45.2308 13.4862C45.1991 13.5073 45.1674 13.5285 45.1356 13.5496C45.1145 13.5708 45.0933 13.6025 45.0722 13.6342C45.051 13.6659 45.051 13.7082 45.051 13.7505C45.051 13.7928 45.0616 13.8246 45.0722 13.8669C45.0933 13.8986 45.1039 13.9303 45.1356 13.9621C45.1568 13.9938 45.1885 14.0149 45.2308 14.0255C45.2625 14.0467 45.3048 14.0467 45.3472 14.0467C45.4318 14.0467 45.4952 14.0149 45.5481 13.9621C45.601 13.9092 45.6327 13.8352 45.6327 13.7611C45.6327 13.6871 45.601 13.6131 45.5481 13.5602C45.4952 13.4967 45.4318 13.465 45.3472 13.465ZM45.2097 14.9244H45.0828C45.0405 14.9244 44.9982 14.935 44.9664 14.9456C44.9347 14.9561 44.903 14.9667 44.8818 14.9984C44.8607 15.0196 44.8501 15.0513 44.8501 15.1042V15.1994C44.8501 15.2522 44.8607 15.284 44.8713 15.3157C44.8924 15.3369 44.9136 15.358 44.9453 15.3686C44.977 15.3792 45.0087 15.3897 45.051 15.3897C45.0933 15.3897 45.1462 15.4003 45.1991 15.4003H45.5164C45.5692 15.4003 45.6221 15.4003 45.6644 15.3897C45.7067 15.3897 45.749 15.3792 45.7807 15.3686C45.8125 15.358 45.8336 15.3369 45.8548 15.3157C45.8759 15.284 45.8759 15.2522 45.8759 15.1994V15.1042C45.8759 15.0513 45.8653 15.0196 45.8442 14.9984C45.823 14.9773 45.7913 14.9561 45.7596 14.9456C45.7279 14.935 45.6856 14.9244 45.6433 14.9244H45.5164H45.2097Z" fill="white"/>
<path d="M46.4787 13.0316C46.4258 13.0316 46.3835 13.0105 46.3518 12.9787C46.32 12.947 46.3095 12.9047 46.3095 12.8518C46.3095 12.8095 46.3306 12.7672 46.3623 12.7355C46.3941 12.7038 46.4364 12.6826 46.4787 12.6826C46.521 12.6826 46.5633 12.7038 46.595 12.7355C46.6267 12.7672 46.6479 12.7989 46.6479 12.8518C46.6479 12.9047 46.6267 12.9364 46.595 12.9787C46.5633 13.0105 46.521 13.0316 46.4787 13.0316ZM46.6373 14.9986C46.6373 15.1149 46.6267 15.2207 46.595 15.2947C46.5738 15.3793 46.5421 15.4428 46.4892 15.4851C46.4469 15.538 46.3835 15.5697 46.32 15.5908C46.2566 15.612 46.1826 15.6226 46.098 15.6226H46.0451C46.0239 15.6226 46.0028 15.6226 45.9922 15.612C45.9816 15.6014 45.9816 15.5908 45.9816 15.5697V15.4534C45.9816 15.4322 45.9816 15.4216 45.9922 15.4111C46.0028 15.4005 46.0134 15.4005 46.0345 15.4005C46.0874 15.4005 46.1403 15.3899 46.1826 15.3793C46.2249 15.3688 46.2566 15.3476 46.2883 15.3159C46.32 15.2842 46.3412 15.2419 46.3518 15.189C46.3729 15.1361 46.3729 15.0726 46.3729 14.9986V13.5286C46.3729 13.5181 46.3729 13.5075 46.3623 13.5075H46.3518H46.1826C46.172 13.5075 46.1614 13.5075 46.1614 13.4969V13.4863V13.2643C46.1614 13.2537 46.1614 13.2431 46.172 13.2431H46.1826H46.5633C46.5844 13.2431 46.595 13.2431 46.6056 13.2537C46.6161 13.2643 46.6161 13.2748 46.6161 13.296V14.9986H46.6373Z" fill="white"/>
<path d="M47.7372 13.2214C47.8218 13.2214 47.917 13.2426 47.991 13.2743C48.065 13.306 48.139 13.3589 48.2025 13.4118C48.2554 13.4647 48.3083 13.5387 48.34 13.6233C48.3717 13.7079 48.3929 13.7819 48.3929 13.8771V14.2895C48.3929 14.3742 48.3717 14.4588 48.34 14.5434C48.3083 14.628 48.2554 14.6914 48.2025 14.7549C48.139 14.8183 48.0756 14.8606 47.991 14.8923C47.9064 14.9241 47.8218 14.9452 47.7372 14.9452H47.5574C47.4728 14.9452 47.3882 14.9241 47.3036 14.8923C47.219 14.8606 47.1555 14.8077 47.0921 14.7549C47.0286 14.702 46.9863 14.628 46.9546 14.5434C46.9229 14.4588 46.9017 14.3847 46.9017 14.2895V13.8771C46.9017 13.7925 46.9229 13.7079 46.9546 13.6233C46.9863 13.5387 47.0392 13.4752 47.0921 13.4118C47.145 13.3483 47.219 13.306 47.3036 13.2743C47.3882 13.2426 47.4622 13.2214 47.5574 13.2214H47.7372ZM47.5574 13.4647C47.5045 13.4647 47.4411 13.4752 47.3988 13.4964C47.3459 13.5175 47.3036 13.5493 47.2719 13.581C47.2401 13.6127 47.2084 13.655 47.1873 13.7079C47.1661 13.7608 47.1555 13.8031 47.1555 13.8665V14.279C47.1555 14.3318 47.1661 14.3953 47.1873 14.4376C47.2084 14.4905 47.2401 14.5328 47.2719 14.5645C47.3036 14.6068 47.3565 14.6385 47.3988 14.6597C47.4517 14.6808 47.5045 14.6914 47.5574 14.6914H47.7372C47.7901 14.6914 47.8535 14.6808 47.8958 14.6597C47.9487 14.6385 47.991 14.6068 48.0227 14.5645C48.0544 14.5222 48.0862 14.4799 48.1073 14.4376C48.1285 14.3847 48.139 14.3318 48.139 14.279V13.8665C48.139 13.8137 48.1285 13.7608 48.1073 13.7079C48.0862 13.655 48.0544 13.6127 48.0227 13.581C47.9804 13.5387 47.9381 13.5175 47.8958 13.4964C47.8429 13.4752 47.7901 13.4647 47.7372 13.4647H47.5574Z" fill="white"/>
<path d="M48.6678 12.8297C48.6678 12.8086 48.6784 12.7874 48.6784 12.7874C48.689 12.7874 48.6996 12.7769 48.7207 12.7769H48.8582C48.8794 12.7769 48.8899 12.7769 48.9005 12.7874C48.9111 12.798 48.9111 12.8086 48.9111 12.8297V13.4748C48.964 13.3902 49.0274 13.3373 49.112 13.295C49.186 13.2527 49.2706 13.2316 49.3447 13.2316H49.535C49.6196 13.2316 49.7148 13.2527 49.7888 13.2845C49.8734 13.3162 49.9369 13.3691 50.0003 13.422C50.0532 13.4854 50.1061 13.5489 50.1378 13.6335C50.1695 13.7181 50.1907 13.7921 50.1907 13.8873V14.2997C50.1907 14.3843 50.1695 14.4689 50.1378 14.5535C50.1061 14.6275 50.0532 14.7016 50.0003 14.7544C49.9475 14.8073 49.8734 14.8602 49.7888 14.8919C49.7148 14.9237 49.6302 14.9448 49.535 14.9448H49.3447C49.2601 14.9448 49.186 14.9342 49.1226 14.9025C49.0486 14.8708 48.9851 14.8285 48.9217 14.7756C48.9217 14.8073 48.9111 14.8496 48.9005 14.8708C48.8794 14.9025 48.8582 14.9131 48.8159 14.9131H48.689V12.8297H48.6678ZM48.9111 14.3526C48.9111 14.4266 48.9322 14.4901 48.964 14.5429C48.9957 14.5852 49.038 14.6275 49.0909 14.6487C49.1332 14.6698 49.186 14.691 49.2389 14.691C49.2918 14.7016 49.3235 14.7016 49.3658 14.7121H49.5456C49.6514 14.7016 49.7465 14.6698 49.8311 14.5958C49.9052 14.5218 49.9475 14.4266 49.958 14.3209V13.8555C49.958 13.8027 49.9369 13.7498 49.9157 13.7075C49.8946 13.6546 49.8629 13.6229 49.8311 13.5912C49.7888 13.5594 49.7465 13.5277 49.7042 13.5066C49.6514 13.4854 49.6091 13.4748 49.5456 13.4748H49.3658C49.3235 13.4748 49.2812 13.4854 49.2283 13.5066C49.1755 13.5277 49.1332 13.5594 49.0909 13.5912C49.0486 13.6229 49.0063 13.6758 48.9745 13.7286C48.9428 13.7815 48.9322 13.845 48.9322 13.919V14.2891V14.3526H48.9111Z" fill="white"/>
<path d="M50.4551 12.8297C50.4551 12.8086 50.4551 12.7874 50.4657 12.7874C50.4762 12.7874 50.4868 12.7769 50.508 12.7769H50.6454C50.6666 12.7769 50.6772 12.7769 50.6877 12.7874C50.6983 12.798 50.6983 12.8086 50.6983 12.8297V13.4748C50.7512 13.3902 50.8146 13.3373 50.8992 13.295C50.9733 13.2527 51.0579 13.2316 51.1319 13.2316H51.3223C51.4069 13.2316 51.502 13.2527 51.5761 13.2845C51.6607 13.3162 51.7241 13.3691 51.777 13.422C51.8404 13.4854 51.8828 13.5489 51.9145 13.6335C51.9462 13.7181 51.9674 13.7921 51.9674 13.8873V14.2997C51.9674 14.3843 51.9462 14.4689 51.9145 14.5535C51.8828 14.6275 51.8299 14.7016 51.777 14.7544C51.7241 14.8073 51.6501 14.8602 51.5761 14.8919C51.4915 14.9237 51.4069 14.9448 51.3223 14.9448H51.1319C51.0473 14.9448 50.9733 14.9342 50.8992 14.9025C50.8252 14.8708 50.7618 14.8285 50.6983 14.7756C50.6983 14.8073 50.6877 14.8496 50.6772 14.8708C50.6666 14.9025 50.6349 14.9131 50.5926 14.9131H50.4657V12.8297H50.4551ZM50.6983 14.3526C50.6983 14.4266 50.7195 14.4901 50.7512 14.5429C50.7829 14.5852 50.8252 14.6275 50.8675 14.6487C50.9204 14.6698 50.9627 14.691 51.0156 14.691C51.0685 14.7016 51.1108 14.7016 51.1425 14.7121H51.3223C51.4386 14.7016 51.5232 14.6698 51.6078 14.5958C51.6818 14.5218 51.7347 14.4266 51.7347 14.3209V13.8555C51.7347 13.8027 51.7135 13.7498 51.6924 13.7075C51.6712 13.6546 51.6395 13.6229 51.6078 13.5912C51.5655 13.5594 51.5232 13.5277 51.4809 13.5066C51.428 13.4854 51.3857 13.4748 51.3223 13.4748H51.1425C51.1002 13.4748 51.0579 13.4854 51.005 13.5066C50.9521 13.5277 50.9098 13.5594 50.8675 13.5912C50.8252 13.6229 50.7829 13.6758 50.7618 13.7286C50.73 13.7815 50.7195 13.845 50.7195 13.919V14.2891V14.3526H50.6983Z" fill="white"/>
<path d="M52.6864 12.8297C52.6864 12.9989 52.6864 13.1364 52.6758 13.2527C52.6758 13.3691 52.6652 13.4854 52.6652 13.5912C52.6547 13.6969 52.6547 13.8132 52.6547 13.9296V14.3632C52.6547 14.3843 52.6441 14.4055 52.6441 14.416C52.6335 14.4266 52.6229 14.4266 52.5912 14.4266H52.496C52.4749 14.4266 52.4643 14.4266 52.4537 14.416C52.4432 14.4055 52.4326 14.3949 52.4326 14.3632C52.4326 14.194 52.4326 14.0565 52.422 13.9296C52.422 13.8132 52.4114 13.7075 52.4114 13.5912C52.4114 13.4854 52.4009 13.3691 52.4009 13.2527V12.8297C52.4009 12.8086 52.4009 12.7874 52.4114 12.7874C52.422 12.7874 52.4326 12.7769 52.4537 12.7769H52.6335C52.6547 12.7769 52.6758 12.7769 52.6758 12.7874C52.6864 12.7874 52.6864 12.798 52.6864 12.8297ZM52.5489 14.5852C52.6018 14.5852 52.6441 14.6064 52.6758 14.6381C52.7075 14.6698 52.7287 14.7121 52.7287 14.765C52.7287 14.8179 52.7075 14.8602 52.6758 14.8919C52.6441 14.9237 52.6018 14.9448 52.5489 14.9448C52.496 14.9448 52.4643 14.9237 52.422 14.8919C52.3903 14.8602 52.3691 14.8073 52.3691 14.765C52.3691 14.7121 52.3903 14.6804 52.422 14.6381C52.4643 14.6064 52.5066 14.5852 52.5489 14.5852Z" fill="white"/>
<path d="M14.4143 11.5515C13.8538 11.2554 13.4202 10.8006 13.1346 10.1873L18.4012 11.8159C17.9147 11.9533 17.3436 12.0274 16.6985 12.0274C15.7679 12.0168 15.0065 11.8582 14.4143 11.5515Z" fill="white"/>
<path d="M6.76823 11.7303V3.40747H12.8279V4.81399H9.39092V7.56359L0 6.00901L9.39092 8.98068V11.7303H6.76823Z" fill="white"/>
<path d="M20.6114 9.61625L18.179 9.18266C18.1896 9.14036 18.1896 9.09806 18.2002 9.06633C18.2636 8.66447 18.2848 8.178 18.2848 7.58578C18.2848 7.00414 18.2636 6.51767 18.2108 6.13696C18.1579 5.74567 18.0204 5.41783 17.8089 5.12173C17.5868 4.83619 17.2378 4.68813 16.7725 4.68813C16.1063 4.68813 15.6727 4.94194 15.4823 5.46014C15.292 5.97833 15.1862 6.66573 15.1862 7.54348C15.2074 7.97707 15.2285 8.33663 15.2497 8.65389L12.6798 8.19915C12.6693 7.98765 12.6587 7.77614 12.6587 7.55406C12.6693 6.08408 13.0077 4.98424 13.6739 4.26512C14.3402 3.53542 15.3554 3.16528 16.7196 3.16528C17.7349 3.16528 18.5492 3.32391 19.152 3.66233C19.7653 3.99016 20.1989 4.47663 20.4739 5.12173C20.7383 5.76682 20.8757 6.58112 20.8757 7.56463C20.8757 8.34721 20.7911 9.03461 20.6114 9.61625Z" fill="white"/>
<path d="M26.0683 11.7514L23.8475 7.58474H24.8627C25.1483 7.58474 25.4126 7.48956 25.6664 7.28863C25.9203 7.0877 26.0472 6.73871 26.0472 6.25224C26.0472 5.28988 25.6453 4.80342 24.8521 4.80342H23.8581V10.2074L21.2248 9.72096V3.40747H25.7828C26.65 3.40747 27.3374 3.61898 27.8661 4.03142C28.3949 4.44386 28.6593 5.1101 28.6593 6.01958C28.6593 6.59065 28.5641 7.03482 28.3843 7.37323C28.2045 7.70107 27.993 7.9443 27.7498 8.08178C27.5066 8.21926 27.2845 8.30386 27.0624 8.34616C26.8403 8.37789 26.724 8.39904 26.7028 8.39904L28.8814 11.7409L26.0683 11.7514Z" fill="white"/>
<path d="M38.9067 3.40747L36.0937 12.037L33.6296 6.13591L31.0915 12.037L28.2891 3.40747H31.0387L31.8635 5.94556L32.7624 4.14775L32.5192 3.40747H35.3111L36.1677 5.82923L36.9714 3.40747H38.9067Z" fill="white"/>
<path d="M38.9913 3.40747H45.051V4.81399H41.6246V6.69641H44.4271V8.10293H41.6246V10.3132H45.1039V11.7303H38.9913V3.40747Z" fill="white"/>
<path d="M49.535 3.40747C50.3916 3.40747 51.0579 3.55553 51.5443 3.85164C52.0202 4.14775 52.274 4.66594 52.2952 5.38506C52.2952 6.16764 52.0625 6.68583 51.5972 6.93964C51.1319 7.19345 50.6348 7.32035 50.1167 7.32035C51.8087 7.32035 52.6653 7.99718 52.6865 9.3614C52.6865 10.3872 52.3481 11.0323 51.6818 11.3073C51.005 11.5822 50.159 11.7197 49.112 11.7197H45.2308V3.40747H49.535ZM49.3975 10.3343C49.7994 10.3343 50.1167 10.2603 50.3387 10.1122C50.5608 9.96419 50.6666 9.67866 50.6666 9.24507C50.6666 8.48364 50.233 8.10293 49.3446 8.10293H47.8641V10.3343H49.3975ZM50.3916 5.66002C50.3599 5.08895 50.0215 4.80342 49.3658 4.80342H47.8429V6.69641H49.3129C49.6831 6.69641 49.9474 6.62238 50.1272 6.47432C50.307 6.31569 50.3916 6.05131 50.3916 5.66002Z" fill="white"/>
<path fill-rule="evenodd" clip-rule="evenodd" d="M62.5427 5.8087L61.6756 5.59719C62.088 4.28585 61.7813 2.78415 60.7343 1.74776C60.692 1.70546 60.6497 1.66316 60.5969 1.62086L60.9776 1.21899C61.4429 1.58913 61.8342 2.04387 62.1303 2.60437C62.6908 3.6196 62.8071 4.76174 62.5427 5.8087Z" fill="white"/>
<path fill-rule="evenodd" clip-rule="evenodd" d="M54.0295 7.07726C53.3527 5.97742 53.2258 4.6978 53.5537 3.55566L54.2834 3.76717C54.0718 4.93046 54.4208 6.16778 55.3197 7.06668C55.6053 7.35222 55.9225 7.58487 56.2609 7.75408L55.563 8.56838C54.9602 8.2194 54.4314 7.71178 54.0295 7.07726Z" fill="white"/>
<path fill-rule="evenodd" clip-rule="evenodd" d="M54.3151 3.6195L53.6171 3.41857C53.8815 2.40333 54.5055 1.4727 55.4467 0.838178C57.1493 -0.314536 59.3701 -0.134754 60.8612 1.13429L60.4911 1.52558C58.9788 0.256533 56.7474 0.341136 55.3409 1.74766C54.8016 2.27643 54.4632 2.9321 54.3151 3.6195Z" fill="white"/>
<path fill-rule="evenodd" clip-rule="evenodd" d="M56.2186 6.13674C55.1928 5.11093 55.1928 3.42944 56.2186 2.40363C57.2444 1.37782 58.9153 1.37782 59.9517 2.40363C60.9775 3.44002 60.9775 5.11093 59.9517 6.13674C58.9259 7.17312 57.255 7.17312 56.2186 6.13674ZM59.0105 4.60331C59.5181 4.09569 59.5181 3.28139 59.0105 2.78435C58.5029 2.27673 57.6886 2.27673 57.1915 2.78435C56.6839 3.29196 56.6839 4.10627 57.1915 4.60331C57.6886 5.11093 58.5134 5.11093 59.0105 4.60331Z" fill="white"/>
<path fill-rule="evenodd" clip-rule="evenodd" d="M58.1433 3.67285V8.26256L59.1585 7.62804L60.0469 10.0392L61.0198 9.66908L60.0786 7.31077L61.2842 7.15214L58.1433 3.67285Z" fill="white"/>
<path fill-rule="evenodd" clip-rule="evenodd" d="M56.3139 5.5974C55.6688 4.9523 55.5524 4.00052 55.9331 3.22852C55.6899 4.02167 55.8803 4.93115 56.5148 5.56567C56.8426 5.89351 57.2551 6.10501 57.6887 6.20019C57.1916 6.17904 56.6946 5.97811 56.3139 5.5974Z" fill="white"/>
</svg>
