<svg width="538" height="416" viewBox="0 0 538 416" fill="none" xmlns="http://www.w3.org/2000/svg">
<path d="M515.708 363.561C513.571 346.387 502.924 329.466 486.54 323.877C493.002 341.553 493 360.945 486.536 378.621C484.019 385.428 480.509 392.738 482.878 399.599C484.351 403.868 487.955 407.135 491.985 409.177C496.014 411.219 500.486 412.193 504.902 413.147L505.771 413.865C512.781 398.042 517.844 380.734 515.708 363.561Z" fill="#F0F0F0"/>
<path d="M486.377 324.202C495.919 334.889 501.849 348.31 503.326 362.558C503.698 365.619 503.585 368.721 502.992 371.747C502.318 374.677 500.872 377.373 498.804 379.555C496.916 381.628 494.745 383.53 493.395 386.026C492.722 387.314 492.33 388.729 492.243 390.179C492.156 391.629 492.377 393.081 492.891 394.44C494.083 397.859 496.434 400.645 498.827 403.291C501.484 406.228 504.29 409.237 505.419 413.131C505.556 413.602 506.281 413.362 506.144 412.891C504.179 406.117 497.6 402.269 494.463 396.167C492.999 393.319 492.384 390.014 493.757 387.008C494.957 384.38 497.194 382.417 499.123 380.334C501.172 378.235 502.676 375.666 503.503 372.853C504.249 369.866 504.481 366.774 504.189 363.71C503.642 356.8 502.012 350.02 499.358 343.616C496.37 336.292 492.151 329.532 486.882 323.63C486.556 323.264 486.053 323.839 486.377 324.202H486.377Z" fill="white"/>
<path d="M503.12 357.942C505.478 357.37 507.556 355.978 508.982 354.016C510.408 352.054 511.09 349.649 510.906 347.231C510.867 346.741 510.105 346.779 510.144 347.269C510.319 349.52 509.684 351.761 508.352 353.585C507.02 355.409 505.08 356.698 502.881 357.218C502.403 357.331 502.645 358.055 503.12 357.942Z" fill="white"/>
<path d="M499.9 378.629C495.641 376.088 492.498 372.035 491.096 367.279C490.957 366.808 490.233 367.047 490.371 367.518C491.839 372.464 495.119 376.675 499.556 379.311C499.979 379.562 500.32 378.879 499.9 378.629Z" fill="white"/>
<path d="M495.663 337.014C494.797 337.426 493.842 337.616 492.884 337.567C491.926 337.519 490.996 337.233 490.176 336.736C489.756 336.48 489.416 337.163 489.833 337.417C490.741 337.962 491.769 338.276 492.827 338.332C493.885 338.388 494.941 338.184 495.902 337.739C495.996 337.704 496.073 337.635 496.119 337.546C496.164 337.456 496.173 337.353 496.145 337.257C496.112 337.161 496.044 337.082 495.953 337.037C495.863 336.991 495.759 336.983 495.663 337.014Z" fill="white"/>
<path d="M436.599 354.551C436.856 354.719 437.114 354.886 437.372 355.06C440.822 357.328 444.083 359.873 447.121 362.669C447.359 362.881 447.598 363.1 447.829 363.319C455.078 370.133 460.997 378.234 465.287 387.208C466.991 390.781 468.42 394.478 469.563 398.267C471.141 403.501 472.435 409.301 475.558 413.582C475.879 414.032 476.228 414.462 476.602 414.869H504.826C504.89 414.837 504.955 414.812 505.019 414.779L506.146 414.831C506.101 414.631 506.05 414.425 506.004 414.226C505.979 414.11 505.947 413.994 505.921 413.878C505.902 413.801 505.882 413.724 505.869 413.653C505.863 413.627 505.856 413.601 505.85 413.582C505.837 413.511 505.818 413.447 505.805 413.382C505.522 412.23 505.23 411.078 504.929 409.926C504.929 409.919 504.929 409.919 504.923 409.913C502.611 401.139 499.546 392.48 495.263 384.562C495.135 384.324 495.006 384.079 494.864 383.841C492.914 380.283 490.676 376.89 488.173 373.696C486.797 371.951 485.333 370.278 483.788 368.681C479.787 364.564 475.162 361.101 470.085 358.42C459.962 353.077 448.242 351.03 437.423 354.294C437.146 354.377 436.876 354.461 436.599 354.551Z" fill="#F0F0F0"/>
<path d="M436.662 354.909C450.717 357.7 463.535 364.846 473.296 375.334C475.437 377.554 477.215 380.098 478.564 382.872C479.79 385.617 480.259 388.639 479.922 391.626C479.663 394.418 479.076 397.243 479.5 400.049C479.739 401.482 480.278 402.848 481.082 404.058C481.886 405.268 482.937 406.295 484.166 407.07C487.177 409.082 490.732 409.893 494.236 410.565C498.126 411.311 502.179 412.024 505.426 414.453C505.82 414.748 506.254 414.12 505.861 413.826C500.211 409.6 492.641 410.487 486.461 407.503C483.577 406.111 481.096 403.841 480.382 400.615C479.757 397.795 480.36 394.881 480.647 392.056C481.018 389.147 480.672 386.191 479.638 383.447C478.434 380.613 476.758 378.005 474.679 375.734C470.081 370.546 464.696 366.114 458.72 362.598C451.923 358.548 444.482 355.69 436.721 354.149C436.241 354.053 436.185 354.815 436.662 354.909Z" fill="white"/>
<path d="M470.352 371.772C471.89 369.896 472.71 367.535 472.667 365.11C472.625 362.685 471.721 360.354 470.117 358.534C469.792 358.167 469.206 358.655 469.532 359.023C471.028 360.715 471.87 362.886 471.905 365.145C471.94 367.403 471.167 369.599 469.725 371.338C469.412 371.716 470.041 372.148 470.352 371.772H470.352Z" fill="white"/>
<path d="M480.239 390.228C475.309 390.762 470.358 389.418 466.374 386.464C465.98 386.172 465.546 386.799 465.94 387.091C470.091 390.157 475.246 391.545 480.376 390.979C480.865 390.925 480.726 390.174 480.239 390.228Z" fill="white"/>
<path d="M451.793 359.551C451.349 360.401 450.701 361.127 449.907 361.665C449.113 362.203 448.198 362.535 447.244 362.631C446.755 362.679 446.894 363.429 447.38 363.382C448.434 363.27 449.444 362.902 450.323 362.31C451.201 361.718 451.921 360.92 452.42 359.986C452.474 359.901 452.495 359.8 452.477 359.701C452.459 359.603 452.404 359.515 452.324 359.455C452.24 359.398 452.138 359.376 452.038 359.394C451.939 359.412 451.851 359.469 451.793 359.551Z" fill="white"/>
<path d="M391.153 61.7863L54.3095 0.0930249C53.6237 -0.0387664 52.9184 -0.030444 52.236 0.117488C51.617 0.253008 51.0359 0.524334 50.5346 0.911856C50.0447 1.29388 49.6505 1.78471 49.3832 2.34546C49.0989 2.9511 48.9543 3.61284 48.9602 4.28182V305.952C48.9539 306.621 49.098 307.283 49.3819 307.889C49.6487 308.45 50.0425 308.941 50.532 309.323C51.033 309.711 51.6139 309.983 52.2327 310.119C52.9151 310.267 53.6204 310.276 54.3063 310.145L391.153 248.451C391.432 248.394 391.691 248.262 391.902 248.071C392.148 247.851 392.355 247.59 392.512 247.299C392.694 246.967 392.832 246.612 392.922 246.245C393.022 245.845 393.072 245.434 393.072 245.022V65.2258C393.073 64.8124 393.022 64.4006 392.922 63.9994C392.832 63.6316 392.694 63.2771 392.512 62.945C392.355 62.6541 392.149 62.3928 391.902 62.1725C391.691 61.9811 391.433 61.8498 391.154 61.7921L391.153 61.7863Z" fill="#E4E4E4"/>
<path d="M396.304 61.7863L59.4609 0.0930249C58.7751 -0.0387664 58.0698 -0.030444 57.3873 0.117488C56.7683 0.253008 56.1872 0.524334 55.686 0.911856C55.196 1.29388 54.8018 1.78471 54.5346 2.34546C54.2503 2.9511 54.1057 3.61284 54.1115 4.28182V305.952C54.1053 306.621 54.2494 307.283 54.5333 307.889C54.8001 308.45 55.1939 308.941 55.6834 309.323C56.1843 309.711 56.7652 309.983 57.3841 310.119C58.0665 310.267 58.7718 310.276 59.4576 310.145L396.304 248.451C396.583 248.394 396.842 248.262 397.053 248.071C397.3 247.851 397.506 247.59 397.663 247.299C397.845 246.967 397.983 246.612 398.073 246.245C398.173 245.845 398.224 245.434 398.224 245.022V65.2258C398.224 64.8124 398.174 64.4006 398.074 63.9994C397.984 63.6316 397.846 63.2771 397.664 62.945C397.507 62.6541 397.3 62.3928 397.054 62.1725C396.843 61.9811 396.584 61.8498 396.305 61.7921L396.304 61.7863Z" fill="white"/>
<path d="M396.304 61.7863L59.4609 0.0930249C58.7751 -0.0387664 58.0698 -0.030444 57.3873 0.117488C56.7683 0.253008 56.1872 0.524334 55.686 0.911856C55.196 1.29388 54.8018 1.78471 54.5346 2.34546C54.2503 2.9511 54.1057 3.61284 54.1115 4.28182V305.952C54.1053 306.621 54.2494 307.283 54.5333 307.889C54.8001 308.45 55.1939 308.941 55.6834 309.323C56.1843 309.711 56.7652 309.983 57.3841 310.119C58.0665 310.267 58.7718 310.276 59.4576 310.145L396.304 248.451C396.583 248.394 396.842 248.262 397.053 248.071C397.3 247.851 397.506 247.59 397.663 247.299C397.845 246.967 397.983 246.612 398.073 246.245C398.173 245.845 398.224 245.434 398.224 245.022V65.2258C398.224 64.8124 398.174 64.4006 398.074 63.9994C397.984 63.6316 397.846 63.2771 397.664 62.945C397.507 62.6541 397.3 62.3928 397.054 62.1725C396.843 61.9811 396.584 61.8498 396.305 61.7921L396.304 61.7863ZM397.586 245.13C397.586 245.407 397.552 245.682 397.485 245.949C397.425 246.195 397.333 246.431 397.212 246.653C397.107 246.847 396.969 247.021 396.805 247.168C396.664 247.295 396.491 247.382 396.305 247.42L59.4641 308.429C59.0071 308.516 58.5372 308.51 58.0828 308.41C57.671 308.319 57.2845 308.137 56.9514 307.879C56.6257 307.624 56.3638 307.297 56.1863 306.924C55.9978 306.521 55.9018 306.081 55.9056 305.636V4.60241C55.9017 4.15773 55.9974 3.71782 56.1857 3.31493C56.3628 2.94112 56.6245 2.61364 56.9501 2.35834C57.283 2.0996 57.6692 1.91799 58.0809 1.82661C58.5352 1.7268 59.0051 1.72001 59.4622 1.80665L396.305 62.8175C396.491 62.8555 396.664 62.9427 396.805 63.0699C396.969 63.2166 397.107 63.3909 397.212 63.5849C397.333 63.8062 397.426 64.0425 397.486 64.2878C397.553 64.5556 397.586 64.8307 397.586 65.1067V245.13L397.586 245.13Z" fill="#CACACA"/>
<path d="M0.000436198 94.1586C-0.015768 92.1005 0.419688 90.064 1.27612 88.1924C2.07653 86.4635 3.25941 84.9389 4.73546 83.7339C6.22126 82.5291 7.95588 81.6688 9.81435 81.2149C11.825 80.7301 13.9144 80.6672 15.9506 81.0302C18.0863 81.4019 20.1356 82.1623 21.9967 83.2736C23.8354 84.3673 25.4812 85.7561 26.8683 87.3845C28.2437 88.9897 29.3427 90.8123 30.1203 92.7778C30.8953 94.7281 31.2976 96.8063 31.3064 98.9048C31.3209 100.889 30.9167 102.855 30.1203 104.673C29.3723 106.362 28.2621 107.867 26.8683 109.08C25.4555 110.302 23.793 111.201 21.9967 111.714C20.0317 112.269 17.9727 112.408 15.9506 112.125C13.7967 111.828 11.7169 111.133 9.81757 110.075C7.90933 109.017 6.19301 107.644 4.7406 106.016C3.28205 104.391 2.11189 102.529 1.28062 100.51C0.447103 98.4957 0.0123522 96.3386 0.000436198 94.1586Z" fill="#E4E4E4"/>
<path d="M0.000436198 156.601C-0.015768 154.543 0.419688 152.507 1.27612 150.635C2.07653 148.906 3.25941 147.381 4.73546 146.176C6.22126 144.972 7.95588 144.111 9.81435 143.657C11.825 143.173 13.9144 143.11 15.9506 143.473C18.0863 143.844 20.1356 144.605 21.9967 145.716C23.8354 146.81 25.4812 148.199 26.8683 149.827C28.2437 151.432 29.3427 153.255 30.1203 155.22C30.8953 157.171 31.2976 159.249 31.3064 161.347C31.3209 163.332 30.9167 165.297 30.1203 167.115C29.3723 168.805 28.2621 170.309 26.8683 171.522C25.4555 172.744 23.793 173.643 21.9967 174.156C20.0317 174.711 17.9727 174.851 15.9506 174.567C13.7967 174.271 11.7169 173.576 9.81757 172.518C7.90933 171.459 6.19301 170.087 4.7406 168.459C3.28205 166.834 2.11189 164.972 1.28062 162.953C0.447103 160.938 0.0123522 158.781 0.000436198 156.601Z" fill="#E4E4E4"/>
<path d="M0.000436198 219.044C-0.015768 216.986 0.419688 214.949 1.27612 213.078C2.07653 211.349 3.25941 209.824 4.73546 208.619C6.22126 207.414 7.95588 206.554 9.81435 206.1C11.825 205.615 13.9144 205.552 15.9506 205.915C18.0863 206.287 20.1356 207.047 21.9967 208.159C23.8354 209.252 25.4812 210.641 26.8683 212.27C28.2437 213.875 29.3427 215.697 30.1203 217.663C30.8953 219.613 31.2976 221.691 31.3064 223.79C31.3209 225.775 30.9167 227.74 30.1203 229.558C29.3723 231.247 28.2621 232.752 26.8683 233.965C25.4555 235.187 23.793 236.086 21.9967 236.599C20.0317 237.154 17.9727 237.294 15.9506 237.01C13.7967 236.713 11.7169 236.018 9.81757 234.96C7.90933 233.902 6.19301 232.53 4.7406 230.901C3.28205 229.276 2.11189 227.414 1.28062 225.395C0.447103 223.381 0.0123522 221.224 0.000436198 219.044Z" fill="#E4E4E4"/>
<path d="M3.86445 94.1586C3.84825 92.1005 4.2837 90.064 5.14013 88.1924C5.94054 86.4635 7.12342 84.9389 8.59947 83.7339C10.0853 82.5291 11.8199 81.6688 13.6784 81.2149C15.689 80.7301 17.7784 80.6672 19.8146 81.0302C21.9503 81.4019 23.9997 82.1623 25.8608 83.2736C27.6994 84.3673 29.3452 85.7561 30.7323 87.3845C32.1077 88.9897 33.2067 90.8123 33.9843 92.7778C34.7593 94.7281 35.1616 96.8063 35.1705 98.9048C35.1849 100.889 34.7807 102.855 33.9843 104.673C33.2363 106.362 32.1261 107.867 30.7323 109.08C29.3195 110.302 27.657 111.201 25.8608 111.714C23.8957 112.269 21.8367 112.408 19.8146 112.125C17.6607 111.828 15.5809 111.133 13.6816 110.075C11.7733 109.017 10.057 107.644 8.60462 106.016C7.14606 104.391 5.9759 102.529 5.14463 100.51C4.31112 98.4957 3.87637 96.3386 3.86445 94.1586Z" fill="#112B3C"/>
<path d="M3.86418 156.176C3.85432 154.087 4.28918 152.02 5.13986 150.113C5.94768 148.316 7.12659 146.71 8.5992 145.401C10.0722 144.092 11.802 143.106 13.6781 142.504C15.6583 141.874 17.7468 141.657 19.8144 141.866C21.9261 142.073 23.9786 142.683 25.8605 143.663C27.6931 144.616 29.3424 145.886 30.732 147.414C32.1122 148.925 33.2133 150.668 33.984 152.564C34.7646 154.484 35.1672 156.537 35.1695 158.61C35.1784 160.623 34.7747 162.617 33.9834 164.468C33.2246 166.23 32.1121 167.817 30.7147 169.131C29.3174 170.446 27.665 171.459 25.8598 172.109C23.9241 172.805 21.8665 173.096 19.8137 172.966C17.6853 172.835 15.6025 172.293 13.6807 171.37C9.84384 169.526 6.80972 166.348 5.14501 162.431C4.30602 160.452 3.87058 158.325 3.86418 156.176Z" fill="#112B3C"/>
<path d="M3.86427 218.193C3.86163 216.115 4.27979 214.058 5.09355 212.146C5.90732 210.234 7.09986 208.507 8.59929 207.068C10.4431 205.303 12.6891 204.014 15.1431 203.311C17.5971 202.609 20.1853 202.514 22.6842 203.035C25.1831 203.556 27.5175 204.677 29.4857 206.302C31.4539 207.928 32.9967 210.007 33.9809 212.362C34.9482 214.705 35.3267 217.249 35.0832 219.773C34.8397 222.296 33.9816 224.721 32.584 226.836C31.1864 228.951 29.2917 230.692 27.0657 231.906C24.8397 233.12 22.3501 233.771 19.8145 233.801C16.7102 233.846 13.6618 232.974 11.0519 231.293C8.44205 229.612 6.38709 227.198 5.1451 224.354C4.30036 222.41 3.86439 220.312 3.86427 218.193Z" fill="#112B3C"/>
<path d="M13.5937 94.0877L18.2701 94.8062V90.197C18.2679 89.9975 18.3087 89.7999 18.3899 89.6176C18.4658 89.4492 18.5787 89.3 18.7202 89.1812C18.8632 89.062 19.0308 88.9761 19.2109 88.9295C19.4073 88.8793 19.6119 88.8706 19.8118 88.9037C20.0235 88.9379 20.2272 89.0108 20.4126 89.1187C20.5974 89.2259 20.7632 89.363 20.9033 89.5243C21.0431 89.6841 21.1552 89.8663 21.2349 90.0631C21.3144 90.2584 21.3562 90.467 21.3579 90.6779V95.2806L25.9454 95.9842C26.1539 96.0171 26.3543 96.0885 26.5366 96.1947C26.9021 96.4068 27.1863 96.7349 27.3441 97.1268C27.4219 97.3207 27.4624 97.5275 27.4633 97.7364C27.4647 97.9339 27.4241 98.1295 27.3441 98.31C27.2702 98.4766 27.1602 98.6248 27.0221 98.7439C26.882 98.8629 26.7173 98.9495 26.5398 98.9975C26.3471 99.0489 26.1457 99.0595 25.9487 99.0284L21.3547 98.3416V102.934C21.3562 103.134 21.3149 103.331 21.2336 103.513C21.1575 103.682 21.0449 103.833 20.9039 103.953C20.7615 104.073 20.5944 104.161 20.4145 104.211C20.219 104.263 20.0146 104.275 19.8143 104.245C19.6028 104.215 19.3988 104.145 19.2129 104.039C19.0279 103.935 18.8618 103.8 18.7215 103.64C18.5814 103.482 18.4693 103.301 18.3899 103.105C18.3109 102.909 18.2703 102.7 18.2701 102.489V97.8794L13.5937 97.1777C13.3788 97.1447 13.1719 97.0725 12.9832 96.9646C12.7955 96.8578 12.6268 96.7205 12.4842 96.5584C12.3424 96.3988 12.2285 96.2164 12.1474 96.0189C12.0665 95.8213 12.0245 95.61 12.0237 95.3965C12.0222 95.1952 12.0644 94.996 12.1474 94.8126C12.2252 94.6425 12.3403 94.492 12.4842 94.3723C12.6296 94.2509 12.8 94.163 12.9832 94.1148C13.1827 94.0639 13.3905 94.0547 13.5937 94.0877Z" fill="white"/>
<path d="M16.876 161.535L29.862 162.476H29.9097L23.8198 151.423C23.782 151.353 23.7278 151.294 23.662 151.25C23.6297 151.229 23.5949 151.211 23.5583 151.198C23.5216 151.185 23.4833 151.176 23.4443 151.173C23.4065 151.17 23.3684 151.171 23.331 151.178C23.295 151.185 23.2601 151.197 23.2273 151.213C23.1617 151.245 23.1069 151.296 23.0696 151.359L18.9257 158.169L18.7261 158.496L16.876 161.535Z" fill="white"/>
<path d="M9.4646 160.997L20.9219 161.828L18.726 158.496L18.5676 158.255L15.6878 153.885C15.6368 153.817 15.5732 153.76 15.5004 153.716C15.4651 153.695 15.4278 153.677 15.389 153.663C15.349 153.649 15.3075 153.639 15.2654 153.633C15.2246 153.627 15.1834 153.626 15.1424 153.628C15.1025 153.631 15.063 153.638 15.0245 153.649C14.9867 153.66 14.9502 153.675 14.9157 153.694C14.881 153.713 14.8486 153.736 14.8191 153.762L14.8095 153.774L14.7972 153.785L14.7876 153.798L14.7779 153.81L9.4646 160.997Z" fill="white"/>
<path d="M18.1292 149.604C18.3933 149.627 18.6506 149.7 18.8871 149.82C19.1189 149.938 19.328 150.096 19.5047 150.287C19.6809 150.476 19.8218 150.696 19.9206 150.936C20.0209 151.178 20.0727 151.437 20.0733 151.699C20.0744 151.953 20.0224 152.204 19.9206 152.437C19.824 152.657 19.6823 152.854 19.5047 153.016C19.3261 153.178 19.1158 153.302 18.8871 153.379C18.6432 153.46 18.3853 153.49 18.1292 153.468C17.8647 153.446 17.6069 153.373 17.3699 153.254C17.137 153.136 16.9268 152.979 16.7492 152.788C16.5716 152.598 16.4296 152.377 16.3299 152.137C16.2288 151.894 16.1765 151.633 16.176 151.37C16.1749 151.115 16.2274 150.863 16.3299 150.63C16.4275 150.409 16.5704 150.212 16.7492 150.05C16.929 149.889 17.1404 149.767 17.3699 149.691C17.6144 149.61 17.8728 149.581 18.1292 149.604Z" fill="white"/>
<path d="M158.261 193.664L286.847 71.7037L287.398 72.6693L159.065 194.696L158.261 193.664Z" fill="#E6E6E6"/>
<path d="M158.282 55.4326L159.088 54.467L287.387 187.608L286.833 188.525L158.282 55.4326Z" fill="#E6E6E6"/>
<path d="M285.546 69.9231L160.554 52.7572C159.976 52.6747 159.387 52.7249 158.831 52.904C158.302 53.0783 157.82 53.3696 157.419 53.7563C157.005 54.1563 156.679 54.6388 156.463 55.1725C156.226 55.7614 156.107 56.3906 156.11 57.0252V191.528C156.109 192.171 156.228 192.809 156.463 193.407C156.681 193.964 157.005 194.473 157.418 194.906C157.817 195.323 158.298 195.652 158.831 195.872C159.376 196.095 159.965 196.193 160.553 196.16L285.546 189.279C285.968 189.251 286.376 189.118 286.734 188.892C287.113 188.653 287.441 188.343 287.7 187.978C287.986 187.578 288.206 187.135 288.35 186.666C288.509 186.157 288.59 185.626 288.589 185.092V74.3559C288.589 73.8155 288.508 73.2782 288.35 72.7614C288.204 72.2763 287.984 71.8162 287.7 71.3966C287.44 71.0097 287.113 70.6728 286.734 70.4021C286.381 70.1508 285.974 69.9866 285.546 69.9231ZM160.554 194.776C160.134 194.799 159.714 194.728 159.324 194.567C158.944 194.41 158.601 194.174 158.317 193.876C158.023 193.566 157.791 193.202 157.636 192.804C157.469 192.376 157.384 191.922 157.385 191.463V57.1919C157.382 56.7397 157.468 56.2913 157.636 55.8716C157.79 55.49 158.022 55.1448 158.317 54.8584C158.603 54.5826 158.947 54.3747 159.324 54.2501C159.721 54.1213 160.141 54.0846 160.554 54.1425L285.546 71.0761C285.852 71.1214 286.143 71.2387 286.395 71.4185C286.667 71.6111 286.901 71.8509 287.087 72.1266C287.29 72.4264 287.447 72.7552 287.552 73.1019C287.666 73.4714 287.723 73.8556 287.724 74.242V185.137C287.724 185.519 287.666 185.899 287.552 186.263C287.449 186.599 287.292 186.915 287.087 187.201C286.901 187.461 286.666 187.683 286.395 187.853C286.139 188.014 285.847 188.107 285.546 188.126L160.554 194.776Z" fill="#E6E6E6"/>
<path d="M156.413 210.364C156.081 210.4 155.764 210.523 155.494 210.721C155.197 210.939 154.943 211.213 154.749 211.526C154.527 211.876 154.359 212.258 154.251 212.658C154.132 213.094 154.074 213.545 154.079 213.998C154.082 214.431 154.147 214.862 154.273 215.277C154.382 215.642 154.552 215.986 154.775 216.294C154.97 216.566 155.222 216.79 155.514 216.953C155.789 217.104 156.102 217.174 156.415 217.156L375.234 199.043C375.409 199.028 375.572 198.953 375.697 198.831C375.856 198.679 375.985 198.498 376.077 198.298C376.193 198.052 376.28 197.792 376.334 197.525C376.399 197.217 376.433 196.902 376.435 196.587C376.439 196.275 376.41 195.963 376.35 195.657C376.3 195.396 376.217 195.143 376.103 194.904C376.016 194.713 375.89 194.542 375.733 194.403C375.606 194.29 375.442 194.23 375.273 194.233H375.234L156.413 210.364Z" fill="#E6E6E6"/>
<path d="M156.413 230.977C156.079 231.023 155.763 231.154 155.494 231.358C155.197 231.584 154.944 231.863 154.749 232.181C154.527 232.536 154.36 232.922 154.251 233.326C154.132 233.766 154.074 234.22 154.079 234.675C154.082 235.107 154.147 235.536 154.273 235.949C154.381 236.31 154.551 236.649 154.775 236.952C154.969 237.218 155.221 237.436 155.512 237.59C155.79 237.734 156.102 237.796 156.414 237.769L375.234 213.638C375.41 213.618 375.573 213.538 375.697 213.413C375.856 213.256 375.985 213.072 376.077 212.869C376.193 212.619 376.28 212.356 376.334 212.086C376.399 211.776 376.433 211.461 376.435 211.144C376.439 210.833 376.41 210.522 376.35 210.216C376.3 209.958 376.217 209.707 376.103 209.471C376.015 209.283 375.888 209.116 375.731 208.981C375.604 208.872 375.439 208.816 375.271 208.824H375.233L156.413 230.977Z" fill="#E6E6E6"/>
<path d="M156.413 251.256C156.077 251.312 155.761 251.452 155.494 251.663C155.197 251.896 154.944 252.182 154.749 252.506C154.528 252.866 154.36 253.256 154.251 253.665C154.132 254.105 154.074 254.56 154.079 255.017C154.082 255.447 154.147 255.874 154.273 256.285C154.381 256.642 154.551 256.977 154.775 257.275C154.969 257.536 155.222 257.747 155.512 257.893C155.792 258.03 156.105 258.083 156.414 258.047L375.234 227.995C375.411 227.97 375.574 227.887 375.697 227.759C375.856 227.598 375.984 227.41 376.077 227.204C376.193 226.952 376.28 226.687 376.334 226.414C376.399 226.104 376.433 225.787 376.435 225.47C376.439 225.159 376.41 224.849 376.35 224.544C376.3 224.288 376.217 224.04 376.103 223.805C376.015 223.62 375.889 223.457 375.731 223.326C375.602 223.22 375.438 223.168 375.271 223.181H375.233L156.413 251.256Z" fill="#E6E6E6"/>
<path d="M26.0571 211.661L13.5656 211.512C13.3573 211.505 13.1493 211.534 12.9512 211.599C12.7597 211.662 12.5805 211.757 12.4213 211.88C12.2626 212.003 12.1266 212.153 12.0194 212.322C11.9096 212.497 11.8321 212.689 11.7908 212.891C11.7496 213.132 11.7622 213.379 11.8275 213.614C11.8602 213.732 11.9055 213.846 11.9628 213.954C12.0795 214.174 12.2428 214.365 12.4412 214.516C12.7389 214.741 13.1013 214.865 13.4748 214.868L17.2316 214.902C17.4088 214.903 17.5818 214.956 17.7293 215.054C17.8769 215.152 17.9926 215.291 18.0623 215.454C18.1092 215.564 18.1333 215.682 18.1332 215.802V223.169C18.1239 223.575 18.2594 223.972 18.5157 224.288C18.7721 224.605 19.1321 224.822 19.5325 224.9C19.8953 224.961 20.2681 224.901 20.5938 224.73C20.9194 224.559 21.18 224.285 21.3356 223.952C21.438 223.733 21.4912 223.493 21.4914 223.251V215.822C21.4915 215.707 21.5144 215.592 21.5588 215.485C21.6033 215.378 21.6684 215.28 21.7504 215.199C21.8325 215.117 21.9298 215.052 22.037 215.007C22.1441 214.963 22.2589 214.94 22.3749 214.94L22.3833 214.941L25.9721 214.969C26.3727 214.982 26.765 214.852 27.079 214.603C27.393 214.354 27.6085 214.002 27.6869 213.609C27.7263 213.371 27.7138 213.127 27.6503 212.895C27.5869 212.662 27.4739 212.446 27.3191 212.261C27.1643 212.076 26.9715 211.927 26.7536 211.823C26.5358 211.72 26.2982 211.665 26.0571 211.661Z" fill="white"/>
<path d="M26.0576 221.586C26.4137 221.586 26.7605 221.701 27.0465 221.913C27.3324 222.125 27.5424 222.424 27.6453 222.765C27.7481 223.106 27.7385 223.471 27.6177 223.806C27.4969 224.141 27.2714 224.428 26.9746 224.625C26.6778 224.822 26.3254 224.918 25.9698 224.899C25.6141 224.88 25.274 224.747 24.9998 224.52C24.7256 224.292 24.5319 223.983 24.4475 223.637C24.363 223.291 24.3922 222.927 24.5307 222.599C24.657 222.299 24.8693 222.042 25.141 221.862C25.4126 221.682 25.7315 221.586 26.0576 221.586Z" fill="white"/>
<path d="M318.831 123.958C318.773 124.408 318.68 124.852 318.552 125.286L344.591 156.454L354.316 154.778L358.764 169.12L341.836 173.758C340.468 174.133 339.016 174.054 337.697 173.533C336.378 173.012 335.264 172.078 334.521 170.871L310.32 131.513C308.574 131.518 306.868 130.991 305.429 130.003C303.99 129.015 302.885 127.613 302.263 125.982C301.641 124.351 301.53 122.57 301.945 120.874C302.36 119.179 303.282 117.65 304.587 116.491C305.893 115.332 307.52 114.598 309.254 114.386C310.987 114.175 312.743 114.495 314.289 115.306C315.836 116.117 317.098 117.379 317.91 118.924C318.721 120.47 319.042 122.226 318.831 123.958Z" fill="#FFB6B6"/>
<path d="M345.744 154.716C346.023 154.265 346.395 153.88 346.836 153.586C347.276 153.293 347.775 153.098 348.298 153.014L366.567 150.102C369.151 149.287 371.954 149.529 374.359 150.777C376.765 152.024 378.578 154.174 379.401 156.755C380.223 159.336 379.988 162.138 378.747 164.546C377.506 166.955 375.361 168.773 372.781 169.602L356.09 177.715C355.613 177.946 355.093 178.072 354.563 178.084C354.033 178.097 353.508 177.995 353.021 177.785C352.535 177.576 352.099 177.264 351.744 176.871C351.388 176.479 351.122 176.014 350.963 175.509L345.365 157.761C345.205 157.256 345.156 156.722 345.222 156.197C345.287 155.671 345.466 155.166 345.744 154.716Z" fill="#3F3D56"/>
<path d="M346.763 407.176H338.868L335.112 376.735L346.764 376.735L346.763 407.176Z" fill="#FFB6B6"/>
<path d="M348.776 414.826L323.32 414.825V414.503C323.32 411.876 324.364 409.357 326.222 407.5C328.08 405.642 330.601 404.599 333.228 404.599H333.229L348.777 404.599L348.776 414.826Z" fill="#2F2E41"/>
<path d="M429.19 407.176H421.295L417.539 376.735L429.191 376.735L429.19 407.176Z" fill="#FFB6B6"/>
<path d="M431.203 414.826L405.747 414.825V414.503C405.747 411.876 406.791 409.357 408.649 407.5C410.507 405.642 413.027 404.599 415.655 404.599H415.655L431.203 404.599L431.203 414.826Z" fill="#2F2E41"/>
<path d="M349.845 221.748L384.056 211.865C396.518 220.702 405.123 238.413 402.336 261.33C397.845 298.26 423.844 345.743 435.056 393.855L415.668 394.464L373.212 292.896L348.322 396.579L331.002 397.123L342.584 254.362L349.845 221.748Z" fill="#2F2E41"/>
<path d="M365.079 131.938C374.853 131.938 382.776 124.017 382.776 114.247C382.776 104.476 374.853 96.5556 365.079 96.5556C355.305 96.5556 347.382 104.476 347.382 114.247C347.382 124.017 355.305 131.938 365.079 131.938Z" fill="#FFB6B6"/>
<path d="M347.072 192.913C343.16 186.049 341.228 177.713 344.632 170.584C345.49 168.789 347.827 167.092 349.051 165.524L362.724 145.143L378.164 142.66C391.525 153.863 380.111 192.136 391.059 217.242L345.338 241.704C348.606 229.227 353.016 203.344 347.072 192.913Z" fill="#3F3D56"/>
<path d="M347.269 107.163C347.269 107.163 348.468 104.944 355.641 107.807C358.151 108.808 359.329 108.578 359.492 110.758C360.074 118.963 363.076 126.811 368.118 133.311L368.173 133.382L371.759 130.11L376.371 133.791L395.84 134.2C395.84 134.2 398.914 119.069 388.667 101.893C378.42 84.7175 357.414 94.1231 357.414 94.1231C343.068 94.941 347.269 107.163 347.269 107.163Z" fill="#2F2E41"/>
<path d="M302.089 84.5499L177.097 67.384C176.519 67.3015 175.93 67.3517 175.375 67.5308C174.846 67.7051 174.363 67.9965 173.962 68.3831C173.548 68.7831 173.222 69.2656 173.006 69.7993C172.77 70.3882 172.65 71.0174 172.654 71.652V206.155C172.652 206.798 172.772 207.435 173.006 208.034C173.224 208.591 173.549 209.1 173.962 209.533C174.36 209.95 174.841 210.279 175.374 210.499C175.92 210.722 176.508 210.82 177.097 210.787L302.089 203.905C302.512 203.878 302.92 203.745 303.278 203.519C303.656 203.28 303.984 202.969 304.243 202.604C304.529 202.205 304.749 201.762 304.894 201.293C305.053 200.783 305.133 200.252 305.133 199.718V88.9827C305.132 88.4423 305.052 87.905 304.894 87.3882C304.747 86.9031 304.528 86.443 304.243 86.0234C303.984 85.6365 303.657 85.2996 303.278 85.0289C302.925 84.7776 302.518 84.6134 302.089 84.5499Z" fill="#E61C5D"/>
<path opacity="0.2" d="M302.089 84.5499L177.097 67.384C176.519 67.3015 175.93 67.3517 175.375 67.5308C174.846 67.7051 174.363 67.9965 173.962 68.3831C173.548 68.7831 173.222 69.2656 173.006 69.7993C172.77 70.3882 172.65 71.0174 172.654 71.652V206.155C172.652 206.798 172.772 207.435 173.006 208.034C173.224 208.591 173.549 209.1 173.962 209.533C174.36 209.95 174.841 210.279 175.374 210.499C175.92 210.722 176.508 210.82 177.097 210.787L302.089 203.905C302.512 203.878 302.92 203.745 303.278 203.519C303.656 203.28 303.984 202.969 304.243 202.604C304.529 202.205 304.749 201.762 304.894 201.293C305.053 200.783 305.133 200.252 305.133 199.718V88.9827C305.132 88.4423 305.052 87.905 304.894 87.3882C304.747 86.9031 304.528 86.443 304.243 86.0234C303.984 85.6365 303.657 85.2996 303.278 85.0289C302.925 84.7776 302.518 84.6134 302.089 84.5499Z" fill="black"/>
<path d="M307.241 84.5499L182.249 67.384C181.671 67.3015 181.082 67.3517 180.526 67.5308C179.998 67.7051 179.515 67.9965 179.114 68.3831C178.7 68.7831 178.374 69.2656 178.158 69.7993C177.922 70.3882 177.802 71.0174 177.806 71.652V206.155C177.804 206.798 177.923 207.435 178.158 208.034C178.376 208.591 178.701 209.1 179.114 209.533C179.512 209.95 179.993 210.279 180.526 210.499C181.071 210.722 181.66 210.82 182.248 210.787L307.241 203.905C307.663 203.878 308.072 203.745 308.429 203.519C308.808 203.28 309.136 202.969 309.395 202.604C309.681 202.205 309.901 201.762 310.046 201.293C310.205 200.783 310.285 200.252 310.285 199.718V88.9827C310.284 88.4423 310.204 87.905 310.046 87.3882C309.899 86.9031 309.68 86.443 309.395 86.0234C309.136 85.6365 308.809 85.2996 308.429 85.0289C308.077 84.7776 307.67 84.6134 307.241 84.5499Z" fill="#E61C5D"/>
<path d="M306.705 192.08C307.045 192.38 307.361 192.706 307.65 193.055L348.06 188.925L352.114 179.931L366.492 184.273L360.864 200.893C360.409 202.235 359.531 203.394 358.361 204.196C357.191 204.997 355.793 205.397 354.377 205.337L308.205 203.359C307.232 204.808 305.84 205.927 304.216 206.566C302.591 207.206 300.81 207.336 299.11 206.939C297.41 206.542 295.871 205.636 294.698 204.344C293.524 203.051 292.773 201.432 292.543 199.702C292.313 197.971 292.615 196.212 293.409 194.658C294.204 193.104 295.453 191.828 296.99 191.001C298.528 190.173 300.281 189.833 302.016 190.026C303.751 190.219 305.387 190.936 306.705 192.08V192.08Z" fill="#FFB6B6"/>
<path d="M347.265 186.998C347.047 186.515 346.936 185.991 346.94 185.462C346.943 184.932 347.06 184.41 347.284 183.93L355.094 167.165C355.864 164.568 357.633 162.382 360.014 161.087C362.394 159.791 365.191 159.492 367.792 160.256C370.392 161.019 372.583 162.782 373.885 165.158C375.188 167.534 375.494 170.329 374.737 172.931L372.121 191.299C372.046 191.823 371.86 192.325 371.573 192.77C371.287 193.216 370.908 193.594 370.462 193.88C370.017 194.166 369.514 194.353 368.99 194.427C368.465 194.502 367.931 194.462 367.423 194.311L349.577 189.017C349.069 188.866 348.6 188.608 348.201 188.26C347.802 187.911 347.483 187.481 347.265 186.998Z" fill="#3F3D56"/>
<path d="M537.356 415.513H292.008C291.837 415.513 291.674 415.445 291.553 415.325C291.432 415.204 291.364 415.04 291.364 414.869C291.364 414.699 291.432 414.535 291.553 414.414C291.674 414.293 291.837 414.226 292.008 414.226H537.356C537.527 414.226 537.691 414.293 537.811 414.414C537.932 414.535 538 414.699 538 414.869C538 415.04 537.932 415.204 537.811 415.325C537.691 415.445 537.527 415.513 537.356 415.513Z" fill="#CACACA"/>
</svg>
