<svg width="560" height="359" viewBox="0 0 560 359" fill="none" xmlns="http://www.w3.org/2000/svg">
<g clip-path="url(#clip0_209_570)">
<path d="M523.137 317.2H381.715C376.57 317.195 371.637 315.148 367.999 311.51C364.361 307.872 362.314 302.939 362.309 297.794V74.7172C362.314 69.572 364.361 64.6392 367.999 61.001C371.637 57.3628 376.57 55.3163 381.715 55.3105H523.137C528.282 55.3163 533.215 57.3628 536.853 61.001C540.491 64.6392 542.538 69.572 542.543 74.7172V297.794C542.538 302.939 540.491 307.872 536.853 311.51C533.215 315.148 528.282 317.195 523.137 317.2Z" fill="#E6E6E6"/>
<path d="M525.482 66.8906H381.449C379.838 66.8926 378.294 67.5333 377.155 68.6722C376.016 69.8111 375.376 71.3551 375.374 72.9658V298.951C375.376 300.562 376.017 302.105 377.156 303.244C378.294 304.383 379.838 305.024 381.449 305.026H525.482C527.093 305.024 528.637 304.384 529.776 303.245C530.915 302.106 531.555 300.562 531.557 298.951V72.9658C531.555 71.3551 530.915 69.8111 529.776 68.6722C528.637 67.5333 527.093 66.8926 525.482 66.8906Z" fill="white"/>
<path d="M385.172 55.3106C385.173 54.917 385.329 54.5396 385.607 54.2613C385.886 53.983 386.263 53.8264 386.657 53.8259H396.752C397.146 53.8259 397.524 53.9823 397.802 54.2608C398.08 54.5392 398.237 54.9168 398.237 55.3106C398.237 55.7043 398.08 56.0819 397.802 56.3604C397.524 56.6388 397.146 56.7952 396.752 56.7952H386.657C386.263 56.7947 385.886 56.6382 385.607 56.3598C385.329 56.0815 385.173 55.7042 385.172 55.3106Z" fill="#E6E6E6"/>
<path d="M401.8 55.3106C401.801 54.917 401.957 54.5396 402.235 54.2613C402.514 53.983 402.891 53.8264 403.285 53.8259H413.38C413.774 53.8259 414.152 53.9823 414.43 54.2608C414.708 54.5392 414.865 54.9168 414.865 55.3106C414.865 55.7043 414.708 56.0819 414.43 56.3604C414.152 56.6388 413.774 56.7952 413.38 56.7952H403.285C402.891 56.7947 402.514 56.6382 402.235 56.3599C401.957 56.0815 401.801 55.7042 401.8 55.3106Z" fill="#E6E6E6"/>
<path d="M501.568 55.3106C501.568 54.917 501.725 54.5396 502.003 54.2613C502.281 53.983 502.659 53.8264 503.052 53.8259H513.148C513.542 53.8259 513.919 53.9823 514.198 54.2608C514.476 54.5392 514.632 54.9168 514.632 55.3106C514.632 55.7043 514.476 56.0819 514.198 56.3604C513.919 56.6388 513.542 56.7952 513.148 56.7952H503.052C502.659 56.7947 502.281 56.6382 502.003 56.3599C501.725 56.0815 501.568 55.7042 501.568 55.3106Z" fill="#E6E6E6"/>
<path d="M473.425 300.371C473.425 301.932 473.395 303.488 473.324 305.026H381.449C379.838 305.024 378.294 304.383 377.156 303.244C376.017 302.105 375.376 300.562 375.374 298.951V185.204C402.733 189.625 427.626 203.641 445.592 224.744C463.559 245.846 473.425 272.656 473.425 300.371Z" fill="#F2F2F2"/>
<path d="M470.305 124.965H436.04C434.481 124.965 433.217 126.229 433.217 127.788V131.311C433.217 132.87 434.481 134.134 436.04 134.134H470.305C471.864 134.134 473.128 132.87 473.128 131.311V127.788C473.128 126.229 471.864 124.965 470.305 124.965Z" fill="#112B3C"/>
<path d="M492.082 143.303H414.263C412.703 143.303 411.439 144.567 411.439 146.127V149.65C411.439 151.209 412.703 152.473 414.263 152.473H492.082C493.641 152.473 494.905 151.209 494.905 149.65V146.127C494.905 144.567 493.641 143.303 492.082 143.303Z" fill="#E6E6E6"/>
<path d="M492.082 161.642H414.263C412.703 161.642 411.439 162.906 411.439 164.466V167.989C411.439 169.548 412.703 170.812 414.263 170.812H492.082C493.641 170.812 494.905 169.548 494.905 167.989V164.466C494.905 162.906 493.641 161.642 492.082 161.642Z" fill="#E6E6E6"/>
<path d="M478.757 289.582C478.311 289.602 477.869 289.485 477.492 289.246C477.114 289.007 476.819 288.658 476.647 288.246C476.475 287.834 476.433 287.379 476.528 286.943C476.623 286.506 476.85 286.109 477.178 285.806L477.327 285.213C477.308 285.165 477.288 285.118 477.268 285.07C476.819 284.009 476.065 283.103 475.103 282.468C474.141 281.833 473.012 281.497 471.859 281.501C470.706 281.506 469.58 281.85 468.623 282.493C467.665 283.135 466.919 284.045 466.477 285.11C464.712 289.361 462.465 293.619 461.912 298.113C461.668 300.1 461.771 302.114 462.216 304.065C458.071 295.023 455.918 285.195 455.904 275.248C455.903 272.752 456.042 270.258 456.32 267.777C456.549 265.743 456.867 263.724 457.275 261.72C459.496 250.843 464.267 240.648 471.193 231.972C474.546 230.143 477.257 227.33 478.962 223.912C479.58 222.684 480.016 221.372 480.258 220.019C479.88 220.068 479.495 220.099 479.117 220.124C478.999 220.13 478.875 220.137 478.757 220.143L478.713 220.145C478.297 220.164 477.885 220.062 477.526 219.851C477.167 219.641 476.876 219.332 476.689 218.96C476.502 218.589 476.426 218.171 476.47 217.757C476.515 217.344 476.678 216.952 476.94 216.629C477.104 216.428 477.267 216.227 477.431 216.026C477.679 215.716 477.933 215.412 478.181 215.102C478.209 215.073 478.236 215.042 478.261 215.009C478.547 214.656 478.832 214.309 479.117 213.955C478.596 213.147 477.896 212.47 477.071 211.978C474.213 210.304 470.27 211.463 468.205 214.048C466.134 216.634 465.744 220.261 466.463 223.491C467.17 226.239 468.34 228.848 469.923 231.204C469.767 231.402 469.606 231.594 469.451 231.793C466.618 235.436 464.148 239.348 462.078 243.473C462.582 238.852 461.981 234.177 460.325 229.833C458.647 225.785 455.502 222.376 452.732 218.876C449.405 214.672 442.582 216.507 441.996 221.836C441.99 221.887 441.985 221.939 441.979 221.99C442.391 222.223 442.794 222.469 443.188 222.729C443.683 223.06 444.066 223.533 444.288 224.085C444.51 224.638 444.56 225.244 444.431 225.825C444.302 226.407 444.001 226.936 443.566 227.343C443.132 227.75 442.585 228.016 441.996 228.107L441.936 228.116C442.083 229.599 442.342 231.068 442.711 232.512C443.781 236.542 445.672 240.307 448.266 243.571C450.86 246.836 454.1 249.53 457.783 251.484C458.025 251.608 458.26 251.732 458.502 251.849C456.422 257.744 455.118 263.884 454.621 270.114C454.34 273.79 454.356 277.483 454.671 281.157L454.652 281.026C453.858 276.942 451.679 273.256 448.483 270.592C443.736 266.692 437.029 265.256 431.907 262.121C431.363 261.772 430.73 261.585 430.083 261.584C429.436 261.582 428.802 261.766 428.256 262.112C427.71 262.459 427.275 262.955 427.001 263.541C426.728 264.127 426.628 264.779 426.713 265.421C426.72 265.466 426.727 265.512 426.734 265.557C427.497 265.868 428.241 266.227 428.959 266.63C429.371 266.862 429.774 267.109 430.168 267.369C430.663 267.7 431.046 268.172 431.268 268.725C431.49 269.277 431.54 269.884 431.411 270.465C431.282 271.046 430.981 271.575 430.546 271.982C430.112 272.389 429.565 272.656 428.976 272.746L428.916 272.756C428.873 272.762 428.835 272.768 428.792 272.774C430.097 275.889 431.927 278.756 434.205 281.249C437.018 284.268 440.417 286.68 444.196 288.338C447.974 289.996 452.051 290.864 456.177 290.89H456.183C457.303 295.757 458.926 300.495 461.026 305.026H478.323C478.385 304.834 478.441 304.636 478.497 304.443C476.896 304.544 475.288 304.448 473.711 304.158C474.994 302.584 476.277 300.996 477.561 299.422C477.589 299.392 477.616 299.361 477.641 299.329C478.292 298.523 478.95 297.723 479.601 296.917L479.601 296.916C479.636 294.445 479.352 291.98 478.757 289.582L478.757 289.582ZM458.949 250.616L458.958 250.603L458.949 250.628V250.616ZM455.117 285.155L454.968 284.821C454.974 284.579 454.974 284.337 454.968 284.089C454.968 284.021 454.956 283.953 454.956 283.884C455.012 284.312 455.061 284.74 455.123 285.168L455.117 285.155Z" fill="#CCCCCC"/>
<path d="M518.282 86.842H388.648C388.368 86.8358 388.101 86.7201 387.905 86.5196C387.708 86.319 387.599 86.0497 387.599 85.7692C387.599 85.4886 387.708 85.2193 387.905 85.0187C388.101 84.8182 388.368 84.7025 388.648 84.6963H518.282C518.563 84.7025 518.83 84.8182 519.026 85.0187C519.222 85.2193 519.332 85.4886 519.332 85.7692C519.332 86.0497 519.222 86.319 519.026 86.5196C518.83 86.7201 518.563 86.8358 518.282 86.842Z" fill="#CACACA"/>
<path d="M395.565 81.5941C397.306 81.5941 398.718 80.1508 398.718 78.3705C398.718 76.5902 397.306 75.147 395.565 75.147C393.823 75.147 392.411 76.5902 392.411 78.3705C392.411 80.1508 393.823 81.5941 395.565 81.5941Z" fill="#3F3D56"/>
<path d="M406.458 81.5941C408.199 81.5941 409.611 80.1508 409.611 78.3705C409.611 76.5902 408.199 75.147 406.458 75.147C404.716 75.147 403.304 76.5902 403.304 78.3705C403.304 80.1508 404.716 81.5941 406.458 81.5941Z" fill="#3F3D56"/>
<path d="M417.351 81.5941C419.092 81.5941 420.504 80.1508 420.504 78.3705C420.504 76.5902 419.092 75.147 417.351 75.147C415.609 75.147 414.198 76.5902 414.198 78.3705C414.198 80.1508 415.609 81.5941 417.351 81.5941Z" fill="#3F3D56"/>
<path d="M513.215 76.3923H506.159C506.019 76.3951 505.886 76.4526 505.788 76.5525C505.69 76.6524 505.635 76.7867 505.635 76.9266C505.635 77.0665 505.69 77.2009 505.788 77.3008C505.886 77.4007 506.019 77.4582 506.159 77.4609H513.215C513.355 77.4582 513.489 77.4007 513.587 77.3008C513.684 77.2009 513.739 77.0665 513.739 76.9266C513.739 76.7867 513.684 76.6524 513.587 76.5525C513.489 76.4526 513.355 76.3951 513.215 76.3923Z" fill="#3F3D56"/>
<path d="M513.215 78.3979H506.159C506.019 78.4007 505.886 78.4582 505.788 78.5581C505.69 78.658 505.635 78.7923 505.635 78.9323C505.635 79.0722 505.69 79.2065 505.788 79.3064C505.886 79.4063 506.019 79.4638 506.159 79.4666H513.215C513.355 79.4638 513.489 79.4063 513.587 79.3064C513.684 79.2065 513.739 79.0722 513.739 78.9323C513.739 78.7923 513.684 78.658 513.587 78.5581C513.489 78.4582 513.355 78.4007 513.215 78.3979Z" fill="#3F3D56"/>
<path d="M513.215 80.4009H506.159C506.019 80.4036 505.886 80.4611 505.788 80.561C505.69 80.6609 505.635 80.7953 505.635 80.9352C505.635 81.0751 505.69 81.2094 505.788 81.3093C505.886 81.4092 506.019 81.4667 506.159 81.4695H513.215C513.355 81.4667 513.489 81.4092 513.587 81.3093C513.684 81.2094 513.739 81.0751 513.739 80.9352C513.739 80.7953 513.684 80.6609 513.587 80.561C513.489 80.4611 513.355 80.4036 513.215 80.4009Z" fill="#3F3D56"/>
<path d="M302.885 185.289H227.726C226.663 185.291 225.644 185.714 224.893 186.467C224.142 187.22 223.721 188.24 223.722 189.303V308.032H306.899V189.303C306.899 188.776 306.796 188.254 306.594 187.767C306.392 187.28 306.097 186.837 305.724 186.464C305.351 186.091 304.908 185.796 304.421 185.594C303.934 185.392 303.412 185.289 302.885 185.289ZM265.558 252.749C263.208 252.738 260.957 251.8 259.295 250.138C257.633 248.476 256.694 246.225 256.683 243.874V230.18C256.685 227.827 257.621 225.572 259.285 223.909C260.949 222.246 263.206 221.313 265.558 221.313C267.911 221.313 270.167 222.246 271.831 223.909C273.495 225.572 274.431 227.827 274.433 230.18V243.874C274.422 246.225 273.484 248.476 271.822 250.138C270.16 251.8 267.909 252.738 265.558 252.749Z" fill="#E6E6E6"/>
<path d="M223.464 304.234V315.689C223.465 316.283 223.701 316.852 224.121 317.271C224.541 317.691 225.11 317.927 225.703 317.929H304.918C305.511 317.926 306.078 317.689 306.498 317.27C306.917 316.85 307.154 316.282 307.157 315.689V304.234L223.464 304.234Z" fill="#CCCCCC"/>
<path d="M427.341 0H106.067C103.307 0.00439124 100.661 1.10284 98.7089 3.05462C96.7572 5.0064 95.6587 7.65233 95.6543 10.4126V227.209C95.6569 229.97 96.7548 232.617 98.707 234.569C100.659 236.521 103.306 237.619 106.067 237.622H427.341C430.101 237.619 432.748 236.521 434.701 234.569C436.653 232.617 437.751 229.97 437.753 227.209V10.4126C437.749 7.65233 436.65 5.0064 434.699 3.05462C432.747 1.10284 430.101 0.00438953 427.341 0Z" fill="#E6E6E6"/>
<path d="M424.659 7.52075H108.751C107.273 7.52396 105.857 8.11328 104.813 9.15941C103.769 10.2055 103.183 11.6231 103.182 13.101V224.524C103.185 226 103.772 227.415 104.816 228.459C105.86 229.503 107.275 230.09 108.751 230.093H424.659C426.135 230.09 427.55 229.503 428.594 228.459C429.637 227.415 430.225 226 430.227 224.524V13.101C430.227 11.6231 429.641 10.2055 428.597 9.15941C427.553 8.11328 426.137 7.52396 424.659 7.52075Z" fill="white"/>
<path d="M430.227 13.101V224.524C430.225 226 429.637 227.415 428.594 228.459C427.55 229.503 426.135 230.09 424.659 230.093H313.263C300.94 218.664 290.829 205.061 283.44 189.966C282.953 188.994 282.49 188.01 282.05 187.014C275.318 172.404 271.24 156.711 270.01 140.67C269.929 139.686 269.86 138.702 269.813 137.707C269.663 135.16 269.593 132.578 269.593 129.985C269.571 112.737 272.828 95.643 279.191 79.6121C279.573 78.6165 279.978 77.6324 280.395 76.6483C293.2 46.5624 316.338 22.0448 345.633 7.52075H424.659C426.137 7.52396 427.553 8.11328 428.597 9.15941C429.641 10.2055 430.227 11.6231 430.227 13.101Z" fill="#112B3C"/>
<path d="M408.778 36.6503H113.185C112.877 36.6437 112.585 36.517 112.37 36.2973C112.155 36.0776 112.034 35.7823 112.034 35.4748C112.034 35.1673 112.155 34.8721 112.37 34.6523C112.585 34.4326 112.877 34.3059 113.185 34.2993H408.778C409.086 34.3059 409.379 34.4326 409.594 34.6523C409.809 34.8721 409.929 35.1673 409.929 35.4748C409.929 35.7823 409.809 36.0776 409.594 36.2973C409.379 36.517 409.086 36.6437 408.778 36.6503Z" fill="#CACACA"/>
<path d="M133.306 28.2973C137.111 28.2973 140.195 25.1443 140.195 21.2549C140.195 17.3654 137.111 14.2124 133.306 14.2124C129.502 14.2124 126.417 17.3654 126.417 21.2549C126.417 25.1443 129.502 28.2973 133.306 28.2973Z" fill="#3F3D56"/>
<path d="M157.105 28.2973C160.909 28.2973 163.993 25.1443 163.993 21.2549C163.993 17.3654 160.909 14.2124 157.105 14.2124C153.3 14.2124 150.216 17.3654 150.216 21.2549C150.216 25.1443 153.3 28.2973 157.105 28.2973Z" fill="#3F3D56"/>
<path d="M180.903 28.2973C184.708 28.2973 187.792 25.1443 187.792 21.2549C187.792 17.3654 184.708 14.2124 180.903 14.2124C177.098 14.2124 174.014 17.3654 174.014 21.2549C174.014 25.1443 177.098 28.2973 180.903 28.2973Z" fill="#3F3D56"/>
<path d="M394.45 15.958H377.545C377.21 15.9646 376.891 16.1024 376.656 16.3417C376.421 16.5811 376.29 16.9029 376.29 17.238C376.29 17.5732 376.421 17.895 376.656 18.1343C376.891 18.3736 377.21 18.5114 377.545 18.518H394.45C394.785 18.5114 395.104 18.3736 395.339 18.1343C395.573 17.895 395.705 17.5732 395.705 17.238C395.705 16.9029 395.573 16.5811 395.339 16.3417C395.104 16.1024 394.785 15.9646 394.45 15.958Z" fill="#3F3D56"/>
<path d="M394.45 20.7629H377.545C377.21 20.7696 376.891 20.9073 376.656 21.1467C376.421 21.386 376.29 21.7078 376.29 22.0429C376.29 22.3781 376.421 22.6999 376.656 22.9392C376.891 23.1786 377.21 23.3163 377.545 23.323H394.45C394.785 23.3163 395.104 23.1786 395.339 22.9392C395.573 22.6999 395.705 22.3781 395.705 22.0429C395.705 21.7078 395.573 21.386 395.339 21.1467C395.104 20.9073 394.785 20.7696 394.45 20.7629Z" fill="#3F3D56"/>
<path d="M394.45 25.5613H377.545C377.21 25.5679 376.891 25.7057 376.656 25.945C376.421 26.1843 376.29 26.5061 376.29 26.8413C376.29 27.1764 376.421 27.4982 376.656 27.7376C376.891 27.9769 377.21 28.1147 377.545 28.1213H394.45C394.785 28.1147 395.104 27.9769 395.339 27.7376C395.573 27.4982 395.705 27.1764 395.705 26.8413C395.705 26.5061 395.573 26.1843 395.339 25.945C395.104 25.7057 394.785 25.5679 394.45 25.5613Z" fill="#3F3D56"/>
<path d="M203.692 105.324H162.356C160.797 105.324 159.533 106.588 159.533 108.147V112.547C159.533 114.107 160.797 115.371 162.356 115.371H203.692C205.251 115.371 206.515 114.107 206.515 112.547V108.147C206.515 106.588 205.251 105.324 203.692 105.324Z" fill="#112B3C"/>
<path d="M227.553 125.417H138.495C136.936 125.417 135.672 126.681 135.672 128.24V132.641C135.672 134.2 136.936 135.464 138.495 135.464H227.553C229.112 135.464 230.376 134.2 230.376 132.641V128.24C230.376 126.681 229.112 125.417 227.553 125.417Z" fill="#E6E6E6"/>
<path d="M227.553 145.51H138.495C136.936 145.51 135.672 146.774 135.672 148.334V152.734C135.672 154.293 136.936 155.557 138.495 155.557H227.553C229.112 155.557 230.376 154.293 230.376 152.734V148.334C230.376 146.774 229.112 145.51 227.553 145.51Z" fill="#E6E6E6"/>
<path d="M143.402 217.972C143.409 222.11 142.671 226.216 141.225 230.093H108.751C107.275 230.09 105.86 229.503 104.816 228.459C103.772 227.415 103.185 226 103.182 224.524V183.68C104.997 183.387 106.832 183.239 108.67 183.24C113.231 183.24 117.748 184.138 121.962 185.883C126.176 187.629 130.004 190.187 133.23 193.412C136.455 196.637 139.013 200.466 140.758 204.68C142.504 208.894 143.402 213.411 143.402 217.972Z" fill="#112B3C"/>
<path opacity="0.2" d="M430.517 79.6122V76.6484H380.839V42.2988H377.887V76.6484H320.95V42.2988H317.998V76.6484H280.395C279.978 77.6325 279.573 78.6166 279.191 79.6122H317.998V137.707H269.813C269.86 138.702 269.929 139.686 270.01 140.671H317.998V187.014H282.051C282.491 188.01 282.954 188.994 283.44 189.966H317.998V228.924H320.95V189.966H377.887V228.924H380.839V189.966H430.517V187.014H380.839V187.014C380.839 180.928 382.038 174.902 384.367 169.279C386.696 163.657 390.109 158.548 394.413 154.244C398.716 149.941 403.825 146.527 409.448 144.198C415.07 141.869 421.097 140.67 427.183 140.67H430.517V137.707H380.839V79.6122H430.517ZM377.887 187.014H320.95V140.67H377.887V187.014ZM377.887 137.707H320.95V136.549C320.95 121.448 326.949 106.966 337.626 96.2886C348.304 85.6109 362.786 79.6122 377.887 79.6122H377.887V137.707Z" fill="black"/>
<path d="M390.519 208.159C389.885 208.188 389.258 208.021 388.722 207.682C388.186 207.343 387.767 206.847 387.522 206.262C387.278 205.676 387.219 205.03 387.354 204.41C387.488 203.79 387.811 203.227 388.276 202.796C388.354 202.486 388.41 202.264 388.488 201.954C388.461 201.886 388.432 201.819 388.404 201.751C385.556 194.96 375.903 195.007 373.079 201.808C370.572 207.845 367.381 213.892 366.596 220.275C366.249 223.097 366.395 225.957 367.027 228.728C361.14 215.886 358.083 201.929 358.063 187.801C358.062 184.256 358.259 180.714 358.653 177.191C358.979 174.303 359.431 171.435 360.009 168.588C363.165 153.141 369.939 138.662 379.777 126.341C384.538 123.743 388.389 119.748 390.81 114.894C391.687 113.149 392.307 111.287 392.65 109.364C392.113 109.435 391.567 109.479 391.03 109.514C390.863 109.523 390.687 109.531 390.519 109.54L390.456 109.543C389.866 109.57 389.28 109.425 388.771 109.126C388.261 108.828 387.848 108.388 387.582 107.861C387.316 107.333 387.208 106.74 387.271 106.152C387.335 105.565 387.566 105.008 387.939 104.549C388.171 104.264 388.403 103.979 388.635 103.694C388.987 103.253 389.348 102.822 389.7 102.382C389.741 102.34 389.779 102.296 389.815 102.249C390.22 101.747 390.625 101.254 391.03 100.753C390.291 99.605 389.296 98.6437 388.124 97.9437C384.065 95.5663 378.465 97.2128 375.533 100.885C372.592 104.556 372.037 109.708 373.058 114.295C373.93 118.222 375.832 121.824 377.972 125.249C377.752 125.531 377.523 125.804 377.303 126.085C373.279 131.26 369.771 136.816 366.831 142.675C367.546 136.111 366.693 129.472 364.341 123.303C361.958 117.553 357.491 112.711 353.557 107.741C348.832 101.771 339.143 104.376 338.31 111.944C338.302 112.018 338.294 112.091 338.286 112.164C338.871 112.494 339.443 112.844 340.002 113.214C340.705 113.683 341.25 114.355 341.565 115.139C341.88 115.924 341.951 116.785 341.768 117.611C341.585 118.436 341.157 119.187 340.54 119.765C339.923 120.343 339.146 120.722 338.31 120.851L338.225 120.864C338.433 122.97 338.801 125.057 339.326 127.107C340.845 132.83 343.531 138.177 347.215 142.814C350.898 147.45 355.5 151.276 360.731 154.051C361.075 154.227 361.409 154.403 361.753 154.57C358.799 162.942 356.946 171.662 356.24 180.511C355.841 185.731 355.865 190.976 356.311 196.193L356.284 196.008C355.157 190.207 352.063 184.972 347.523 181.189C340.781 175.65 331.255 173.611 323.982 169.159C320.48 167.016 315.994 169.785 316.605 173.844C316.614 173.909 316.624 173.974 316.634 174.039C317.719 174.48 318.774 174.989 319.795 175.562C320.38 175.892 320.952 176.242 321.511 176.612C322.214 177.081 322.759 177.753 323.074 178.537C323.389 179.322 323.46 180.183 323.277 181.009C323.094 181.834 322.666 182.585 322.049 183.163C321.432 183.741 320.655 184.12 319.819 184.249L319.734 184.262C319.672 184.271 319.619 184.279 319.558 184.288C321.41 188.712 324.011 192.783 327.245 196.325C331.24 200.612 336.068 204.037 341.434 206.392C346.8 208.746 352.591 209.98 358.451 210.017H358.459C360.05 216.929 362.355 223.657 365.336 230.093H389.903C389.991 229.82 390.07 229.538 390.15 229.265C387.876 229.408 385.593 229.272 383.352 228.86C385.175 226.624 386.997 224.37 388.82 222.133C388.861 222.091 388.899 222.047 388.934 222.001C389.859 220.856 390.792 219.721 391.717 218.576L391.717 218.574C391.767 215.066 391.364 211.565 390.519 208.159L390.519 208.159ZM362.387 152.818L362.399 152.801L362.387 152.836V152.818ZM356.945 201.872L356.734 201.397C356.742 201.053 356.742 200.71 356.734 200.358C356.734 200.261 356.716 200.164 356.716 200.067C356.795 200.675 356.866 201.282 356.954 201.89L356.945 201.872Z" fill="#E61C5D"/>
<path d="M171.761 150.702V117.685C171.761 112.617 169.748 107.757 166.164 104.173C162.58 100.589 157.72 98.5759 152.652 98.5759H82.7004C77.6323 98.5759 72.7718 100.589 69.1881 104.173C65.6044 107.757 63.5911 112.617 63.5911 117.685V298.819C63.5911 303.887 65.6044 308.748 69.1881 312.332C72.7718 315.915 77.6323 317.929 82.7004 317.929H152.652C155.161 317.929 157.646 317.434 159.964 316.474C162.283 315.514 164.389 314.106 166.164 312.332C167.938 310.557 169.346 308.451 170.306 306.132C171.267 303.814 171.761 301.329 171.761 298.819V174.204C172.08 174.204 172.387 174.077 172.613 173.851C172.839 173.625 172.966 173.319 172.966 172.999V151.908C172.966 151.588 172.839 151.281 172.613 151.055C172.387 150.829 172.081 150.702 171.761 150.702Z" fill="#E6E6E6"/>
<path d="M167.694 117.816V298.689C167.695 302.446 166.213 306.051 163.57 308.722C160.928 311.392 157.338 312.912 153.581 312.951C153.529 312.957 153.477 312.959 153.425 312.958H83.1334C79.3491 312.958 75.7199 311.454 73.044 308.778C70.3681 306.102 68.8646 302.473 68.8643 298.689V117.816C68.8646 114.032 70.3681 110.403 73.044 107.727C75.7199 105.051 79.3491 103.547 83.1334 103.547H91.6636C91.2443 104.577 91.0845 105.694 91.1982 106.8C91.312 107.906 91.6959 108.967 92.3161 109.89C92.9362 110.813 93.7738 111.569 94.7549 112.093C95.736 112.616 96.8307 112.89 97.9426 112.891H138.017C139.128 112.888 140.221 112.612 141.201 112.088C142.181 111.564 143.017 110.808 143.636 109.885C144.255 108.963 144.638 107.903 144.752 106.798C144.866 105.693 144.707 104.576 144.29 103.547H153.425C157.209 103.547 160.839 105.051 163.514 107.727C166.19 110.403 167.694 114.032 167.694 117.816Z" fill="white"/>
<path d="M153.757 307.375C153.757 309.249 153.698 311.108 153.581 312.952C153.529 312.957 153.477 312.959 153.425 312.958H83.1334C79.3491 312.958 75.7199 311.454 73.044 308.778C70.3681 306.102 68.8646 302.473 68.8643 298.689V218.084C91.7664 219.239 113.349 229.151 129.149 245.77C144.95 262.389 153.759 284.444 153.757 307.375Z" fill="#F2F2F2"/>
<path d="M63.9777 169.173C63.5465 169.173 63.133 169.001 62.8281 168.696C62.5231 168.391 62.3516 167.978 62.3511 167.547V156.485C62.3511 156.054 62.5225 155.64 62.8275 155.335C63.1326 155.03 63.5463 154.859 63.9777 154.859C64.4092 154.859 64.8229 155.03 65.128 155.335C65.433 155.64 65.6044 156.054 65.6044 156.485V167.547C65.6039 167.978 65.4324 168.391 65.1274 168.696C64.8225 169.001 64.409 169.173 63.9777 169.173Z" fill="#E6E6E6"/>
<path d="M126.91 160.341H109.648C108.089 160.341 106.825 161.605 106.825 163.164V167.565C106.825 169.124 108.089 170.388 109.648 170.388H126.91C128.469 170.388 129.733 169.124 129.733 167.565V163.164C129.733 161.605 128.469 160.341 126.91 160.341Z" fill="#112B3C"/>
<path d="M150.771 180.435H85.7876C84.2284 180.435 82.9644 181.699 82.9644 183.258V187.658C82.9644 189.217 84.2284 190.481 85.7876 190.481H150.771C152.33 190.481 153.594 189.217 153.594 187.658V183.258C153.594 181.699 152.33 180.435 150.771 180.435Z" fill="#E6E6E6"/>
<path d="M150.771 200.528H85.7876C84.2284 200.528 82.9644 201.792 82.9644 203.351V207.751C82.9644 209.311 84.2284 210.574 85.7876 210.574H150.771C152.33 210.574 153.594 209.311 153.594 207.751V203.351C153.594 201.792 152.33 200.528 150.771 200.528Z" fill="#E6E6E6"/>
<path d="M135.135 302.665C134.837 302.678 134.543 302.6 134.292 302.441C134.04 302.282 133.844 302.049 133.729 301.775C133.614 301.5 133.586 301.197 133.65 300.906C133.713 300.615 133.864 300.35 134.083 300.148L134.182 299.753C134.169 299.721 134.156 299.69 134.143 299.658C133.843 298.95 133.341 298.347 132.7 297.924C132.058 297.501 131.306 297.276 130.538 297.279C129.77 297.282 129.019 297.512 128.381 297.94C127.743 298.368 127.245 298.975 126.951 299.685C125.775 302.518 124.277 305.355 123.909 308.351C123.746 309.675 123.815 311.017 124.111 312.317C121.348 306.291 119.914 299.741 119.905 293.112C119.904 291.448 119.996 289.786 120.181 288.133C120.334 286.777 120.546 285.432 120.818 284.096C122.298 276.847 125.478 270.052 130.094 264.27C132.329 263.051 134.135 261.176 135.272 258.899C135.683 258.08 135.974 257.206 136.135 256.304C135.883 256.337 135.627 256.357 135.375 256.374C135.296 256.378 135.214 256.382 135.135 256.386L135.106 256.388C134.829 256.4 134.554 256.332 134.315 256.192C134.075 256.052 133.882 255.846 133.757 255.598C133.632 255.351 133.581 255.072 133.611 254.796C133.641 254.521 133.75 254.26 133.924 254.044C134.033 253.91 134.142 253.776 134.251 253.643C134.416 253.436 134.586 253.234 134.751 253.027C134.77 253.007 134.788 252.987 134.805 252.965C134.995 252.729 135.185 252.498 135.375 252.263C135.028 251.724 134.561 251.273 134.011 250.945C132.106 249.829 129.478 250.602 128.102 252.325C126.722 254.048 126.462 256.465 126.941 258.618C127.413 260.449 128.192 262.188 129.247 263.758C129.144 263.89 129.036 264.018 128.933 264.15C127.045 266.579 125.399 269.186 124.019 271.935C124.355 268.855 123.954 265.74 122.851 262.845C121.732 260.147 119.636 257.874 117.79 255.542C117.302 254.915 116.639 254.448 115.885 254.198C115.131 253.948 114.32 253.927 113.554 254.139C112.788 254.35 112.102 254.783 111.583 255.384C111.063 255.985 110.733 256.726 110.635 257.515C110.631 257.549 110.628 257.583 110.624 257.618C110.898 257.772 111.167 257.937 111.429 258.11C111.759 258.331 112.015 258.646 112.163 259.014C112.311 259.382 112.344 259.786 112.258 260.174C112.172 260.561 111.971 260.913 111.682 261.185C111.392 261.456 111.027 261.634 110.635 261.694L110.595 261.7C110.693 262.688 110.866 263.668 111.112 264.63C111.825 267.315 113.085 269.825 114.814 272.001C116.542 274.176 118.702 275.972 121.157 277.274C121.318 277.356 121.475 277.439 121.636 277.518C120.25 281.446 119.38 285.538 119.049 289.69C118.862 292.14 118.873 294.601 119.082 297.05L119.07 296.963C118.541 294.241 117.089 291.784 114.959 290.009C111.795 287.41 107.325 286.452 103.911 284.363C103.549 284.13 103.127 284.006 102.696 284.005C102.265 284.004 101.842 284.126 101.478 284.357C101.114 284.589 100.824 284.919 100.642 285.31C100.46 285.7 100.393 286.135 100.45 286.562L100.463 286.653C100.972 286.861 101.468 287.099 101.947 287.368C102.221 287.523 102.489 287.687 102.752 287.861C103.082 288.081 103.338 288.396 103.485 288.764C103.633 289.133 103.667 289.537 103.581 289.924C103.495 290.312 103.294 290.664 103.004 290.935C102.715 291.207 102.35 291.384 101.958 291.445L101.918 291.451C101.889 291.455 101.864 291.459 101.835 291.463C102.705 293.539 103.925 295.45 105.442 297.112C107.317 299.123 109.583 300.731 112.101 301.836C114.619 302.941 117.337 303.519 120.086 303.537H120.091C120.837 306.78 121.918 309.938 123.318 312.958H134.846C134.887 312.83 134.924 312.698 134.962 312.569C133.895 312.636 132.823 312.573 131.772 312.379C132.627 311.33 133.482 310.272 134.338 309.222C134.357 309.203 134.375 309.182 134.391 309.161C134.825 308.623 135.263 308.09 135.697 307.553L135.697 307.553C135.72 305.906 135.532 304.263 135.135 302.665L135.135 302.665ZM121.933 276.695L121.939 276.687L121.933 276.704V276.695ZM119.38 299.715L119.281 299.492C119.285 299.33 119.285 299.169 119.281 299.004C119.281 298.959 119.272 298.913 119.272 298.868C119.31 299.153 119.343 299.438 119.384 299.723L119.38 299.715Z" fill="#CCCCCC"/>
<path d="M63.6523 147.701C63.221 147.701 62.8076 147.529 62.5026 147.224C62.1977 146.919 62.0261 146.506 62.0256 146.074V135.013C62.0256 134.582 62.197 134.168 62.5021 133.863C62.8071 133.558 63.2209 133.386 63.6523 133.386C64.0837 133.386 64.4975 133.558 64.8025 133.863C65.1076 134.168 65.279 134.582 65.279 135.013V146.074C65.2785 146.506 65.1069 146.919 64.802 147.224C64.497 147.529 64.0836 147.701 63.6523 147.701Z" fill="#E6E6E6"/>
<path d="M106.922 105.408C106.922 104.977 107.094 104.563 107.399 104.258C107.704 103.953 108.117 103.782 108.548 103.781H119.61C120.041 103.781 120.455 103.953 120.76 104.258C121.065 104.563 121.236 104.976 121.236 105.408C121.236 105.839 121.065 106.253 120.76 106.558C120.455 106.863 120.041 107.035 119.61 107.035H108.548C108.117 107.034 107.704 106.863 107.399 106.558C107.094 106.253 106.922 105.839 106.922 105.408Z" fill="white"/>
<path d="M63.9777 188.043C63.5465 188.042 63.133 187.871 62.8281 187.566C62.5231 187.261 62.3516 186.847 62.3511 186.416V175.355C62.3511 174.923 62.5225 174.51 62.8275 174.204C63.1326 173.899 63.5463 173.728 63.9777 173.728C64.4092 173.728 64.8229 173.899 65.128 174.204C65.433 174.51 65.6044 174.923 65.6044 175.355V186.416C65.6039 186.847 65.4324 187.261 65.1274 187.566C64.8225 187.871 64.409 188.042 63.9777 188.043Z" fill="#E6E6E6"/>
<path d="M125.791 107.035C126.689 107.035 127.418 106.306 127.418 105.408C127.418 104.51 126.689 103.781 125.791 103.781C124.893 103.781 124.164 104.51 124.164 105.408C124.164 106.306 124.893 107.035 125.791 107.035Z" fill="white"/>
<path d="M558.885 317.924L0.774696 318.124C0.569611 318.124 0.373134 318.042 0.228326 317.897C0.0835192 317.751 0.00219727 317.555 0.00219727 317.349C0.00219727 317.144 0.0835192 316.948 0.228326 316.802C0.373134 316.657 0.569611 316.575 0.774696 316.575L558.885 316.375C559.09 316.375 559.287 316.456 559.432 316.602C559.578 316.747 559.659 316.944 559.659 317.149C559.659 317.355 559.578 317.552 559.432 317.697C559.287 317.843 559.09 317.924 558.885 317.924Z" fill="#CACACA"/>
<path d="M238.647 147.12L235.712 147.749C235.693 146.521 235.539 145.299 235.255 144.104C234.988 145.567 234.426 146.961 233.602 148.199L216.766 151.795L200.601 134.736C200.576 126.206 205.313 119.724 213.805 119.724C214.317 119.724 214.848 119.749 215.384 119.798C219.972 119.031 224.68 120.073 228.515 122.706C232.35 125.339 235.014 129.358 235.946 133.916C241.965 139.842 239.782 143.327 238.647 147.12Z" fill="#2F2E41"/>
<path d="M246.925 346.618H253.032L255.938 323.06L246.924 323.061L246.925 346.618Z" fill="#FFB6B6"/>
<path d="M245.41 343.605L255.065 343.029V347.165L264.244 353.504C264.697 353.817 265.038 354.267 265.218 354.788C265.398 355.309 265.406 355.873 265.242 356.399C265.078 356.925 264.75 357.385 264.307 357.711C263.863 358.038 263.326 358.214 262.775 358.214H251.281L249.3 354.122L248.527 358.214H244.193L245.41 343.605Z" fill="#2F2E41"/>
<path d="M175.375 339.97L180.687 342.984L194.839 323.929L186.999 319.481L175.375 339.97Z" fill="#FFB6B6"/>
<path d="M175.544 336.602L184.226 340.865L182.184 344.463L187.039 354.506C187.279 355.002 187.354 355.562 187.253 356.103C187.153 356.645 186.881 357.14 186.479 357.517C186.077 357.893 185.565 358.131 185.018 358.196C184.471 358.261 183.917 358.15 183.438 357.878L173.441 352.206L173.737 347.669L171.045 350.846L167.276 348.708L175.544 336.602Z" fill="#2F2E41"/>
<path d="M269.5 151.247C268.717 151.36 267.969 151.644 267.308 152.077C266.647 152.511 266.088 153.084 265.673 153.757C265.257 154.43 264.994 155.185 264.902 155.971C264.81 156.756 264.891 157.552 265.14 158.303L255.795 166.391L259.325 173.27L272.363 161.661C273.596 161.159 274.602 160.223 275.191 159.029C275.779 157.835 275.91 156.466 275.557 155.183C275.204 153.899 274.392 152.789 273.276 152.064C272.16 151.338 270.816 151.048 269.5 151.247H269.5Z" fill="#FFB6B6"/>
<path d="M260.089 179.063C256.971 183.785 249.984 188.345 239.615 192.387C239.043 192.616 238.43 192.724 237.814 192.704C237.198 192.684 236.593 192.536 236.038 192.27C232.125 190.489 229.617 183.869 229.381 183.227L221.802 173.003C221.668 172.854 218.124 168.832 218.529 164.877C218.62 164.049 218.89 163.25 219.319 162.535C219.749 161.821 220.328 161.208 221.016 160.738C226.754 156.485 239.612 171.256 241.28 173.22L249.672 168.107L255.786 165.379L260.722 159.373L267.672 166.478L261.421 176.423C261.088 177.354 260.64 178.241 260.089 179.063Z" fill="#2F2E41"/>
<path d="M238.293 197.178C238.293 197.178 256.25 225.781 252.997 229.035C249.743 232.288 244.681 233.142 244.681 233.142L233.477 218.624L238.293 197.178Z" fill="#2F2E41"/>
<path d="M222.415 158.112L230.878 163.837C234.812 166.498 237.771 170.37 239.306 174.864C240.841 179.359 240.868 184.231 239.384 188.742L237.001 195.985L222.415 158.112Z" fill="#2F2E41"/>
<path d="M207.45 236.192L206.318 240.133L202.457 287.659L183.167 323.608L192.374 330.184L218.678 295.988L229.082 262.034L245.421 337.199L257.697 336.322L249.171 232.107L232.994 202.773L207.45 236.192Z" fill="#2F2E41"/>
<path d="M220.976 159.552L232.755 169.178C235.34 171.291 237.202 174.158 238.08 177.379C238.479 178.842 238.669 180.353 238.643 181.869L238.292 202.773L249.093 231.637C249.093 231.637 219.812 242.699 215.908 232.939C212.004 223.179 220.976 159.552 220.976 159.552Z" fill="#112B3C"/>
<path d="M224.499 238.005C209.872 238.005 206.307 238.115 206.076 238.069L205.845 238.022V229.224L209.402 213.419C208.986 208.512 208.012 202.042 208.1 196.502C208.419 176.477 207.435 156.917 207.435 156.917L215.177 149.771L218.694 152.059L225.217 158.583C232.801 177.245 238.818 194.814 238.856 195.943L239.332 215.371L237.38 223.179C228.55 229.412 236.618 238.005 224.499 238.005Z" fill="#2F2E41"/>
<path opacity="0.2" d="M210.716 174.361L208.938 185.46L220.976 190.426L210.716 174.361Z" fill="black"/>
<path d="M222.843 147.689C229.352 147.689 234.629 142.412 234.629 135.903C234.629 129.393 229.352 124.117 222.843 124.117C216.334 124.117 211.057 129.393 211.057 135.903C211.057 142.412 216.334 147.689 222.843 147.689Z" fill="#FFB6B6"/>
<path opacity="0.2" d="M203.094 195.703C206.231 199.335 210.486 201.822 215.19 202.773C219.894 203.724 224.781 203.085 229.082 200.956L231.647 199.687L203.094 195.703Z" fill="black"/>
<path d="M244.107 192.99C243.581 192.4 242.932 191.931 242.206 191.619C241.48 191.306 240.694 191.156 239.903 191.18C239.113 191.204 238.337 191.401 237.631 191.757C236.925 192.113 236.306 192.619 235.817 193.241L223.917 189.9L220.123 196.636L236.994 201.118C238.092 201.871 239.429 202.194 240.749 202.027C242.07 201.861 243.284 201.215 244.161 200.213C245.037 199.212 245.516 197.923 245.506 196.592C245.496 195.26 244.998 193.979 244.107 192.99H244.107Z" fill="#FFB6B6"/>
<path d="M215.709 200.466C210.052 200.467 202.396 197.149 193.309 190.724C192.802 190.373 192.374 189.921 192.052 189.396C191.729 188.871 191.519 188.285 191.435 187.675C190.764 183.428 194.907 177.687 195.313 177.136L199.668 165.178C199.718 164.984 201.121 159.81 204.644 157.969C205.386 157.589 206.201 157.373 207.034 157.338C207.867 157.302 208.698 157.447 209.469 157.763C216.18 160.207 210.94 179.076 210.22 181.551L219.111 185.736L224.757 189.335L232.489 190.144L230.39 199.859L218.647 200.123C217.686 200.358 216.699 200.473 215.709 200.466Z" fill="#2F2E41"/>
<path d="M236.976 128.149C236.033 129.376 232.782 130.462 228.922 131.338C228.928 131.258 228.928 131.177 228.928 131.097C228.908 129.869 228.755 128.647 228.471 127.452C228.204 128.915 227.642 130.309 226.818 131.547C226.757 131.64 226.695 131.732 226.627 131.825C223.315 132.479 219.812 132.984 217.068 133.324C218.955 140.12 226.189 145.695 225.406 149.827L204.209 154.157C204.339 152.44 204.202 150.713 203.802 149.038C203.396 151.249 202.325 153.282 200.73 154.866L198.93 155.236L198.393 152.59C193.743 141.421 200.225 129.987 210.845 124.073C212.738 121.234 215.679 119.261 219.023 118.584L221.669 118.041C223.338 117.699 225.057 117.69 226.73 118.013C228.402 118.336 229.995 118.986 231.416 119.925C232.837 120.863 234.06 122.073 235.014 123.484C235.968 124.895 236.635 126.48 236.976 128.149Z" fill="#2F2E41"/>
<path d="M287.613 341.819L287.926 334.771C291.194 333.025 294.838 332.102 298.543 332.084C293.444 336.253 294.081 344.289 290.624 349.896C289.532 351.636 288.063 353.108 286.325 354.204C284.587 355.299 282.625 355.989 280.584 356.223L276.316 358.835C275.731 355.571 275.86 352.219 276.695 349.009C277.53 345.8 279.05 342.809 281.152 340.244C282.346 338.816 283.714 337.545 285.225 336.459C286.247 339.154 287.613 341.819 287.613 341.819Z" fill="#F2F2F2"/>
<path d="M297.958 359H149.357C149.152 359 148.956 358.918 148.811 358.772C148.666 358.627 148.585 358.431 148.585 358.225C148.585 358.02 148.666 357.824 148.811 357.678C148.956 357.533 149.152 357.451 149.357 357.451H297.958C298.06 357.45 298.161 357.47 298.255 357.509C298.349 357.548 298.435 357.605 298.507 357.677C298.579 357.749 298.637 357.834 298.676 357.928C298.715 358.023 298.735 358.123 298.735 358.225C298.735 358.327 298.715 358.428 298.676 358.522C298.637 358.617 298.579 358.702 298.507 358.774C298.435 358.846 298.349 358.903 298.255 358.942C298.161 358.981 298.06 359 297.958 359Z" fill="#CACACA"/>
</g>
<defs>
<clipPath id="clip0_209_570">
<rect width="559.659" height="359" fill="white"/>
</clipPath>
</defs>
</svg>
