<svg width="146" height="145" viewBox="0 0 146 145" fill="none" xmlns="http://www.w3.org/2000/svg">
<g clip-path="url(#clip0_111_697)">
<path d="M96.3255 38.3953H72.4679C71.9456 38.3969 71.4298 38.2793 70.9598 38.0515C70.4898 37.8237 70.0779 37.4917 69.7556 37.0808C69.4273 36.666 69.198 36.1817 69.0852 35.6649C68.9723 35.1481 68.9789 34.6124 69.1044 34.0985C71.3032 24.8886 71.3031 15.2904 69.1042 6.08053C68.9789 5.56667 68.9724 5.03098 69.0852 4.51422C69.1981 3.99747 69.4273 3.51326 69.7555 3.09845C70.0778 2.68749 70.4897 2.35548 70.9598 2.1277C71.4298 1.89991 71.9456 1.78234 72.4679 1.78395H96.3255C97.1492 1.78632 97.9454 2.081 98.5721 2.6155C99.1989 3.15 99.6155 3.88963 99.7479 4.70264C101.318 14.9005 101.318 25.2787 99.7479 35.4766C99.6155 36.2896 99.1989 37.0292 98.5721 37.5637C97.9454 38.0982 97.1492 38.3929 96.3255 38.3953Z" fill="#E6E6E6"/>
<path d="M72.4678 3.57911C72.217 3.57827 71.9693 3.63465 71.7435 3.74396C71.5177 3.85327 71.3199 4.01263 71.165 4.20992C71.0055 4.41206 70.8942 4.64791 70.8396 4.89954C70.7849 5.15117 70.7884 5.41195 70.8497 5.66203C73.1144 15.1471 73.1144 25.0321 70.8499 34.5173C70.7885 34.7673 70.785 35.028 70.8396 35.2796C70.8942 35.5312 71.0054 35.767 71.1649 35.9691L71.1651 35.9692C71.3199 36.1665 71.5178 36.326 71.7435 36.4353C71.9693 36.5446 72.217 36.601 72.4678 36.6002H96.3254C96.721 36.6003 97.1038 36.46 97.4056 36.2043C97.7075 35.9486 97.9087 35.5941 97.9736 35.2039C99.5159 25.1867 99.5159 14.9925 97.9736 4.97541C97.9087 4.58519 97.7075 4.23066 97.4056 3.97495C97.1038 3.71925 96.721 3.57897 96.3254 3.57911L72.4678 3.57911Z" fill="white"/>
<path d="M91.1192 12.2108H78.5997C78.1238 12.2103 77.6675 12.021 77.331 11.6845C76.9945 11.3479 76.8052 10.8916 76.8047 10.4157V9.71425C76.8052 9.23833 76.9945 8.78205 77.331 8.44552C77.6675 8.109 78.1238 7.91971 78.5997 7.91919H91.1192C91.5952 7.91971 92.0514 8.109 92.388 8.44552C92.7245 8.78205 92.9138 9.23833 92.9143 9.71425V10.4157C92.9138 10.8917 92.7245 11.3479 92.388 11.6845C92.0514 12.021 91.5952 12.2103 91.1192 12.2108Z" fill="#E6E6E6"/>
<path d="M91.1192 21.0745H78.5997C78.1238 21.074 77.6675 20.8847 77.331 20.5482C76.9945 20.2117 76.8052 19.7554 76.8047 19.2795V18.578C76.8052 18.1021 76.9945 17.6458 77.331 17.3093C77.6675 16.9728 78.1238 16.7835 78.5997 16.783H91.1192C91.5952 16.7835 92.0514 16.9728 92.388 17.3093C92.7245 17.6458 92.9138 18.1021 92.9143 18.578V19.2795C92.9138 19.7554 92.7245 20.2117 92.388 20.5482C92.0514 20.8847 91.5952 21.074 91.1192 21.0745Z" fill="#E6E6E6"/>
<path d="M91.1192 29.9382H78.5997C78.1238 29.9377 77.6675 29.7484 77.331 29.4119C76.9945 29.0753 76.8052 28.6191 76.8047 28.1431V27.4417C76.8052 26.9657 76.9945 26.5095 77.331 26.1729C77.6675 25.8364 78.1238 25.6471 78.5997 25.6466H91.1192C91.5952 25.6471 92.0514 25.8364 92.388 26.1729C92.7245 26.5095 92.9138 26.9657 92.9143 27.4417V28.1431C92.9138 28.6191 92.7245 29.0753 92.388 29.4119C92.0514 29.7484 91.5952 29.9377 91.1192 29.9382Z" fill="#E6E6E6"/>
<path d="M141.203 61.1335H117.346C116.824 61.1351 116.308 61.0176 115.838 60.7898C115.368 60.562 114.956 60.23 114.633 59.8191C114.305 59.4042 114.076 58.92 113.963 58.4032C113.85 57.8864 113.857 57.3507 113.982 56.8368C116.181 47.6269 116.181 38.0287 113.982 28.8188C113.857 28.305 113.85 27.7693 113.963 27.2525C114.076 26.7358 114.305 26.2515 114.633 25.8367C114.956 25.4258 115.368 25.0938 115.838 24.866C116.308 24.6382 116.824 24.5206 117.346 24.5222H141.203C142.027 24.5246 142.823 24.8193 143.45 25.3538C144.077 25.8883 144.493 26.6279 144.626 27.4409C146.196 37.6388 146.196 48.017 144.626 58.2149C144.493 59.0279 144.077 59.7675 143.45 60.302C142.823 60.8365 142.027 61.1312 141.203 61.1335Z" fill="#E6E6E6"/>
<path d="M117.346 26.3173C117.095 26.3164 116.847 26.3728 116.622 26.4821C116.396 26.5914 116.198 26.7508 116.043 26.9481C115.884 27.1502 115.772 27.3861 115.718 27.6377C115.663 27.8893 115.667 28.1501 115.728 28.4002C117.993 37.8853 117.993 47.7703 115.728 57.2554C115.667 57.5054 115.663 57.7662 115.718 58.0177C115.772 58.2693 115.884 58.5051 116.043 58.7072L116.043 58.7074C116.198 58.9047 116.396 59.0641 116.622 59.1734C116.847 59.2828 117.095 59.3392 117.346 59.3383H141.204C141.599 59.3385 141.982 59.1982 142.284 58.9425C142.586 58.6868 142.787 58.3322 142.852 57.942C144.394 47.9249 144.394 37.7307 142.852 27.7136C142.787 27.3234 142.586 26.9688 142.284 26.7131C141.982 26.4574 141.599 26.3171 141.204 26.3173L117.346 26.3173Z" fill="white"/>
<path d="M93.6326 87.0132H69.775C69.2301 87.0148 68.692 86.8921 68.2016 86.6545C67.7112 86.4168 67.2815 86.0704 66.9452 85.6417C66.6029 85.2092 66.3638 84.7042 66.2462 84.1653C66.1285 83.6264 66.1353 83.0678 66.2661 82.5319C68.4594 73.345 68.4593 63.7707 66.2659 54.5838C66.1352 54.0479 66.1284 53.4893 66.2461 52.9505C66.3638 52.4116 66.6029 51.9067 66.9451 51.4742C67.2815 51.0454 67.7112 50.699 68.2016 50.4614C68.6919 50.2237 69.2301 50.101 69.775 50.1027H93.6326C94.492 50.1052 95.3226 50.4128 95.9764 50.9705C96.6302 51.5282 97.0649 52.2999 97.2029 53.1482C98.7754 63.3612 98.7754 73.7547 97.2029 83.9677C97.0649 84.8159 96.6302 85.5876 95.9764 86.1453C95.3226 86.7031 94.492 87.0106 93.6326 87.0132Z" fill="#F2F2F2"/>
<path d="M135.997 39.4369H123.478C123.002 39.4363 122.546 39.2471 122.209 38.9105C121.873 38.574 121.683 38.1177 121.683 37.6418V36.9403C121.683 36.4644 121.873 36.0081 122.209 35.6716C122.546 35.3351 123.002 35.1458 123.478 35.1453H135.997C136.473 35.1458 136.93 35.3351 137.266 35.6716C137.603 36.0081 137.792 36.4644 137.792 36.9403V37.6418C137.792 38.1177 137.603 38.574 137.266 38.9105C136.93 39.247 136.473 39.4363 135.997 39.4369Z" fill="#E6E6E6"/>
<path d="M135.997 48.3005H123.478C123.002 48.3 122.546 48.1107 122.209 47.7742C121.873 47.4376 121.683 46.9814 121.683 46.5054V45.804C121.683 45.328 121.873 44.8718 122.209 44.5352C122.546 44.1987 123.002 44.0094 123.478 44.0089H135.997C136.473 44.0094 136.93 44.1987 137.266 44.5352C137.603 44.8718 137.792 45.328 137.792 45.804V46.5054C137.792 46.9814 137.603 47.4376 137.266 47.7742C136.93 48.1107 136.473 48.3 135.997 48.3005Z" fill="#E6E6E6"/>
<path d="M81.7707 75.3158C85.5712 75.3158 88.652 72.235 88.652 68.4345C88.652 64.6341 85.5712 61.5532 81.7707 61.5532C77.9703 61.5532 74.8894 64.6341 74.8894 68.4345C74.8894 72.235 77.9703 75.3158 81.7707 75.3158Z" fill="white"/>
<path d="M85.0617 67.5369H82.6682V65.1434C82.6682 64.9054 82.5737 64.6771 82.4053 64.5087C82.237 64.3404 82.0087 64.2458 81.7707 64.2458C81.5326 64.2458 81.3043 64.3404 81.136 64.5087C80.9677 64.6771 80.8731 64.9054 80.8731 65.1434V67.5369H78.4796C78.2415 67.5369 78.0132 67.6315 77.8449 67.7998C77.6766 67.9681 77.582 68.1964 77.582 68.4345C77.582 68.6725 77.6766 68.9008 77.8449 69.0691C78.0132 69.2375 78.2415 69.332 78.4796 69.332H80.8731V71.7255C80.8731 71.9636 80.9677 72.1919 81.136 72.3602C81.3043 72.5285 81.5326 72.6231 81.7707 72.6231C82.0087 72.6231 82.237 72.5285 82.4053 72.3602C82.5737 72.1919 82.6682 71.9636 82.6682 71.7255V69.332H85.0617C85.2998 69.332 85.5281 69.2375 85.6964 69.0691C85.8647 68.9008 85.9593 68.6725 85.9593 68.4345C85.9593 68.1964 85.8647 67.9681 85.6964 67.7998C85.5281 67.6315 85.2998 67.5369 85.0617 67.5369Z" fill="#E6E6E6"/>
<path d="M90.4471 5.15638H77.8813C77.5243 5.15597 77.1821 5.014 76.9297 4.7616C76.6773 4.5092 76.5353 4.16698 76.5349 3.81003V1.41653C76.5353 1.05958 76.6773 0.717371 76.9297 0.464969C77.1821 0.212568 77.5243 0.0705927 77.8813 0.0701904H90.4471C90.8041 0.0705927 91.1463 0.212568 91.3987 0.464969C91.6511 0.717371 91.7931 1.05958 91.7935 1.41653V3.81003C91.7931 4.16698 91.6511 4.5092 91.3987 4.7616C91.1463 5.014 90.8041 5.15597 90.4471 5.15638Z" fill="#CCCCCC"/>
<path d="M135.924 28.1939H123.358C123.001 28.1934 122.659 28.0515 122.406 27.7991C122.154 27.5467 122.012 27.2045 122.011 26.8475V24.454C122.012 24.0971 122.154 23.7549 122.406 23.5024C122.659 23.25 123.001 23.1081 123.358 23.1077H135.924C136.281 23.1081 136.623 23.25 136.875 23.5024C137.128 23.7549 137.27 24.0971 137.27 24.454V26.8475C137.27 27.2045 137.128 27.5467 136.875 27.7991C136.623 28.0515 136.281 28.1934 135.924 28.1939Z" fill="#CCCCCC"/>
<path d="M26.9549 141.006H30.623L31.7698 126.858H26.9543L26.9549 141.006Z" fill="#FFB8B8"/>
<path d="M26.0195 139.808L33.2431 139.808H33.2434C33.8479 139.808 34.4465 139.927 35.005 140.158C35.5635 140.39 36.071 140.729 36.4985 141.156C36.926 141.584 37.265 142.091 37.4964 142.65C37.7277 143.208 37.8468 143.807 37.8468 144.411V144.561L26.0198 144.561L26.0195 139.808Z" fill="#2F2E41"/>
<path d="M7.20861 141.006H10.8766L12.6218 126.858H7.20801L7.20861 141.006Z" fill="#FFB8B8"/>
<path d="M6.27319 139.808L13.4967 139.808H13.497C14.1015 139.808 14.7002 139.927 15.2587 140.158C15.8172 140.39 16.3247 140.729 16.7521 141.156C17.1796 141.584 17.5187 142.091 17.75 142.65C17.9814 143.208 18.1005 143.807 18.1005 144.411V144.561L6.27342 144.561L6.27319 139.808Z" fill="#2F2E41"/>
<path d="M7.85943 136.536C7.48526 136.536 7.12481 136.395 6.84967 136.142C6.70198 136.007 6.58302 135.844 6.49995 135.662C6.41689 135.48 6.37142 135.283 6.36627 135.084L4.89526 82.3628L25.7819 87.5843L32.2262 106.917C33.0573 109.404 33.417 112.024 33.287 114.643L32.4868 133.383C32.4685 133.767 32.3031 134.129 32.0248 134.395C31.7466 134.66 31.3769 134.808 30.9925 134.807H27.4894C27.1278 134.806 26.7788 134.674 26.5065 134.436C26.2343 134.198 26.0569 133.87 26.0069 133.512L23.5031 112.826C23.2843 111.212 22.7197 109.664 21.848 108.289L16.9206 100.487C16.8876 100.435 16.8394 100.394 16.7824 100.371C16.7255 100.347 16.6627 100.341 16.6025 100.355C16.5423 100.368 16.4878 100.4 16.4463 100.446C16.4048 100.491 16.3784 100.549 16.3708 100.61L12.5039 135.043C12.4624 135.392 12.299 135.715 12.0425 135.956C11.786 136.197 11.4528 136.339 11.1016 136.358L7.94459 136.534C7.91618 136.535 7.88784 136.536 7.85943 136.536Z" fill="#2F2E41"/>
<path d="M22.3061 48.2295C26.3645 48.2295 29.6545 44.9396 29.6545 40.8812C29.6545 36.8228 26.3645 33.5328 22.3061 33.5328C18.2477 33.5328 14.9578 36.8228 14.9578 40.8812C14.9578 44.9396 18.2477 48.2295 22.3061 48.2295Z" fill="#FFB8B8"/>
<path d="M25.6818 89.7284C25.5554 89.7282 25.4294 89.7122 25.307 89.6808H25.3067L4.58373 84.3673C4.21323 84.2724 3.89315 84.0392 3.68932 83.7155C3.48549 83.3919 3.41339 83.0025 3.48785 82.6274L8.24706 56.9897C8.54358 55.5078 9.19533 54.1199 10.1464 52.9453C11.0974 51.7707 12.3193 50.8445 13.7072 50.2462C15.0595 49.6477 16.5383 49.3912 18.0131 49.4995C19.488 49.6078 20.9135 50.0775 22.1639 50.8671C22.454 51.0481 22.7463 51.2454 23.0323 51.4537C24.1838 52.3032 25.1229 53.4079 25.7759 54.6812C26.4288 55.9545 26.7779 57.3618 26.7957 58.7926L27.1742 88.2113C27.1767 88.4091 27.14 88.6055 27.0662 88.7891C26.9925 88.9727 26.883 89.1399 26.7443 89.2809C26.6055 89.422 26.4402 89.5342 26.2578 89.611C26.0755 89.6878 25.8797 89.7277 25.6818 89.7284Z" fill="#E61C5D"/>
<path d="M6.71596 90.0299C6.46875 89.6661 6.30432 89.2526 6.23424 88.8184C6.16415 88.3842 6.19014 87.9399 6.31034 87.5168C6.43054 87.0937 6.64205 86.7021 6.92996 86.3696C7.21787 86.0371 7.57519 85.7718 7.97674 85.5923L7.055 74.9407L11.9395 77.588L12.066 87.2971C12.3228 87.9917 12.3159 88.7563 12.0466 89.4461C11.7773 90.1359 11.2643 90.703 10.6048 91.0398C9.94535 91.3767 9.18524 91.4599 8.4685 91.2738C7.75176 91.0877 7.1282 90.6451 6.71597 90.0299H6.71596Z" fill="#FFB8B8"/>
<path d="M8.46106 84.1835C8.32323 84.1833 8.18597 84.1659 8.05245 84.1317C7.76527 84.0585 7.50322 83.909 7.29404 83.6991C7.08485 83.4891 6.9363 83.2265 6.8641 82.9391L4.46366 73.3999C3.62477 70.0682 4.02468 66.5452 5.58897 63.4864L10.618 53.6485C10.9359 52.4707 11.704 51.4649 12.7567 50.8482C13.8093 50.2315 15.0622 50.0533 16.2451 50.3519C16.8347 50.5008 17.3889 50.7652 17.8755 51.1299C18.3621 51.4946 18.7715 51.9522 19.0799 52.4763C19.3946 53.0079 19.6005 53.5968 19.6854 54.2087C19.7704 54.8206 19.7328 55.4433 19.5747 56.0406L12.4159 72.0488L12.501 81.6335C12.5032 81.9716 12.4015 82.3023 12.2097 82.5808C12.0179 82.8593 11.7452 83.0721 11.4285 83.1907L9.03284 84.0803C8.84991 84.1485 8.65627 84.1834 8.46106 84.1835Z" fill="#E61C5D"/>
<path d="M42.7286 86.1119C42.2917 86.0619 41.8709 85.9168 41.4961 85.6867C41.1213 85.4565 40.8015 85.147 40.5592 84.7799C40.317 84.4128 40.1581 83.9971 40.0939 83.5619C40.0297 83.1268 40.0617 82.6829 40.1876 82.2615L31.5132 76.0117L36.706 74.0365L44.1473 80.2742C44.8413 80.5327 45.4163 81.0367 45.7635 81.6908C46.1106 82.3449 46.2058 83.1036 46.0309 83.8232C45.856 84.5428 45.4233 85.1732 44.8146 85.595C44.206 86.0168 43.4638 86.2007 42.7286 86.1119H42.7286Z" fill="#FFB8B8"/>
<path d="M38.1877 81.548C37.9319 81.5478 37.6797 81.4883 37.4509 81.374L28.655 76.9708C25.5828 75.4331 23.1735 72.8319 21.8752 69.6511L17.6994 59.4217C17.0141 58.4123 16.753 57.1741 16.9722 55.9739C17.1915 54.7737 17.8736 53.7078 18.8715 53.0059C19.3701 52.6553 19.9335 52.4074 20.5289 52.2768C21.1242 52.1461 21.7396 52.1353 22.3392 52.2449C22.9458 52.354 23.5248 52.5824 24.0425 52.9168C24.5602 53.2513 25.0064 53.6851 25.3553 54.1933L32.8185 70.062L40.1384 76.25C40.3961 76.4689 40.5805 76.7616 40.6664 77.0887C40.7524 77.4157 40.7359 77.7612 40.6191 78.0786L39.7306 80.4746C39.6146 80.7888 39.405 81.0599 39.1301 81.2513C38.8538 81.4445 38.5248 81.5481 38.1877 81.548Z" fill="#E61C5D"/>
<path d="M20.7632 48.342C21.1536 48.5129 21.9531 45.4018 21.595 44.7796C21.0624 43.8542 21.0939 43.8608 20.7403 43.2486C20.3867 42.6364 20.3076 41.7984 20.7655 41.2597C21.2233 40.7211 22.2829 40.7925 22.4919 41.4679C22.3575 40.1851 23.6264 39.1538 24.8833 38.8641C26.1402 38.5743 27.466 38.7542 28.7299 38.4963C30.1966 38.197 31.7227 36.9675 31.1375 35.3546C31.037 35.0861 30.8867 34.839 30.6944 34.6264C30.0182 33.8662 29.0724 33.5416 28.1477 33.2277C26.2239 32.5747 24.2475 31.9136 22.2171 31.9856C20.5443 32.0731 18.9332 32.6463 17.581 33.6352C16.2289 34.624 15.1943 35.9856 14.6039 37.5533C14.464 37.9455 14.3556 38.3482 14.2798 38.7576C13.5829 42.5047 15.7589 46.2008 19.293 47.6277L20.7632 48.342Z" fill="#2F2E41"/>
<path opacity="0.2" d="M12.0867 81.851L12.2533 71.999L17.472 61.5062L13.2834 72.277L12.0867 81.851Z" fill="black"/>
<path d="M59.4113 106.576L37.3797 97.4218C36.8968 97.2229 36.4656 96.9164 36.1189 96.5257C35.7723 96.1351 35.5193 95.6704 35.3793 95.1673C35.2353 94.6583 35.2094 94.1231 35.3035 93.6026C35.3976 93.0821 35.6092 92.5898 35.9222 92.1634C41.4864 84.5021 45.169 75.6385 46.6721 66.2898C46.7535 65.7671 46.953 65.2699 47.2555 64.836C47.558 64.4021 47.9555 64.0429 48.4177 63.7858C48.8731 63.53 49.3808 63.3814 49.9023 63.3514C50.4237 63.3214 50.9451 63.4107 51.4269 63.6126L73.4585 72.7664C74.2183 73.0846 74.8404 73.6622 75.2141 74.3963C75.5878 75.1303 75.6888 75.9732 75.4991 76.7748C73.0364 86.7946 69.0544 96.3785 63.6917 105.193C63.2575 105.893 62.5889 106.417 61.8051 106.67C61.0212 106.923 60.1729 106.889 59.4113 106.576Z" fill="#E6E6E6"/>
<path d="M50.7379 65.2703C50.5066 65.1733 50.2562 65.1303 50.0058 65.1447C49.7554 65.159 49.5115 65.2302 49.2928 65.353C49.0679 65.4785 48.8746 65.6536 48.7276 65.865C48.5806 66.0764 48.4838 66.3185 48.4445 66.573C46.8965 76.2011 43.1038 85.3295 37.3733 93.2198C37.2207 93.4272 37.1174 93.6666 37.0713 93.9199C37.0252 94.1731 37.0375 94.4336 37.1072 94.6814L37.1073 94.6816C37.1746 94.9232 37.2961 95.1463 37.4626 95.3339C37.6292 95.5215 37.8363 95.6686 38.0682 95.7641L60.0999 104.918C60.4652 105.07 60.8725 105.087 61.2493 104.967C61.6262 104.846 61.948 104.596 62.1577 104.261C67.4253 95.6021 71.3366 86.1881 73.7558 76.3459C73.8456 75.9607 73.7958 75.5561 73.6152 75.2041C73.4346 74.8522 73.1349 74.5758 72.7696 74.4241L50.7379 65.2703Z" fill="white"/>
<path d="M62.469 85.6472L50.9077 80.8437C50.4684 80.6606 50.1197 80.3107 49.9381 79.8709C49.7564 79.431 49.7567 78.937 49.9388 78.4973L50.2079 77.8495C50.391 77.4102 50.7409 77.0615 51.1808 76.8798C51.6207 76.6982 52.1146 76.6984 52.5543 76.8806L64.1157 81.6841C64.5549 81.8672 64.9037 82.217 65.0853 82.6569C65.267 83.0968 65.2667 83.5908 65.0846 84.0305L64.8154 84.6783C64.6323 85.1176 64.2825 85.4663 63.8426 85.648C63.4027 85.8296 62.9087 85.8294 62.469 85.6472Z" fill="#E61C5D"/>
<path d="M59.0682 93.8325L47.5068 89.029C47.0675 88.8459 46.7188 88.496 46.5372 88.0562C46.3555 87.6163 46.3558 87.1223 46.5379 86.6826L46.8071 86.0348C46.9901 85.5955 47.34 85.2468 47.7799 85.0651C48.2198 84.8835 48.7138 84.8837 49.1535 85.0659L60.7148 89.8694C61.1541 90.0525 61.5028 90.4023 61.6845 90.8422C61.8661 91.2821 61.8658 91.7761 61.6837 92.2158L61.4146 92.8636C61.2315 93.3029 60.8816 93.6516 60.4417 93.8333C60.0018 94.0149 59.5079 94.0147 59.0682 93.8325Z" fill="#E61C5D"/>
<path d="M67.1015 74.1436C66.9284 74.1434 66.757 74.1098 66.5967 74.0447L54.947 69.3347C54.6162 69.2005 54.3522 68.9406 54.2128 68.612C54.0734 68.2834 54.07 67.913 54.2034 67.5819L55.1006 65.3628C55.2344 65.0318 55.4943 64.7675 55.823 64.6281C56.1517 64.4887 56.5224 64.4856 56.8534 64.6194L68.5032 69.3294C68.8339 69.4636 69.098 69.7234 69.2374 70.052C69.3768 70.3806 69.3801 70.7511 69.2467 71.0822L68.3495 73.3012C68.2487 73.5497 68.0762 73.7626 67.8539 73.9126C67.6316 74.0626 67.3697 74.1431 67.1015 74.1436Z" fill="#CCCCCC"/>
<path d="M42.6337 144.727H0.74743C0.66808 144.727 0.591985 144.696 0.535876 144.64C0.479768 144.584 0.448242 144.507 0.448242 144.428C0.448242 144.349 0.479768 144.273 0.535876 144.217C0.591985 144.16 0.66808 144.129 0.74743 144.129H42.6337C42.713 144.129 42.7891 144.16 42.8452 144.217C42.9013 144.273 42.9329 144.349 42.9329 144.428C42.9329 144.507 42.9013 144.584 42.8452 144.64C42.7891 144.696 42.713 144.727 42.6337 144.727Z" fill="#CCCCCC"/>
</g>
<defs>
<clipPath id="clip0_111_697">
<rect width="145.355" height="144.657" fill="white" transform="translate(0.448242 0.0701904)"/>
</clipPath>
</defs>
</svg>
