<svg width="123" height="145" viewBox="0 0 123 145" fill="none" xmlns="http://www.w3.org/2000/svg">
<g clip-path="url(#clip0_111_698)">
<path d="M41.1597 98.4431C41.4132 99.1627 41.706 99.8678 42.0366 100.555V100.557C42.3045 101.117 42.5957 101.662 42.9102 102.193H79.5957V102.267C79.9284 101.712 80.2343 101.141 80.5136 100.554C80.8449 99.867 81.1377 99.1624 81.3905 98.4431H41.1597ZM42.0844 100.533V100.192H80.4709V100.533H42.0844ZM44.9439 105.061H77.6063C78.2762 104.265 78.887 103.42 79.4336 102.534H43.1166C43.6633 103.42 44.274 104.265 44.9439 105.061Z" fill="#3F3D56"/>
<path d="M81.9638 96.5288C81.8325 97.0628 81.6789 97.5866 81.5066 98.1019H41.0437C40.8714 97.5866 40.7178 97.0628 40.5864 96.5288H81.9638Z" fill="#3F3D56"/>
<path d="M81.9895 96.4281V96.1876H40.5609V96.4281C40.4159 95.8344 40.2959 95.2299 40.2009 94.6145H82.3495C82.2557 95.2287 82.1357 95.8333 81.9895 96.4281Z" fill="#3F3D56"/>
<path d="M40.1259 92.359V92.7002H82.556C82.5236 93.2309 82.4724 93.7546 82.3991 94.2733H40.1515C40.0799 93.7581 40.027 93.236 39.9963 92.7071C39.9656 92.2601 39.9519 91.8096 39.9519 91.3541C39.9519 91.047 39.9587 90.7416 39.9707 90.4379V90.4345C39.9997 89.7879 40.0554 89.1498 40.1379 88.5202V88.5185C40.2095 87.9913 40.2988 87.4703 40.4057 86.9557H82.0766V86.6451C82.2165 87.2628 82.328 87.8906 82.411 88.5287H40.2129V88.87H82.4537C82.51 89.346 82.5498 89.826 82.5731 90.3099L82.5782 90.443H40.1703V90.7842H82.5901C82.597 90.9736 82.5987 91.163 82.5987 91.3541C82.5987 91.6919 82.5901 92.0263 82.5748 92.359H40.1259Z" fill="#3F3D56"/>
<path d="M82.0697 86.6144H40.4807C40.6018 86.0821 40.7423 85.5577 40.9021 85.0413H81.6414V85.0226C81.8052 85.5447 81.9468 86.0753 82.0697 86.6144Z" fill="#3F3D56"/>
<path d="M81.539 84.7002H41.0112C41.2228 84.0519 41.4645 83.4183 41.7363 82.7996V83.1254H80.8139V82.8013C81.0851 83.4189 81.3268 84.0519 81.539 84.7002Z" fill="#3F3D56"/>
<path d="M80.8053 82.7841H41.7432C41.9786 82.2484 42.2362 81.724 42.516 81.211H79.9881V81.1257C80.285 81.6649 80.5574 82.2177 80.8053 82.7841Z" fill="#3F3D56"/>
<path d="M79.8449 80.8699H42.7039C44.5618 77.5803 47.2603 74.8433 50.5232 72.9388C53.7861 71.0343 57.4963 70.0308 61.2744 70.0308C65.0524 70.0308 68.7626 71.0343 72.0256 72.9388C75.2885 74.8433 77.9869 77.5803 79.8449 80.8699Z" fill="#3F3D56"/>
<path opacity="0.5" d="M40.561 96.4282C40.5677 96.4621 40.5762 96.4956 40.5865 96.5286H40.561V96.4282Z" fill="black"/>
<path opacity="0.5" d="M81.9894 96.4282V96.5286H81.9639C81.9742 96.4956 81.9827 96.4621 81.9894 96.4282Z" fill="black"/>
<path opacity="0.5" d="M82.5986 92.359V92.7002H82.5559C82.5593 92.6576 82.5627 92.6149 82.5644 92.5723C82.5678 92.5006 82.5713 92.4307 82.5747 92.359H82.5986Z" fill="black"/>
<path opacity="0.5" d="M82.5986 90.443V90.7842H82.59C82.5883 90.6699 82.5832 90.5573 82.5781 90.443H82.5986Z" fill="black"/>
<path opacity="0.5" d="M82.0763 86.6145V86.6447C82.0746 86.6347 82.0713 86.6246 82.0696 86.6145H82.0763Z" fill="black"/>
<path opacity="0.5" d="M41.7363 82.7842H41.7431C41.7416 82.7896 41.7393 82.7947 41.7363 82.7994V82.7842Z" fill="black"/>
<path opacity="0.5" d="M80.8138 82.7842V82.8009C80.8113 82.7951 80.8085 82.7896 80.8054 82.7842H80.8138Z" fill="black"/>
<path opacity="0.5" d="M78.6385 78.9551H43.9119V79.2963H78.6385V78.9551Z" fill="black"/>
<path opacity="0.5" d="M77.2894 77.0403H45.3479V77.3815H77.2894V77.0403Z" fill="black"/>
<path opacity="0.5" d="M75.2441 75.1256H47.3062V75.4668H75.2441V75.1256Z" fill="black"/>
<path opacity="0.5" d="M72.6764 73.2099L49.4382 73.2552L49.4389 73.5965L72.677 73.5511L72.6764 73.2099Z" fill="black"/>
<path d="M58.1835 80.1499H48.0005V102.713H58.1835V80.1499Z" fill="#E6E6E6"/>
<path d="M52.6587 82.2744H53.0897C53.7251 82.2744 54.3344 82.5268 54.7836 82.976C55.2328 83.4253 55.4852 84.0346 55.4852 84.6699V88.0618H50.2632V84.6699C50.2632 84.0346 50.5156 83.4253 50.9648 82.976C51.414 82.5268 52.0233 82.2744 52.6587 82.2744Z" fill="#3F3D56"/>
<path d="M71.2841 79.9525C71.9766 79.9525 72.6407 80.2276 73.1304 80.7173C73.62 81.2069 73.8951 81.8711 73.8951 82.5635V86.8282H68.6731V82.5635C68.6731 81.8711 68.9482 81.2069 69.4378 80.7173C69.9275 80.2276 70.5916 79.9525 71.2841 79.9525Z" fill="#E6E6E6"/>
<path d="M81.2059 88.6559C81.206 88.8594 81.1947 89.0628 81.172 89.2651H61.2751V88.1337H81.1807C81.1972 88.3069 81.2057 88.4809 81.2059 88.6559Z" fill="#E6E6E6"/>
<path d="M64.1304 84.8364L64.3239 84.5375C64.2665 84.3791 64.2002 84.224 64.1254 84.073L64.0003 84.174L64.0994 84.021C64.005 83.8352 63.9307 83.7181 63.9307 83.7181C63.6925 84.1075 63.5178 84.5323 63.4132 84.9766L63.6614 85.3602L63.3867 85.1383C63.3769 85.2137 63.3718 85.2896 63.3716 85.3656C63.3716 86.1322 63.6219 86.7535 63.9307 86.7535C64.2395 86.7535 64.4899 86.1322 64.4899 85.3656C64.4841 85.1218 64.441 84.8802 64.362 84.6494L64.1304 84.8364Z" fill="#E61C5D"/>
<path d="M65.4995 85.5009L65.8476 85.4263C65.9191 85.2737 65.9819 85.1172 66.0358 84.9575L65.8759 84.9405L66.0542 84.9023C66.1188 84.7042 66.1491 84.569 66.1491 84.569C65.7053 84.6758 65.2813 84.8526 64.8932 85.0929L64.7975 85.5397L64.7601 85.1884C64.6999 85.2348 64.6427 85.285 64.5887 85.3385C64.0467 85.8806 63.7843 86.4969 64.0027 86.7153C64.2211 86.9337 64.8375 86.6713 65.3795 86.1293C65.5478 85.9528 65.6881 85.7515 65.7955 85.5324L65.4995 85.5009Z" fill="#E61C5D"/>
<path d="M65.6266 88.467C64.8193 88.5186 63.9397 88.464 63.0039 88.467V86.3245C63.8739 86.4463 64.7566 86.4463 65.6266 86.3245V88.467Z" fill="#E6E6E6"/>
<path d="M77.2725 84.8364L77.4659 84.5375C77.4086 84.3791 77.3423 84.224 77.2675 84.073L77.1424 84.174L77.2415 84.021C77.1471 83.8352 77.0728 83.7181 77.0728 83.7181C76.8345 84.1075 76.6598 84.5323 76.5553 84.9766L76.8035 85.3602L76.5287 85.1383C76.519 85.2137 76.5139 85.2896 76.5137 85.3656C76.5137 86.1322 76.764 86.7535 77.0728 86.7535C77.3816 86.7535 77.632 86.1322 77.632 85.3656C77.6262 85.1218 77.583 84.8802 77.5041 84.6494L77.2725 84.8364Z" fill="#E61C5D"/>
<path d="M78.6416 85.5009L78.9897 85.4263C79.0612 85.2737 79.124 85.1172 79.1779 84.9575L79.018 84.9405L79.1963 84.9023C79.2609 84.7042 79.2911 84.569 79.2911 84.569C78.8474 84.6758 78.4234 84.8526 78.0353 85.0929L77.9396 85.5397L77.9022 85.1884C77.842 85.2348 77.7847 85.285 77.7308 85.3385C77.1888 85.8806 76.9264 86.4969 77.1448 86.7153C77.3632 86.9337 77.9796 86.6713 78.5216 86.1293C78.6899 85.9528 78.8302 85.7515 78.9376 85.5324L78.6416 85.5009Z" fill="#E61C5D"/>
<path d="M78.7687 88.467C77.9614 88.5186 77.0818 88.464 76.146 88.467V86.3245C77.016 86.4463 77.8987 86.4463 78.7687 86.3245V88.467Z" fill="#E6E6E6"/>
<path d="M49.219 92.97C49.7958 92.97 50.2634 92.5764 50.2634 92.0909C50.2634 91.6054 49.7958 91.2118 49.219 91.2118C48.6422 91.2118 48.1746 91.6054 48.1746 92.0909C48.1746 92.5764 48.6422 92.97 49.219 92.97Z" fill="#3F3D56"/>
<path d="M110.789 118.504C99.8683 134.102 81.7644 144.301 61.2787 144.301C40.5474 144.301 22.2558 133.856 11.3792 117.941C20.7459 100.137 39.7643 104.548 61.2787 104.548C83.0184 104.548 101.522 100.395 110.789 118.504Z" fill="#E61C5D"/>
<path d="M61.2787 108.813C81.9584 108.813 99.7088 105.057 109.368 120.278C109.854 119.639 110.328 118.991 110.789 118.333C101.522 100.224 83.0184 104.377 61.2787 104.377C39.7643 104.377 20.7459 99.9668 11.3792 117.77C11.8422 118.448 12.3189 119.115 12.8093 119.772C22.5964 104.821 40.8073 108.813 61.2787 108.813Z" fill="#3F3D56"/>
<path d="M61.2787 144.727C46.4509 144.716 32.1394 139.281 21.0412 129.448C9.94302 119.615 2.82469 106.062 1.02772 91.3434C-0.769259 76.6249 2.87923 61.7574 11.2856 49.5428C19.692 37.3283 32.2756 28.6102 46.6651 25.0316C61.0545 21.453 76.256 23.2611 89.4046 30.115C102.553 36.969 112.741 48.3955 118.048 62.2411C123.354 76.0867 123.414 91.3952 118.215 105.282C113.015 119.168 102.917 130.673 89.8216 137.629C81.031 142.294 71.2303 144.731 61.2787 144.727ZM61.2787 23.5911C52.1195 23.5953 43.0815 25.6855 34.8505 29.7031C26.6195 33.7207 19.4116 39.5603 13.7737 46.7787C8.13585 53.9971 4.21608 62.4048 2.3118 71.3638C0.407514 80.3229 0.56874 89.598 2.78324 98.4855C4.99775 107.373 9.20736 115.639 15.0927 122.657C20.978 129.676 28.3845 135.261 36.7502 138.99C45.1159 142.719 54.221 144.494 63.3748 144.18C72.5287 143.866 81.4907 141.471 89.581 137.177C97.9983 132.681 105.24 126.267 110.72 118.454C116.559 110.087 120.184 100.377 121.256 90.2304C122.329 80.0834 120.813 69.8302 116.851 60.4275C112.24 49.5004 104.508 40.1767 94.623 33.6241C84.7376 27.0715 73.1385 23.5815 61.2787 23.5911Z" fill="#3F3D56"/>
<path d="M61.2787 144.386C53.3355 144.388 45.4697 142.825 38.1308 139.786C30.7919 136.747 24.1236 132.292 18.5068 126.675C12.8901 121.058 8.43508 114.39 5.39618 107.051C2.35728 99.7122 0.794083 91.8465 0.7959 83.9033C0.7959 50.553 27.9283 23.4205 61.2787 23.4205C94.629 23.4205 121.762 50.553 121.762 83.9033C121.789 96.3014 117.98 108.405 110.859 118.553C105.277 126.525 97.8569 133.034 89.2267 137.531C80.5965 142.027 71.0101 144.379 61.2787 144.386ZM61.2787 23.9324C28.2106 23.9324 1.30774 50.8352 1.30774 83.9033C1.30871 96.662 5.37843 109.088 12.9254 119.375C20.4724 129.663 31.1034 137.275 43.2733 141.106C55.4432 144.938 68.5178 144.788 80.5969 140.679C92.676 136.571 103.13 128.717 110.44 118.26C117.501 108.197 121.277 96.1964 121.25 83.9033C121.25 50.8352 94.3467 23.9324 61.2787 23.9324Z" fill="#3F3D56"/>
<path d="M22.9758 51.1455C31.9746 51.1455 39.2695 43.8505 39.2695 34.8518C39.2695 25.853 31.9746 18.5581 22.9758 18.5581C13.9771 18.5581 6.68213 25.853 6.68213 34.8518C6.68213 43.8505 13.9771 51.1455 22.9758 51.1455Z" fill="#FF6584"/>
<path d="M91.8 55.8611C107.206 55.8611 119.695 43.3719 119.695 27.9656C119.695 12.5594 107.206 0.0701904 91.8 0.0701904C76.3938 0.0701904 63.9045 12.5594 63.9045 27.9656C63.9045 43.3719 76.3938 55.8611 91.8 55.8611Z" fill="#E61C5D"/>
<path opacity="0.2" d="M112.55 9.33362C115.152 15.4202 115.505 22.2337 113.546 28.5566C111.587 34.8795 107.444 40.2997 101.856 43.8488C96.2684 47.3978 89.6008 48.8444 83.0449 47.93C76.4889 47.0156 70.4716 43.7999 66.0684 38.8574C67.6579 42.576 70.0369 45.9046 73.0405 48.6126C76.0441 51.3205 79.6006 53.3431 83.4635 54.5401C87.3264 55.7371 91.4034 56.08 95.412 55.545C99.4205 55.0099 103.265 53.6097 106.679 51.4415C110.092 49.2732 112.994 46.3887 115.182 42.9877C117.37 39.5868 118.793 35.7507 119.352 31.7454C119.91 27.74 119.591 23.6611 118.417 19.7912C117.242 15.9214 115.241 12.3531 112.55 9.33362Z" fill="black"/>
<path d="M91.8767 27.9657H91.9533L93.3327 107.054H90.4207L91.8767 27.9657Z" fill="#3F3D56"/>
<path d="M96.9559 71.0446L96.3132 69.824L91.702 72.2517L92.3447 73.4723L96.9559 71.0446Z" fill="#3F3D56"/>
<path d="M87.3047 103.629C87.3047 103.629 87.4225 101.16 89.8378 101.447L87.3047 103.629Z" fill="#3F3D56"/>
<path d="M86.6224 101.279C87.29 101.279 87.8313 100.738 87.8313 100.07C87.8313 99.4028 87.29 98.8616 86.6224 98.8616C85.9548 98.8616 85.4136 99.4028 85.4136 100.07C85.4136 100.738 85.9548 101.279 86.6224 101.279Z" fill="#E61C5D"/>
<path d="M86.7668 102.106H86.4255V104.495H86.7668V102.106Z" fill="#3F3D56"/>
<path d="M103.172 108.235C103.172 108.235 103.29 105.766 105.705 106.053L103.172 108.235Z" fill="#3F3D56"/>
<path d="M102.489 105.886C103.157 105.886 103.698 105.345 103.698 104.677C103.698 104.009 103.157 103.468 102.489 103.468C101.822 103.468 101.281 104.009 101.281 104.677C101.281 105.345 101.822 105.886 102.489 105.886Z" fill="#E61C5D"/>
<path d="M102.634 106.713H102.293V109.101H102.634V106.713Z" fill="#3F3D56"/>
<path d="M18.3765 109.259C18.3765 109.259 18.4943 106.79 20.9096 107.077L18.3765 109.259Z" fill="#3F3D56"/>
<path d="M17.6942 106.91C18.3618 106.91 18.903 106.368 18.903 105.701C18.903 105.033 18.3618 104.492 17.6942 104.492C17.0266 104.492 16.4854 105.033 16.4854 105.701C16.4854 106.368 17.0266 106.91 17.6942 106.91Z" fill="#E61C5D"/>
<path d="M17.8385 107.736H17.4973V110.125H17.8385V107.736Z" fill="#3F3D56"/>
<path d="M96.8591 105.335C96.8591 105.335 96.9769 102.866 99.3923 103.153L96.8591 105.335Z" fill="#3F3D56"/>
<path d="M96.1766 102.985C96.8442 102.985 97.3855 102.444 97.3855 101.777C97.3855 101.109 96.8442 100.568 96.1766 100.568C95.509 100.568 94.9678 101.109 94.9678 101.777C94.9678 102.444 95.509 102.985 96.1766 102.985Z" fill="#E61C5D"/>
<path d="M96.3212 103.812H95.98V106.201H96.3212V103.812Z" fill="#3F3D56"/>
<path d="M31.4527 35.8165L33.0233 34.5603C31.8032 34.4257 31.3018 35.0911 31.0966 35.6178C30.1434 35.222 29.1057 35.7408 29.1057 35.7408L32.2482 36.8816C32.0897 36.4582 31.8137 36.0887 31.4527 35.8165Z" fill="#3F3D56"/>
<path d="M55.3387 48.6127L56.9093 47.3565C55.6891 47.2218 55.1878 47.8873 54.9826 48.414C54.0294 48.0182 52.9917 48.5369 52.9917 48.5369L56.1342 49.6778C55.9757 49.2543 55.6997 48.8848 55.3387 48.6127Z" fill="#3F3D56"/>
<path d="M29.576 59.532L31.1466 58.2758C29.9264 58.1412 29.4251 58.8066 29.2199 59.3333C28.2667 58.9375 27.229 59.4562 27.229 59.4562L30.3715 60.5971C30.213 60.1736 29.937 59.8042 29.576 59.532Z" fill="#3F3D56"/>
<path opacity="0.2" d="M82.4348 91.581C82.4385 94.3259 81.8733 97.0417 80.7748 99.5572L45.3944 81.827L42.7039 80.4911L46.3499 80.2914L77.9494 78.5648C80.9573 82.059 82.4348 86.6076 82.4348 91.581Z" fill="black"/>
<path d="M86.7003 80.4912H35.8572V76.3965L61.1081 65.8184L86.7003 76.3965V80.4912Z" fill="#3F3D56"/>
</g>
<defs>
<clipPath id="clip0_111_698">
<rect width="121.648" height="144.657" fill="white" transform="translate(0.45459 0.0701904)"/>
</clipPath>
</defs>
</svg>
