<svg width="243" height="145" viewBox="0 0 243 145" fill="none" xmlns="http://www.w3.org/2000/svg">
<g clip-path="url(#clip0_111_702)">
<path d="M14.5687 111.139C7.42989 108.542 1.23291 102.33 0.446777 94.7743C7.37706 99.2704 15.6743 101.17 23.8705 100.138C27.03 99.7281 30.5014 98.9435 33.2051 100.629C34.8875 101.677 35.9319 103.539 36.411 105.463C36.8901 107.386 36.8685 109.395 36.844 111.377L37.0663 111.819C29.609 113.267 21.7076 113.736 14.5687 111.139Z" fill="#F0F0F0"/>
<path d="M0.601751 94.7366C4.23971 99.865 9.4011 103.717 15.3528 105.745C16.6263 106.204 17.9643 106.46 19.3175 106.503C20.6369 106.502 21.9321 106.147 23.0683 105.477C24.1403 104.872 25.1669 104.13 26.3671 103.797C26.984 103.636 27.628 103.607 28.257 103.712C28.8859 103.817 29.4856 104.053 30.0166 104.406C31.3626 105.251 32.3247 106.53 33.2222 107.813C34.2186 109.237 35.231 110.732 36.7864 111.597C36.9749 111.702 36.8013 111.988 36.6131 111.883C33.9069 110.379 32.9049 107.188 30.6015 105.248C29.5266 104.343 28.1725 103.756 26.752 104.048C25.5099 104.304 24.4506 105.069 23.3705 105.69C22.2716 106.36 21.0253 106.752 19.7403 106.83C18.3894 106.856 17.0438 106.652 15.7612 106.227C12.8584 105.316 10.1169 103.954 7.63709 102.192C4.79577 100.196 2.31684 97.7284 0.307527 94.8965C0.183236 94.7211 0.478273 94.5624 0.601751 94.7366V94.7366Z" fill="white"/>
<path d="M13.3979 105.205C12.922 106.157 12.1232 106.909 11.1439 107.327C10.1647 107.745 9.06885 107.801 8.05209 107.485C7.84657 107.421 7.93726 107.098 8.14305 107.163C9.08931 107.459 10.1101 107.406 11.0212 107.015C11.9322 106.625 12.6736 105.921 13.1114 105.031C13.2068 104.838 13.4927 105.013 13.3979 105.205V105.205Z" fill="white"/>
<path d="M22.5652 105.854C21.8949 103.784 20.4688 102.042 18.5713 100.976C18.3832 100.871 18.5567 100.585 18.7446 100.69C20.7171 101.803 22.1975 103.618 22.8903 105.774C22.9562 105.98 22.6308 106.059 22.5652 105.854Z" fill="white"/>
<path d="M5.17425 99.9638C5.43514 99.6336 5.60996 99.2439 5.68299 98.8295C5.75602 98.4151 5.72498 97.9891 5.59266 97.5896C5.52419 97.385 5.84975 97.3063 5.91777 97.5096C6.0619 97.9516 6.0956 98.4222 6.01593 98.8802C5.93625 99.3382 5.74563 99.7697 5.46071 100.137C5.43675 100.174 5.39966 100.2 5.35696 100.211C5.31426 100.221 5.26916 100.215 5.23083 100.194C5.19301 100.17 5.16586 100.133 5.15527 100.09C5.14467 100.047 5.15149 100.002 5.17425 99.9638V99.9638Z" fill="white"/>
<path d="M18.4643 76.4194C18.5107 76.546 18.5571 76.6725 18.6062 76.7998C19.2386 78.498 20.008 80.142 20.9067 81.7156C20.9742 81.8384 21.0445 81.9618 21.1155 82.0823C23.321 85.8503 26.207 89.1761 29.6266 91.8906C30.9884 92.9695 32.4302 93.9433 33.9397 94.8034C36.0244 95.9912 38.3793 97.1132 39.905 98.8687C40.0662 99.05 40.2161 99.2412 40.3537 99.4411L37.5885 111.514C37.5684 111.538 37.5511 111.563 37.531 111.587L37.4426 112.074C37.3617 112.035 37.2785 111.993 37.1976 111.954C37.1505 111.932 37.1041 111.907 37.0571 111.885C37.0259 111.869 36.9947 111.853 36.9657 111.84C36.9553 111.835 36.9449 111.83 36.9373 111.825C36.9082 111.813 36.8826 111.798 36.8563 111.786C36.3911 111.552 35.9266 111.314 35.463 111.073C35.4603 111.072 35.4603 111.072 35.4581 111.069C31.908 109.263 28.5846 107.042 25.5577 104.453C25.4685 104.375 25.3764 104.296 25.2884 104.212C23.9569 103.029 22.7243 101.739 21.603 100.355C20.9914 99.5958 20.4187 98.8058 19.887 97.9883C18.5172 95.8733 17.4887 93.556 16.839 91.1214C15.5447 86.2678 15.817 81.0543 18.2734 76.7467C18.3363 76.6365 18.3986 76.529 18.4643 76.4194Z" fill="#F0F0F0"/>
<path d="M18.6113 76.4816C18.4283 82.7667 20.2304 88.9496 23.7615 94.1523C24.5017 95.2858 25.4161 96.2955 26.4708 97.1443C27.5249 97.9379 28.7723 98.4348 30.0834 98.5833C31.3031 98.7463 32.5696 98.7718 33.7285 99.2284C34.3182 99.471 34.8499 99.8354 35.2889 100.298C35.7279 100.76 36.0641 101.31 36.2756 101.912C36.8415 103.397 36.8401 104.997 36.7843 106.562C36.7223 108.299 36.6304 110.102 37.3517 111.729C37.4391 111.926 37.1281 112.05 37.0409 111.854C35.7859 109.023 36.9071 105.872 36.2359 102.936C35.9227 101.566 35.1948 100.282 33.8845 99.6608C32.7388 99.1171 31.4328 99.0897 30.1964 98.9354C28.9152 98.8093 27.6844 98.3714 26.6115 97.66C25.517 96.8676 24.5653 95.8948 23.7972 94.7832C22.028 92.3081 20.6589 89.5702 19.7402 86.6698C18.6733 83.3655 18.1795 79.903 18.2801 76.4321C18.2865 76.2173 18.6176 76.2682 18.6113 76.4816L18.6113 76.4816Z" fill="white"/>
<path d="M22.526 92.544C21.5727 93.0179 20.482 93.1376 19.4486 92.8816C18.4152 92.6255 17.5065 92.0105 16.8847 91.1463C16.7595 90.971 17.026 90.7682 17.1514 90.9438C17.7289 91.7496 18.5754 92.3224 19.5382 92.5588C20.501 92.7952 21.5166 92.6798 22.4016 92.2332C22.5941 92.1363 22.7174 92.4477 22.526 92.544Z" fill="white"/>
<path d="M29.4542 98.582C30.1655 96.5253 30.0755 94.2759 29.2021 92.2826C29.1154 92.0852 29.4264 91.961 29.513 92.1582C30.418 94.2342 30.5069 96.5752 29.762 98.7139C29.6908 98.9177 29.3834 98.7847 29.4542 98.582Z" fill="white"/>
<path d="M19.1152 83.4082C19.5223 83.3017 19.8965 83.0958 20.2043 82.8089C20.5121 82.522 20.7439 82.1631 20.8787 81.7645C20.9472 81.5599 21.2545 81.6931 21.1865 81.8964C21.0354 82.3361 20.779 82.7321 20.4397 83.0498C20.1003 83.3675 19.6883 83.5973 19.2396 83.7191C19.1983 83.7341 19.1528 83.7328 19.1124 83.7155C19.0719 83.6982 19.0396 83.6661 19.022 83.6259C19.0057 83.5846 19.0064 83.5386 19.0239 83.4979C19.0413 83.4571 19.0741 83.4249 19.1152 83.4082H19.1152Z" fill="white"/>
<path d="M230.642 110.89C237.407 107.435 242.794 100.508 242.645 92.9132C236.32 98.2271 228.319 101.132 220.058 101.115C216.872 101.097 213.331 100.745 210.855 102.75C209.314 103.997 208.507 105.974 208.267 107.941C208.028 109.909 208.297 111.9 208.565 113.864L208.398 114.33C215.977 114.85 223.876 114.345 230.642 110.89Z" fill="#F0F0F0"/>
<path d="M242.487 92.8948C239.507 98.4315 234.858 102.889 229.201 105.633C227.993 106.245 226.697 106.663 225.359 106.872C224.05 107.033 222.721 106.841 221.511 106.315C220.373 105.847 219.263 105.237 218.031 105.054C217.399 104.969 216.756 105.02 216.145 105.201C215.533 105.382 214.967 105.691 214.484 106.107C213.252 107.111 212.454 108.498 211.721 109.881C210.907 111.417 210.086 113.026 208.649 114.075C208.475 114.202 208.682 114.465 208.856 114.338C211.357 112.512 211.959 109.222 214.007 107.014C214.962 105.983 216.234 105.235 217.68 105.35C218.944 105.451 220.089 106.08 221.237 106.564C222.41 107.094 223.695 107.329 224.98 107.249C226.324 107.109 227.634 106.741 228.855 106.162C231.624 104.901 234.177 103.212 236.421 101.158C238.996 98.828 241.153 96.0747 242.799 93.0173C242.9 92.828 242.588 92.7067 242.487 92.8948Z" fill="white"/>
<path d="M231.074 104.856C231.664 105.743 232.549 106.391 233.572 106.686C234.595 106.98 235.69 106.901 236.66 106.463C236.856 106.373 236.726 106.064 236.53 106.154C235.627 106.564 234.608 106.637 233.656 106.361C232.703 106.085 231.881 105.478 231.337 104.649C231.219 104.469 230.957 104.677 231.074 104.856Z" fill="white"/>
<path d="M222.057 106.628C222.467 104.491 223.668 102.587 225.421 101.296C225.594 101.168 225.387 100.905 225.213 101.033C223.393 102.38 222.147 104.364 221.724 106.589C221.684 106.801 222.017 106.839 222.057 106.628H222.057Z" fill="white"/>
<path d="M238.592 98.6444C238.292 98.3488 238.071 97.9835 237.947 97.5812C237.824 97.179 237.802 96.7523 237.885 96.3397C237.927 96.1282 237.595 96.0901 237.552 96.3002C237.463 96.7566 237.488 97.2277 237.623 97.6725C237.758 98.1172 238.001 98.522 238.329 98.8516C238.357 98.8852 238.397 98.9068 238.441 98.912C238.484 98.9172 238.528 98.9056 238.564 98.8795C238.598 98.8519 238.621 98.8117 238.626 98.7677C238.631 98.7236 238.619 98.6793 238.592 98.6444H238.592Z" fill="white"/>
<path d="M222.508 76.9121C222.478 77.0434 222.447 77.1747 222.414 77.3071C221.995 79.0701 221.434 80.7962 220.735 82.4683C220.683 82.5985 220.629 82.7296 220.573 82.8579C218.847 86.8685 216.392 90.5238 213.332 93.6381C212.113 94.8762 210.802 96.0198 209.41 97.0589C207.487 98.494 205.288 99.8969 203.989 101.827C203.852 102.026 203.726 102.235 203.615 102.45L207.843 114.091C207.866 114.112 207.886 114.135 207.909 114.157L208.056 114.629C208.132 114.581 208.209 114.529 208.285 114.48C208.329 114.452 208.372 114.422 208.416 114.394C208.445 114.374 208.474 114.355 208.501 114.339C208.511 114.332 208.52 114.326 208.527 114.32C208.554 114.304 208.578 114.287 208.603 114.272C209.036 113.982 209.467 113.689 209.898 113.392C209.9 113.391 209.9 113.391 209.902 113.388C213.203 111.159 216.229 108.547 218.914 105.605C218.993 105.516 219.075 105.426 219.152 105.332C220.328 103.995 221.393 102.563 222.335 101.052C222.849 100.223 223.32 99.3689 223.747 98.4922C224.847 96.2249 225.583 93.7988 225.928 91.3028C226.616 86.3269 225.705 81.1864 222.738 77.2134C222.662 77.1118 222.587 77.0127 222.508 76.9121Z" fill="#F0F0F0"/>
<path d="M222.37 76.992C223.324 83.207 222.296 89.5645 219.431 95.1617C218.836 96.3776 218.052 97.4921 217.11 98.4641C216.161 99.3813 214.984 100.028 213.702 100.336C212.511 100.648 211.257 100.829 210.163 101.424C209.608 101.738 209.125 102.165 208.746 102.678C208.368 103.191 208.101 103.778 207.966 104.401C207.586 105.944 207.785 107.532 208.032 109.078C208.307 110.794 208.62 112.573 208.104 114.276C208.042 114.482 208.366 114.567 208.428 114.361C209.326 111.398 207.826 108.408 208.131 105.412C208.273 104.014 208.838 102.651 210.062 101.873C211.132 101.192 212.425 101.005 213.633 100.7C214.889 100.417 216.056 99.8311 217.034 98.9932C218.022 98.0723 218.847 96.9899 219.473 95.7922C220.925 93.1184 221.947 90.233 222.502 87.2417C223.155 83.8313 223.219 80.3343 222.693 76.9022C222.66 76.6898 222.338 76.781 222.37 76.992Z" fill="white"/>
<path d="M220.459 93.4137C221.464 93.7668 222.561 93.7515 223.555 93.3704C224.549 92.9893 225.375 92.2672 225.886 91.3332C225.989 91.1438 225.699 90.9753 225.597 91.1649C225.122 92.0356 224.353 92.7081 223.426 93.0611C222.5 93.4141 221.478 93.4243 220.545 93.0899C220.342 93.0175 220.258 93.3417 220.459 93.4137Z" fill="white"/>
<path d="M214.326 100.258C213.367 98.3039 213.18 96.0606 213.802 93.975C213.863 93.7684 213.54 93.6834 213.478 93.8898C212.835 96.0613 213.034 98.3954 214.037 100.426C214.132 100.62 214.421 100.45 214.326 100.258Z" fill="white"/>
<path d="M222.721 83.9279C222.304 83.8722 221.908 83.7139 221.567 83.467C221.226 83.2201 220.952 82.8924 220.769 82.5134C220.676 82.3188 220.387 82.4888 220.48 82.6821C220.684 83.0999 220.987 83.4614 221.363 83.735C221.739 84.0086 222.176 84.186 222.636 84.2517C222.679 84.2615 222.724 84.2546 222.762 84.2325C222.8 84.2103 222.828 84.1746 222.841 84.1324C222.852 84.0895 222.845 84.0439 222.823 84.0056C222.801 83.9673 222.764 83.9394 222.721 83.9279V83.9279Z" fill="white"/>
<path d="M211.548 5.13672H163.883V8.20303C163.882 8.36005 163.936 8.51241 164.035 8.63398C163.939 11.0307 163.883 14.0904 163.883 17.4152V99.3936C163.883 107.078 164.191 113.33 164.569 113.33H210.862C211.24 113.33 211.548 107.078 211.548 99.3936V17.4152C211.548 14.0904 211.492 11.0307 211.396 8.63398C211.495 8.5124 211.549 8.36003 211.548 8.20303L211.548 5.13672Z" fill="white"/>
<path d="M210.862 113.661H164.569C164.208 113.661 163.97 113.661 163.753 109.259C163.623 106.618 163.551 103.114 163.551 99.3935V17.4152C163.551 14.2018 163.605 11.0785 163.704 8.62059C163.766 7.14489 163.836 5.96281 163.914 5.10672C164.066 3.4308 164.211 3.14771 164.569 3.14771H210.862C211.22 3.14771 211.364 3.4308 211.517 5.10672C211.595 5.96605 211.665 7.14813 211.727 8.61994L211.727 8.62059C211.825 11.0759 211.879 14.1992 211.879 17.4152V99.3935C211.879 103.114 211.808 106.618 211.678 109.259C211.461 113.661 211.223 113.661 210.862 113.661ZM164.757 112.998H210.674C210.913 112.092 211.216 107.174 211.216 99.3935V17.4152C211.216 14.2079 211.162 11.0943 211.064 8.64778H211.064C211.003 7.18649 210.933 6.01525 210.857 5.16661C210.827 4.71077 210.765 4.25764 210.67 3.81069H164.76C164.666 4.25765 164.604 4.71078 164.574 5.16661C164.497 6.01202 164.428 7.18325 164.366 8.64778C164.268 11.0964 164.214 14.2103 164.214 17.4152V99.3935C164.214 107.173 164.517 112.092 164.757 112.998Z" fill="#E4E4E4"/>
<path d="M210.862 3.47925H164.569C164.387 3.4796 164.213 3.552 164.084 3.68061C163.955 3.80922 163.883 3.98355 163.883 4.16544V8.20303C163.882 8.36004 163.936 8.51241 164.035 8.63398C164.1 8.71346 164.181 8.77761 164.273 8.82176C164.366 8.86591 164.467 8.88895 164.569 8.88922H210.862C210.964 8.88893 211.065 8.86588 211.157 8.82173C211.25 8.77758 211.331 8.71345 211.396 8.63398C211.495 8.5124 211.549 8.36003 211.548 8.20303V4.16544C211.548 3.98357 211.475 3.80924 211.347 3.68062C211.218 3.55201 211.044 3.4796 210.862 3.47925Z" fill="#CACACA"/>
<path d="M167.867 6.96163C168.405 6.96163 168.842 6.52534 168.842 5.98716C168.842 5.44898 168.405 5.0127 167.867 5.0127C167.329 5.0127 166.893 5.44898 166.893 5.98716C166.893 6.52534 167.329 6.96163 167.867 6.96163Z" fill="white"/>
<path d="M171.566 6.96163C172.104 6.96163 172.54 6.52534 172.54 5.98716C172.54 5.44898 172.104 5.0127 171.566 5.0127C171.028 5.0127 170.591 5.44898 170.591 5.98716C170.591 6.52534 171.028 6.96163 171.566 6.96163Z" fill="white"/>
<path d="M175.265 6.96163C175.803 6.96163 176.239 6.52534 176.239 5.98716C176.239 5.44898 175.803 5.0127 175.265 5.0127C174.727 5.0127 174.29 5.44898 174.29 5.98716C174.29 6.52534 174.727 6.96163 175.265 6.96163Z" fill="white"/>
<path d="M207.239 4.68591H202.979C202.896 4.68647 202.816 4.71983 202.757 4.77877C202.698 4.83771 202.665 4.91749 202.664 5.00083C202.663 5.04829 202.674 5.09522 202.697 5.13674C202.723 5.19013 202.762 5.23527 202.812 5.26695C202.862 5.29863 202.92 5.31555 202.979 5.31575H207.239C207.298 5.31605 207.357 5.29937 207.407 5.26767C207.458 5.23597 207.498 5.19056 207.524 5.13674C207.544 5.09436 207.554 5.04783 207.554 5.00083C207.554 4.95946 207.546 4.9185 207.53 4.88028C207.514 4.84206 207.491 4.80733 207.461 4.77808C207.432 4.74884 207.397 4.72564 207.359 4.70983C207.321 4.69401 207.28 4.68589 207.239 4.68591Z" fill="white"/>
<path d="M207.239 5.86926H202.979C202.895 5.86926 202.815 5.90244 202.756 5.9615C202.697 6.02056 202.664 6.10066 202.664 6.18418C202.664 6.2677 202.697 6.3478 202.756 6.40686C202.815 6.46592 202.895 6.4991 202.979 6.4991H207.239C207.322 6.4991 207.402 6.46592 207.461 6.40686C207.52 6.3478 207.554 6.2677 207.554 6.18418C207.554 6.10066 207.52 6.02056 207.461 5.9615C207.402 5.90244 207.322 5.86926 207.239 5.86926Z" fill="white"/>
<path d="M207.239 7.05273H202.979C202.895 7.05273 202.815 7.08592 202.756 7.14498C202.697 7.20403 202.664 7.28413 202.664 7.36765C202.664 7.45117 202.697 7.53128 202.756 7.59033C202.815 7.64939 202.895 7.68258 202.979 7.68258H207.239C207.322 7.68258 207.402 7.64939 207.461 7.59033C207.52 7.53128 207.554 7.45117 207.554 7.36765C207.554 7.28413 207.52 7.20403 207.461 7.14498C207.402 7.08592 207.322 7.05273 207.239 7.05273Z" fill="white"/>
<path d="M192.322 17.7401H183.557C183.117 17.7403 182.696 17.915 182.385 18.2258C182.074 18.5366 181.9 18.958 181.899 19.3976V26.9888C181.9 27.4282 182.075 27.8493 182.386 28.16C182.696 28.4707 183.118 28.6455 183.557 28.6463H192.322C192.761 28.645 193.182 28.4699 193.492 28.1594C193.803 27.8488 193.978 27.428 193.979 26.9888V19.3976C193.978 18.9582 193.803 18.5371 193.493 18.2264C193.182 17.9157 192.761 17.7408 192.322 17.7401Z" fill="#E61C5D"/>
<path d="M203.211 33.6053H172.664C172.464 33.6053 172.273 33.6846 172.132 33.8257C171.991 33.9669 171.911 34.1583 171.911 34.3578C171.911 34.5574 171.991 34.7488 172.132 34.8899C172.273 35.031 172.464 35.1103 172.664 35.1103H203.211C203.411 35.1103 203.602 35.031 203.743 34.8899C203.884 34.7488 203.963 34.5574 203.963 34.3578C203.963 34.1583 203.884 33.9669 203.743 33.8257C203.602 33.6846 203.411 33.6053 203.211 33.6053Z" fill="#E4E4E4"/>
<path d="M184.266 37.1324H172.664C172.464 37.1324 172.273 37.2117 172.132 37.3529C171.991 37.494 171.911 37.6854 171.911 37.8849C171.911 38.0845 171.991 38.2759 172.132 38.417C172.273 38.5582 172.464 38.6374 172.664 38.6374H184.266C184.466 38.6374 184.657 38.5582 184.798 38.417C184.939 38.2759 185.019 38.0845 185.019 37.8849C185.019 37.6854 184.939 37.494 184.798 37.3529C184.657 37.2117 184.466 37.1324 184.266 37.1324Z" fill="#E4E4E4"/>
<path d="M192.322 50.558H183.557C183.117 50.5582 182.696 50.7328 182.385 51.0436C182.074 51.3544 181.9 51.7759 181.899 52.2155V59.8067C181.9 60.246 182.075 60.6672 182.386 60.9779C182.696 61.2885 183.118 61.4634 183.557 61.4641H192.322C192.761 61.4628 193.182 61.2878 193.492 60.9772C193.803 60.6667 193.978 60.2459 193.979 59.8067V52.2155C193.978 51.7761 193.803 51.3549 193.493 51.0442C193.182 50.7336 192.761 50.5587 192.322 50.558Z" fill="#E61C5D"/>
<path d="M203.211 66.4232H172.664C172.464 66.4232 172.273 66.5025 172.132 66.6436C171.991 66.7847 171.911 66.9761 171.911 67.1757C171.911 67.3753 171.991 67.5667 172.132 67.7078C172.273 67.8489 172.464 67.9282 172.664 67.9282H203.211C203.411 67.9282 203.602 67.8489 203.743 67.7078C203.884 67.5667 203.963 67.3753 203.963 67.1757C203.963 66.9761 203.884 66.7847 203.743 66.6436C203.602 66.5025 203.411 66.4232 203.211 66.4232Z" fill="#E4E4E4"/>
<path d="M184.266 69.9503H172.664C172.464 69.9503 172.273 70.0296 172.132 70.1707C171.991 70.3118 171.911 70.5032 171.911 70.7028C171.911 70.9024 171.991 71.0938 172.132 71.2349C172.273 71.376 172.464 71.4553 172.664 71.4553H184.266C184.466 71.4553 184.657 71.376 184.798 71.2349C184.939 71.0938 185.019 70.9024 185.019 70.7028C185.019 70.5032 184.939 70.3118 184.798 70.1707C184.657 70.0296 184.466 69.9503 184.266 69.9503Z" fill="#E4E4E4"/>
<path d="M192.322 83.3757H183.557C183.117 83.3759 182.696 83.5506 182.385 83.8614C182.074 84.1722 181.9 84.5937 181.899 85.0332V92.6244C181.9 93.0638 182.075 93.4849 182.386 93.7956C182.696 94.1063 183.118 94.2811 183.557 94.2819H192.322C192.761 94.2806 193.182 94.1055 193.492 93.795C193.803 93.4844 193.978 93.0636 193.979 92.6244V85.0332C193.978 84.5938 193.803 84.1727 193.493 83.862C193.182 83.5513 192.761 83.3765 192.322 83.3757Z" fill="#E61C5D"/>
<path d="M203.211 99.2411H172.664C172.464 99.2411 172.273 99.3204 172.132 99.4615C171.991 99.6026 171.911 99.794 171.911 99.9936C171.911 100.193 171.991 100.385 172.132 100.526C172.273 100.667 172.464 100.746 172.664 100.746H203.211C203.411 100.746 203.602 100.667 203.743 100.526C203.884 100.385 203.963 100.193 203.963 99.9936C203.963 99.794 203.884 99.6026 203.743 99.4615C203.602 99.3204 203.411 99.2411 203.211 99.2411Z" fill="#E4E4E4"/>
<path d="M184.266 102.768H172.664C172.464 102.768 172.273 102.847 172.132 102.989C171.991 103.13 171.911 103.321 171.911 103.521C171.911 103.72 171.991 103.912 172.132 104.053C172.273 104.194 172.464 104.273 172.664 104.273H184.266C184.466 104.273 184.657 104.194 184.798 104.053C184.939 103.912 185.019 103.72 185.019 103.521C185.019 103.321 184.939 103.13 184.798 102.989C184.657 102.847 184.466 102.768 184.266 102.768Z" fill="#E4E4E4"/>
<path d="M150.885 1.18192C150.884 1.00005 150.812 0.825719 150.683 0.697109C150.555 0.568499 150.381 0.496085 150.199 0.495728H27.6621C27.4802 0.496079 27.3059 0.568482 27.1773 0.697089C27.0486 0.825696 26.9762 1.00003 26.9758 1.18192V5.21951C26.9753 5.38761 27.038 5.54976 27.1516 5.67366C27.0422 8.41511 26.9758 12.0284 26.9758 15.9864V107.117C26.9758 115.663 27.2842 122.611 27.6621 122.611H150.199C150.577 122.611 150.885 115.663 150.885 107.117V15.9864C150.885 12.0284 150.819 8.41511 150.709 5.67366C150.823 5.54974 150.885 5.38759 150.885 5.21951V1.18192Z" fill="white"/>
<path d="M150.199 122.943H27.6621C27.2875 122.943 27.0614 122.943 26.846 118.084C26.7159 115.148 26.6443 111.254 26.6443 107.117V15.9865C26.6443 12.1719 26.7068 8.50474 26.8204 5.6605C27.0383 0.164311 27.2864 0.164307 27.6621 0.164307H150.199C150.574 0.164307 150.822 0.165282 151.04 5.6605C151.154 8.50215 151.216 12.1693 151.216 15.9865V107.117C151.216 111.254 151.145 115.149 151.015 118.084C150.799 122.943 150.573 122.943 150.199 122.943ZM27.8556 122.28H150.005C150.276 121.241 150.553 115.405 150.553 107.117V15.9865C150.553 12.1779 150.491 8.51995 150.378 5.68704V5.68688C150.24 2.20507 150.079 1.14551 150.002 0.827294H27.8592C27.7821 1.14553 27.6209 2.20507 27.4828 5.68688C27.3696 8.52271 27.3073 12.1805 27.3073 15.9865V107.117C27.3073 115.405 27.5843 121.24 27.8556 122.28Z" fill="#E4E4E4"/>
<path d="M150.199 0.495728H27.6621C27.4802 0.496079 27.3059 0.568482 27.1773 0.697089C27.0486 0.825696 26.9762 1.00003 26.9758 1.18192V5.21951C26.9753 5.38761 27.038 5.54976 27.1516 5.67366C27.2153 5.74641 27.2938 5.80474 27.3818 5.84476C27.4699 5.88477 27.5654 5.90555 27.6621 5.9057H150.199C150.295 5.90555 150.391 5.88477 150.479 5.84476C150.567 5.80474 150.645 5.74641 150.709 5.67366C150.823 5.54974 150.885 5.38759 150.885 5.21951V1.18192C150.884 1.00005 150.812 0.825729 150.683 0.697119C150.555 0.56851 150.381 0.496092 150.199 0.495728Z" fill="#CACACA"/>
<path d="M30.9603 3.9781C31.4985 3.9781 31.9348 3.54182 31.9348 3.00364C31.9348 2.46546 31.4985 2.02917 30.9603 2.02917C30.4221 2.02917 29.9858 2.46546 29.9858 3.00364C29.9858 3.54182 30.4221 3.9781 30.9603 3.9781Z" fill="white"/>
<path d="M34.659 3.9781C35.1972 3.9781 35.6335 3.54182 35.6335 3.00364C35.6335 2.46546 35.1972 2.02917 34.659 2.02917C34.1209 2.02917 33.6846 2.46546 33.6846 3.00364C33.6846 3.54182 34.1209 3.9781 34.659 3.9781Z" fill="white"/>
<path d="M38.358 3.9781C38.8962 3.9781 39.3325 3.54182 39.3325 3.00364C39.3325 2.46546 38.8962 2.02917 38.358 2.02917C37.8198 2.02917 37.3835 2.46546 37.3835 3.00364C37.3835 3.54182 37.8198 3.9781 38.358 3.9781Z" fill="white"/>
<path d="M146.575 1.70239H142.316C142.232 1.70239 142.152 1.73557 142.093 1.79463C142.034 1.85369 142.001 1.93379 142.001 2.01731C142.001 2.10083 142.034 2.18093 142.093 2.23999C142.152 2.29905 142.232 2.33223 142.316 2.33223H146.575C146.659 2.33223 146.739 2.29905 146.798 2.23999C146.857 2.18093 146.89 2.10083 146.89 2.01731C146.89 1.93379 146.857 1.85369 146.798 1.79463C146.739 1.73557 146.659 1.70239 146.575 1.70239Z" fill="white"/>
<path d="M146.575 2.88586H142.316C142.232 2.88586 142.152 2.91904 142.093 2.9781C142.034 3.03716 142.001 3.11726 142.001 3.20078C142.001 3.2843 142.034 3.36441 142.093 3.42346C142.152 3.48252 142.232 3.5157 142.316 3.5157H146.575C146.659 3.5157 146.739 3.48252 146.798 3.42346C146.857 3.36441 146.89 3.2843 146.89 3.20078C146.89 3.11726 146.857 3.03716 146.798 2.9781C146.739 2.91904 146.659 2.88586 146.575 2.88586Z" fill="white"/>
<path d="M146.575 4.06934H142.316C142.232 4.06934 142.152 4.10252 142.093 4.16158C142.034 4.22064 142.001 4.30073 142.001 4.38425C142.001 4.46778 142.034 4.54788 142.093 4.60694C142.152 4.66599 142.232 4.69918 142.316 4.69918H146.575C146.659 4.69918 146.739 4.66599 146.798 4.60694C146.857 4.54788 146.89 4.46778 146.89 4.38425C146.89 4.30073 146.857 4.22064 146.798 4.16158C146.739 4.10252 146.659 4.06934 146.575 4.06934Z" fill="white"/>
<path d="M67.269 20.7235H52.9286C52.2097 20.7244 51.5205 21.0104 51.0122 21.5187C50.5038 22.027 50.2179 22.7163 50.217 23.4351V35.8562C50.2179 36.5751 50.5038 37.2643 51.0122 37.7726C51.5205 38.281 52.2097 38.5669 52.9286 38.5678H67.269C67.9879 38.5669 68.6771 38.281 69.1854 37.7726C69.6938 37.2643 69.9797 36.5751 69.9806 35.8562V23.4351C69.9797 22.7163 69.6938 22.027 69.1854 21.5187C68.6771 21.0104 67.9879 20.7244 67.269 20.7235Z" fill="#E61C5D"/>
<path d="M126.417 25.5269H76.4346C76.108 25.5269 75.7948 25.6566 75.5638 25.8876C75.3329 26.1185 75.2031 26.4317 75.2031 26.7584C75.2031 27.085 75.3329 27.3982 75.5638 27.6292C75.7948 27.8601 76.108 27.9899 76.4346 27.9899H126.417C126.744 27.9899 127.057 27.8601 127.288 27.6292C127.519 27.3982 127.649 27.085 127.649 26.7584C127.649 26.4317 127.519 26.1185 127.288 25.8876C127.057 25.6566 126.744 25.5269 126.417 25.5269Z" fill="#E4E4E4"/>
<path d="M95.4193 31.2981H76.4346C76.108 31.2981 75.7948 31.4278 75.5638 31.6588C75.3329 31.8897 75.2031 32.203 75.2031 32.5296C75.2031 32.8562 75.3329 33.1694 75.5638 33.4004C75.7948 33.6313 76.108 33.7611 76.4346 33.7611H95.4193C95.7459 33.7611 96.0591 33.6313 96.29 33.4004C96.521 33.1694 96.6508 32.8562 96.6508 32.5296C96.6508 32.203 96.521 31.8897 96.29 31.6588C96.0591 31.4278 95.7459 31.2981 95.4193 31.2981Z" fill="#E4E4E4"/>
<path d="M67.269 53.8728H52.9286C52.2097 53.8737 51.5205 54.1597 51.0122 54.668C50.5038 55.1763 50.2179 55.8655 50.217 56.5844V69.0055C50.2179 69.7244 50.5038 70.4136 51.0122 70.9219C51.5205 71.4302 52.2097 71.7162 52.9286 71.7171H67.269C67.9879 71.7162 68.6771 71.4302 69.1854 70.9219C69.6938 70.4136 69.9797 69.7244 69.9806 69.0055V56.5844C69.9797 55.8655 69.6938 55.1763 69.1854 54.668C68.6771 54.1597 67.9879 53.8737 67.269 53.8728Z" fill="#E61C5D"/>
<path d="M126.417 58.6763H76.4346C76.108 58.6763 75.7948 58.806 75.5638 59.037C75.3329 59.2679 75.2031 59.5812 75.2031 59.9078C75.2031 60.2344 75.3329 60.5476 75.5638 60.7786C75.7948 61.0095 76.108 61.1393 76.4346 61.1393H126.417C126.744 61.1393 127.057 61.0095 127.288 60.7786C127.519 60.5476 127.649 60.2344 127.649 59.9078C127.649 59.5812 127.519 59.2679 127.288 59.037C127.057 58.806 126.744 58.6763 126.417 58.6763Z" fill="#E4E4E4"/>
<path d="M95.4193 64.4475H76.4346C76.108 64.4475 75.7948 64.5773 75.5638 64.8082C75.3329 65.0392 75.2031 65.3524 75.2031 65.679C75.2031 66.0056 75.3329 66.3189 75.5638 66.5498C75.7948 66.7808 76.108 66.9105 76.4346 66.9105H95.4193C95.7459 66.9105 96.0591 66.7808 96.29 66.5498C96.521 66.3189 96.6508 66.0056 96.6508 65.679C96.6508 65.3524 96.521 65.0392 96.29 64.8082C96.0591 64.5773 95.7459 64.4475 95.4193 64.4475Z" fill="#E4E4E4"/>
<path d="M67.269 87.0222H52.9286C52.2097 87.0231 51.5205 87.3091 51.0122 87.8174C50.5038 88.3258 50.2179 89.015 50.217 89.7338V102.155C50.2179 102.874 50.5038 103.563 51.0122 104.071C51.5205 104.58 52.2097 104.866 52.9286 104.867H67.269C67.9879 104.866 68.6771 104.58 69.1854 104.071C69.6938 103.563 69.9797 102.874 69.9806 102.155V89.7338C69.9797 89.015 69.6938 88.3258 69.1854 87.8174C68.6771 87.3091 67.9879 87.0231 67.269 87.0222Z" fill="#E61C5D"/>
<path d="M126.417 91.8256H76.4346C76.108 91.8256 75.7948 91.9553 75.5638 92.1863C75.3329 92.4172 75.2031 92.7304 75.2031 93.057C75.2031 93.3837 75.3329 93.6969 75.5638 93.9279C75.7948 94.1588 76.108 94.2886 76.4346 94.2886H126.417C126.744 94.2886 127.057 94.1588 127.288 93.9279C127.519 93.6969 127.649 93.3837 127.649 93.057C127.649 92.7304 127.519 92.4172 127.288 92.1863C127.057 91.9553 126.744 91.8256 126.417 91.8256Z" fill="#E4E4E4"/>
<path d="M95.4193 97.5968H76.4346C76.108 97.5968 75.7948 97.7265 75.5638 97.9575C75.3329 98.1884 75.2031 98.5017 75.2031 98.8283C75.2031 99.1549 75.3329 99.4682 75.5638 99.6991C75.7948 99.9301 76.108 100.06 76.4346 100.06H95.4193C95.7459 100.06 96.0591 99.9301 96.29 99.6991C96.521 99.4682 96.6508 99.1549 96.6508 98.8283C96.6508 98.5017 96.521 98.1884 96.29 97.9575C96.0591 97.7265 95.7459 97.5968 95.4193 97.5968Z" fill="#E4E4E4"/>
<path d="M172.078 144.49H89.9842C89.6057 144.49 89.2979 138.672 89.2979 131.521V55.2328C89.2979 48.0812 89.6057 42.2637 89.9842 42.2637H172.078C172.457 42.2637 172.765 48.0812 172.765 55.2328V131.521C172.765 138.672 172.457 144.49 172.078 144.49Z" fill="white"/>
<path d="M172.078 144.821H89.9842C89.6369 144.821 89.3859 144.821 89.1681 140.705C89.0379 138.247 88.9663 134.985 88.9663 131.521V55.2328C88.9663 51.7685 89.0379 48.5068 89.1681 46.0489C89.3859 41.9321 89.6369 41.9321 89.9842 41.9321H172.078C172.425 41.9321 172.676 41.9321 172.894 46.0489C173.024 48.5068 173.096 51.7685 173.096 55.2328V131.521C173.096 134.985 173.024 138.247 172.894 140.705C172.676 144.821 172.425 144.821 172.078 144.821ZM90.1676 144.158H171.895C172.133 143.3 172.433 138.724 172.433 131.521V55.2328C172.433 48.0296 172.133 43.454 171.895 42.5951H90.1676C89.9297 43.454 89.6293 48.0296 89.6293 55.2328V131.521C89.6293 138.724 89.9297 143.3 90.1676 144.158Z" fill="#E4E4E4"/>
<path d="M172.078 47.6738H89.9842C89.8022 47.6736 89.6278 47.6012 89.4991 47.4725C89.3704 47.3439 89.2981 47.1694 89.2979 46.9874V42.95C89.2981 42.7681 89.3704 42.5936 89.4991 42.4649C89.6278 42.3363 89.8022 42.2639 89.9842 42.2637H172.078C172.26 42.2639 172.435 42.3363 172.563 42.4649C172.692 42.5936 172.764 42.7681 172.765 42.95V46.9874C172.764 47.1694 172.692 47.3439 172.563 47.4725C172.435 47.6012 172.26 47.6736 172.078 47.6738Z" fill="#CACACA"/>
<path d="M93.2811 45.7463C93.8193 45.7463 94.2556 45.31 94.2556 44.7718C94.2556 44.2336 93.8193 43.7974 93.2811 43.7974C92.7429 43.7974 92.3066 44.2336 92.3066 44.7718C92.3066 45.31 92.7429 45.7463 93.2811 45.7463Z" fill="white"/>
<path d="M96.9798 45.7463C97.518 45.7463 97.9543 45.31 97.9543 44.7718C97.9543 44.2336 97.518 43.7974 96.9798 43.7974C96.4416 43.7974 96.0054 44.2336 96.0054 44.7718C96.0054 45.31 96.4416 45.7463 96.9798 45.7463Z" fill="white"/>
<path d="M100.679 45.7463C101.217 45.7463 101.653 45.31 101.653 44.7718C101.653 44.2336 101.217 43.7974 100.679 43.7974C100.141 43.7974 99.7043 44.2336 99.7043 44.7718C99.7043 45.31 100.141 45.7463 100.679 45.7463Z" fill="white"/>
<path d="M168.454 44.1011H164.195C164.111 44.1011 164.031 44.0678 163.972 44.0087C163.913 43.9495 163.879 43.8693 163.879 43.7856C163.879 43.7019 163.913 43.6217 163.972 43.5625C164.031 43.5033 164.111 43.4701 164.195 43.4701H168.454C168.538 43.4704 168.618 43.5037 168.677 43.5629C168.736 43.622 168.769 43.7021 168.769 43.7856C168.769 43.8691 168.736 43.9492 168.677 44.0083C168.618 44.0675 168.538 44.1008 168.454 44.1011Z" fill="white"/>
<path d="M168.454 45.2843H164.195C164.111 45.2843 164.031 45.2511 163.972 45.1919C163.913 45.1327 163.879 45.0525 163.879 44.9688C163.879 44.8851 163.913 44.8049 163.972 44.7457C164.031 44.6866 164.111 44.6533 164.195 44.6533H168.454C168.538 44.6533 168.618 44.6866 168.677 44.7457C168.736 44.8049 168.77 44.8851 168.77 44.9688C168.77 45.0525 168.736 45.1327 168.677 45.1919C168.618 45.2511 168.538 45.2843 168.454 45.2843Z" fill="white"/>
<path d="M168.454 46.4674H164.195C164.111 46.4674 164.031 46.4342 163.972 46.375C163.913 46.3158 163.879 46.2356 163.879 46.1519C163.879 46.0682 163.913 45.988 163.972 45.9288C164.031 45.8697 164.111 45.8364 164.195 45.8364H168.454C168.538 45.8367 168.618 45.8701 168.677 45.9292C168.736 45.9883 168.769 46.0684 168.769 46.1519C168.769 46.2354 168.736 46.3155 168.677 46.3747C168.618 46.4338 168.538 46.4672 168.454 46.4674Z" fill="white"/>
<path d="M115.211 72.7337H104.738C104.213 72.7331 103.709 72.5242 103.338 72.1529C102.967 71.7816 102.758 71.2782 102.757 70.7532V61.6824C102.758 61.1573 102.967 60.6539 103.338 60.2827C103.709 59.9114 104.213 59.7025 104.738 59.7019H115.211C115.736 59.7025 116.239 59.9114 116.611 60.2827C116.982 60.6539 117.191 61.1573 117.191 61.6824V70.7531C117.191 71.2782 116.982 71.7816 116.611 72.1529C116.239 72.5242 115.736 72.7331 115.211 72.7337Z" fill="#E61C5D"/>
<path d="M158.406 65.0098H121.905C121.667 65.0098 121.438 64.915 121.269 64.7464C121.101 64.5778 121.006 64.3491 121.006 64.1106C121.006 63.8721 121.101 63.6434 121.269 63.4748C121.438 63.3062 121.667 63.2114 121.905 63.2114H158.406C158.644 63.2114 158.873 63.3062 159.042 63.4748C159.21 63.6434 159.305 63.8721 159.305 64.1106C159.305 64.3491 159.21 64.5778 159.042 64.7464C158.873 64.915 158.644 65.0098 158.406 65.0098Z" fill="#E4E4E4"/>
<path d="M135.769 69.2242H121.905C121.667 69.2242 121.438 69.1295 121.269 68.9609C121.101 68.7922 121.006 68.5635 121.006 68.3251C121.006 68.0866 121.101 67.8579 121.269 67.6893C121.438 67.5206 121.667 67.4259 121.905 67.4259H135.769C135.887 67.4257 136.004 67.4488 136.113 67.4939C136.223 67.5389 136.322 67.6051 136.406 67.6887C136.489 67.7722 136.556 67.8714 136.601 67.9806C136.646 68.0898 136.67 68.2068 136.67 68.3251C136.67 68.4433 136.646 68.5604 136.601 68.6696C136.556 68.7788 136.489 68.878 136.406 68.9615C136.322 69.045 136.223 69.1112 136.113 69.1563C136.004 69.2014 135.887 69.2245 135.769 69.2242Z" fill="#E4E4E4"/>
<path d="M115.211 99.5847H104.738C104.213 99.5841 103.709 99.3753 103.338 99.004C102.967 98.6327 102.758 98.1293 102.757 97.6042V88.5335C102.758 88.0084 102.967 87.505 103.338 87.1337C103.709 86.7624 104.213 86.5536 104.738 86.553H115.211C115.736 86.5536 116.239 86.7624 116.611 87.1337C116.982 87.505 117.191 88.0084 117.191 88.5335V97.6042C117.191 98.1293 116.982 98.6327 116.611 99.004C116.239 99.3753 115.736 99.5841 115.211 99.5847Z" fill="#E61C5D"/>
<path d="M158.406 91.8607H121.905C121.667 91.8607 121.438 91.766 121.269 91.5973C121.101 91.4287 121.006 91.2 121.006 90.9615C121.006 90.7231 121.101 90.4944 121.269 90.3257C121.438 90.1571 121.667 90.0624 121.905 90.0624H158.406C158.644 90.0624 158.873 90.1571 159.042 90.3257C159.21 90.4944 159.305 90.7231 159.305 90.9615C159.305 91.2 159.21 91.4287 159.042 91.5973C158.873 91.766 158.644 91.8607 158.406 91.8607Z" fill="#E4E4E4"/>
<path d="M135.769 96.0753H121.905C121.667 96.0753 121.438 95.9806 121.269 95.8119C121.101 95.6433 121.006 95.4146 121.006 95.1761C121.006 94.9377 121.101 94.709 121.269 94.5403C121.438 94.3717 121.667 94.277 121.905 94.277H135.769C135.887 94.2768 136.004 94.2998 136.113 94.3449C136.223 94.39 136.322 94.4562 136.406 94.5397C136.489 94.6232 136.556 94.7224 136.601 94.8316C136.646 94.9408 136.67 95.0579 136.67 95.1761C136.67 95.2944 136.646 95.4114 136.601 95.5206C136.556 95.6298 136.489 95.729 136.406 95.8125C136.322 95.8961 136.223 95.9623 136.113 96.0073C136.004 96.0524 135.887 96.0755 135.769 96.0753Z" fill="#E4E4E4"/>
<path d="M115.211 126.436H104.738C104.213 126.435 103.709 126.226 103.338 125.855C102.967 125.484 102.758 124.98 102.757 124.455V115.384C102.758 114.859 102.967 114.356 103.338 113.985C103.709 113.613 104.213 113.405 104.738 113.404H115.211C115.736 113.405 116.239 113.613 116.611 113.985C116.982 114.356 117.191 114.859 117.191 115.384V124.455C117.191 124.98 116.982 125.484 116.611 125.855C116.239 126.226 115.736 126.435 115.211 126.436Z" fill="#E61C5D"/>
<path d="M158.406 118.712H121.905C121.667 118.712 121.438 118.617 121.269 118.448C121.101 118.28 121.006 118.051 121.006 117.812C121.006 117.574 121.101 117.345 121.269 117.177C121.438 117.008 121.667 116.913 121.905 116.913H158.406C158.644 116.913 158.873 117.008 159.042 117.177C159.21 117.345 159.305 117.574 159.305 117.812C159.305 118.051 159.21 118.28 159.042 118.448C158.873 118.617 158.644 118.712 158.406 118.712Z" fill="#E4E4E4"/>
<path d="M135.769 122.926H121.905C121.667 122.926 121.438 122.832 121.269 122.663C121.101 122.494 121.006 122.266 121.006 122.027C121.006 121.789 121.101 121.56 121.269 121.391C121.438 121.223 121.667 121.128 121.905 121.128H135.769C135.887 121.128 136.004 121.151 136.113 121.196C136.223 121.241 136.322 121.307 136.406 121.391C136.489 121.474 136.556 121.573 136.601 121.683C136.646 121.792 136.67 121.909 136.67 122.027C136.67 122.145 136.646 122.262 136.601 122.372C136.556 122.481 136.489 122.58 136.406 122.663C136.322 122.747 136.223 122.813 136.113 122.858C136.004 122.903 135.887 122.926 135.769 122.926Z" fill="#E4E4E4"/>
</g>
<defs>
<clipPath id="clip0_111_702">
<rect width="242.541" height="144.657" fill="white" transform="translate(0.277588 0.164307)"/>
</clipPath>
</defs>
</svg>
