<svg width="177" height="145" viewBox="0 0 177 145" fill="none" xmlns="http://www.w3.org/2000/svg">
<g clip-path="url(#clip0_111_701)">
<path d="M44.0927 132.066L44.4515 139.629L44.4515 139.629C44.512 140.908 44.0623 142.158 43.2013 143.104C42.3402 144.051 41.1384 144.617 39.8601 144.678L39.7034 144.685L39.116 132.302L44.0927 132.066Z" fill="#2F2E41"/>
<path d="M151.625 119.284C148.023 126.314 143.453 133.113 137.672 139.266C137.544 139.405 137.414 139.54 137.283 139.678L123.586 133.194C123.67 133.055 123.762 132.898 123.861 132.727C129.745 122.66 165.262 61.2516 164.139 47.3433C164.27 48.4904 168.48 86.4257 151.625 119.284Z" fill="#E6E6E6"/>
<path d="M140.315 140.517C140.123 140.626 139.926 140.733 139.729 140.836L129.453 135.971C129.597 135.869 129.764 135.749 129.957 135.613C133.105 133.353 142.465 126.572 151.625 119.284C161.468 111.452 171.08 103.037 172.508 99.0205C172.218 99.9416 163.208 127.94 140.315 140.517Z" fill="#E6E6E6"/>
<path d="M17.6409 144.383C26.3987 144.383 33.4984 137.283 33.4984 128.526C33.4984 119.768 26.3987 112.668 17.6409 112.668C8.88307 112.668 1.78345 119.768 1.78345 128.526C1.78345 137.283 8.88307 144.383 17.6409 144.383Z" fill="#E61C5D"/>
<path d="M23.9929 121.871H11.289C10.7276 121.872 10.1894 122.095 9.79248 122.492C9.39554 122.889 9.17227 123.427 9.17163 123.989V133.063C9.17226 133.624 9.39554 134.162 9.79248 134.559C10.1894 134.956 10.7276 135.179 11.289 135.18H23.9929C24.5543 135.179 25.0925 134.956 25.4894 134.559C25.8863 134.162 26.1096 133.624 26.1102 133.063V123.989C26.1096 123.427 25.8863 122.889 25.4894 122.492C25.0924 122.095 24.5543 121.872 23.9929 121.871ZM23.9929 123.081C24.0687 123.081 24.1442 123.091 24.2176 123.11L17.6424 128.356L11.1056 123.1C11.1659 123.087 11.2274 123.081 11.2889 123.081H23.9929ZM23.9929 133.97H11.289C11.0484 133.97 10.8177 133.874 10.6476 133.704C10.4775 133.534 10.3818 133.303 10.3815 133.063V124.07L17.2619 129.602C17.369 129.688 17.5023 129.735 17.6398 129.736C17.7773 129.736 17.9107 129.689 18.0182 129.604L24.9003 124.113V133.063C24.9001 133.303 24.8044 133.534 24.6343 133.704C24.4641 133.874 24.2335 133.97 23.9929 133.97Z" fill="white"/>
<path d="M78.8384 105.631L82.3865 105.661C82.7455 105.664 83.1009 105.588 83.4277 105.44C83.7546 105.291 84.0452 105.073 84.2792 104.801C84.5132 104.529 84.6849 104.209 84.7825 103.863C84.8801 103.517 84.9011 103.155 84.8441 102.8C84.7828 102.419 84.6327 102.057 84.4061 101.744C84.1794 101.431 83.8824 101.176 83.5391 100.999C83.1957 100.821 82.8155 100.727 82.4291 100.724C82.0428 100.72 81.6609 100.807 81.3144 100.978L77.9684 102.63L66.524 105.182L61.621 100.169L58.8047 104.807L65.4208 109.919L78.8384 105.631Z" fill="#FFB8B8"/>
<path d="M78.1735 142.29L73.9932 143.094C71.1378 134.093 68.044 125.569 68.0442 118.976C64.0033 123.474 58.9923 126.047 53.0916 126.855L53.7347 116.886L58.5581 114.314L65.9404 110.907C66.5867 110.608 67.284 110.436 67.9949 110.398C69.3769 110.326 70.737 110.767 71.8134 111.637C72.8897 112.507 73.6062 113.744 73.8248 115.111L78.1735 142.29Z" fill="#2F2E41"/>
<path d="M58.1561 125.649L56.4899 126.915C55.7735 127.46 54.9271 127.807 54.0348 127.924C53.1425 128.04 52.2353 127.921 51.4032 127.578C46.6311 124.001 43.2407 125.057 40.1679 130.456C36.4823 126.296 35.5729 120.288 38.8623 114.073L57.111 114.475L60.809 113.349L58.1561 125.649Z" fill="#2F2E41"/>
<path d="M52.0788 144.277C51.0331 144.599 49.9076 144.542 48.8994 144.118C47.8912 143.693 47.0646 142.927 46.5644 141.954C44.9244 140.509 43.5407 138.441 42.3405 135.926C41.4794 134.081 40.74 132.182 40.127 130.241C39.2965 127.676 40.6851 124.874 43.2697 124.106C43.3465 124.084 43.4243 124.062 43.5031 124.042C46.9533 123.156 50.4964 125.146 51.6758 128.507L55.1052 138.281C55.3078 138.858 55.3947 139.47 55.3609 140.081C55.3271 140.692 55.1733 141.29 54.9083 141.842C54.6433 142.393 54.2722 142.887 53.8163 143.295C53.3604 143.704 52.8286 144.018 52.2512 144.22C52.1941 144.24 52.1367 144.259 52.0788 144.277Z" fill="#2F2E41"/>
<path opacity="0.2" d="M41.7563 134.813C41.7563 134.813 45.7759 139.315 46.5798 141.888L41.7563 134.813Z" fill="black"/>
<path d="M26.167 113.567L24.8217 116.851C24.6856 117.183 24.6236 117.541 24.64 117.899C24.6565 118.258 24.7509 118.609 24.9168 118.927C25.0827 119.246 25.3161 119.524 25.6006 119.743C25.8852 119.962 26.214 120.116 26.5643 120.195C26.9413 120.28 27.3329 120.275 27.7077 120.181C28.0824 120.086 28.4298 119.906 28.7219 119.653C29.0141 119.4 29.2427 119.082 29.3895 118.724C29.5363 118.367 29.5971 117.98 29.5671 117.595L29.2773 113.875L31.1595 102.301L37.635 99.6116L34.3748 95.2736L27.171 99.5172L26.167 113.567Z" fill="#FFB8B8"/>
<path d="M58.3169 114.072C53.6972 121.832 44.4878 124.837 36.6 118.761C37.9876 114.202 42.4674 101.602 39.5733 101.119C33.4285 103.696 33.4196 97.6459 32.2703 94.6179L46.2583 89.4729L53.815 91.5631L55.364 92.1127C56.3721 92.4704 57.2465 93.1283 57.8696 93.9978C58.4927 94.8673 58.8345 95.9068 58.8492 96.9764C55.6749 101.562 53.325 106.454 58.3169 114.072Z" fill="#E61C5D"/>
<path d="M60.0855 107.802L54.5386 103.22L56.3876 92.5278L63.9443 100.567L60.0855 107.802Z" fill="#E61C5D"/>
<path d="M152.127 34.351H151.334V12.6372C151.334 9.30424 150.01 6.10777 147.653 3.75099C145.296 1.39421 142.1 0.0701904 138.767 0.0701904H92.7631C89.4301 0.0701904 86.2336 1.39421 83.8768 3.75099C81.5201 6.10777 80.196 9.30424 80.196 12.6372V131.761C80.196 135.094 81.5201 138.291 83.8768 140.647C86.2336 143.004 89.4301 144.328 92.7631 144.328H138.767C142.1 144.328 145.296 143.004 147.653 140.647C150.01 138.291 151.334 135.094 151.334 131.761V49.8073H152.127L152.127 34.351Z" fill="#3F3D56"/>
<path d="M139.274 3.33936H133.269C133.545 4.01645 133.651 4.75111 133.576 5.47859C133.502 6.20608 133.249 6.90406 132.842 7.51103C132.434 8.11801 131.883 8.61534 131.237 8.95922C130.592 9.30309 129.872 9.48295 129.141 9.48293H102.786C102.055 9.48287 101.335 9.30299 100.689 8.95914C100.044 8.61528 99.4931 8.11801 99.0852 7.51112C98.6774 6.90423 98.425 6.20635 98.3504 5.47896C98.2758 4.75157 98.3812 4.017 98.6574 3.33996H93.0478C90.5587 3.33996 88.1715 4.32876 86.4115 6.08883C84.6514 7.8489 83.6626 10.2361 83.6626 12.7252V131.674C83.6626 134.163 84.6514 136.55 86.4115 138.31C88.1715 140.07 90.5587 141.059 93.0478 141.059H139.272C141.761 141.059 144.149 140.07 145.909 138.31C147.669 136.55 148.658 134.163 148.658 131.674V131.674V12.7246C148.658 10.2355 147.669 7.8483 145.909 6.08823C144.149 4.32815 141.761 3.33936 139.272 3.33936H139.274L139.274 3.33936Z" fill="white"/>
<path d="M116.24 134.412C119.087 134.412 121.394 132.104 121.394 129.258C121.394 126.412 119.087 124.104 116.24 124.104C113.394 124.104 111.087 126.412 111.087 129.258C111.087 132.104 113.394 134.412 116.24 134.412Z" fill="#E6E6E6"/>
<path d="M95.333 81.5969C94.8459 81.5969 94.4495 82.0494 94.4495 82.6054C94.4495 83.1615 94.8459 83.6139 95.333 83.6139H136.987C137.474 83.6139 137.871 83.1615 137.871 82.6054C137.871 82.0494 137.474 81.5969 136.987 81.5969H95.333Z" fill="#E6E6E6"/>
<path d="M95.333 105.383C94.8459 105.383 94.4495 105.836 94.4495 106.392C94.4495 106.948 94.8459 107.4 95.333 107.4H136.987C137.474 107.4 137.871 106.948 137.871 106.392C137.871 105.836 137.474 105.383 136.987 105.383H95.333Z" fill="#E6E6E6"/>
<path d="M95.333 87.6481C94.8459 87.6481 94.4495 88.1005 94.4495 88.6566C94.4495 89.2126 94.8459 89.6651 95.333 89.6651H113.257C113.744 89.6651 114.14 89.2126 114.14 88.6566C114.14 88.1005 113.744 87.6481 113.257 87.6481H95.333Z" fill="#E6E6E6"/>
<path d="M95.333 93.4159C94.8459 93.4159 94.4495 93.8684 94.4495 94.4244C94.4495 94.9804 94.8459 95.4329 95.333 95.4329H136.987C137.474 95.4329 137.871 94.9804 137.871 94.4244C137.871 93.8684 137.474 93.4159 136.987 93.4159H95.333Z" fill="#E6E6E6"/>
<path d="M95.333 99.4669C94.8459 99.4669 94.4495 99.9194 94.4495 100.475C94.4495 101.031 94.8459 101.484 95.333 101.484H113.257C113.744 101.484 114.14 101.031 114.14 100.475C114.14 99.9194 113.744 99.4669 113.257 99.4669H95.333Z" fill="#E6E6E6"/>
<path d="M103.197 35.6755H129.126C129.413 35.6759 129.687 35.7898 129.89 35.9924C130.092 36.1949 130.206 36.4695 130.207 36.7559V63.7606C130.206 64.047 130.092 64.3216 129.89 64.5241C129.687 64.7267 129.413 64.8406 129.126 64.841H103.197C102.91 64.8406 102.636 64.7267 102.433 64.5241C102.23 64.3216 102.117 64.047 102.116 63.7606V36.7559C102.117 36.4695 102.23 36.1949 102.433 35.9923C102.636 35.7898 102.91 35.6759 103.197 35.6755Z" fill="#E61C5D"/>
<path d="M123.601 59.2722C123.697 59.2724 123.793 59.2535 123.882 59.2168C123.971 59.18 124.052 59.1261 124.121 59.058C124.189 58.9899 124.243 58.909 124.28 58.82C124.317 58.7309 124.336 58.6354 124.336 58.539C124.336 58.4426 124.317 58.3471 124.28 58.258C124.243 58.169 124.189 58.088 124.121 58.0199C124.053 57.9517 123.972 57.8977 123.883 57.8608C123.794 57.824 123.698 57.8051 123.602 57.8052H108.722C108.625 57.805 108.53 57.8238 108.44 57.8605C108.351 57.8973 108.27 57.9513 108.202 58.0194C108.134 58.0874 108.08 58.1683 108.043 58.2574C108.006 58.3464 107.987 58.4419 107.987 58.5383C107.987 58.6347 108.005 58.7302 108.042 58.8193C108.079 58.9084 108.133 58.9893 108.202 59.0575C108.27 59.1256 108.351 59.1797 108.44 59.2165C108.529 59.2534 108.624 59.2723 108.721 59.2722H123.601Z" fill="white"/>
<path d="M123.601 54.9505C123.796 54.9505 123.982 54.8732 124.12 54.7357C124.257 54.5981 124.335 54.4115 124.335 54.217C124.335 54.0225 124.257 53.8359 124.12 53.6984C123.982 53.5608 123.796 53.4835 123.601 53.4835H108.722C108.527 53.4834 108.341 53.5606 108.203 53.6981C108.065 53.8356 107.988 54.0221 107.988 54.2167C107.988 54.4112 108.065 54.5978 108.202 54.7354C108.34 54.873 108.526 54.9504 108.721 54.9505H123.601Z" fill="white"/>
<path d="M116.161 41.2444C117.074 41.2444 117.967 41.5152 118.726 42.0225C119.486 42.5298 120.077 43.2509 120.427 44.0945C120.776 44.9382 120.868 45.8665 120.689 46.7621C120.511 47.6577 120.072 48.4804 119.426 49.1261C118.78 49.7718 117.958 50.2115 117.062 50.3897C116.166 50.5678 115.238 50.4764 114.394 50.127C113.551 49.7775 112.83 49.1857 112.322 48.4265C111.815 47.6672 111.544 46.7746 111.544 45.8614C111.546 44.6373 112.032 43.4638 112.898 42.5982C113.764 41.7326 114.937 41.2458 116.161 41.2444Z" fill="white"/>
<path d="M57.2517 88.0732H43.5449C43.263 88.0729 42.9926 87.9607 42.7933 87.7614C42.5939 87.562 42.4818 87.2917 42.4814 87.0097V81.1016C42.4814 79.002 43.3155 76.9883 44.8002 75.5036C46.2849 74.0189 48.2986 73.1848 50.3983 73.1848C52.498 73.1848 54.5116 74.0189 55.9963 75.5036C57.481 76.9883 58.3151 79.002 58.3151 81.1016V87.0097C58.3148 87.2917 58.2026 87.562 58.0033 87.7614C57.8039 87.9607 57.5336 88.0729 57.2517 88.0732Z" fill="#2F2E41"/>
<path d="M57.0046 84.6971C58.5422 81.8843 57.5085 78.3576 54.6957 76.8199C51.8829 75.2823 48.3562 76.3161 46.8185 79.1289C45.2809 81.9417 46.3147 85.4684 49.1275 87.006C51.9403 88.5437 55.467 87.5099 57.0046 84.6971Z" fill="#FFB6B6"/>
<path d="M60.188 81.6924H51.8066L51.7206 80.4891L51.2909 81.6924H50.0004L49.8301 79.3074L48.9784 81.6924H46.4812V81.5742C46.4831 79.9139 47.1435 78.322 48.3175 77.148C49.4915 75.9739 51.0834 75.3135 52.7437 75.3116H53.9254C55.5857 75.3135 57.1776 75.9739 58.3516 77.148C59.5257 78.322 60.1861 79.9139 60.188 81.5742V81.6924Z" fill="#2F2E41"/>
<path d="M51.7382 89.176C51.6751 89.176 51.6122 89.1704 51.55 89.1594L45.4128 88.0766V77.9336H52.1687L52.0015 78.1286C49.6743 80.8426 51.4275 85.2435 52.6797 87.6252C52.772 87.7996 52.8132 87.9966 52.7984 88.1933C52.7837 88.3901 52.7137 88.5788 52.5965 88.7375C52.4983 88.8733 52.3693 88.9838 52.2201 89.06C52.0709 89.1363 51.9058 89.176 51.7382 89.176Z" fill="#2F2E41"/>
<path d="M72.1714 139.254L79.7433 139.254H79.7436C81.0233 139.254 82.2506 139.762 83.1556 140.667C84.0605 141.572 84.5689 142.799 84.569 144.079V144.236L72.1716 144.236L72.1714 139.254Z" fill="#2F2E41"/>
<path d="M176.765 144.727H0.746802C0.694231 144.727 0.643814 144.706 0.606641 144.669C0.569467 144.632 0.548584 144.582 0.548584 144.529C0.548584 144.476 0.569467 144.426 0.606641 144.389C0.643814 144.352 0.694231 144.331 0.746802 144.331H176.765C176.817 144.331 176.868 144.352 176.905 144.389C176.942 144.426 176.963 144.476 176.963 144.529C176.963 144.582 176.942 144.632 176.905 144.669C176.868 144.706 176.817 144.727 176.765 144.727Z" fill="#CACACA"/>
</g>
<defs>
<clipPath id="clip0_111_701">
<rect width="176.414" height="144.657" fill="white" transform="translate(0.548584 0.0701904)"/>
</clipPath>
</defs>
</svg>
