<svg width="227" height="145" viewBox="0 0 227 145" fill="none" xmlns="http://www.w3.org/2000/svg">
<g clip-path="url(#clip0_111_700)">
<path d="M211.194 144.294C208.27 142.338 206.797 138.616 206.739 135.099C206.72 133.919 207.017 132.552 208.074 132.027C208.377 131.877 208.715 131.813 209.051 131.843C209.387 131.873 209.709 131.995 209.98 132.196C210.252 132.396 210.463 132.668 210.59 132.981C210.716 133.294 210.754 133.636 210.699 133.969C211.091 132.822 211.6 131.717 212.216 130.673C212.739 129.79 213.472 128.87 214.495 128.786C215.682 128.688 216.674 129.841 216.842 131.02C217.01 132.199 216.581 133.373 216.16 134.487C216.279 133.982 216.523 133.516 216.869 133.13C217.215 132.744 217.652 132.451 218.14 132.277C218.629 132.104 219.153 132.056 219.665 132.138C220.177 132.22 220.66 132.429 221.07 132.745C222.231 133.641 222.614 135.291 222.322 136.728C222.03 138.165 221.172 139.422 220.224 140.541C219.111 141.852 217.824 143.051 216.282 143.812C214.74 144.574 212.917 144.865 211.277 144.349L211.194 144.294Z" fill="#F2F2F2"/>
<path d="M171.201 97.1881C171.604 96.9879 171.957 96.7019 172.237 96.3502C172.517 95.9985 172.716 95.5897 172.821 95.1527C172.926 94.7156 172.934 94.2609 172.844 93.8205C172.754 93.3801 172.568 92.9648 172.301 92.6039L179.465 57.8208L172.779 57.7327L167.804 92.0745C167.228 92.5646 166.851 93.2491 166.745 93.9985C166.64 94.7478 166.813 95.5098 167.231 96.1401C167.65 96.7704 168.286 97.2253 169.017 97.4184C169.749 97.6116 170.526 97.5297 171.201 97.1881V97.1881Z" fill="#FFB8B8"/>
<path d="M203.765 95.382C204.093 95.0751 204.35 94.6999 204.518 94.2829C204.685 93.8659 204.76 93.4172 204.735 92.9684C204.711 92.5196 204.588 92.0816 204.376 91.6853C204.164 91.289 203.868 90.9441 203.508 90.6747L200.431 55.295L193.999 57.1216L199.048 91.4527C198.635 92.0871 198.47 92.8508 198.583 93.599C198.696 94.3472 199.079 95.028 199.661 95.5124C200.242 95.9967 200.981 96.2509 201.737 96.2269C202.494 96.2029 203.215 95.9022 203.765 95.382Z" fill="#FFB8B8"/>
<path d="M183.134 141.013L179.625 141.013L177.956 127.479L183.135 127.48L183.134 141.013Z" fill="#FFB8B8"/>
<path d="M177.119 140.01H183.886V144.271H172.859C172.859 143.141 173.308 142.057 174.107 141.258C174.906 140.459 175.989 140.01 177.119 140.01Z" fill="#2F2E41"/>
<path d="M198.874 141.013L195.366 141.013L193.697 127.479L198.875 127.48L198.874 141.013Z" fill="#FFB8B8"/>
<path d="M192.86 140.01H199.626V144.271H188.599C188.599 143.141 189.048 142.057 189.847 141.258C190.646 140.459 191.73 140.01 192.86 140.01Z" fill="#2F2E41"/>
<path d="M184.043 44.321C187.925 44.321 191.072 41.174 191.072 37.292C191.072 33.4099 187.925 30.2629 184.043 30.2629C180.161 30.2629 177.014 33.4099 177.014 37.292C177.014 41.174 180.161 44.321 184.043 44.321Z" fill="#FFB8B8"/>
<path d="M193.925 132.474C193.639 132.472 193.362 132.372 193.141 132.19C192.92 132.008 192.769 131.756 192.714 131.475L187.962 106.89C187.918 106.665 187.796 106.463 187.616 106.32C187.436 106.178 187.211 106.105 186.982 106.114C186.753 106.123 186.535 106.214 186.367 106.37C186.199 106.527 186.093 106.738 186.068 106.966L183.407 130.913C183.376 131.206 183.241 131.477 183.026 131.678C182.811 131.879 182.532 131.996 182.238 132.008L178.247 132.189C178.085 132.198 177.923 132.174 177.77 132.118C177.617 132.063 177.477 131.977 177.358 131.867C177.238 131.757 177.141 131.625 177.073 131.478C177.005 131.331 176.966 131.172 176.96 131.009L175.43 94.0172C175.421 93.8304 175.456 93.6443 175.531 93.4729C175.606 93.3016 175.719 93.1496 175.861 93.0287L176.746 92.2736C176.969 92.0835 177.253 91.979 177.546 91.9789H198.231C198.558 91.9792 198.871 92.1092 199.102 92.3403C199.333 92.5713 199.463 92.8846 199.464 93.2114V131.054C199.464 131.372 199.342 131.677 199.122 131.907C198.902 132.136 198.602 132.272 198.285 132.285L193.977 132.473C193.96 132.473 193.942 132.474 193.925 132.474Z" fill="#2F2E41"/>
<path d="M183.331 97.3611C179.987 97.3613 177.039 96.4702 175.551 93.8712C175.426 93.6571 175.368 93.4109 175.383 93.1637L177.253 64.5804C177.268 64.3493 177.199 64.1205 177.058 63.9364L171.812 57.0569C171.713 56.928 171.641 56.7809 171.6 56.6242C171.559 56.4674 171.548 56.304 171.57 56.1433C171.592 55.9826 171.646 55.8278 171.728 55.6879C171.809 55.5479 171.918 55.4254 172.047 55.3275L179.918 49.3647C180.083 49.2391 180.203 49.0635 180.261 48.864L180.49 48.0616C180.561 47.8116 180.709 47.5906 180.914 47.4302C181.118 47.2697 181.368 47.1781 181.628 47.1685L187.403 46.9463C187.596 46.9398 187.787 46.9782 187.962 47.0583C188.138 47.1385 188.292 47.2582 188.413 47.4082L189.028 48.1763C189.106 48.2744 189.203 48.3561 189.313 48.4168L198.971 53.7543C199.162 53.8599 199.321 54.0142 199.433 54.2013C199.545 54.3885 199.605 54.6019 199.608 54.8199L199.608 54.837L199.604 54.8533C197.352 64.241 197.479 76.1068 200.002 92.1963C200.009 92.4417 199.942 92.6835 199.811 92.8907C199.679 93.0979 199.489 93.261 199.264 93.3593C197.173 94.2646 189.564 97.3611 183.331 97.3611Z" fill="#E61C5D"/>
<path d="M177.449 67.8772H170.908C170.74 67.8775 170.574 67.8434 170.42 67.7771C170.265 67.7108 170.126 67.6137 170.011 67.4917C169.896 67.3698 169.807 67.2255 169.749 67.0679C169.692 66.9102 169.667 66.7425 169.677 66.5749C169.774 64.9084 169.967 61.7389 170.159 59.2395C170.435 55.6426 173.96 53.8723 173.995 53.8546L174.064 53.8209L176.444 55.3313L178.658 66.4032C178.694 66.582 178.689 66.7665 178.645 66.9434C178.601 67.1203 178.518 67.2852 178.402 67.4261C178.287 67.5671 178.141 67.6807 177.977 67.7587C177.812 67.8367 177.632 67.8772 177.449 67.8772H177.449Z" fill="#E61C5D"/>
<path d="M195.375 67.2666C195.202 67.2655 195.032 67.2282 194.874 67.1572C194.717 67.0861 194.577 66.9828 194.462 66.854C194.347 66.7252 194.26 66.5738 194.207 66.4094C194.155 66.2451 194.137 66.0715 194.156 65.8999L195.363 54.7929L197.695 53.0846L197.748 53.0905C197.773 53.0934 200.258 53.4037 201.371 56.1864C202.164 58.168 203.374 61.8304 204.026 63.8372C204.078 63.9985 204.096 64.1688 204.08 64.3375C204.063 64.5062 204.012 64.6697 203.929 64.8176C203.846 64.9656 203.734 65.0948 203.599 65.1973C203.463 65.2997 203.309 65.3732 203.144 65.4131L195.672 67.2305C195.575 67.2544 195.475 67.2666 195.375 67.2666Z" fill="#E61C5D"/>
<path d="M184.203 44.37C185.706 41.9915 183.83 35.4441 179.74 35.2733C178.796 35.2338 178.433 33.8599 178.112 32.971C177.949 32.4557 177.905 31.9099 177.985 31.3752C178.065 30.8405 178.266 30.3312 178.573 29.8862C179.198 28.9993 180.058 28.3046 181.056 27.8805C182.179 27.3646 183.4 27.0962 184.636 27.0938C185.871 27.0913 187.093 27.3547 188.218 27.8661C189.343 28.3775 190.345 29.1249 191.156 30.0577C191.967 30.9904 192.567 32.0867 192.917 33.272C193.267 34.4573 193.357 35.704 193.183 36.9275C193.008 38.1509 192.572 39.3224 191.905 40.3626C191.237 41.4027 190.354 42.2872 189.315 42.9558C188.276 43.6245 187.105 44.0618 185.881 44.238L184.203 44.37Z" fill="#2F2E41"/>
<path d="M141.754 0.164307H2.38123C1.85011 0.164896 1.3409 0.37615 0.965333 0.751715C0.589768 1.12728 0.378519 1.63648 0.37793 2.16761V96.6091C0.37852 97.1403 0.589769 97.6495 0.965333 98.025C1.3409 98.4006 1.85011 98.6118 2.38123 98.6124H141.754C142.285 98.6118 142.794 98.4006 143.17 98.025C143.546 97.6495 143.757 97.1403 143.757 96.6091V2.16761C143.757 1.63648 143.546 1.12728 143.17 0.751715C142.794 0.37615 142.285 0.164896 141.754 0.164307ZM143.185 96.6091C143.185 96.9886 143.034 97.3525 142.766 97.6208C142.497 97.8891 142.133 98.0399 141.754 98.0401H2.38123C2.00177 98.0399 1.6379 97.8891 1.36958 97.6208C1.10126 97.3525 0.950454 96.9886 0.950303 96.6091V2.16761C0.950454 1.78815 1.10126 1.42428 1.36958 1.15596C1.6379 0.88764 2.00177 0.736831 2.38123 0.736679H141.754C142.133 0.736831 142.497 0.88764 142.766 1.15596C143.034 1.42428 143.185 1.78815 143.185 2.16761V96.6091Z" fill="#3F3D56"/>
<path d="M143.471 8.18896H0.664062V8.76134H143.471V8.18896Z" fill="#3F3D56"/>
<path d="M5.52937 6.17423C6.47771 6.17423 7.24649 5.40545 7.24649 4.45711C7.24649 3.50877 6.47771 2.73999 5.52937 2.73999C4.58104 2.73999 3.81226 3.50877 3.81226 4.45711C3.81226 5.40545 4.58104 6.17423 5.52937 6.17423Z" fill="#3F3D56"/>
<path d="M10.4659 6.17423C11.4142 6.17423 12.183 5.40545 12.183 4.45711C12.183 3.50877 11.4142 2.73999 10.4659 2.73999C9.51756 2.73999 8.74878 3.50877 8.74878 4.45711C8.74878 5.40545 9.51756 6.17423 10.4659 6.17423Z" fill="#3F3D56"/>
<path d="M15.4027 6.17423C16.351 6.17423 17.1198 5.40545 17.1198 4.45711C17.1198 3.50877 16.351 2.73999 15.4027 2.73999C14.4543 2.73999 13.6855 3.50877 13.6855 4.45711C13.6855 5.40545 14.4543 6.17423 15.4027 6.17423Z" fill="#3F3D56"/>
<path d="M115.948 27.7712H27.2298C26.0534 27.7712 24.9251 27.3038 24.0932 26.472C23.2613 25.6401 22.7939 24.5118 22.7939 23.3353C22.7939 22.1588 23.2613 21.0306 24.0932 20.1987C24.9251 19.3668 26.0534 18.8994 27.2298 18.8994H115.948C117.124 18.8994 118.252 19.3668 119.084 20.1987C119.916 21.0306 120.384 22.1588 120.384 23.3353C120.384 24.5118 119.916 25.6401 119.084 26.472C118.252 27.3038 117.124 27.7712 115.948 27.7712ZM27.2298 19.4718C26.2052 19.4718 25.2225 19.8788 24.4979 20.6034C23.7734 21.3279 23.3663 22.3106 23.3663 23.3353C23.3663 24.36 23.7734 25.3427 24.4979 26.0672C25.2225 26.7918 26.2052 27.1988 27.2298 27.1988H115.948C116.972 27.1988 117.955 26.7918 118.68 26.0672C119.404 25.3427 119.811 24.36 119.811 23.3353C119.811 22.3106 119.404 21.3279 118.68 20.6034C117.955 19.8788 116.972 19.4718 115.948 19.4718H27.2298Z" fill="#3F3D56"/>
<path d="M50.1249 50.3798H32.9537C31.7772 50.3798 30.649 49.9125 29.8171 49.0806C28.9852 48.2487 28.5178 47.1204 28.5178 45.9439C28.5178 44.7675 28.9852 43.6392 29.8171 42.8073C30.649 41.9754 31.7772 41.5081 32.9537 41.5081H50.1249C51.3014 41.5081 52.4297 41.9754 53.2615 42.8073C54.0934 43.6392 54.5608 44.7675 54.5608 45.9439C54.5608 47.1204 54.0934 48.2487 53.2615 49.0806C52.4297 49.9125 51.3014 50.3798 50.1249 50.3798ZM32.9537 42.0804C31.929 42.0804 30.9463 42.4875 30.2218 43.212C29.4972 43.9366 29.0902 44.9193 29.0902 45.9439C29.0902 46.9686 29.4972 47.9513 30.2218 48.6759C30.9463 49.4004 31.929 49.8075 32.9537 49.8075H50.1249C51.1496 49.8075 52.1323 49.4004 52.8568 48.6759C53.5814 47.9513 53.9884 46.9686 53.9884 45.9439C53.9884 44.9193 53.5814 43.9366 52.8568 43.212C52.1323 42.4875 51.1496 42.0804 50.1249 42.0804H32.9537Z" fill="#3F3D56"/>
<path d="M50.1249 65.2615H32.9537C31.7772 65.2615 30.649 64.7942 29.8171 63.9623C28.9852 63.1304 28.5178 62.0021 28.5178 60.8257C28.5178 59.6492 28.9852 58.5209 29.8171 57.689C30.649 56.8571 31.7772 56.3898 32.9537 56.3898H50.1249C51.3014 56.3898 52.4297 56.8571 53.2615 57.689C54.0934 58.5209 54.5608 59.6492 54.5608 60.8257C54.5608 62.0021 54.0934 63.1304 53.2615 63.9623C52.4297 64.7942 51.3014 65.2615 50.1249 65.2615ZM32.9537 56.9621C31.929 56.9621 30.9463 57.3692 30.2218 58.0937C29.4972 58.8183 29.0902 59.801 29.0902 60.8257C29.0902 61.8503 29.4972 62.833 30.2218 63.5576C30.9463 64.2821 31.929 64.6892 32.9537 64.6892H50.1249C51.1496 64.6892 52.1323 64.2821 52.8568 63.5576C53.5814 62.833 53.9884 61.8503 53.9884 60.8257C53.9884 59.801 53.5814 58.8183 52.8568 58.0937C52.1323 57.3692 51.1496 56.9621 50.1249 56.9621H32.9537Z" fill="#3F3D56"/>
<path d="M50.1249 80.1433H32.9537C31.7772 80.1433 30.649 79.6759 29.8171 78.844C28.9852 78.0121 28.5178 76.8838 28.5178 75.7074C28.5178 74.5309 28.9852 73.4026 29.8171 72.5707C30.649 71.7388 31.7772 71.2715 32.9537 71.2715H50.1249C51.3014 71.2715 52.4297 71.7388 53.2615 72.5707C54.0934 73.4026 54.5608 74.5309 54.5608 75.7074C54.5608 76.8838 54.0934 78.0121 53.2615 78.844C52.4297 79.6759 51.3014 80.1433 50.1249 80.1433ZM32.9537 71.8439C31.929 71.8439 30.9463 72.2509 30.2218 72.9755C29.4972 73.7 29.0902 74.6827 29.0902 75.7074C29.0902 76.732 29.4972 77.7147 30.2218 78.4393C30.9463 79.1638 31.929 79.5709 32.9537 79.5709H50.1249C51.1496 79.5709 52.1323 79.1638 52.8568 78.4393C53.5814 77.7147 53.9884 76.732 53.9884 75.7074C53.9884 74.6827 53.5814 73.7 52.8568 72.9755C52.1323 72.2509 51.1496 71.8439 50.1249 71.8439H32.9537Z" fill="#3F3D56"/>
<path d="M52.7004 25.3385H28.6608C28.1295 25.3385 27.6199 25.1275 27.2442 24.7518C26.8685 24.3761 26.6575 23.8665 26.6575 23.3352C26.6575 22.8039 26.8685 22.2944 27.2442 21.9187C27.6199 21.543 28.1295 21.3319 28.6608 21.3319H52.7004C53.2317 21.3319 53.7413 21.543 54.117 21.9187C54.4927 22.2944 54.7037 22.8039 54.7037 23.3352C54.7037 23.8665 54.4927 24.3761 54.117 24.7518C53.7413 25.1275 53.2317 25.3385 52.7004 25.3385Z" fill="#E61C5D"/>
<path d="M112.943 24.3369C112.547 24.3369 112.159 24.2194 111.83 23.9993C111.5 23.7792 111.244 23.4663 111.092 23.1003C110.94 22.7342 110.901 22.3314 110.978 21.9428C111.055 21.5542 111.246 21.1972 111.526 20.9171C111.806 20.6369 112.163 20.4461 112.552 20.3688C112.941 20.2915 113.343 20.3312 113.709 20.4828C114.075 20.6344 114.388 20.8912 114.608 21.2207C114.829 21.5501 114.946 21.9374 114.946 22.3336C114.945 22.8647 114.734 23.374 114.359 23.7495C113.983 24.1251 113.474 24.3363 112.943 24.3369ZM112.943 20.9027C112.66 20.9027 112.383 20.9866 112.148 21.1438C111.912 21.3011 111.729 21.5246 111.621 21.786C111.512 22.0475 111.484 22.3352 111.539 22.6128C111.595 22.8904 111.731 23.1453 111.931 23.3454C112.131 23.5456 112.386 23.6818 112.664 23.7371C112.941 23.7923 113.229 23.7639 113.49 23.6556C113.752 23.5473 113.975 23.3639 114.133 23.1286C114.29 22.8933 114.374 22.6166 114.374 22.3336C114.373 21.9542 114.222 21.5905 113.954 21.3223C113.686 21.054 113.322 20.9031 112.943 20.9027Z" fill="#3F3D56"/>
<path d="M116.042 26.1492C116.004 26.1493 115.967 26.1419 115.932 26.1275C115.898 26.1131 115.866 26.092 115.839 26.0654L113.829 24.0545C113.802 24.028 113.781 23.9964 113.767 23.9617C113.752 23.927 113.745 23.8898 113.745 23.8522C113.745 23.8146 113.752 23.7774 113.767 23.7427C113.781 23.708 113.802 23.6764 113.829 23.6498C113.855 23.6233 113.887 23.6022 113.922 23.5878C113.956 23.5734 113.993 23.566 114.031 23.566C114.069 23.566 114.106 23.5734 114.141 23.5878C114.175 23.6022 114.207 23.6233 114.233 23.6498L116.244 25.6607C116.284 25.7007 116.311 25.7517 116.322 25.8072C116.333 25.8627 116.328 25.9203 116.306 25.9725C116.285 26.0248 116.248 26.0695 116.201 26.101C116.154 26.1324 116.098 26.1492 116.042 26.1492L116.042 26.1492Z" fill="#3F3D56"/>
<path d="M111.798 48.6628H102.068C101.347 48.6628 100.655 48.3763 100.145 47.8665C99.6353 47.3566 99.3489 46.6651 99.3489 45.944C99.3489 45.2229 99.6353 44.5314 100.145 44.0215C100.655 43.5117 101.347 43.2252 102.068 43.2252H111.798C112.519 43.2252 113.211 43.5117 113.72 44.0215C114.23 44.5314 114.517 45.2229 114.517 45.944C114.517 46.6651 114.23 47.3566 113.72 47.8665C113.211 48.3763 112.519 48.6628 111.798 48.6628Z" fill="#E61C5D"/>
<path d="M111.798 63.5445H102.068C101.347 63.5445 100.655 63.258 100.145 62.7482C99.6353 62.2383 99.3489 61.5468 99.3489 60.8257C99.3489 60.1046 99.6353 59.4131 100.145 58.9032C100.655 58.3934 101.347 58.1069 102.068 58.1069H111.798C112.519 58.1069 113.211 58.3934 113.72 58.9032C114.23 59.4131 114.517 60.1046 114.517 60.8257C114.517 61.5468 114.23 62.2383 113.72 62.7482C113.211 63.258 112.519 63.5445 111.798 63.5445Z" fill="#E61C5D"/>
<path d="M111.798 78.4262H102.068C101.347 78.4262 100.655 78.1398 100.145 77.6299C99.6353 77.12 99.3489 76.4285 99.3489 75.7074C99.3489 74.9864 99.6353 74.2948 100.145 73.785C100.655 73.2751 101.347 72.9886 102.068 72.9886H111.798C112.519 72.9886 113.211 73.2751 113.72 73.785C114.23 74.2948 114.517 74.9864 114.517 75.7074C114.517 76.4285 114.23 77.12 113.72 77.6299C113.211 78.1398 112.519 78.4262 111.798 78.4262Z" fill="#E61C5D"/>
<path d="M225.78 144.821H154.806C154.73 144.821 154.657 144.791 154.604 144.738C154.55 144.684 154.52 144.611 154.52 144.535C154.52 144.459 154.55 144.387 154.604 144.333C154.657 144.279 154.73 144.249 154.806 144.249H225.78C225.856 144.249 225.929 144.279 225.983 144.333C226.036 144.387 226.066 144.459 226.066 144.535C226.066 144.611 226.036 144.684 225.983 144.738C225.929 144.791 225.856 144.821 225.78 144.821Z" fill="#3F3D56"/>
</g>
<defs>
<clipPath id="clip0_111_700">
<rect width="225.688" height="144.657" fill="white" transform="translate(0.37793 0.164307)"/>
</clipPath>
</defs>
</svg>
