<svg width="198" height="145" viewBox="0 0 198 145" fill="none" xmlns="http://www.w3.org/2000/svg">
<g clip-path="url(#clip0_111_699)">
<path d="M92.5012 114.677L95.6112 113.285L91.7161 100.334L87.1257 102.388L92.5012 114.677Z" fill="#FFB6B6"/>
<path d="M90.2734 111.161L94.9258 107.875L96.2098 109.945L102.771 110.268C103.095 110.284 103.405 110.403 103.657 110.608C103.909 110.813 104.088 111.093 104.169 111.407C104.251 111.721 104.229 112.053 104.109 112.354C103.988 112.655 103.774 112.91 103.498 113.081L97.7466 116.649L95.485 115.217L96.3681 117.504L94.1994 118.849L90.2734 111.161Z" fill="#2F2E41"/>
<path d="M172.39 90.1637C172.39 88.8612 171.953 87.8041 171.416 87.8017H25.0078C24.4684 87.8041 24.0334 88.8612 24.031 90.1637V143.781C24.031 143.902 23.986 144.019 23.9047 144.108C23.8235 144.198 23.7118 144.254 23.5914 144.265C23.1985 144.303 22.8055 144.338 22.4126 144.371C22.4028 144.371 22.3931 144.373 22.3834 144.373C22.1696 144.393 21.9557 144.407 21.7419 144.424H21.7394C21.6294 144.221 21.5207 144.016 21.4133 143.809C21.3769 143.739 21.3579 143.662 21.3579 143.583V87.0994C21.3579 86.7398 21.3725 86.3777 21.3968 86.0205C21.4315 85.53 21.4923 85.0416 21.579 84.5576C21.9897 82.3001 22.918 80.7716 23.9726 80.7667H172.449C172.602 80.7677 172.755 80.8 172.896 80.8615C173.103 80.9532 173.29 81.0844 173.447 81.2479C173.66 81.4694 173.843 81.7187 173.989 81.989C174.509 82.9052 174.881 84.2709 175.012 85.8601C175.012 85.8747 175.015 85.8893 175.015 85.9038C175.049 86.2975 175.066 86.6985 175.063 87.0994L175.097 92.307L175.119 95.4126L175.185 105.157L175.209 108.617L175.316 144.145C175.316 144.274 175.265 144.397 175.174 144.488C175.083 144.58 174.959 144.631 174.83 144.631H172.876C172.747 144.631 172.624 144.58 172.533 144.488C172.441 144.397 172.39 144.274 172.39 144.145V90.1637Z" fill="#E6E6E6"/>
<path d="M132.606 56.3993H116.831C116.608 56.3996 116.394 56.4886 116.236 56.6466C116.078 56.8046 115.99 57.0187 115.99 57.2419V82.1629H133.449V57.2419C133.449 57.1312 133.427 57.0216 133.385 56.9194C133.343 56.8171 133.281 56.7242 133.202 56.646C133.124 56.5677 133.031 56.5056 132.929 56.4633C132.827 56.421 132.717 56.3992 132.606 56.3993ZM124.772 70.5591C124.278 70.5568 123.806 70.3598 123.457 70.0109C123.108 69.6621 122.911 69.1896 122.909 68.6962V65.8218C122.909 65.3281 123.106 64.8549 123.455 64.506C123.804 64.1571 124.278 63.9611 124.772 63.9611C125.265 63.9611 125.739 64.1571 126.088 64.506C126.437 64.8549 126.634 65.3281 126.634 65.8218V68.6962C126.632 69.1896 126.435 69.6621 126.086 70.0109C125.737 70.3598 125.265 70.5568 124.772 70.5591Z" fill="#2F2E41"/>
<path d="M115.936 81.3657V83.7701C115.936 83.8947 115.986 84.0141 116.074 84.1022C116.162 84.1903 116.281 84.2399 116.406 84.2401H133.033C133.158 84.2395 133.277 84.1898 133.365 84.1018C133.453 84.0138 133.502 83.8946 133.503 83.7701V81.3657H115.936Z" fill="#3F3D56"/>
<path d="M95.6672 21.6943C95.4856 22.1514 95.206 22.5631 94.8481 22.9005C94.4902 23.2378 94.0627 23.4926 93.5957 23.6468C93.1287 23.8011 92.6335 23.851 92.1451 23.7932C91.6567 23.7353 91.1869 23.5711 90.7688 23.3121L68.5003 38.8253L67.8855 32.6431L89.7807 18.4575C90.2624 17.7839 90.9744 17.3105 91.7819 17.1269C92.5893 16.9433 93.4361 17.0623 94.1617 17.4613C94.8873 17.8603 95.4413 18.5116 95.7188 19.2917C95.9963 20.0719 95.9779 20.9268 95.6672 21.6943Z" fill="#FFB6B6"/>
<path d="M45.8093 31.4756C45.8093 31.4756 43.3981 35.0385 47.1819 38.1914C50.9656 41.3443 66.3017 40.7171 68.7766 40.69C71.2514 40.6629 82.6067 28.9163 82.6067 28.9163L82.5323 22.1322L68.8225 30.267L45.8093 31.4756Z" fill="#E61C5D"/>
<path d="M44.4443 55.1302L44.6873 59.7473C44.6873 59.7473 43.9701 63.8372 44.5599 64.7198C45.1454 65.5979 61.2224 66.9044 61.2224 66.9044C61.2224 66.9044 60.7184 60.0185 61.6276 55.0378L44.4443 55.1302Z" fill="#FFB6B6"/>
<path d="M93.785 102.14L87.5964 107.557L75.4673 82.7512C63.4396 84.8197 52.0927 85.4824 42.278 82.98C38.955 82.1445 36.9237 78.7133 37.7411 75.3162C37.7793 75.1574 37.8235 75.0003 37.8736 74.8449C39.0482 71.2611 42.123 68.7253 44.5455 64.7836L62.2403 65.0524L60.2639 71.8716L77.4532 69.6473C80.9101 69.2 84.0671 71.7021 84.5047 75.2359C84.5278 75.4225 84.5429 75.6099 84.5499 75.798L93.785 102.14Z" fill="#2F2E41"/>
<path d="M51.3533 24.0589C55.3215 24.0589 58.5384 20.8421 58.5384 16.8738C58.5384 12.9056 55.3215 9.68872 51.3533 9.68872C47.3851 9.68872 44.1682 12.9056 44.1682 16.8738C44.1682 20.8421 47.3851 24.0589 51.3533 24.0589Z" fill="#FFB6B6"/>
<path d="M47.141 26.6528L53.7291 27.4279C54.0069 27.4606 54.2676 27.5791 54.4749 27.767C54.6822 27.9549 54.8256 28.2027 54.8854 28.476L55.9331 33.2703L62.4642 40.9615C62.4642 40.9615 64.8095 45.3589 63.93 50.3426C63.4008 53.3437 62.4852 56.2636 61.206 59.0295C61.206 59.0295 45.1444 65.5983 44.5581 64.7189C43.9717 63.8394 43.7815 59.8446 43.7815 59.8446L41.7151 36.8558C41.5968 35.6445 41.748 34.4221 42.1579 33.2762C42.5678 32.1303 43.2261 31.0892 44.0857 30.2278C44.6071 29.7149 45.1216 29.356 45.5404 29.356C46.4864 29.3241 46.3651 27.1949 47.141 26.6528Z" fill="#E61C5D"/>
<path d="M61.2776 124.309L64.3348 125.807L71.6947 114.464L67.1824 112.254L61.2776 124.309Z" fill="#FFB6B6"/>
<path d="M68.601 121.745L62.3201 119.361L70.9405 93.4698C59.2292 90.0361 50.3954 84.5055 42.6823 77.9406C40.0657 75.7283 38.1034 72.8873 40.3319 70.1962C40.4361 70.0704 40.5449 69.9488 40.6583 69.8313C43.2897 67.1296 49.9682 67.6494 53.8777 65.1753L62.6214 74.5105L62.0736 77.0112L78.4887 82.5757C81.7898 83.6948 83.5242 87.3306 82.3625 90.6966C82.3012 90.8744 82.2323 91.0493 82.1559 91.2213L68.601 121.745Z" fill="#2F2E41"/>
<path d="M61.1732 122.502L66.4281 124.698L65.3565 126.886L68.5683 132.616C68.7269 132.899 68.791 133.225 68.7511 133.547C68.7112 133.869 68.5694 134.17 68.3464 134.406C68.1234 134.641 67.8309 134.8 67.5117 134.857C67.1924 134.915 66.863 134.869 66.5717 134.726L60.4932 131.749L60.5055 129.072L59.0364 131.035L56.7446 129.912L61.1732 122.502Z" fill="#2F2E41"/>
<path d="M50.8973 82.8591C50.4852 82.5906 50.137 82.235 49.8772 81.8174C49.6174 81.3998 49.4524 80.9303 49.3937 80.4419C49.335 79.9536 49.384 79.4584 49.5374 78.9911C49.6909 78.5238 49.9448 78.0958 50.2815 77.7373L39.4851 52.8379L45.6666 53.4594L55.2357 77.7301C55.8005 78.3356 56.1235 79.1273 56.1436 79.9551C56.1637 80.7829 55.8794 81.5894 55.3447 82.2216C54.8099 82.8538 54.0618 83.2679 53.2421 83.3854C52.4224 83.5029 51.5881 83.3156 50.8973 82.8591V82.8591Z" fill="#FFB6B6"/>
<path d="M51.1825 32.0518C51.1825 32.0518 48.1677 28.9828 44.328 32.0673C40.4883 35.1518 38.0663 50.3084 37.6028 52.7396C37.1393 55.1709 46.4047 68.6273 46.4047 68.6273L53.0692 69.8978L47.8102 54.8486L51.1825 32.0518Z" fill="#E61C5D"/>
<path d="M158.73 17.5073H91.2945C90.7151 17.5082 90.1597 17.7388 89.7501 18.1485C89.3404 18.5582 89.1098 19.1135 89.1089 19.6929V65.1983C89.1094 65.7778 89.3399 66.3334 89.7497 66.7432C90.1594 67.1529 90.715 67.3834 91.2945 67.3839H158.73C159.309 67.3834 159.865 67.1529 160.274 66.7432C160.684 66.3334 160.915 65.7778 160.915 65.1983V19.6929C160.914 19.1135 160.684 18.5582 160.274 18.1485C159.864 17.7388 159.309 17.5082 158.73 17.5073Z" fill="#3F3D56"/>
<path d="M158.167 19.0859H91.8581C91.5478 19.0866 91.2506 19.2103 91.0314 19.4299C90.8123 19.6495 90.6892 19.947 90.6892 20.2572V64.6347C90.6897 64.9446 90.813 65.2416 91.0321 65.4607C91.2512 65.6798 91.5482 65.8031 91.8581 65.8036H158.167C158.477 65.8031 158.774 65.6798 158.993 65.4607C159.212 65.2416 159.335 64.9446 159.336 64.6347V20.2572C159.336 19.947 159.213 19.6495 158.993 19.4299C158.774 19.2103 158.477 19.0866 158.167 19.0859Z" fill="white"/>
<path d="M145.251 85.0768H105.801C105.693 85.0768 105.586 85.0527 105.489 85.0063C105.391 84.9598 105.305 84.8922 105.237 84.8084C105.169 84.7245 105.121 84.6265 105.095 84.5215C105.07 84.4166 105.068 84.3073 105.091 84.2016L105.703 81.2943C105.737 81.1317 105.827 80.9858 105.956 80.881C106.085 80.7762 106.246 80.7187 106.413 80.7181H144.639C144.805 80.7187 144.966 80.7762 145.095 80.881C145.224 80.9858 145.314 81.1317 145.349 81.2943L145.961 84.2016C145.983 84.3073 145.981 84.4166 145.956 84.5215C145.931 84.6265 145.882 84.7245 145.814 84.8084C145.746 84.8922 145.66 84.9598 145.563 85.0063C145.465 85.0527 145.359 85.0768 145.251 85.0768H145.251Z" fill="#2F2E41"/>
<path d="M107.789 81.2417H106.812C106.746 81.2417 106.693 81.2948 106.693 81.3603V81.8521C106.693 81.9176 106.746 81.9707 106.812 81.9707H107.789C107.855 81.9707 107.908 81.9176 107.908 81.8521V81.3603C107.908 81.2948 107.855 81.2417 107.789 81.2417Z" fill="#3F3D56"/>
<path d="M110.219 81.2417H109.242C109.176 81.2417 109.123 81.2948 109.123 81.3603V81.8521C109.123 81.9176 109.176 81.9707 109.242 81.9707H110.219C110.285 81.9707 110.338 81.9176 110.338 81.8521V81.3603C110.338 81.2948 110.285 81.2417 110.219 81.2417Z" fill="#3F3D56"/>
<path d="M112.649 81.2417H111.672C111.606 81.2417 111.553 81.2948 111.553 81.3603V81.8521C111.553 81.9176 111.606 81.9707 111.672 81.9707H112.649C112.715 81.9707 112.768 81.9176 112.768 81.8521V81.3603C112.768 81.2948 112.715 81.2417 112.649 81.2417Z" fill="#3F3D56"/>
<path d="M115.08 81.2417H114.102C114.036 81.2417 113.983 81.2948 113.983 81.3603V81.8521C113.983 81.9176 114.036 81.9707 114.102 81.9707H115.08C115.145 81.9707 115.198 81.9176 115.198 81.8521V81.3603C115.198 81.2948 115.145 81.2417 115.08 81.2417Z" fill="#3F3D56"/>
<path d="M117.509 81.2417H116.532C116.466 81.2417 116.413 81.2948 116.413 81.3603V81.8521C116.413 81.9176 116.466 81.9707 116.532 81.9707H117.509C117.575 81.9707 117.628 81.9176 117.628 81.8521V81.3603C117.628 81.2948 117.575 81.2417 117.509 81.2417Z" fill="#3F3D56"/>
<path d="M119.94 81.2417H118.962C118.896 81.2417 118.843 81.2948 118.843 81.3603V81.8521C118.843 81.9176 118.896 81.9707 118.962 81.9707H119.94C120.005 81.9707 120.058 81.9176 120.058 81.8521V81.3603C120.058 81.2948 120.005 81.2417 119.94 81.2417Z" fill="#3F3D56"/>
<path d="M122.37 81.2417H121.392C121.326 81.2417 121.273 81.2948 121.273 81.3603V81.8521C121.273 81.9176 121.326 81.9707 121.392 81.9707H122.37C122.435 81.9707 122.488 81.9176 122.488 81.8521V81.3603C122.488 81.2948 122.435 81.2417 122.37 81.2417Z" fill="#3F3D56"/>
<path d="M124.8 81.2417H123.822C123.756 81.2417 123.703 81.2948 123.703 81.3603V81.8521C123.703 81.9176 123.756 81.9707 123.822 81.9707H124.8C124.865 81.9707 124.918 81.9176 124.918 81.8521V81.3603C124.918 81.2948 124.865 81.2417 124.8 81.2417Z" fill="#3F3D56"/>
<path d="M127.23 81.2417H126.252C126.186 81.2417 126.133 81.2948 126.133 81.3603V81.8521C126.133 81.9176 126.186 81.9707 126.252 81.9707H127.23C127.295 81.9707 127.348 81.9176 127.348 81.8521V81.3603C127.348 81.2948 127.295 81.2417 127.23 81.2417Z" fill="#3F3D56"/>
<path d="M129.66 81.2417H128.682C128.617 81.2417 128.563 81.2948 128.563 81.3603V81.8521C128.563 81.9176 128.617 81.9707 128.682 81.9707H129.66C129.725 81.9707 129.779 81.9176 129.779 81.8521V81.3603C129.779 81.2948 129.725 81.2417 129.66 81.2417Z" fill="#3F3D56"/>
<path d="M132.09 81.2417H131.112C131.047 81.2417 130.993 81.2948 130.993 81.3603V81.8521C130.993 81.9176 131.047 81.9707 131.112 81.9707H132.09C132.155 81.9707 132.208 81.9176 132.208 81.8521V81.3603C132.208 81.2948 132.155 81.2417 132.09 81.2417Z" fill="#3F3D56"/>
<path d="M134.52 81.2417H133.542C133.476 81.2417 133.423 81.2948 133.423 81.3603V81.8521C133.423 81.9176 133.476 81.9707 133.542 81.9707H134.52C134.585 81.9707 134.638 81.9176 134.638 81.8521V81.3603C134.638 81.2948 134.585 81.2417 134.52 81.2417Z" fill="#3F3D56"/>
<path d="M136.95 81.2417H135.972C135.907 81.2417 135.854 81.2948 135.854 81.3603V81.8521C135.854 81.9176 135.907 81.9707 135.972 81.9707H136.95C137.015 81.9707 137.069 81.9176 137.069 81.8521V81.3603C137.069 81.2948 137.015 81.2417 136.95 81.2417Z" fill="#3F3D56"/>
<path d="M139.38 81.2417H138.402C138.337 81.2417 138.283 81.2948 138.283 81.3603V81.8521C138.283 81.9176 138.337 81.9707 138.402 81.9707H139.38C139.445 81.9707 139.498 81.9176 139.498 81.8521V81.3603C139.498 81.2948 139.445 81.2417 139.38 81.2417Z" fill="#3F3D56"/>
<path d="M141.81 81.2417H140.832C140.767 81.2417 140.714 81.2948 140.714 81.3603V81.8521C140.714 81.9176 140.767 81.9707 140.832 81.9707H141.81C141.876 81.9707 141.929 81.9176 141.929 81.8521V81.3603C141.929 81.2948 141.876 81.2417 141.81 81.2417Z" fill="#3F3D56"/>
<path d="M144.24 81.2417H143.262C143.197 81.2417 143.144 81.2948 143.144 81.3603V81.8521C143.144 81.9176 143.197 81.9707 143.262 81.9707H144.24C144.305 81.9707 144.359 81.9176 144.359 81.8521V81.3603C144.359 81.2948 144.305 81.2417 144.24 81.2417Z" fill="#3F3D56"/>
<path d="M107.761 82.4567H106.783C106.717 82.4567 106.664 82.5098 106.664 82.5753V83.067C106.664 83.1326 106.717 83.1857 106.783 83.1857H107.761C107.826 83.1857 107.879 83.1326 107.879 83.067V82.5753C107.879 82.5098 107.826 82.4567 107.761 82.4567Z" fill="#3F3D56"/>
<path d="M110.191 82.4567H109.213C109.147 82.4567 109.094 82.5098 109.094 82.5753V83.067C109.094 83.1326 109.147 83.1857 109.213 83.1857H110.191C110.256 83.1857 110.309 83.1326 110.309 83.067V82.5753C110.309 82.5098 110.256 82.4567 110.191 82.4567Z" fill="#3F3D56"/>
<path d="M112.621 82.4567H111.643C111.578 82.4567 111.524 82.5098 111.524 82.5753V83.067C111.524 83.1326 111.578 83.1857 111.643 83.1857H112.621C112.686 83.1857 112.739 83.1326 112.739 83.067V82.5753C112.739 82.5098 112.686 82.4567 112.621 82.4567Z" fill="#3F3D56"/>
<path d="M115.051 82.4567H114.073C114.007 82.4567 113.954 82.5098 113.954 82.5753V83.067C113.954 83.1326 114.007 83.1857 114.073 83.1857H115.051C115.116 83.1857 115.169 83.1326 115.169 83.067V82.5753C115.169 82.5098 115.116 82.4567 115.051 82.4567Z" fill="#3F3D56"/>
<path d="M117.481 82.4567H116.503C116.438 82.4567 116.385 82.5098 116.385 82.5753V83.067C116.385 83.1326 116.438 83.1857 116.503 83.1857H117.481C117.546 83.1857 117.6 83.1326 117.6 83.067V82.5753C117.6 82.5098 117.546 82.4567 117.481 82.4567Z" fill="#3F3D56"/>
<path d="M119.911 82.4567H118.933C118.868 82.4567 118.814 82.5098 118.814 82.5753V83.067C118.814 83.1326 118.868 83.1857 118.933 83.1857H119.911C119.976 83.1857 120.029 83.1326 120.029 83.067V82.5753C120.029 82.5098 119.976 82.4567 119.911 82.4567Z" fill="#3F3D56"/>
<path d="M122.341 82.4567H121.363C121.298 82.4567 121.245 82.5098 121.245 82.5753V83.067C121.245 83.1326 121.298 83.1857 121.363 83.1857H122.341C122.407 83.1857 122.46 83.1326 122.46 83.067V82.5753C122.46 82.5098 122.407 82.4567 122.341 82.4567Z" fill="#3F3D56"/>
<path d="M124.771 82.4567H123.793C123.728 82.4567 123.675 82.5098 123.675 82.5753V83.067C123.675 83.1326 123.728 83.1857 123.793 83.1857H124.771C124.836 83.1857 124.89 83.1326 124.89 83.067V82.5753C124.89 82.5098 124.836 82.4567 124.771 82.4567Z" fill="#3F3D56"/>
<path d="M127.201 82.4567H126.223C126.158 82.4567 126.104 82.5098 126.104 82.5753V83.067C126.104 83.1326 126.158 83.1857 126.223 83.1857H127.201C127.266 83.1857 127.32 83.1326 127.32 83.067V82.5753C127.32 82.5098 127.266 82.4567 127.201 82.4567Z" fill="#3F3D56"/>
<path d="M129.631 82.4567H128.653C128.588 82.4567 128.535 82.5098 128.535 82.5753V83.067C128.535 83.1326 128.588 83.1857 128.653 83.1857H129.631C129.697 83.1857 129.75 83.1326 129.75 83.067V82.5753C129.75 82.5098 129.697 82.4567 129.631 82.4567Z" fill="#3F3D56"/>
<path d="M132.061 82.4567H131.083C131.018 82.4567 130.965 82.5098 130.965 82.5753V83.067C130.965 83.1326 131.018 83.1857 131.083 83.1857H132.061C132.127 83.1857 132.18 83.1326 132.18 83.067V82.5753C132.18 82.5098 132.127 82.4567 132.061 82.4567Z" fill="#3F3D56"/>
<path d="M134.491 82.4567H133.513C133.448 82.4567 133.395 82.5098 133.395 82.5753V83.067C133.395 83.1326 133.448 83.1857 133.513 83.1857H134.491C134.557 83.1857 134.61 83.1326 134.61 83.067V82.5753C134.61 82.5098 134.557 82.4567 134.491 82.4567Z" fill="#3F3D56"/>
<path d="M136.921 82.4567H135.943C135.878 82.4567 135.825 82.5098 135.825 82.5753V83.067C135.825 83.1326 135.878 83.1857 135.943 83.1857H136.921C136.987 83.1857 137.04 83.1326 137.04 83.067V82.5753C137.04 82.5098 136.987 82.4567 136.921 82.4567Z" fill="#3F3D56"/>
<path d="M139.351 82.4567H138.374C138.308 82.4567 138.255 82.5098 138.255 82.5753V83.067C138.255 83.1326 138.308 83.1857 138.374 83.1857H139.351C139.417 83.1857 139.47 83.1326 139.47 83.067V82.5753C139.47 82.5098 139.417 82.4567 139.351 82.4567Z" fill="#3F3D56"/>
<path d="M141.781 82.4567H140.803C140.738 82.4567 140.685 82.5098 140.685 82.5753V83.067C140.685 83.1326 140.738 83.1857 140.803 83.1857H141.781C141.847 83.1857 141.9 83.1326 141.9 83.067V82.5753C141.9 82.5098 141.847 82.4567 141.781 82.4567Z" fill="#3F3D56"/>
<path d="M144.211 82.4567H143.234C143.168 82.4567 143.115 82.5098 143.115 82.5753V83.067C143.115 83.1326 143.168 83.1857 143.234 83.1857H144.211C144.277 83.1857 144.33 83.1326 144.33 83.067V82.5753C144.33 82.5098 144.277 82.4567 144.211 82.4567Z" fill="#3F3D56"/>
<path d="M127.93 83.9147H118.447C118.381 83.9147 118.328 83.9678 118.328 84.0333V84.5251C118.328 84.5906 118.381 84.6437 118.447 84.6437H127.93C127.995 84.6437 128.049 84.5906 128.049 84.5251V84.0333C128.049 83.9678 127.995 83.9147 127.93 83.9147Z" fill="#3F3D56"/>
<path d="M153.6 140.539L151.726 137.528L151.352 139.249C151.286 139.55 151.221 139.856 151.16 140.16C150.628 139.706 150.062 139.285 149.508 138.882C147.807 137.647 146.106 136.411 144.407 135.174L144.939 138.26C145.267 140.16 145.61 142.099 146.422 143.837C146.511 144.034 146.609 144.228 146.713 144.418H154.621C154.684 144.241 154.728 144.059 154.752 143.873C154.754 143.861 154.755 143.849 154.754 143.837C154.878 142.658 154.227 141.548 153.6 140.539Z" fill="#F0F0F0"/>
<path d="M46.6777 140.539L44.8042 137.528L44.43 139.249C44.3643 139.55 44.2987 139.856 44.238 140.16C43.7058 139.706 43.1396 139.285 42.5856 138.882C40.8846 137.647 39.1843 136.411 37.4849 135.174L38.017 138.26C38.3451 140.16 38.6878 142.099 39.4994 143.837C39.5893 144.034 39.6865 144.228 39.791 144.418H47.6984C47.762 144.241 47.806 144.059 47.8296 143.873C47.8316 143.861 47.8324 143.849 47.832 143.837C47.956 142.658 47.3047 141.548 46.6777 140.539Z" fill="#F0F0F0"/>
<path d="M196.986 144.747L129.978 144.821C129.901 144.821 129.828 144.791 129.774 144.736C129.72 144.682 129.689 144.609 129.689 144.532C129.689 144.456 129.72 144.382 129.774 144.328C129.828 144.274 129.901 144.243 129.978 144.243L196.986 144.168C197.063 144.168 197.136 144.199 197.19 144.253C197.244 144.307 197.275 144.381 197.275 144.457C197.275 144.534 197.244 144.608 197.19 144.662C197.136 144.716 197.063 144.747 196.986 144.747Z" fill="#CACACA"/>
<path d="M67.7077 144.747L0.69915 144.821C0.622557 144.821 0.549178 144.791 0.495097 144.736C0.441016 144.682 0.410645 144.609 0.410645 144.532C0.410645 144.456 0.441016 144.382 0.495097 144.328C0.549178 144.274 0.622557 144.243 0.69915 144.243L67.7077 144.168C67.7843 144.168 67.8577 144.199 67.9118 144.253C67.9659 144.307 67.9962 144.381 67.9962 144.457C67.9962 144.534 67.9659 144.608 67.9118 144.662C67.8577 144.716 67.7843 144.747 67.7077 144.747Z" fill="#CACACA"/>
<path d="M43.7553 10.4689C42.5961 10.814 41.5147 9.84442 40.708 8.92586L40.9947 9.26606C39.0969 10.6026 37.962 12.7799 37.2257 14.984C36.4894 17.1856 36.0787 19.4917 35.2477 21.6617C34.4166 23.8293 33.0752 25.9265 31.0218 27.0078C28.271 28.4562 24.9005 27.7976 21.9747 26.7527C21.9359 26.7381 21.8994 26.726 21.8605 26.7114C23.0455 24.4979 23.7712 22.0679 23.9941 19.567C22.7905 21.9168 21.0547 23.953 18.925 25.5134C17.0133 24.6443 15.175 23.622 13.4283 22.4564C12.2983 21.7006 11.1076 20.7237 10.9763 19.3702C10.8427 18.0264 11.8463 16.7992 13.0297 16.1528C14.2132 15.5064 15.574 15.2877 16.8668 14.8989C18.1571 14.5125 19.4742 13.8783 20.1522 12.7119C21.7147 10.0291 19.0854 6.24552 20.7621 3.63078C21.5884 2.34529 23.1922 1.83012 24.6794 1.4729C26.9493 0.929941 29.2534 0.541058 31.5759 0.308909C33.6147 0.104785 35.7215 0.0294543 37.6607 0.685567C39.5999 1.34168 41.3592 2.86532 41.7748 4.87254C42.9072 5.4679 44.1052 6.12644 44.7127 7.25641C45.3202 8.38395 44.9824 10.1044 43.7553 10.4689Z" fill="#2F2E41"/>
<path d="M42.0248 10.0168C40.9148 11.4073 40.3106 12.9109 40.3106 13.8114C38.0049 18.0257 41.3022 21.6455 45.5165 23.9512C47.1974 24.8757 49.1383 25.2141 51.0328 24.9129L51.2091 24.1603L51.448 24.8383C51.448 24.8383 54.1918 33.9006 55.0969 34.4323C54.7534 32.8195 54.36 25.352 54.1688 23.778C53.9041 21.6357 54.8268 18.4464 55.4924 16.5069C55.9051 15.3116 56.1169 14.0561 56.1192 12.7915V12.7362L56.7673 14.818L59.1267 13.8114C58.6878 11.2937 59.1267 8.43542 53.8642 8.68332C51.0179 6.72582 48.5115 6.42764 46.4526 6.98284C46.1869 6.57204 44.6547 7.34145 44.212 7.12514" fill="#2F2E41"/>
<path d="M159.336 20.2572V64.6347C159.335 64.9446 159.212 65.2416 158.993 65.4607C158.774 65.6798 158.477 65.8031 158.167 65.8036H134.785C132.198 63.4048 130.076 60.5495 128.525 57.3811C128.423 57.1769 128.326 56.9704 128.233 56.7614C126.82 53.6947 125.964 50.4007 125.706 47.0339C125.689 46.8274 125.675 46.6208 125.665 46.4118C125.633 45.8772 125.619 45.3353 125.619 44.791C125.614 41.1708 126.298 37.5827 127.633 34.2178C127.713 34.0089 127.798 33.8023 127.886 33.5958C130.574 27.2807 135.43 22.1345 141.579 19.0859H158.167C158.477 19.0866 158.774 19.2103 158.993 19.4299C159.212 19.6495 159.336 19.947 159.336 20.2572Z" fill="#E61C5D"/>
<path d="M154.834 25.2001H92.7887C92.7242 25.1987 92.6629 25.1721 92.6177 25.126C92.5726 25.0799 92.5474 25.0179 92.5474 24.9534C92.5474 24.8889 92.5726 24.8269 92.6177 24.7808C92.6629 24.7347 92.7242 24.7081 92.7887 24.7067H154.834C154.898 24.7081 154.959 24.7347 155.005 24.7808C155.05 24.8269 155.075 24.8889 155.075 24.9534C155.075 25.0179 155.05 25.0799 155.005 25.126C154.959 25.1721 154.898 25.1987 154.834 25.2001Z" fill="#CACACA"/>
<path d="M97.0121 23.4469C97.8107 23.4469 98.4581 22.7851 98.4581 21.9687C98.4581 21.1523 97.8107 20.4905 97.0121 20.4905C96.2136 20.4905 95.5662 21.1523 95.5662 21.9687C95.5662 22.7851 96.2136 23.4469 97.0121 23.4469Z" fill="#3F3D56"/>
<path d="M102.007 23.4469C102.806 23.4469 103.453 22.7851 103.453 21.9687C103.453 21.1523 102.806 20.4905 102.007 20.4905C101.209 20.4905 100.561 21.1523 100.561 21.9687C100.561 22.7851 101.209 23.4469 102.007 23.4469Z" fill="#3F3D56"/>
<path d="M107.003 23.4469C107.801 23.4469 108.449 22.7851 108.449 21.9687C108.449 21.1523 107.801 20.4905 107.003 20.4905C106.204 20.4905 105.557 21.1523 105.557 21.9687C105.557 22.7851 106.204 23.4469 107.003 23.4469Z" fill="#3F3D56"/>
<path d="M151.826 20.8568H148.278C148.207 20.8582 148.14 20.8871 148.091 20.9374C148.042 20.9876 148.014 21.0551 148.014 21.1255C148.014 21.1958 148.042 21.2634 148.091 21.3136C148.14 21.3639 148.207 21.3928 148.278 21.3942H151.826C151.896 21.3928 151.963 21.3639 152.013 21.3136C152.062 21.2634 152.089 21.1958 152.089 21.1255C152.089 21.0551 152.062 20.9876 152.013 20.9374C151.963 20.8871 151.896 20.8582 151.826 20.8568Z" fill="#3F3D56"/>
<path d="M151.826 21.8654H148.278C148.207 21.8667 148.14 21.8957 148.091 21.9459C148.042 21.9961 148.014 22.0637 148.014 22.134C148.014 22.2044 148.042 22.2719 148.091 22.3222C148.14 22.3724 148.207 22.4013 148.278 22.4027H151.826C151.896 22.4013 151.963 22.3724 152.013 22.3222C152.062 22.2719 152.089 22.2044 152.089 22.134C152.089 22.0637 152.062 21.9961 152.013 21.9459C151.963 21.8957 151.896 21.8667 151.826 21.8654Z" fill="#3F3D56"/>
<path d="M151.826 22.8726H148.278C148.207 22.8739 148.14 22.9029 148.091 22.9531C148.042 23.0033 148.014 23.0709 148.014 23.1412C148.014 23.2116 148.042 23.2791 148.091 23.3294C148.14 23.3796 148.207 23.4085 148.278 23.4099H151.826C151.896 23.4085 151.963 23.3796 152.013 23.3294C152.062 23.2791 152.089 23.2116 152.089 23.1412C152.089 23.0709 152.062 23.0033 152.013 22.9531C151.963 22.9029 151.896 22.8739 151.826 22.8726Z" fill="#3F3D56"/>
<path d="M111.324 39.6146H103.571C102.989 39.6146 102.517 40.0867 102.517 40.669V40.669C102.517 41.2513 102.989 41.7234 103.571 41.7234H111.324C111.906 41.7234 112.378 41.2513 112.378 40.669C112.378 40.0867 111.906 39.6146 111.324 39.6146Z" fill="#E61C5D"/>
<path d="M116.332 43.8322H98.5629C97.9806 43.8322 97.5085 44.3042 97.5085 44.8865C97.5085 45.4689 97.9806 45.9409 98.5629 45.9409H116.332C116.915 45.9409 117.387 45.4689 117.387 44.8865C117.387 44.3042 116.915 43.8322 116.332 43.8322Z" fill="#E6E6E6"/>
<path d="M116.332 48.0498H98.5629C97.9806 48.0498 97.5085 48.5219 97.5085 49.1042V49.1042C97.5085 49.6865 97.9806 50.1586 98.5629 50.1586H116.332C116.915 50.1586 117.387 49.6865 117.387 49.1042C117.387 48.5219 116.915 48.0498 116.332 48.0498Z" fill="#E6E6E6"/>
<path d="M99.1312 63.2593C99.1327 64.1279 98.9779 64.9897 98.6743 65.8035H91.8581C91.5482 65.803 91.2512 65.6797 91.0321 65.4606C90.813 65.2415 90.6897 64.9445 90.6892 64.6347V56.0615C91.0701 55.9999 91.4552 55.969 91.841 55.9691C92.7984 55.9691 93.7464 56.1576 94.6309 56.5239C95.5154 56.8903 96.3191 57.4272 96.9961 58.1042C97.6731 58.7812 98.21 59.5849 98.5764 60.4694C98.9427 61.3539 99.1313 62.3019 99.1312 63.2593Z" fill="#E61C5D"/>
<path opacity="0.2" d="M159.396 34.2178V33.5957H148.969V26.3857H148.349V33.5957H136.398V26.3857H135.779V33.5957H127.886C127.798 33.8022 127.713 34.0088 127.633 34.2178H135.779V46.4118H125.665C125.675 46.6208 125.689 46.8273 125.706 47.0339H135.779V56.7613H128.233C128.326 56.9703 128.423 57.1769 128.525 57.381H135.779V65.5581H136.398V57.381H148.349V65.5581H148.969V57.381H159.396V56.7613H148.969V47.0339H159.396V46.4118H148.969V34.2178H159.396ZM148.349 56.7613H136.398V47.0339H148.349V56.7613ZM148.349 46.4118H136.398V34.2178H148.349V46.4118Z" fill="black"/>
<path d="M151.001 61.1995C150.868 61.2056 150.736 61.1707 150.624 61.0995C150.511 61.0283 150.423 60.9242 150.372 60.8013C150.32 60.6785 150.308 60.5428 150.336 60.4127C150.365 60.2826 150.432 60.1644 150.53 60.074L150.575 59.8971C150.569 59.8829 150.563 59.8688 150.557 59.8546C150.423 59.5381 150.198 59.2683 149.912 59.079C149.625 58.8897 149.288 58.7894 148.945 58.7906C148.601 58.7919 148.265 58.8947 147.98 59.0862C147.694 59.2776 147.472 59.5491 147.34 59.8666C146.814 61.1337 146.144 62.403 145.979 63.7428C145.907 64.335 145.937 64.9353 146.07 65.517C144.834 62.8215 144.193 59.8918 144.188 56.9265C144.188 56.1825 144.229 55.4389 144.312 54.6994C144.381 54.0932 144.475 53.4913 144.597 52.8937C145.259 49.6513 146.681 46.6122 148.746 44.026C149.746 43.4807 150.554 42.6421 151.062 41.6233C151.246 41.2571 151.376 40.8661 151.448 40.4626C151.335 40.4774 151.221 40.4867 151.108 40.4941C151.073 40.4959 151.036 40.4977 151.001 40.4996L150.988 40.5002C150.864 40.5058 150.741 40.4754 150.634 40.4127C150.527 40.3501 150.44 40.2578 150.384 40.1471C150.328 40.0363 150.306 39.9118 150.319 39.7885C150.332 39.6652 150.381 39.5483 150.459 39.452C150.508 39.3921 150.557 39.3322 150.605 39.2724C150.679 39.18 150.755 39.0894 150.829 38.997C150.838 38.9882 150.846 38.979 150.853 38.9693C150.938 38.8639 151.023 38.7604 151.108 38.6551C150.953 38.4142 150.744 38.2124 150.498 38.0655C149.646 37.5665 148.471 37.9121 147.855 38.6828C147.238 39.4535 147.122 40.5347 147.336 41.4976C147.547 42.317 147.895 43.0945 148.367 43.7968C148.321 43.8559 148.273 43.9132 148.227 43.9724C147.382 45.0585 146.646 46.2248 146.029 47.4545C146.179 46.0768 146 44.6833 145.506 43.3884C145.006 42.1816 144.068 41.1652 143.243 40.1219C142.251 38.8688 140.217 39.4157 140.042 41.0042C140.041 41.0196 140.039 41.035 140.037 41.0503C140.16 41.1195 140.28 41.193 140.397 41.2707C140.545 41.3693 140.659 41.5101 140.725 41.6748C140.792 41.8395 140.806 42.0203 140.768 42.1936C140.73 42.3669 140.64 42.5245 140.51 42.6458C140.381 42.7672 140.218 42.8466 140.042 42.8736L140.024 42.8764C140.068 43.3184 140.145 43.7565 140.255 44.1868C140.574 45.3881 141.138 46.5105 141.911 47.4837C142.684 48.4569 143.65 49.2599 144.748 49.8423C144.82 49.8793 144.891 49.9162 144.963 49.9514C144.343 51.7085 143.954 53.5388 143.806 55.3962C143.722 56.492 143.727 57.5929 143.821 58.6879L143.815 58.6491C143.578 57.4314 142.929 56.3327 141.976 55.5385C140.561 54.376 138.561 53.9479 137.035 53.0134C136.872 52.9093 136.684 52.8537 136.491 52.8532C136.298 52.8527 136.109 52.9074 135.946 53.0108C135.784 53.1142 135.654 53.2619 135.572 53.4367C135.491 53.6114 135.461 53.8058 135.486 53.997C135.488 54.0106 135.49 54.0242 135.493 54.0378C135.72 54.1305 135.942 54.2373 136.156 54.3575C136.279 54.4267 136.399 54.5002 136.516 54.5778C136.664 54.6764 136.778 54.8173 136.844 54.982C136.91 55.1467 136.925 55.3275 136.887 55.5008C136.848 55.674 136.759 55.8317 136.629 55.953C136.5 56.0744 136.336 56.1537 136.161 56.1808L136.143 56.1835C136.13 56.1854 136.119 56.1872 136.106 56.1891C136.495 57.1176 137.041 57.9723 137.72 58.7156C138.558 59.6154 139.572 60.3345 140.698 60.8287C141.824 61.3229 143.04 61.5818 144.27 61.5896H144.272C144.605 63.0404 145.089 64.4527 145.715 65.8035H150.872C150.89 65.7462 150.907 65.6871 150.923 65.6298C150.446 65.6598 149.967 65.6312 149.496 65.5448C149.879 65.0753 150.262 64.6022 150.644 64.1327C150.653 64.1239 150.661 64.1147 150.668 64.105C150.862 63.8647 151.058 63.6263 151.252 63.3861L151.252 63.3858C151.263 62.6493 151.178 61.9145 151.001 61.1996L151.001 61.1995ZM145.096 49.5836L145.099 49.5799L145.096 49.5873V49.5836ZM143.954 59.88L143.909 59.7802C143.911 59.7081 143.911 59.636 143.909 59.5621C143.909 59.5418 143.906 59.5214 143.906 59.5011C143.922 59.6286 143.937 59.7562 143.956 59.8837L143.954 59.88Z" fill="#2F2E41"/>
</g>
<defs>
<clipPath id="clip0_111_699">
<rect width="196.866" height="144.657" fill="white" transform="translate(0.409912 0.164307)"/>
</clipPath>
</defs>
</svg>
