<svg width="18" height="18" viewBox="0 0 18 18" fill="none" xmlns="http://www.w3.org/2000/svg">
<path d="M11.7721 9.01773C11.7721 9.5625 11.6105 10.095 11.3079 10.548C11.0052 11.001 10.575 11.354 10.0717 11.5625C9.56843 11.771 9.01461 11.8255 8.4803 11.7192C7.946 11.6129 7.45521 11.3506 7.06999 10.9654C6.68478 10.5802 6.42245 10.0894 6.31617 9.55509C6.20989 9.02078 6.26443 8.46696 6.47291 7.96365C6.68139 7.46035 7.03443 7.03017 7.48739 6.72751C7.94035 6.42485 8.47289 6.2633 9.01766 6.2633C9.74793 6.26414 10.448 6.5546 10.9644 7.07098C11.4808 7.58735 11.7713 8.28746 11.7721 9.01773ZM17.6252 5.2304V12.8051C17.6238 14.083 17.1155 15.3082 16.2118 16.2119C15.3082 17.1155 14.083 17.6238 12.805 17.6253H5.23033C3.95237 17.6238 2.72717 17.1155 1.82351 16.2119C0.919853 15.3082 0.411543 14.083 0.410095 12.8051V5.2304C0.411543 3.95243 0.919853 2.72723 1.82351 1.82357C2.72717 0.919914 3.95237 0.411604 5.23033 0.410156H12.805C14.083 0.411604 15.3082 0.919914 16.2118 1.82357C17.1155 2.72723 17.6238 3.95243 17.6252 5.2304ZM13.1493 9.01773C13.1493 8.20057 12.907 7.40176 12.453 6.72231C11.999 6.04287 11.3537 5.51331 10.5988 5.20059C9.84381 4.88788 9.01308 4.80606 8.21162 4.96548C7.41016 5.1249 6.67398 5.5184 6.09616 6.09622C5.51834 6.67404 5.12484 7.41023 4.96542 8.21168C4.806 9.01314 4.88782 9.84388 5.20053 10.5988C5.51325 11.3538 6.04281 11.9991 6.72225 12.4531C7.4017 12.907 8.2005 13.1494 9.01766 13.1494C10.1131 13.1481 11.1632 12.7124 11.9378 11.9379C12.7124 11.1633 13.1481 10.1131 13.1493 9.01773ZM14.5265 4.54179C14.5265 4.3375 14.4659 4.1378 14.3524 3.96794C14.2389 3.79808 14.0776 3.66568 13.8889 3.58751C13.7001 3.50933 13.4925 3.48887 13.2921 3.52873C13.0917 3.56858 12.9077 3.66696 12.7632 3.81141C12.6188 3.95587 12.5204 4.13991 12.4805 4.34028C12.4407 4.54064 12.4611 4.74833 12.5393 4.93707C12.6175 5.12581 12.7499 5.28712 12.9197 5.40062C13.0896 5.51412 13.2893 5.5747 13.4936 5.5747C13.7675 5.5747 14.0303 5.46587 14.224 5.27217C14.4177 5.07846 14.5265 4.81573 14.5265 4.54179Z" fill="#2C252A"/>
</svg>
