<svg width="127" height="48" viewBox="0 0 127 48" fill="none" xmlns="http://www.w3.org/2000/svg">
<path d="M9.52 40C9.36 40 9.21333 39.96 9.08 39.88C8.94667 39.7733 8.86667 39.64 8.84 39.48L0.92 12.68C0.893333 12.6267 0.88 12.56 0.88 12.48C0.88 12.16 1.06667 12 1.44 12H8.24C8.58667 12 8.8 12.1733 8.88 12.52L12.28 25.56C12.3067 25.64 12.3467 25.6933 12.4 25.72C12.4533 25.72 12.4933 25.6667 12.52 25.56L15.2 12.52C15.28 12.1733 15.5067 12 15.88 12H21.72C22.0667 12 22.28 12.1733 22.36 12.52L25.36 25.56C25.3867 25.6667 25.4267 25.72 25.48 25.72C25.5333 25.72 25.5733 25.6667 25.6 25.56L28.6 12.52C28.68 12.1733 28.8933 12 29.24 12H36.08C36.2933 12 36.44 12.0667 36.52 12.2C36.6267 12.3067 36.6533 12.4667 36.6 12.68L29.48 39.48C29.4 39.8267 29.1867 40 28.84 40H22.44C22.0667 40 21.84 39.8267 21.76 39.48L18.88 25.72C18.8533 25.64 18.8133 25.6 18.76 25.6C18.7067 25.6 18.6667 25.64 18.64 25.72L16.12 39.44C16.04 39.8133 15.8267 40 15.48 40H9.52Z" fill="#E61C5D"/>
<path d="M55.28 28.12C55.36 28.7067 55.4 29.3067 55.4 29.92C55.4 30.3467 55.3867 30.68 55.36 30.92C55.36 31.2933 55.16 31.48 54.76 31.48H42.76C42.6533 31.48 42.6 31.5333 42.6 31.64C42.6 31.88 42.7067 32.16 42.92 32.48C43.1867 32.9333 43.6533 33.32 44.32 33.64C45.0133 33.9333 45.7867 34.08 46.64 34.08C47.36 34.08 48.0267 33.9733 48.64 33.76C49.2533 33.5467 49.7733 33.24 50.2 32.84C50.3333 32.7333 50.4667 32.68 50.6 32.68C50.7867 32.68 50.9333 32.76 51.04 32.92L54.08 36.8C54.1867 36.9333 54.24 37.08 54.24 37.24C54.24 37.4 54.1733 37.5333 54.04 37.64C53.1067 38.5467 51.9467 39.2267 50.56 39.68C49.1733 40.1067 47.68 40.32 46.08 40.32C43.6 40.32 41.48 39.8 39.72 38.76C37.96 37.72 36.68 36.24 35.88 34.32C35.2933 32.9333 35 31.44 35 29.84C35 28.16 35.24 26.6667 35.72 25.36C36.44 23.3333 37.6267 21.7467 39.28 20.6C40.9333 19.4533 42.88 18.88 45.12 18.88C46.8267 18.88 48.4 19.28 49.84 20.08C51.3067 20.88 52.5067 21.9867 53.44 23.4C54.4 24.7867 55.0133 26.36 55.28 28.12ZM45.08 25.32C43.9867 25.32 43.2267 25.8533 42.8 26.92L42.64 27.36C42.6133 27.44 42.6267 27.5067 42.68 27.56C42.7333 27.5867 42.7867 27.6 42.84 27.6H47.4C47.5067 27.6 47.56 27.5467 47.56 27.44C47.56 27.3333 47.52 27.16 47.44 26.92C47.3067 26.4133 47.0267 26.0267 46.6 25.76C46.2 25.4667 45.6933 25.32 45.08 25.32ZM77.4703 24.4C78.057 25.8933 78.3503 27.6 78.3503 29.52C78.3503 31.1733 78.1503 32.6667 77.7503 34C77.1636 35.9467 76.1503 37.4933 74.7103 38.64C73.297 39.76 71.697 40.32 69.9103 40.32C67.8036 40.32 66.257 39.5867 65.2703 38.12C65.217 38.04 65.1636 38.0133 65.1103 38.04C65.057 38.0667 65.0303 38.12 65.0303 38.2V39.4C65.0303 39.5867 64.977 39.7333 64.8703 39.84C64.7636 39.9467 64.617 40 64.4303 40H58.1103C57.9236 40 57.777 39.9467 57.6703 39.84C57.5636 39.7333 57.5103 39.5867 57.5103 39.4V12.6C57.5103 12.4133 57.5636 12.2667 57.6703 12.16C57.777 12.0533 57.9236 12 58.1103 12H64.4303C64.617 12 64.7636 12.0533 64.8703 12.16C64.977 12.2667 65.0303 12.4133 65.0303 12.6V20.64C65.0303 20.72 65.057 20.7733 65.1103 20.8C65.1636 20.8 65.217 20.7733 65.2703 20.72C66.2036 19.4933 67.6436 18.88 69.5903 18.88C71.4836 18.88 73.1103 19.4 74.4703 20.44C75.8303 21.4533 76.8303 22.7733 77.4703 24.4ZM69.8703 32.56C70.2703 31.7867 70.4703 30.8133 70.4703 29.64C70.4703 28.3867 70.2703 27.3867 69.8703 26.64C69.417 25.76 68.7103 25.32 67.7503 25.32C66.8436 25.32 66.1503 25.7333 65.6703 26.56C65.2436 27.3333 65.0303 28.36 65.0303 29.64C65.0303 30.8133 65.2303 31.7733 65.6303 32.52C66.1103 33.4267 66.817 33.88 67.7503 33.88C68.6836 33.88 69.3903 33.44 69.8703 32.56Z" fill="#111122"/>
<path d="M81.1544 40C80.9677 40 80.821 39.9467 80.7144 39.84C80.6077 39.7333 80.5544 39.5867 80.5544 39.4V12.6C80.5544 12.4133 80.6077 12.2667 80.7144 12.16C80.821 12.0533 80.9677 12 81.1544 12H87.4744C87.661 12 87.8077 12.0533 87.9144 12.16C88.021 12.2667 88.0744 12.4133 88.0744 12.6V39.4C88.0744 39.5867 88.021 39.7333 87.9144 39.84C87.8077 39.9467 87.661 40 87.4744 40H81.1544ZM110.671 28.12C110.751 28.7067 110.791 29.3067 110.791 29.92C110.791 30.3467 110.777 30.68 110.751 30.92C110.751 31.2933 110.551 31.48 110.151 31.48H98.1506C98.044 31.48 97.9906 31.5333 97.9906 31.64C97.9906 31.88 98.0973 32.16 98.3106 32.48C98.5773 32.9333 99.044 33.32 99.7106 33.64C100.404 33.9333 101.177 34.08 102.031 34.08C102.751 34.08 103.417 33.9733 104.031 33.76C104.644 33.5467 105.164 33.24 105.591 32.84C105.724 32.7333 105.857 32.68 105.991 32.68C106.177 32.68 106.324 32.76 106.431 32.92L109.471 36.8C109.577 36.9333 109.631 37.08 109.631 37.24C109.631 37.4 109.564 37.5333 109.431 37.64C108.497 38.5467 107.337 39.2267 105.951 39.68C104.564 40.1067 103.071 40.32 101.471 40.32C98.9906 40.32 96.8706 39.8 95.1106 38.76C93.3506 37.72 92.0706 36.24 91.2706 34.32C90.684 32.9333 90.3906 31.44 90.3906 29.84C90.3906 28.16 90.6306 26.6667 91.1106 25.36C91.8306 23.3333 93.0173 21.7467 94.6706 20.6C96.324 19.4533 98.2706 18.88 100.511 18.88C102.217 18.88 103.791 19.28 105.231 20.08C106.697 20.88 107.897 21.9867 108.831 23.4C109.791 24.7867 110.404 26.36 110.671 28.12ZM100.471 25.32C99.3773 25.32 98.6173 25.8533 98.1906 26.92L98.0306 27.36C98.004 27.44 98.0173 27.5067 98.0706 27.56C98.124 27.5867 98.1773 27.6 98.2306 27.6H102.791C102.897 27.6 102.951 27.5467 102.951 27.44C102.951 27.3333 102.911 27.16 102.831 26.92C102.697 26.4133 102.417 26.0267 101.991 25.76C101.591 25.4667 101.084 25.32 100.471 25.32ZM125.795 24.6C125.795 24.7867 125.742 24.9333 125.635 25.04C125.528 25.1467 125.382 25.2 125.195 25.2H121.875C121.742 25.2 121.675 25.2667 121.675 25.4V31.68C121.675 33.0133 122.155 33.68 123.115 33.68H124.595C124.782 33.68 124.928 33.7333 125.035 33.84C125.142 33.9467 125.195 34.0933 125.195 34.28V39.4C125.195 39.7733 124.995 39.9867 124.595 40.04C123.555 40.12 122.555 40.16 121.595 40.16C119.168 40.16 117.382 39.7867 116.235 39.04C115.088 38.2933 114.502 36.88 114.475 34.8V25.4C114.475 25.2667 114.408 25.2 114.275 25.2H112.115C111.928 25.2 111.782 25.1467 111.675 25.04C111.568 24.9333 111.515 24.7867 111.515 24.6V19.8C111.515 19.6133 111.568 19.4667 111.675 19.36C111.782 19.2533 111.928 19.2 112.115 19.2H114.275C114.408 19.2 114.475 19.1333 114.475 19V14.2C114.475 14.0133 114.528 13.8667 114.635 13.76C114.742 13.6533 114.888 13.6 115.075 13.6H121.075C121.262 13.6 121.408 13.6533 121.515 13.76C121.622 13.8667 121.675 14.0133 121.675 14.2V19C121.675 19.1333 121.742 19.2 121.875 19.2H125.195C125.382 19.2 125.528 19.2533 125.635 19.36C125.742 19.4667 125.795 19.6133 125.795 19.8V24.6Z" fill="#112B3C"/>
</svg>
