<svg width="257" height="58" viewBox="0 0 257 58" fill="none" xmlns="http://www.w3.org/2000/svg">
<path d="M17.7759 57.3446C17.4467 57.3446 17.145 57.2627 16.8707 57.0989C16.5964 56.8804 16.4318 56.6073 16.3769 56.2797L0.082296 1.39266C0.027432 1.28343 0 1.14689 0 0.983053C0 0.327684 0.384048 0 1.15214 0H15.1425C15.8557 0 16.2946 0.354991 16.4592 1.06497L23.4543 27.7712C23.5092 27.935 23.5915 28.0443 23.7012 28.0989C23.811 28.0989 23.8933 27.9896 23.9481 27.7712L29.462 1.06497C29.6265 0.354991 30.0929 0 30.861 0H42.8762C43.5894 0 44.0283 0.354991 44.1929 1.06497L50.3651 27.7712C50.42 27.9896 50.5023 28.0989 50.612 28.0989C50.7217 28.0989 50.804 27.9896 50.8589 27.7712L57.0311 1.06497C57.1957 0.354991 57.6346 0 58.3478 0H72.4205C72.8594 0 73.1611 0.136535 73.3257 0.409604C73.5452 0.62806 73.6 0.955745 73.4903 1.39266L58.8416 56.2797C58.677 56.9896 58.2381 57.3446 57.5249 57.3446H44.3575C43.5894 57.3446 43.1231 56.9896 42.9585 56.2797L37.0332 28.0989C36.9783 27.935 36.896 27.8531 36.7863 27.8531C36.6766 27.8531 36.5943 27.935 36.5394 28.0989L31.3548 56.1977C31.1902 56.9623 30.7513 57.3446 30.038 57.3446H17.7759Z" fill="#E61C5D"/>
<path d="M111.923 33.0141C112.087 34.2156 112.169 35.4445 112.169 36.7006C112.169 37.5744 112.142 38.2571 112.087 38.7486C112.087 39.5132 111.676 39.8955 110.853 39.8955H86.1639C85.9444 39.8955 85.8347 40.0047 85.8347 40.2232C85.8347 40.7147 86.0541 41.2881 86.4931 41.9435C87.0417 42.8719 88.0018 43.6638 89.3734 44.3192C90.7999 44.92 92.3909 45.2203 94.1466 45.2203C95.6279 45.2203 96.9995 45.0019 98.2614 44.565C99.5233 44.1281 100.593 43.5 101.471 42.6808C101.745 42.4623 102.02 42.3531 102.294 42.3531C102.678 42.3531 102.98 42.517 103.199 42.8446L109.454 50.791C109.673 51.064 109.783 51.3644 109.783 51.6921C109.783 52.0198 109.646 52.2928 109.371 52.5113C107.451 54.3682 105.065 55.7608 102.212 56.6893C99.3587 57.5631 96.2863 58 92.9944 58C87.8921 58 83.5304 56.935 79.9094 54.8051C76.2884 52.6751 73.6549 49.6441 72.009 45.7119C70.802 42.8719 70.1985 39.8136 70.1985 36.5367C70.1985 33.096 70.6922 30.0377 71.6798 27.3616C73.1611 23.2109 75.6026 19.9614 79.0041 17.613C82.4057 15.2646 86.4108 14.0904 91.0193 14.0904C94.5306 14.0904 97.7676 14.9096 100.73 16.548C103.748 18.1864 106.217 20.4529 108.137 23.3475C110.112 26.1874 111.374 29.4096 111.923 33.0141ZM90.937 27.2797C88.6876 27.2797 87.124 28.3719 86.2462 30.5565L85.917 31.4576C85.8621 31.6215 85.8895 31.758 85.9993 31.8672C86.109 31.9218 86.2187 31.9492 86.3285 31.9492H95.7102C95.9297 31.9492 96.0394 31.8399 96.0394 31.6215C96.0394 31.403 95.9571 31.048 95.7925 30.5565C95.5182 29.5188 94.9421 28.7269 94.0643 28.1808C93.2413 27.58 92.1989 27.2797 90.937 27.2797Z" fill="#112B3C"/>
<path d="M157.577 25.3955C158.784 28.4539 159.387 31.9492 159.387 35.8814C159.387 39.2674 158.976 42.3258 158.153 45.0565C156.946 49.0433 154.861 52.2109 151.898 54.5593C148.991 56.8531 145.699 58 142.023 58C137.689 58 134.507 56.4981 132.477 53.4944C132.367 53.3305 132.257 53.2759 132.147 53.3305C132.038 53.3851 131.983 53.4944 131.983 53.6582V56.1158C131.983 56.4981 131.873 56.7985 131.654 57.017C131.434 57.2354 131.132 57.3446 130.748 57.3446H117.746C117.362 57.3446 117.06 57.2354 116.84 57.017C116.621 56.7985 116.511 56.4981 116.511 56.1158V1.22881C116.511 0.846516 116.621 0.54614 116.84 0.327684C117.06 0.109228 117.362 0 117.746 0H130.748C131.132 0 131.434 0.109228 131.654 0.327684C131.873 0.54614 131.983 0.846516 131.983 1.22881V17.6949C131.983 17.8588 132.038 17.968 132.147 18.0226C132.257 18.0226 132.367 17.968 132.477 17.8588C134.397 15.3465 137.359 14.0904 141.365 14.0904C145.26 14.0904 148.607 15.1554 151.405 17.2853C154.203 19.3606 156.26 22.064 157.577 25.3955ZM141.941 42.1073C142.764 40.5235 143.175 38.5301 143.175 36.1271C143.175 33.5603 142.764 31.5122 141.941 29.9831C141.008 28.1808 139.554 27.2797 137.579 27.2797C135.714 27.2797 134.287 28.1262 133.3 29.8192C132.422 31.403 131.983 33.5057 131.983 36.1271C131.983 38.5301 132.394 40.4962 133.217 42.0254C134.205 43.8823 135.659 44.8107 137.579 44.8107C139.499 44.8107 140.953 43.9096 141.941 42.1073Z" fill="#112B3C"/>
<path d="M165.156 57.3446C164.772 57.3446 164.471 57.2354 164.251 57.017C164.032 56.7985 163.922 56.4981 163.922 56.1158V1.22881C163.922 0.846516 164.032 0.54614 164.251 0.327684C164.471 0.109228 164.772 0 165.156 0H178.159C178.543 0 178.845 0.109228 179.064 0.327684C179.284 0.54614 179.394 0.846516 179.394 1.22881V56.1158C179.394 56.4981 179.284 56.7985 179.064 57.017C178.845 57.2354 178.543 57.3446 178.159 57.3446H165.156Z" fill="#112B3C"/>
<path d="M225.883 33.0141C226.048 34.2156 226.13 35.4445 226.13 36.7006C226.13 37.5744 226.103 38.2571 226.048 38.7486C226.048 39.5132 225.636 39.8955 224.813 39.8955H200.124C199.905 39.8955 199.795 40.0047 199.795 40.2232C199.795 40.7147 200.015 41.2881 200.454 41.9435C201.002 42.8719 201.962 43.6638 203.334 44.3192C204.76 44.92 206.352 45.2203 208.107 45.2203C209.589 45.2203 210.96 45.0019 212.222 44.565C213.484 44.1281 214.554 43.5 215.432 42.6808C215.706 42.4623 215.98 42.3531 216.255 42.3531C216.639 42.3531 216.94 42.517 217.16 42.8446L223.414 50.791C223.634 51.064 223.743 51.3644 223.743 51.6921C223.743 52.0198 223.606 52.2928 223.332 52.5113C221.412 54.3682 219.025 55.7608 216.172 56.6893C213.319 57.5631 210.247 58 206.955 58C201.853 58 197.491 56.935 193.87 54.8051C190.249 52.6751 187.616 49.6441 185.97 45.7119C184.763 42.8719 184.159 39.8136 184.159 36.5367C184.159 33.096 184.653 30.0377 185.64 27.3616C187.122 23.2109 189.563 19.9614 192.965 17.613C196.366 15.2646 200.371 14.0904 204.98 14.0904C208.491 14.0904 211.728 14.9096 214.691 16.548C217.708 18.1864 220.177 20.4529 222.098 23.3475C224.073 26.1874 225.334 29.4096 225.883 33.0141ZM204.898 27.2797C202.648 27.2797 201.085 28.3719 200.207 30.5565L199.878 31.4576C199.823 31.6215 199.85 31.758 199.96 31.8672C200.07 31.9218 200.179 31.9492 200.289 31.9492H209.671C209.89 31.9492 210 31.8399 210 31.6215C210 31.403 209.918 31.048 209.753 30.5565C209.479 29.5188 208.903 28.7269 208.025 28.1808C207.202 27.58 206.16 27.2797 204.898 27.2797Z" fill="#112B3C"/>
<path d="M257 25.8051C257 26.1874 256.89 26.4878 256.671 26.7062C256.451 26.9247 256.15 27.0339 255.766 27.0339H248.935C248.661 27.0339 248.524 27.1704 248.524 27.4435V40.3051C248.524 43.0358 249.511 44.4011 251.486 44.4011H254.531C254.915 44.4011 255.217 44.5104 255.436 44.7288C255.656 44.9473 255.766 45.2477 255.766 45.6299V56.1158C255.766 56.8804 255.354 57.3173 254.531 57.4266C252.391 57.5904 250.334 57.6723 248.359 57.6723C243.366 57.6723 239.69 56.9077 237.331 55.3785C234.972 53.8493 233.765 50.9548 233.71 46.6949V27.4435C233.71 27.1704 233.573 27.0339 233.299 27.0339H228.855C228.471 27.0339 228.169 26.9247 227.95 26.7062C227.73 26.4878 227.62 26.1874 227.62 25.8051V15.9746C227.62 15.5923 227.73 15.2919 227.95 15.0734C228.169 14.855 228.471 14.7458 228.855 14.7458H233.299C233.573 14.7458 233.71 14.6092 233.71 14.3362V4.50565C233.71 4.12335 233.82 3.82298 234.039 3.60452C234.259 3.38607 234.561 3.27684 234.945 3.27684H247.289C247.673 3.27684 247.975 3.38607 248.194 3.60452C248.414 3.82298 248.524 4.12335 248.524 4.50565V14.3362C248.524 14.6092 248.661 14.7458 248.935 14.7458H255.766C256.15 14.7458 256.451 14.855 256.671 15.0734C256.89 15.2919 257 15.5923 257 15.9746V25.8051Z" fill="#112B3C"/>
</svg>
