<svg width="34" height="30" viewBox="0 0 34 30" fill="none" xmlns="http://www.w3.org/2000/svg">
<path d="M33.0318 0C28.2812 0.604775 20.7454 7.33687 14.4668 17.069C13.9814 17.817 13.5199 18.565 13.0822 19.305C13.0822 19.305 13.0822 19.305 13.0743 19.2971C13.0663 19.305 13.0663 19.313 13.0584 19.321C12.0398 18.3024 10.9416 17.2838 9.77984 16.2891C9.23873 15.8276 8.69761 15.382 8.16446 14.9443L0 20.1088C3.7321 21.8594 6.98674 23.9443 9.51724 26.1008C9.51724 26.0928 9.5252 26.0849 9.5252 26.0769C11.0451 27.374 12.3103 28.7029 13.2493 30C13.6631 29.3873 14.0849 28.7745 14.5225 28.1538C15.4775 26.7931 16.4483 25.4881 17.4191 24.2467L17.4271 24.2546C23.9045 15.939 30.3422 10.4483 33.3899 10.679L33.0318 0Z" fill="#112B3C"/>
</svg>
