<svg width="80" height="80" viewBox="0 0 80 80" fill="none" xmlns="http://www.w3.org/2000/svg">
<path d="M42.9409 65.9852C42.648 65.6923 42.1731 65.6923 41.8802 65.9852C41.5874 66.2781 41.5874 66.7529 41.8802 67.0458L42.9409 65.9852ZM61.6945 66.5155L62.2249 67.0458L61.6945 66.5155ZM13.4847 18.3056L14.015 18.836H14.015L13.4847 18.3056ZM12.9543 38.1199C13.2472 38.4128 13.7221 38.4128 14.015 38.1199C14.3079 37.827 14.3079 37.3521 14.015 37.0593L12.9543 38.1199ZM37.5896 13.4847L38.1199 14.015C38.2606 13.8743 38.3396 13.6836 38.3396 13.4847C38.3396 13.2857 38.2606 13.095 38.1199 12.9543L37.5896 13.4847ZM18.3056 13.4847L17.7753 12.9543L17.7753 12.9543L18.3056 13.4847ZM66.5155 42.4106L67.0458 41.8802C66.9052 41.7396 66.7144 41.6606 66.5155 41.6606C66.3166 41.6606 66.1258 41.7396 65.9852 41.8802L66.5155 42.4106ZM66.5155 61.6945L65.9852 61.1642L66.5155 61.6945ZM29.0243 20.9893C28.7314 21.2822 28.7314 21.7571 29.0243 22.05C29.3172 22.3428 29.7921 22.3428 30.0849 22.05L29.0243 20.9893ZM57.9502 49.9152C57.6573 50.2081 57.6573 50.683 57.9502 50.9759C58.2431 51.2688 58.718 51.2688 59.0109 50.9759L57.9502 49.9152ZM17.7753 12.9543L12.9543 17.7753L14.015 18.836L18.836 14.015L17.7753 12.9543ZM62.2249 67.0458L67.0458 62.2249L65.9852 61.1642L61.1642 65.9852L62.2249 67.0458ZM41.8802 67.0458C44.1379 69.3035 45.8833 71.0512 47.4221 72.2252C48.9781 73.4124 50.4106 74.0834 52.0526 74.0834V72.5834C50.8704 72.5834 49.7546 72.1181 48.332 71.0327C46.892 69.934 45.2285 68.2728 42.9409 65.9852L41.8802 67.0458ZM61.1642 65.9852C58.8766 68.2728 57.2131 69.934 55.7732 71.0327C54.3505 72.1181 53.2347 72.5834 52.0526 72.5834V74.0834C53.6945 74.0834 55.127 73.4124 56.683 72.2252C58.2218 71.0512 59.9672 69.3035 62.2249 67.0458L61.1642 65.9852ZM12.9543 17.7753C10.6967 20.033 8.94897 21.7784 7.77496 23.3171C6.58774 24.8732 5.91675 26.3057 5.91675 27.9476H7.41675C7.41675 26.7655 7.88207 25.6496 8.96749 24.227C10.0661 22.7871 11.7274 21.1236 14.015 18.836L12.9543 17.7753ZM14.015 37.0593C11.7274 34.7716 10.0661 33.1081 8.96749 31.6682C7.88207 30.2456 7.41675 29.1297 7.41675 27.9476H5.91675C5.91675 29.5896 6.58774 31.022 7.77496 32.5781C8.94897 34.1168 10.6967 35.8623 12.9543 38.1199L14.015 37.0593ZM38.1199 12.9543C35.8623 10.6967 34.1168 8.94897 32.5781 7.77496C31.0221 6.58774 29.5896 5.91675 27.9476 5.91675V7.41675C29.1297 7.41675 30.2456 7.88207 31.6682 8.96749C33.1081 10.0661 34.7716 11.7274 37.0593 14.015L38.1199 12.9543ZM18.836 14.015C21.1236 11.7274 22.7871 10.0661 24.227 8.96749C25.6496 7.88207 26.7655 7.41675 27.9476 7.41675V5.91675C26.3057 5.91675 24.8732 6.58774 23.3171 7.77496C21.7784 8.94897 20.033 10.6967 17.7753 12.9543L18.836 14.015ZM65.9852 42.9409C68.2728 45.2285 69.9341 46.892 71.0327 48.3319C72.1181 49.7546 72.5834 50.8704 72.5834 52.0525H74.0834C74.0834 50.4106 73.4124 48.9781 72.2252 47.4221C71.0512 45.8833 69.3035 44.1379 67.0458 41.8802L65.9852 42.9409ZM67.0458 62.2249C69.3035 59.9672 71.0512 58.2218 72.2252 56.683C73.4124 55.127 74.0834 53.6945 74.0834 52.0525H72.5834C72.5834 53.2347 72.1181 54.3505 71.0327 55.7731C69.9341 57.2131 68.2728 58.8766 65.9852 61.1642L67.0458 62.2249ZM37.0593 12.9543L29.0243 20.9893L30.0849 22.05L38.1199 14.015L37.0593 12.9543ZM65.9852 41.8802L57.9502 49.9152L59.0109 50.9759L67.0458 42.9409L65.9852 41.8802Z" fill="#1C274C"/>
<path d="M47.867 13.5956L50.9566 10.506C56.0756 5.38699 64.3751 5.38699 69.4942 10.506C74.6132 15.625 74.6132 23.9246 69.4942 29.0436L66.4046 32.1332M47.867 13.5956C47.867 13.5956 48.2532 20.161 54.0462 25.954C59.8392 31.747 66.4046 32.1332 66.4046 32.1332M47.867 13.5956L19.4628 41.9997C17.539 43.9236 16.577 44.8856 15.7497 45.9462C14.7739 47.1974 13.9372 48.5511 13.2546 49.9835C12.6759 51.1978 12.2457 52.4883 11.3853 55.0695L8.63064 63.3334L7.73944 66.007M66.4046 32.1332L38.0004 60.5373C36.0765 62.4612 35.1146 63.4231 34.054 64.2504C32.8028 65.2263 31.4491 66.063 30.0167 66.7456C28.8024 67.3243 27.5118 67.7545 24.9307 68.6149L16.6667 71.3695L13.9932 72.2607M13.9932 72.2607L11.3196 73.1519C10.0493 73.5753 8.64894 73.2447 7.70219 72.298C6.75543 71.3512 6.42484 69.9508 6.84824 68.6806L7.73944 66.007M13.9932 72.2607L7.73944 66.007" stroke="#1C274C" stroke-width="1.5"/>
</svg>
