<svg width="32" height="32" viewBox="0 0 32 32" fill="none" xmlns="http://www.w3.org/2000/svg">
<circle cx="16" cy="16" r="16" fill="#E61C5D"/>
<path d="M11.0575 23.3124C10.2175 23.3124 9.68496 23.0274 9.34746 22.6899C8.68746 22.0299 8.22246 20.6274 9.70746 17.6499L10.36 16.3524C10.4425 16.1799 10.4425 15.8199 10.36 15.6474L9.70746 14.3499C8.21496 11.3724 8.68746 9.96236 9.34746 9.30986C9.99996 8.64986 11.41 8.17736 14.38 9.66986L20.8 12.8799C22.3975 13.6749 23.275 14.7849 23.275 15.9999C23.275 17.2149 22.3975 18.3249 20.8075 19.1199L14.3875 22.3299C12.9325 23.0574 11.8525 23.3124 11.0575 23.3124ZM11.0575 9.81236C10.6525 9.81236 10.3375 9.90986 10.1425 10.1049C9.59496 10.6449 9.81246 12.0474 10.7125 13.8399L11.365 15.1449C11.605 15.6324 11.605 16.3674 11.365 16.8549L10.7125 18.1524C9.81246 19.9524 9.59496 21.3474 10.1425 21.8874C10.6825 22.4349 12.085 22.2174 13.885 21.3174L20.305 18.1074C21.4825 17.5224 22.15 16.7499 22.15 15.9924C22.15 15.2349 21.475 14.4624 20.2975 13.8774L13.8775 10.6749C12.7375 10.1049 11.755 9.81236 11.0575 9.81236Z" fill="white"/>
<path d="M15.1301 16.5625H11.0801C10.7726 16.5625 10.5176 16.3075 10.5176 16C10.5176 15.6925 10.7726 15.4375 11.0801 15.4375H15.1301C15.4376 15.4375 15.6926 15.6925 15.6926 16C15.6926 16.3075 15.4376 16.5625 15.1301 16.5625Z" fill="white"/>
</svg>
