<svg width="80" height="80" viewBox="0 0 80 80" fill="none" xmlns="http://www.w3.org/2000/svg">
<path d="M40 30C34.4772 30 30 25.5228 30 20C30 14.4772 34.4772 10 40 10C45.5228 10 50 14.4772 50 20C50 25.5228 45.5228 30 40 30Z" stroke="#1C274C" stroke-width="1.5"/>
<path d="M18.3333 70C12.8104 70 8.33325 65.5228 8.33325 60C8.33325 54.4772 12.8104 50 18.3333 50C23.8561 50 28.3333 54.4772 28.3333 60C28.3333 65.5228 23.8561 70 18.3333 70Z" stroke="#1C274C" stroke-width="1.5"/>
<path d="M61.6667 70C56.1439 70 51.6667 65.5228 51.6667 60C51.6667 54.4772 56.1439 50 61.6667 50C67.1896 50 71.6667 54.4772 71.6667 60C71.6667 65.5228 67.1896 70 61.6667 70Z" stroke="#1C274C" stroke-width="1.5"/>
<path d="M66.6666 43.3333C66.6666 35.3687 63.1748 28.2196 57.6386 23.3333M13.3333 43.3333C13.3333 35.3687 16.825 28.2196 22.3612 23.3333M33.3333 69.1599C35.4641 69.7083 37.6979 70 39.9999 70C42.3019 70 44.5358 69.7083 46.6666 69.1599" stroke="#1C274C" stroke-width="1.5" stroke-linecap="round"/>
</svg>
