<svg width="18" height="22" viewBox="0 0 18 22" fill="none" xmlns="http://www.w3.org/2000/svg">
<path fill-rule="evenodd" clip-rule="evenodd" d="M8.99989 0.25C6.37654 0.25 4.24989 2.37665 4.24989 5C4.24989 7.62335 6.37654 9.75 8.99989 9.75C11.6232 9.75 13.7499 7.62335 13.7499 5C13.7499 2.37665 11.6232 0.25 8.99989 0.25ZM5.74989 5C5.74989 3.20507 7.20496 1.75 8.99989 1.75C10.7948 1.75 12.2499 3.20507 12.2499 5C12.2499 6.79493 10.7948 8.25 8.99989 8.25C7.20496 8.25 5.74989 6.79493 5.74989 5Z" fill="#112B3C"/>
<path fill-rule="evenodd" clip-rule="evenodd" d="M8.99989 11.25C6.68634 11.25 4.55481 11.7759 2.97534 12.6643C1.41937 13.5396 0.24989 14.8661 0.24989 16.5L0.249824 16.602C0.248694 17.7638 0.247276 19.222 1.5263 20.2635C2.15577 20.7761 3.03637 21.1406 4.2261 21.3815C5.41915 21.6229 6.97412 21.75 8.99989 21.75C11.0257 21.75 12.5806 21.6229 13.7737 21.3815C14.9634 21.1406 15.844 20.7761 16.4735 20.2635C17.7525 19.222 17.7511 17.7638 17.75 16.602L17.7499 16.5C17.7499 14.8661 16.5804 13.5396 15.0244 12.6643C13.445 11.7759 11.3134 11.25 8.99989 11.25ZM1.74989 16.5C1.74989 15.6487 2.37127 14.7251 3.71073 13.9717C5.02669 13.2315 6.89516 12.75 8.99989 12.75C11.1046 12.75 12.9731 13.2315 14.289 13.9717C15.6285 14.7251 16.2499 15.6487 16.2499 16.5C16.2499 17.8078 16.2096 18.544 15.5263 19.1004C15.1558 19.4022 14.5364 19.6967 13.4761 19.9113C12.4192 20.1252 10.9741 20.25 8.99989 20.25C7.02566 20.25 5.58063 20.1252 4.52368 19.9113C3.46341 19.6967 2.84401 19.4022 2.47348 19.1004C1.79021 18.544 1.74989 17.8078 1.74989 16.5Z" fill="#112B3C"/>
</svg>
