<svg width="80" height="80" viewBox="0 0 80 80" fill="none" xmlns="http://www.w3.org/2000/svg">
<path d="M45 51.6666C45 45.3812 45 42.2385 46.9526 40.2859C48.9052 38.3333 52.0479 38.3333 58.3333 38.3333C64.6187 38.3333 67.7614 38.3333 69.714 40.2859C71.6667 42.2385 71.6667 45.3812 71.6667 51.6666V58.3333C71.6667 64.6186 71.6667 67.7613 69.714 69.714C67.7614 71.6666 64.6187 71.6666 58.3333 71.6666C52.0479 71.6666 48.9052 71.6666 46.9526 69.714C45 67.7613 45 64.6186 45 58.3333V51.6666Z" stroke="#1C274C" stroke-width="1.5"/>
<path d="M6.66675 28.3333C6.66675 34.6186 6.66675 37.7613 8.61937 39.714C10.572 41.6666 13.7147 41.6666 20.0001 41.6666C26.2855 41.6666 29.4282 41.6666 31.3808 39.714C33.3334 37.7613 33.3334 34.6186 33.3334 28.3333V21.6666C33.3334 15.3812 33.3334 12.2385 31.3808 10.2859C29.4282 8.33325 26.2855 8.33325 20.0001 8.33325C13.7147 8.33325 10.572 8.33325 8.61937 10.2859C6.66675 12.2385 6.66675 15.3812 6.66675 21.6666V28.3333Z" stroke="#1C274C" stroke-width="1.5"/>
<path d="M45 18.3333C45 15.227 45 13.6738 45.5075 12.4487C46.1841 10.8152 47.4819 9.51735 49.1154 8.84072C50.3406 8.33325 51.8937 8.33325 55 8.33325H61.6667C64.7729 8.33325 66.3261 8.33325 67.5512 8.84072C69.1847 9.51735 70.4826 10.8152 71.1592 12.4487C71.6667 13.6738 71.6667 15.227 71.6667 18.3333C71.6667 21.4395 71.6667 22.9927 71.1592 24.2178C70.4826 25.8513 69.1847 27.1492 67.5512 27.8258C66.3261 28.3333 64.7729 28.3333 61.6667 28.3333H55C51.8937 28.3333 50.3406 28.3333 49.1154 27.8258C47.4819 27.1492 46.1841 25.8513 45.5075 24.2178C45 22.9927 45 21.4395 45 18.3333Z" stroke="#1C274C" stroke-width="1.5"/>
<path d="M6.66675 61.6667C6.66675 64.773 6.66675 66.3262 7.17422 67.5513C7.85084 69.1848 9.14867 70.4827 10.7822 71.1593C12.0073 71.6667 13.5605 71.6667 16.6667 71.6667H23.3334C26.4397 71.6667 27.9928 71.6667 29.218 71.1593C30.8515 70.4827 32.1493 69.1848 32.8259 67.5513C33.3334 66.3262 33.3334 64.773 33.3334 61.6667C33.3334 58.5605 33.3334 57.0073 32.8259 55.7822C32.1493 54.1487 30.8515 52.8508 29.218 52.1742C27.9928 51.6667 26.4397 51.6667 23.3334 51.6667H16.6667C13.5605 51.6667 12.0073 51.6667 10.7822 52.1742C9.14867 52.8508 7.85084 54.1487 7.17422 55.7822C6.66675 57.0073 6.66675 58.5605 6.66675 61.6667Z" stroke="#1C274C" stroke-width="1.5"/>
</svg>
