<svg width="80" height="80" viewBox="0 0 80 80" fill="none" xmlns="http://www.w3.org/2000/svg">
<path d="M6.66675 40.0001C6.66675 24.2866 6.66675 16.4299 11.5483 11.5483C16.4299 6.66675 24.2866 6.66675 40.0001 6.66675C55.7136 6.66675 63.5703 6.66675 68.4519 11.5483C73.3334 16.4299 73.3334 24.2866 73.3334 40.0001C73.3334 55.7136 73.3334 63.5703 68.4519 68.4519C63.5703 73.3334 55.7136 73.3334 40.0001 73.3334C24.2866 73.3334 16.4299 73.3334 11.5483 68.4519C6.66675 63.5703 6.66675 55.7136 6.66675 40.0001Z" stroke="#1C274C" stroke-width="1.5"/>
<path d="M23.3334 20.0001C23.3334 21.841 21.841 23.3334 20.0001 23.3334C18.1591 23.3334 16.6667 21.841 16.6667 20.0001C16.6667 18.1591 18.1591 16.6667 20.0001 16.6667C21.841 16.6667 23.3334 18.1591 23.3334 20.0001Z" fill="#1C274C"/>
<path d="M33.3334 20.0001C33.3334 21.841 31.841 23.3334 30.0001 23.3334C28.1591 23.3334 26.6667 21.841 26.6667 20.0001C26.6667 18.1591 28.1591 16.6667 30.0001 16.6667C31.841 16.6667 33.3334 18.1591 33.3334 20.0001Z" fill="#1C274C"/>
<path d="M43.3334 20.0001C43.3334 21.841 41.841 23.3334 40.0001 23.3334C38.1591 23.3334 36.6667 21.841 36.6667 20.0001C36.6667 18.1591 38.1591 16.6667 40.0001 16.6667C41.841 16.6667 43.3334 18.1591 43.3334 20.0001Z" fill="#1C274C"/>
<path d="M6.66675 31.6667H73.3334" stroke="#1C274C" stroke-width="1.5" stroke-linecap="round"/>
<path d="M30 70L30 33.3333" stroke="#1C274C" stroke-width="1.5" stroke-linecap="round"/>
</svg>
